<?xml version="1.0" encoding="utf-8"?>
<!-- Generator: Adobe Illustrator 22.0.0, SVG Export Plug-In . SVG Version: 6.00 Build 0)  -->
<svg version="1.1" id="Capa_1" xmlns="http://www.w3.org/2000/svg" xmlns:xlink="http://www.w3.org/1999/xlink" x="0px" y="0px"
	 viewBox="0 0 67.830002 67.841003" style="enable-background:new 0 0 67.830002 67.841003;" xml:space="preserve">
<style type="text/css">
	.st0{fill:#FFFFFF;}
	.st1{fill:none;}
	.st2{fill:#757575;}
	.st3{fill:url(#SVGID_1_);}
	.st4{fill:#222222;}
	.st5{fill:url(#SVGID_2_);}
	.st6{fill:url(#SVGID_3_);}
	.st7{fill:url(#SVGID_4_);}
	.st8{fill:url(#SVGID_5_);}
	.st9{fill:url(#SVGID_6_);}
	.st10{fill:url(#SVGID_7_);}
	.st11{fill:url(#SVGID_8_);}
	.st12{fill:#BACECC;}
	.st13{fill:#D0DDDC;}
	.st14{fill:#DAECEF;}
	.st15{fill:#EEF7F9;}
	.st16{fill:#AFD1CF;}
	.st17{fill:#BECECC;}
	.st18{fill:#B8C2E0;}
	.st19{fill:#C1E5DE;}
	.st20{fill:#D5E2E1;}
	.st21{fill:#E8E6F4;}
	.st22{fill:#C7D8D7;}
	.st23{opacity:0.25;fill:#FFFFFF;}
</style>
<g>
	<linearGradient id="SVGID_1_" gradientUnits="userSpaceOnUse" x1="75.070648" y1="58.882896" x2="10.40472" y2="-8.080632">
		<stop  offset="0" style="stop-color:#7A4425"/>
		<stop  offset="0.121076" style="stop-color:#AE8262"/>
		<stop  offset="0.224696" style="stop-color:#D5B08F"/>
		<stop  offset="0.304175" style="stop-color:#EDCCAB"/>
		<stop  offset="0.35" style="stop-color:#F6D7B5"/>
		<stop  offset="0.445859" style="stop-color:#FFE1BF"/>
		<stop  offset="1" style="stop-color:#AB7557"/>
	</linearGradient>
	<polygon class="st3" points="1,1.0014 66.830002,66.840797 66.828598,31.5271 36.2906,1.0002 	"/>
	<g>
		<path class="st4" d="M32.108532,6.061448c0.520996,0.339844,1.268066,0.949219,1.959473,1.639648
			c0.98584,0.983398,1.451172,1.786133,1.541992,2.646484c0.102539,0.69043-0.111328,1.380859-0.710449,1.981445
			c-0.734863,0.736328-1.866699,0.896484-2.964844,0.388672l-0.022461,0.022461
			c0.544434,0.904297,0.794434,2.352539-0.335938,3.486327c-0.655762,0.657227-1.414063,0.895508-2.171875,0.884766
			c-1.019043-0.043945-2.106445-0.676758-3.352539-1.919921c-0.680176-0.678711-1.155762-1.243164-1.438965-1.618164
			L32.108532,6.061448z M26.321911,13.831956c0.158691,0.227539,0.430176,0.520508,0.78125,0.87207
			c1.02002,1.017578,2.334473,1.58203,3.442383,0.470703c1.040039-1.042969,0.574219-2.365234-0.501953-3.439453l-0.816406-0.814453
			L26.321911,13.831956z M29.973278,10.172776l0.895508,0.892578c1.04248,1.041016,2.196777,1.107422,2.931641,0.371094
			c0.893555-0.895508,0.563477-1.924805-0.433594-2.919922c-0.453125-0.452148-0.747559-0.677734-0.94043-0.802734
			L29.973278,10.172776z"/>
		<path class="st4" d="M34.459118,15.914964c0.644531-0.646484,1.1875-1.212891,1.662598-1.755859l0.87207,0.870117
			l-1.040039,1.110351l0.04541,0.044922c0.983887-0.487304,2.04834-0.353515,2.716797,0.314453
			c0.113281,0.113281,0.180664,0.203125,0.249512,0.316406l-0.938477,0.94043
			c-0.07959-0.124023-0.169922-0.237305-0.306152-0.374023c-0.702148-0.700195-1.73291-0.665039-2.614746-0.052734
			c-0.158203,0.113281-0.339355,0.25-0.508789,0.419922l-2.916992,2.922852l-0.98584-0.983398L34.459118,15.914964z"/>
		<path class="st4" d="M42.028942,25.434494c-2.023926,2.029297-4.311035,1.510742-5.63623,0.1875
			c-1.484375-1.480469-1.543457-3.710938,0.186523-5.444336c1.831055-1.834961,4.106445-1.713867,5.625-0.198242
			C43.77943,21.550705,43.702282,23.757736,42.028942,25.434494z M37.621227,21.150314
			c-1.198242,1.201172-1.411133,2.796875-0.437012,3.769531c0.952148,0.950195,2.559082,0.766602,3.791504-0.46875
			c0.926758-0.928711,1.637695-2.571289,0.459473-3.74707C40.256481,19.528244,38.661266,20.108322,37.621227,21.150314z"/>
		<path class="st4" d="M44.494274,25.47551c0.564941-0.567383,1.017578-1.042969,1.435547-1.529297l0.883789,0.880859
			l-0.847168,0.962891l0.022461,0.023438c0.791992-0.250977,1.935059-0.126953,2.841309,0.777344
			c0.759766,0.757813,1.485352,2.386719-0.391113,4.267578l-3.267578,3.274414l-0.99707-0.995117l3.154297-3.161133
			c0.881836-0.883789,1.288086-1.948242,0.347656-2.886719c-0.657227-0.655273-1.630859-0.700195-2.35498-0.314453
			c-0.169434,0.079102-0.361816,0.227539-0.53125,0.397461l-3.290039,3.296875l-0.99707-0.995117L44.494274,25.47551z"/>
		<path class="st4" d="M50.901989,39.44426c-0.396484-0.125-1.166504-0.508789-1.90332-1.244141
			c-1.654297-1.650391-1.599609-3.857422,0.07373-5.53418c1.68457-1.688477,4.060547-1.758789,5.851074,0.027344
			c0.588867,0.587891,0.963379,1.254883,1.099609,1.663086l-0.995117,0.542969
			c-0.102051-0.373047-0.352051-0.871094-0.895996-1.413086c-1.257813-1.254883-2.864258-1.003906-4.006348,0.140625
			c-1.266113,1.268555-1.230957,2.864258-0.143066,3.950195c0.566895,0.56543,1.087402,0.791016,1.495605,0.949219
			L50.901989,39.44426z"/>
		<path class="st4" d="M54.905895,38.735275c-1.322754,1.371094-1.015625,2.785156-0.018555,3.78125
			c0.713867,0.710938,1.269043,1.016602,1.80127,1.230469l-0.542969,0.883789
			c-0.509277-0.192383-1.301758-0.598633-2.174316-1.46875c-1.688477-1.68457-1.577148-3.8125,0.073242-5.466797
			c1.650879-1.654297,3.925293-1.985352,5.522949-0.391602c1.790039,1.786133,0.694336,3.835938-0.311523,4.844727
			c-0.203613,0.204102-0.384277,0.34082-0.497559,0.430664L54.905895,38.735275z M58.541637,40.9384
			c0.644531-0.623047,1.355957-1.880859,0.234375-3c-1.008301-1.005859-2.377441-0.517578-3.146484,0.09375L58.541637,40.9384z"/>
	</g>
</g>
</svg>
