<?xml version="1.0" encoding="utf-8"?>
<!-- Generator: Adobe Illustrator 22.0.0, SVG Export Plug-In . SVG Version: 6.00 Build 0)  -->
<svg version="1.1" id="Capa_1" xmlns="http://www.w3.org/2000/svg" xmlns:xlink="http://www.w3.org/1999/xlink" x="0px" y="0px"
	 viewBox="0 0 80.234001 80.245003" style="enable-background:new 0 0 80.234001 80.245003;" xml:space="preserve">
<style type="text/css">
	.st0{fill:#FFFFFF;}
	.st1{fill:none;}
	.st2{fill:#757575;}
	.st3{fill:url(#SVGID_1_);}
	.st4{fill:#222222;}
	.st5{fill:url(#SVGID_2_);}
	.st6{fill:url(#SVGID_3_);}
	.st7{fill:url(#SVGID_4_);}
	.st8{fill:url(#SVGID_5_);}
	.st9{fill:url(#SVGID_6_);}
	.st10{fill:url(#SVGID_7_);}
	.st11{fill:url(#SVGID_8_);}
	.st12{fill:#BACECC;}
	.st13{fill:#D0DDDC;}
	.st14{fill:#DAECEF;}
	.st15{fill:#EEF7F9;}
	.st16{fill:#AFD1CF;}
	.st17{fill:#BECECC;}
	.st18{fill:#B8C2E0;}
	.st19{fill:#C1E5DE;}
	.st20{fill:#D5E2E1;}
	.st21{fill:#E8E6F4;}
	.st22{fill:#C7D8D7;}
	.st23{opacity:0.25;fill:#FFFFFF;}
</style>
<g>
	<g>
		<polygon class="st12" points="79.236038,79.239853 79.236656,61.594051 63.390343,63.404049 		"/>
		<polygon class="st13" points="79.229942,43.931049 63.390343,63.404049 79.236656,61.594051 		"/>
		<polygon class="st14" points="48.939941,31.29735 79.229942,43.931049 63.390343,63.404049 		"/>
		<path class="st15" d="M40.111942,40.119751c-0.019501-0.117599,8.827999-8.822401,8.827999-8.822401l14.450401,32.106697
			L40.111942,40.119751z"/>
		<polygon class="st16" points="0.997343,1.00125 79.23114,79.244751 79.229942,43.931049 36.287441,1.00025 		"/>
		<polygon class="st17" points="0.997343,1.00125 18.643244,1.00065 16.833242,16.846951 		"/>
		<polygon class="st18" points="36.287441,1.00025 48.939941,31.29735 79.229942,43.931049 		"/>
		<polygon class="st19" points="16.839043,16.84115 48.939941,31.29735 63.390343,63.404049 		"/>
		<polygon class="st20" points="18.643244,1.00065 36.287441,1.00025 16.833242,16.846951 		"/>
		<polygon class="st20" points="79.236656,61.594051 79.229942,43.931049 63.390343,63.404049 		"/>
		<polygon class="st21" points="36.287441,1.00025 16.833242,16.846951 48.939941,31.29735 		"/>
		<polygon class="st22" points="57.761543,22.462749 48.939941,31.29735 36.287441,1.00025 		"/>
		<polygon class="st21" points="63.390343,63.404049 79.236656,61.594051 79.236038,79.239853 		"/>
	</g>
	<polygon class="st23" points="1.000101,1.00125 36.290199,1.00025 79.232697,43.931049 79.233902,79.244751 	"/>
	<g>
		<path class="st4" d="M31.499008,5.536397c0.690918,0.509766,1.472168,1.15332,2.253906,1.933594
			c1.416504,1.413086,2.097168,2.748047,2.144043,4.038086c0.057617,1.301758-0.427734,2.581055-1.659668,3.81543
			c-1.243652,1.246095-2.645996,1.881837-4.061035,1.873048c-1.42627,0.000977-2.989258-0.789063-4.473633-2.269532
			c-0.702637-0.701172-1.257324-1.324219-1.699219-1.878906L31.499008,5.536397z M25.746078,13.272725
			c0.20459,0.294922,0.555664,0.667969,0.940918,1.052734c2.107422,2.10254,4.427734,2.066407,6.485352,0.003906
			c1.809082-1.791016,1.931152-3.952148-0.153809-6.033203c-0.510254-0.507813-0.940918-0.847656-1.257813-1.050781
			L25.746078,13.272725z"/>
		<path class="st4" d="M31.489243,20.563742l5.472168-5.483399l0.997559,0.995118l-5.472168,5.484375L31.489243,20.563742z
			 M39.60936,14.647725c-0.327637,0.350586-0.848633,0.374023-1.245117-0.021484
			c-0.351074-0.350586-0.329102-0.871094,0.009766-1.210938c0.351074-0.351563,0.882813-0.363281,1.245117-0.001953
			C39.993149,13.786397,39.960434,14.296163,39.60936,14.647725z"/>
		<path class="st4" d="M39.304184,25.738546c-0.474609,0.475586-0.916016,0.961914-1.221191,1.405273l-0.906738-0.905273
			l0.61084-0.770508l-0.033691-0.033203c-0.73584,0.125-1.709961-0.077148-2.491699-0.857422
			c-1.110352-1.107422-0.896484-2.455078-0.10498-3.248047c1.322754-1.326172,3.224121-0.875,5.33252,1.25l0.112793-0.113281
			c0.452637-0.453125,1.141113-1.393555,0.019531-2.512695c-0.509766-0.508789-1.200684-0.881836-1.834473-1.016602
			l0.429199-0.882813c0.746582,0.157227,1.59668,0.619141,2.288086,1.30957c1.676758,1.672852,0.942871,3.225586-0.153809,4.324219
			L39.304184,25.738546z M39.821762,23.292257c-1.064941-1.107422-2.492188-2.146484-3.554688-1.082031
			c-0.64502,0.646484-0.519531,1.381836-0.009766,1.890625c0.713867,0.711914,1.619141,0.710938,2.241699,0.404297
			c0.135742-0.067383,0.271484-0.158203,0.373047-0.259766L39.821762,23.292257z"/>
		<path class="st4" d="M43.590317,24.656515c0.564941-0.567383,1.017578-1.042969,1.435547-1.530273l0.872559,0.871094
			l-0.836426,0.928711l0.03418,0.03418c0.825684-0.216797,1.821777-0.195313,2.728027,0.708984
			c0.748047,0.74707,0.862305,1.765625,0.455566,2.648438l0.022461,0.023438c0.476074-0.136719,0.928223-0.160156,1.324219-0.103516
			c0.577148,0.078125,1.076172,0.304688,1.597656,0.824219c0.725098,0.723633,1.326172,2.273438-0.573242,4.176756
			l-3.222168,3.229492l-0.974121-0.972656l3.097656-3.103516c1.051758-1.054686,1.298828-2.07324,0.494629-2.874998
			c-0.566406-0.566406-1.426758-0.587891-2.083008-0.270508c-0.181152,0.09082-0.395508,0.239258-0.57666,0.418945
			l-3.380371,3.38867l-0.974609-0.972656l3.278809-3.286131c0.870605-0.87207,1.118164-1.890625,0.359375-2.647461
			c-0.623535-0.623047-1.574219-0.576172-2.22998-0.236328c-0.203613,0.09082-0.395508,0.238281-0.56543,0.408203l-3.30127,3.308594
			l-0.974609-0.972656L43.590317,24.656515z"/>
		<path class="st4" d="M54.208969,40.610615c-0.474609,0.475586-0.916016,0.962891-1.220703,1.404297l-0.906738-0.904297
			l0.61084-0.770508l-0.033691-0.03418c-0.73584,0.125977-1.709961-0.076172-2.491699-0.856445
			c-1.11084-1.108398-0.896973-2.455078-0.105469-3.249023c1.322754-1.325195,3.224609-0.875,5.33252,1.250977l0.112793-0.113281
			c0.452637-0.454102,1.141602-1.393555,0.02002-2.512695c-0.509766-0.508789-1.200684-0.880859-1.834961-1.017578
			l0.429688-0.882813c0.746582,0.158203,1.59668,0.621094,2.287598,1.310547c1.677246,1.673828,0.942871,3.224609-0.153809,4.324219
			L54.208969,40.610615z M54.726547,38.165302c-1.064453-1.108398-2.492188-2.147461-3.554688-1.082031
			c-0.64502,0.645508-0.519531,1.380859-0.009277,1.888672c0.713379,0.712891,1.618652,0.711914,2.241211,0.40625
			c0.135742-0.068359,0.271484-0.15918,0.373047-0.261719L54.726547,38.165302z"/>
		<path class="st4" d="M58.49559,39.528584c0.564941-0.567383,1.01709-1.042969,1.435547-1.529297l0.883789,0.880859
			l-0.847656,0.962891l0.022461,0.023438c0.791992-0.25,1.935547-0.126953,2.841797,0.777344
			c0.759277,0.757813,1.484863,2.386719-0.391602,4.267578l-3.267578,3.274414l-0.99707-0.995117l3.154297-3.161133
			c0.881836-0.883789,1.288574-1.948242,0.347656-2.886719c-0.657227-0.655273-1.630371-0.700195-2.354492-0.313477
			c-0.169434,0.078125-0.361816,0.226563-0.53125,0.396484l-3.290039,3.296875l-0.99707-0.995117L58.49559,39.528584z"/>
		<path class="st4" d="M68.729477,44.155537l-1.311523,1.314453l1.427734,1.423828l-0.757324,0.758789l-1.427734-1.424805
			l-2.951172,2.958008c-0.678223,0.679688-0.870117,1.256836-0.314941,1.811523
			c0.271973,0.271484,0.453613,0.40625,0.645996,0.507813l-0.700684,0.792969
			c-0.271973-0.113281-0.645996-0.349609-1.03125-0.734375c-0.464844-0.462891-0.680176-0.994141-0.646484-1.503906
			c0.010742-0.577148,0.39502-1.166992,1.039551-1.8125l2.984863-2.992188l-0.850098-0.847656l0.757324-0.757813l0.850098,0.847656
			l1.006348-1.009766L68.729477,44.155537z"/>
		<path class="st4" d="M67.536118,51.420185c-1.322754,1.37207-1.015625,2.786133-0.018555,3.78125
			c0.713867,0.711914,1.269043,1.016602,1.80127,1.231445l-0.542969,0.882813
			c-0.509277-0.191406-1.301758-0.597656-2.174316-1.46875c-1.688477-1.683594-1.577148-3.8125,0.073242-5.466797
			c1.650879-1.654297,3.925293-1.984375,5.522949-0.390625c1.790039,1.785156,0.694336,3.835938-0.311523,4.84375
			c-0.203613,0.205078-0.384277,0.34082-0.497559,0.431641L67.536118,51.420185z M71.17186,53.624287
			c0.644531-0.624023,1.355957-1.880859,0.234375-3c-1.008301-1.006836-2.377441-0.517578-3.146484,0.09375L71.17186,53.624287z"/>
	</g>
</g>
</svg>
