<?xml version="1.0" encoding="utf-8"?>
<!-- Generator: Adobe Illustrator 22.0.0, SVG Export Plug-In . SVG Version: 6.00 Build 0)  -->
<svg version="1.1" id="Capa_1" xmlns="http://www.w3.org/2000/svg" xmlns:xlink="http://www.w3.org/1999/xlink" x="0px" y="0px"
	 viewBox="0 0 54.919052 54.917" style="enable-background:new 0 0 54.919052 54.917;" xml:space="preserve">
<style type="text/css">
	.st0{fill:#FFFFFF;}
	.st1{fill:none;}
	.st2{fill:#757575;}
	.st3{fill:url(#SVGID_1_);}
	.st4{fill:#222222;}
	.st5{fill:url(#SVGID_2_);}
	.st6{fill:url(#SVGID_3_);}
	.st7{fill:url(#SVGID_4_);}
	.st8{fill:url(#SVGID_5_);}
	.st9{fill:url(#SVGID_6_);}
	.st10{fill:url(#SVGID_7_);}
	.st11{fill:url(#SVGID_8_);}
	.st12{fill:#BACECC;}
	.st13{fill:#D0DDDC;}
	.st14{fill:#DAECEF;}
	.st15{fill:#EEF7F9;}
	.st16{fill:#AFD1CF;}
	.st17{fill:#BECECC;}
	.st18{fill:#B8C2E0;}
	.st19{fill:#C1E5DE;}
	.st20{fill:#D5E2E1;}
	.st21{fill:#E8E6F4;}
	.st22{fill:#C7D8D7;}
	.st23{opacity:0.25;fill:#FFFFFF;}
</style>
<g>
	<linearGradient id="SVGID_1_" gradientUnits="userSpaceOnUse" x1="62.273418" y1="45.853191" x2="10.291028" y2="-7.97615">
		<stop  offset="0" style="stop-color:#C58511"/>
		<stop  offset="0.146231" style="stop-color:#DAAB4C"/>
		<stop  offset="0.275" style="stop-color:#EECF83"/>
		<stop  offset="0.464888" style="stop-color:#F2D78F"/>
		<stop  offset="0.536178" style="stop-color:#ECCC7F"/>
		<stop  offset="0.851378" style="stop-color:#D4A03E"/>
		<stop  offset="1" style="stop-color:#CA8F25"/>
	</linearGradient>
	<polygon class="st3" points="1.000923,0.9952 53.918129,53.921799 53.918129,18.609501 36.292721,0.9952 	"/>
	<g>
		<path class="st4" d="M35.533264,16.719076c-2.622559,2.628906-5.611326,2.428711-7.560057,0.484375
			c-2.01709-2.012694-1.873047-4.989257,0.433105-7.301757c2.419434-2.423829,5.509764-2.50586,7.549314-0.470703
			C38.0401,11.510093,37.794495,14.452476,35.533264,16.719076z M29.482973,10.930991
			c-1.62793,1.631836-2.202637,3.975586-0.650391,5.524413c1.563965,1.55957,3.883299,1.00293,5.613279-0.731444
			c1.514648-1.517578,2.304688-3.895508,0.661621-5.535156C33.475647,8.561851,31.156313,9.254233,29.482973,10.930991z"/>
		<path class="st4" d="M36.651917,18.084311c0.644531-0.645508,1.1875-1.211914,1.662109-1.755859l0.872559,0.870117
			l-1.040039,1.110352l0.04541,0.045898c0.983887-0.488281,2.04834-0.353516,2.716797,0.3125
			c0.113281,0.113281,0.181152,0.205078,0.249512,0.317383l-0.938477,0.94043
			c-0.07959-0.124023-0.169922-0.237305-0.306152-0.373047c-0.702148-0.701172-1.732422-0.666016-2.614746-0.054688
			c-0.158203,0.114258-0.339355,0.25-0.508789,0.419922l-2.916992,2.923828l-0.98584-0.984375L36.651917,18.084311z"/>
		<path class="st4" d="M44.222229,27.604818c-2.023926,2.02832-4.311035,1.509766-5.636719,0.1875
			c-1.483887-1.480469-1.542969-3.710938,0.187012-5.444336c1.831055-1.834961,4.106445-1.713867,5.625-0.199219
			C45.972717,23.720053,45.895569,25.927084,44.222229,27.604818z M39.814514,23.319662
			c-1.198242,1.201172-1.411133,2.796875-0.437012,3.769531c0.952148,0.950195,2.558594,0.766602,3.791016-0.46875
			c0.926758-0.928711,1.638184-2.570313,0.459961-3.746094C42.449768,21.698568,40.854553,22.27767,39.814514,23.319662z"/>
	</g>
</g>
</svg>
