<?xml version="1.0" encoding="utf-8"?>
<!-- Generator: Adobe Illustrator 22.0.0, SVG Export Plug-In . SVG Version: 6.00 Build 0)  -->
<svg version="1.1" id="Capa_1" xmlns="http://www.w3.org/2000/svg" xmlns:xlink="http://www.w3.org/1999/xlink" x="0px" y="0px"
	 viewBox="0 0 70.688004 70.697998" style="enable-background:new 0 0 70.688004 70.697998;" xml:space="preserve">
<style type="text/css">
	.st0{fill:#FFFFFF;}
	.st1{fill:none;}
	.st2{fill:#757575;}
	.st3{fill:url(#SVGID_1_);}
	.st4{fill:#222222;}
	.st5{fill:url(#SVGID_2_);}
	.st6{fill:url(#SVGID_3_);}
	.st7{fill:url(#SVGID_4_);}
	.st8{fill:url(#SVGID_5_);}
	.st9{fill:url(#SVGID_6_);}
	.st10{fill:url(#SVGID_7_);}
	.st11{fill:url(#SVGID_8_);}
	.st12{fill:#BACECC;}
	.st13{fill:#D0DDDC;}
	.st14{fill:#DAECEF;}
	.st15{fill:#EEF7F9;}
	.st16{fill:#AFD1CF;}
	.st17{fill:#BECECC;}
	.st18{fill:#B8C2E0;}
	.st19{fill:#C1E5DE;}
	.st20{fill:#D5E2E1;}
	.st21{fill:#E8E6F4;}
	.st22{fill:#C7D8D7;}
	.st23{opacity:0.25;fill:#FFFFFF;}
</style>
<g>
	<linearGradient id="SVGID_1_" gradientUnits="userSpaceOnUse" x1="77.903313" y1="61.76421" x2="10.430182" y2="-8.106264">
		<stop  offset="0" style="stop-color:#8C98B3"/>
		<stop  offset="0.216381" style="stop-color:#BDC6D9"/>
		<stop  offset="0.320106" style="stop-color:#D6DDED"/>
		<stop  offset="0.519404" style="stop-color:#D6DDED"/>
		<stop  offset="0.605662" style="stop-color:#CFD6E7"/>
		<stop  offset="0.735143" style="stop-color:#BAC3D7"/>
		<stop  offset="0.890949" style="stop-color:#99A4BD"/>
		<stop  offset="1" style="stop-color:#7D8BA8"/>
	</linearGradient>
	<polygon class="st3" points="1.000111,1.00025 69.687889,69.697746 69.687889,34.38525 36.291191,1.00025 	"/>
	<g>
		<path class="st4" d="M34.048923,7.981647c0.554688,0.395508,1.245605,0.949219,2.038574,1.741211
			c0.974609,0.97168,1.462891,1.910156,1.508789,2.770508c0.057129,0.78125-0.247559,1.584961-0.925293,2.264648
			c-0.689941,0.691406-1.436523,1.032227-2.217773,1.043945c-1.074707,0.035156-2.20752-0.530273-3.17041-1.491211
			c-0.294434-0.292969-0.555176-0.576172-0.725586-0.859375l-3.052734,3.05957l-0.985352-0.983398L34.048923,7.981647z
			 M31.35947,12.646687c0.15918,0.273438,0.40918,0.566406,0.737793,0.894531c1.189453,1.1875,2.491211,1.332031,3.541992,0.279297
			c1.006836-1.008789,0.778809-2.208984-0.309082-3.293945c-0.430176-0.428711-0.792969-0.723633-1.008301-0.848633
			L31.35947,12.646687z"/>
		<path class="st4" d="M40.481541,13.404499l0.99707,0.995117l-8.027344,8.044922l-0.99707-0.995117L40.481541,13.404499z"/>
		<path class="st4" d="M40.291111,26.646687c-0.474609,0.475586-0.916016,0.962891-1.221191,1.404297l-0.90625-0.904297
			l0.61084-0.770508l-0.03418-0.03418c-0.73584,0.125-1.709473-0.076172-2.491699-0.857422
			c-1.110352-1.107422-0.896484-2.455078-0.10498-3.248047c1.322754-1.326172,3.224609-0.875,5.33252,1.25l0.112793-0.113281
			c0.452637-0.453125,1.141602-1.392578,0.019531-2.511719c-0.509766-0.508789-1.200684-0.881836-1.834473-1.017578
			l0.429199-0.882813c0.746582,0.158203,1.59668,0.621094,2.288086,1.310547c1.677246,1.672852,0.942871,3.224609-0.153809,4.324219
			L40.291111,26.646687z M40.808689,24.200397c-1.064941-1.107422-2.492188-2.147461-3.554688-1.082031
			c-0.64502,0.645508-0.519531,1.381836-0.009766,1.889648c0.713867,0.712891,1.619141,0.710938,2.241699,0.40625
			c0.135742-0.068359,0.271484-0.160156,0.373047-0.261719L40.808689,24.200397z"/>
		<path class="st4" d="M48.525486,23.918171l-1.311523,1.314453l1.427734,1.424805l-0.757324,0.758789l-1.427734-1.423828
			l-2.951172,2.957031c-0.678223,0.679688-0.870117,1.257813-0.314941,1.811523
			c0.271973,0.270508,0.453613,0.407227,0.645996,0.508789l-0.700684,0.791992
			c-0.271973-0.112305-0.645996-0.348633-1.03125-0.733398c-0.464844-0.463867-0.680176-0.996094-0.646973-1.504883
			c0.01123-0.577148,0.395508-1.166992,1.040039-1.8125l2.984863-2.991211l-0.850098-0.847656l0.757324-0.759766l0.850098,0.848633
			l1.006348-1.008789L48.525486,23.918171z"/>
		<path class="st4" d="M44.289646,33.258991l5.472168-5.483398l0.997559,0.994141l-5.472168,5.484375L44.289646,33.258991z
			 M52.409763,27.341999c-0.328125,0.351563-0.848633,0.375-1.245117-0.021484
			c-0.351074-0.349609-0.329102-0.871094,0.009766-1.210938c0.351074-0.351563,0.882324-0.363281,1.245117-0.000977
			C52.793552,26.481647,52.760838,26.990437,52.409763,27.341999z"/>
		<path class="st4" d="M50.931248,31.904499c0.564941-0.567383,1.017578-1.042969,1.436035-1.529297l0.883789,0.880859
			l-0.847656,0.962891l0.022461,0.022461c0.791992-0.25,1.935547-0.125977,2.841797,0.77832
			c0.759277,0.757813,1.484863,2.386719-0.391602,4.267578l-3.267578,3.274414l-0.99707-0.995117l3.154297-3.161133
			c0.881836-0.883789,1.288086-1.948242,0.347656-2.886719c-0.657227-0.655273-1.630371-0.700195-2.35498-0.314453
			c-0.168945,0.079102-0.361328,0.227539-0.530762,0.397461l-3.290039,3.296875l-0.997559-0.995117L50.931248,31.904499z"/>
		<path class="st4" d="M60.97031,44.340046c-2.023926,2.029297-4.311035,1.509766-5.63623,0.1875
			c-1.484375-1.480469-1.543457-3.710938,0.186523-5.444336c1.831055-1.834961,4.106445-1.713867,5.625-0.198242
			C62.720798,40.45528,62.64365,42.663288,60.97031,44.340046z M56.562595,40.05489
			c-1.198242,1.201172-1.411133,2.797852-0.437012,3.769531c0.952148,0.950195,2.559082,0.767578,3.791504-0.467773
			c0.926758-0.928711,1.637695-2.571289,0.459473-3.74707C59.197849,38.433796,57.602634,39.012897,56.562595,40.05489z"/>
	</g>
</g>
</svg>
