<?xml version="1.0" encoding="utf-8"?>
<!-- Generator: Adobe Illustrator 22.0.0, SVG Export Plug-In . SVG Version: 6.00 Build 0)  -->
<svg version="1.1" id="Capa_1" xmlns="http://www.w3.org/2000/svg" xmlns:xlink="http://www.w3.org/1999/xlink" x="0px" y="0px"
	 viewBox="0 0 59.345001 59.354" style="enable-background:new 0 0 59.345001 59.354;" xml:space="preserve">
<style type="text/css">
	.st0{fill:#FFFFFF;}
	.st1{fill:none;}
	.st2{fill:#757575;}
	.st3{fill:url(#SVGID_1_);}
	.st4{fill:#222222;}
	.st5{fill:url(#SVGID_2_);}
	.st6{fill:url(#SVGID_3_);}
	.st7{fill:url(#SVGID_4_);}
	.st8{fill:url(#SVGID_5_);}
	.st9{fill:url(#SVGID_6_);}
	.st10{fill:url(#SVGID_7_);}
	.st11{fill:url(#SVGID_8_);}
	.st12{fill:#BACECC;}
	.st13{fill:#D0DDDC;}
	.st14{fill:#DAECEF;}
	.st15{fill:#EEF7F9;}
	.st16{fill:#AFD1CF;}
	.st17{fill:#BECECC;}
	.st18{fill:#B8C2E0;}
	.st19{fill:#C1E5DE;}
	.st20{fill:#D5E2E1;}
	.st21{fill:#E8E6F4;}
	.st22{fill:#C7D8D7;}
	.st23{opacity:0.25;fill:#FFFFFF;}
</style>
<g>
	<linearGradient id="SVGID_1_" gradientUnits="userSpaceOnUse" x1="66.660828" y1="50.323551" x2="10.32955" y2="-8.009195">
		<stop  offset="0" style="stop-color:#494949"/>
		<stop  offset="0.255" style="stop-color:#CCCCCC"/>
		<stop  offset="0.480859" style="stop-color:#D9D9D9"/>
		<stop  offset="1" style="stop-color:#7A7A7A"/>
	</linearGradient>
	<polygon class="st3" points="1.000151,1.0001 58.344849,58.354198 58.343948,23.041 36.291771,0.9998 	"/>
	<g>
		<path class="st4" d="M32.638817,6.562088c0.554688,0.395508,1.245605,0.949219,2.038574,1.741211
			c0.974609,0.97168,1.462891,1.910156,1.508789,2.770508c0.057129,0.78125-0.247559,1.584961-0.925293,2.264648
			c-0.689941,0.691406-1.436523,1.032227-2.217773,1.043945c-1.074707,0.035156-2.20752-0.530273-3.17041-1.491211
			c-0.294434-0.292969-0.555176-0.576172-0.725586-0.859375l-3.052734,3.05957l-0.985352-0.983398L32.638817,6.562088z
			 M29.949364,11.227128c0.15918,0.273438,0.40918,0.566406,0.737793,0.894531c1.189453,1.1875,2.491211,1.332031,3.541992,0.279297
			c1.006836-1.008789,0.778809-2.208984-0.309082-3.293945c-0.430176-0.428711-0.792969-0.723633-1.008301-0.848633
			L29.949364,11.227128z"/>
		<path class="st4" d="M39.071434,11.984941l0.99707,0.995117l-8.027344,8.044921l-0.99707-0.995117L39.071434,11.984941z"/>
		<path class="st4" d="M38.881004,25.227127c-0.474609,0.475586-0.916016,0.962891-1.221191,1.404297l-0.90625-0.904297
			l0.61084-0.770508l-0.03418-0.03418c-0.73584,0.125-1.709473-0.076172-2.491699-0.857422
			c-1.110352-1.107422-0.896484-2.455078-0.10498-3.248047c1.322754-1.326172,3.224609-0.875,5.33252,1.25l0.112793-0.113281
			c0.452637-0.453125,1.141602-1.392578,0.019531-2.511719c-0.509766-0.508789-1.200684-0.881836-1.834473-1.017578
			l0.429199-0.882813c0.746582,0.158203,1.59668,0.621094,2.288086,1.310547c1.677246,1.672852,0.942871,3.224609-0.153809,4.324219
			L38.881004,25.227127z M39.398582,22.780838c-1.064941-1.107422-2.492188-2.147461-3.554688-1.082031
			c-0.64502,0.645508-0.519531,1.381836-0.009766,1.889648c0.713867,0.712891,1.619141,0.710938,2.241699,0.40625
			c0.135742-0.068359,0.271484-0.160156,0.373047-0.261719L39.398582,22.780838z"/>
		<path class="st4" d="M47.115379,22.498611l-1.311523,1.314453l1.427734,1.424805l-0.757324,0.758789l-1.427734-1.423828
			l-2.951172,2.957031c-0.678223,0.679688-0.870117,1.257813-0.314941,1.811523
			c0.271973,0.270508,0.453613,0.407227,0.645996,0.508789l-0.700684,0.791992
			c-0.271973-0.112305-0.645996-0.348633-1.03125-0.733398c-0.464844-0.463867-0.680176-0.996094-0.646973-1.504883
			c0.01123-0.577148,0.395508-1.166992,1.040039-1.8125l2.984863-2.991211l-0.850098-0.847656l0.757324-0.759766l0.850098,0.848633
			l1.006348-1.008789L47.115379,22.498611z"/>
		<path class="st4" d="M48.043602,34.369705c-0.474609,0.475586-0.916016,0.962891-1.220703,1.404297l-0.906738-0.904297
			l0.61084-0.771484l-0.033691-0.033203c-0.73584,0.125-1.709961-0.076172-2.491699-0.857422
			c-1.11084-1.107422-0.896973-2.455078-0.105469-3.248047c1.322754-1.326172,3.224609-0.875,5.333008,1.25l0.112793-0.113281
			c0.452637-0.453125,1.141113-1.392578,0.019531-2.511719c-0.509766-0.509766-1.200684-0.881836-1.834473-1.017578
			l0.429199-0.882813c0.746582,0.158203,1.59668,0.621094,2.287598,1.310547c1.677246,1.672852,0.942871,3.224609-0.153809,4.324219
			L48.043602,34.369705z M48.561668,31.923416c-1.064941-1.108398-2.492188-2.147461-3.554688-1.082031
			c-0.64502,0.645508-0.519531,1.381836-0.009766,1.889648c0.713379,0.712891,1.619141,0.710938,2.241211,0.405273
			c0.13623-0.067383,0.271973-0.15918,0.373535-0.260742L48.561668,31.923416z"/>
	</g>
</g>
</svg>
