<?xml version="1.0" encoding="UTF-8"?>
<!DOCTYPE svg PUBLIC "-//W3C//DTD SVG 1.1//EN" "http://www.w3.org/Graphics/SVG/1.1/DTD/svg11.dtd">
<!-- Creator: CorelDRAW X7 -->
<svg xmlns="http://www.w3.org/2000/svg" xml:space="preserve" width="155.258mm" height="28.9001mm" version="1.1" style="shape-rendering:geometricPrecision; text-rendering:geometricPrecision; image-rendering:optimizeQuality; fill-rule:evenodd; clip-rule:evenodd"
viewBox="0 0 5939 1106"
 xmlns:xlink="http://www.w3.org/1999/xlink">
 <defs>
  <style type="text/css">
   <![CDATA[
    .fil0 {fill:white}
    .fil1 {fill:white;fill-rule:nonzero}
   ]]>
  </style>
 </defs>
 <g id="Capa_x0020_1">
  <metadata id="CorelCorpID_0Corel-Layer"/>
  <g id="_2659814839520">
   <path class="fil0" d="M372 236c206,0 373,167 373,373 0,206 -167,373 -373,373 -84,0 -160,-28 -222,-74 111,17 253,-9 311,-115l0 105 78 0 0 -305 -285 0 0 78 166 0c-28,91 -110,151 -203,152 -58,3 -125,-28 -162,-71 -19,-25 -52,-58 -55,-143 -1,-30 8,-98 64,-153 42,-42 94,-62 157,-62 76,3 142,42 182,112l126 0c-54,-172 -232,-221 -379,-198 62,-45 139,-72 222,-72z"/>
   <path class="fil1" d="M1071 222c-37,2 -72,12 -107,33 -35,20 -62,48 -84,82 -21,34 -32,71 -33,111 0,2 0,5 -1,7 1,41 11,80 33,115 21,35 50,63 86,83 36,21 77,31 121,31 44,0 84,-11 119,-32 36,-21 64,-50 84,-86 21,-37 31,-76 31,-118l-288 0 0 77 185 0c-14,25 -32,44 -56,58 -24,14 -50,21 -78,21 -24,0 -48,-7 -72,-20 -24,-13 -43,-30 -58,-53 -15,-23 -23,-51 -23,-82 0,-27 6,-51 19,-72 13,-22 31,-39 53,-52 22,-13 46,-20 70,-22 25,-2 50,2 73,12 24,11 42,26 55,47l98 0c-27,-57 -61,-95 -105,-114 -43,-18 -84,-27 -122,-26zm302 9l0 442 237 0 0 -79 -156 0 0 -102 150 0 0 -79 -150 0 0 -103 157 0 0 -79 -238 0zm310 0l0 442 82 0 0 -442 -82 0zm145 213c1,48 12,90 31,125 20,35 46,62 78,81 33,20 69,31 110,34 22,1 47,-2 75,-11 29,-8 56,-22 81,-42 26,-20 45,-46 59,-78l-95 0c-30,33 -67,50 -110,51 -40,0 -74,-15 -104,-44 -30,-28 -45,-64 -45,-109 0,-25 7,-49 21,-72 13,-24 31,-42 55,-56 23,-14 47,-21 73,-21 43,0 81,18 115,55l93 0c-10,-27 -26,-50 -48,-71 -23,-20 -49,-36 -78,-47 -29,-11 -57,-17 -84,-17 -35,0 -67,8 -96,22 -30,15 -54,34 -73,57 -20,23 -35,48 -44,74 -10,26 -15,49 -14,69z"/>
   <path class="fil1" d="M859 769c1,-11 3,-19 7,-26 3,-6 8,-11 13,-15 6,-3 11,-5 16,-7 6,-1 11,-1 17,-2 4,0 8,0 12,1 4,1 8,1 12,3 3,1 7,3 11,5l-4 11c0,0 -2,-1 -4,-3 -3,-2 -5,-4 -7,-6 -3,-1 -5,-2 -9,-3 -3,-1 -7,-1 -11,-1 -6,0 -12,1 -17,3 -6,3 -11,7 -15,13 -4,6 -6,13 -7,23 0,0 0,1 0,2 0,7 1,12 3,18 2,5 4,10 8,14 3,4 7,7 12,9 5,2 10,3 16,3 5,0 9,0 13,-1 4,-1 7,-3 9,-4l0 -35c2,1 4,1 6,1 2,0 4,0 6,-1l0 39c-3,2 -9,3 -16,4 -8,2 -14,2 -19,2 -1,0 -1,0 -1,0 -1,0 -1,0 -2,0 -7,0 -14,-1 -20,-3 -6,-2 -11,-5 -15,-10 -5,-4 -8,-9 -10,-15 -3,-6 -4,-12 -4,-19zm108 45l0 -64c2,0 3,1 5,1 2,0 4,-1 6,-1l0 13c1,-3 3,-6 4,-8 2,-2 4,-3 7,-5 2,-1 5,-1 8,-1 0,0 1,0 2,0l-1 12c-3,-1 -6,-2 -8,-2 -2,0 -5,1 -7,3 -2,2 -3,4 -4,7 -1,2 -1,5 -1,7l0 38c-2,0 -4,-1 -6,-1 -2,0 -3,1 -5,1zm42 -23l0 -41c2,0 4,1 6,1 2,0 4,-1 6,-1l0 38c0,4 0,7 2,10 1,4 2,6 5,8 2,2 5,3 8,3 1,0 1,0 2,0 5,0 9,-3 11,-6 2,-4 4,-8 4,-13l0 -40c2,0 4,1 6,1 2,0 4,-1 5,-1l0 64c-1,0 -3,-1 -5,-1 -2,0 -4,1 -6,1l0 -9c-2,4 -5,6 -9,8 -4,2 -8,2 -14,2 -8,0 -14,-2 -17,-7 -2,-5 -4,-10 -4,-17zm75 -41c2,0 4,1 6,1 1,0 3,-1 5,-1l0 14c2,-6 5,-10 9,-12 4,-2 8,-3 13,-3 5,0 10,1 14,3 4,3 8,6 10,11 2,5 3,12 3,20 0,4 0,8 -1,12 -1,4 -3,7 -6,10 -2,3 -5,6 -8,8 -4,2 -8,2 -12,2 -1,0 -1,0 -1,0 0,0 -1,0 -1,0 -5,0 -10,-1 -13,-3 -3,-2 -5,-6 -7,-9l0 46c-2,0 -4,-1 -5,-1 -2,0 -4,1 -6,1l0 -99zm11 30l0 3c0,4 0,7 1,11 1,3 2,6 5,9 3,3 7,5 12,6 0,0 1,0 1,0 3,0 6,-1 8,-2 2,-1 4,-3 5,-5 2,-2 3,-5 4,-8 0,-3 1,-7 1,-11 0,-5 -1,-10 -2,-14 -1,-5 -2,-8 -5,-11 -2,-3 -6,-4 -10,-4 0,0 -1,0 -1,0 -5,0 -9,2 -12,6 -3,4 -6,11 -7,20zm59 5c0,-7 1,-13 4,-19 3,-5 7,-10 12,-13 6,-3 12,-4 19,-4 8,0 14,2 19,6 5,4 8,9 10,14 2,5 2,10 2,14 0,3 0,7 -1,11 -2,3 -4,7 -6,10 -3,4 -6,6 -11,8 -4,2 -9,3 -14,3 -1,0 -1,0 -1,0 -1,0 -1,0 -1,0 -7,0 -13,-1 -17,-4 -5,-2 -9,-6 -11,-11 -3,-4 -4,-10 -4,-15zm13 1c0,5 1,10 4,16 3,6 8,9 16,9 6,0 11,-2 14,-7 4,-5 6,-12 7,-21 0,-6 -1,-11 -2,-15 -2,-5 -4,-8 -7,-10 -3,-3 -7,-4 -11,-4 -7,0 -12,3 -16,9 -4,6 -6,12 -6,20 0,1 0,2 1,3zm107 28l0 -92 49 0c-1,2 -1,3 -1,5 0,1 0,2 1,4 -5,-1 -10,-1 -18,-1 -2,0 -5,0 -9,0 -4,0 -7,0 -9,0l0 33 20 0 13 -2c-1,2 -1,3 -1,4 0,2 0,3 1,5l-16 -1 -17 0 0 38c2,0 5,0 10,0 4,0 9,0 14,0 5,0 10,-1 13,-1 -1,1 -1,3 -1,4 0,2 0,3 1,4l-50 0zm65 0l0 -65c1,0 3,1 5,1 1,0 3,-1 5,-1l0 10c1,-1 3,-3 5,-5 2,-2 4,-3 7,-4 2,-2 5,-2 7,-2 4,0 7,0 10,1 2,0 5,2 6,4 2,2 4,4 6,8 2,-3 4,-5 6,-7 2,-2 4,-4 7,-5 3,-1 6,-1 9,-1 4,0 8,1 11,3 4,2 6,4 8,7 2,4 3,7 3,10 0,1 0,2 0,2l0 44c-2,0 -4,-1 -6,-1 -2,0 -4,1 -6,1l0 -43c0,-5 -1,-9 -4,-11 -3,-3 -7,-5 -11,-5 -2,0 -5,1 -7,2 -2,2 -4,4 -6,6 -1,3 -2,6 -3,10l0 41c-1,0 -3,-1 -5,-1 -2,0 -3,1 -5,1l0 -43c0,-3 -1,-6 -2,-8 -2,-2 -4,-4 -6,-5 -3,-2 -5,-2 -8,-2 -4,0 -7,1 -10,4 -3,3 -4,7 -5,13l0 41c-1,0 -3,-1 -5,-1 -2,0 -4,1 -6,1zm112 -64c1,0 3,1 5,1 2,0 4,-1 5,-1l0 14c2,-6 5,-10 9,-12 4,-2 9,-3 13,-3 6,0 11,1 15,3 4,3 7,6 9,11 3,5 4,12 4,20 0,4 -1,8 -2,12 -1,4 -3,7 -5,10 -2,3 -5,6 -9,8 -3,2 -7,2 -12,2 0,0 0,0 -1,0 0,0 0,0 -1,0 -5,0 -9,-1 -12,-3 -3,-2 -6,-6 -8,-9l0 46c-1,0 -3,-1 -5,-1 -2,0 -4,1 -5,1l0 -99zm10 30l0 3c0,4 1,7 1,11 1,3 3,6 5,9 3,3 7,5 12,6 1,0 1,0 2,0 3,0 5,-1 7,-2 2,-1 4,-3 6,-5 1,-2 2,-5 3,-8 1,-3 1,-7 1,-11 0,-5 0,-10 -1,-14 -1,-5 -3,-8 -5,-11 -3,-3 -6,-4 -10,-4 -1,0 -1,0 -2,0 -5,0 -9,2 -12,6 -3,4 -5,11 -7,20zm67 34l0 -64c1,0 3,1 5,1 2,0 4,-1 5,-1l0 13c2,-3 3,-6 5,-8 2,-2 4,-3 7,-5 2,-1 5,-1 7,-1 1,0 1,0 2,0l-1 12c-2,-1 -5,-2 -7,-2 -3,0 -5,1 -7,3 -2,2 -3,4 -4,7 -1,2 -2,5 -2,7l0 38c-1,0 -3,-1 -5,-1 -2,0 -4,1 -5,1zm38 -29c0,-8 1,-14 4,-19 2,-6 6,-10 11,-12 4,-3 10,-4 15,-4 7,0 13,1 17,4 4,4 7,7 9,12 1,4 2,8 2,12 0,2 0,3 0,5l-46 0c0,5 1,10 3,14 1,4 3,7 7,9 3,2 8,3 14,3 3,0 7,-1 10,-2 4,-2 7,-4 9,-6l1 7c-4,2 -6,4 -8,5 -1,1 -4,1 -6,2 -3,1 -7,1 -11,1 -7,0 -12,-2 -17,-5 -5,-2 -8,-6 -10,-11 -3,-5 -4,-10 -4,-15zm47 -8c0,-6 -1,-11 -3,-16 -3,-4 -7,-6 -14,-6 -3,0 -6,1 -9,4 -3,2 -5,5 -6,8 -2,4 -3,7 -3,10l35 0zm22 -8c0,-7 3,-12 7,-15 5,-4 10,-6 16,-6 6,0 11,2 15,4l-3 11 -2 0c0,-2 -1,-4 -2,-5 -2,-2 -3,-3 -5,-3 -1,-1 -3,-1 -5,-1 -2,0 -5,1 -7,2 -2,2 -4,4 -4,7 0,1 0,1 0,2 0,2 1,5 3,6 1,2 4,3 7,4 3,1 6,2 9,3 5,2 8,4 10,7 3,3 4,6 4,10 0,3 -1,6 -4,9 -2,4 -5,6 -8,8 -4,2 -8,3 -13,3 -9,0 -15,-1 -19,-5l4 -9 2 0c3,6 8,9 14,9 2,0 4,0 6,-1 2,-2 4,-3 5,-5 2,-2 2,-4 2,-6 0,-2 -1,-4 -2,-5 -1,-2 -3,-3 -5,-4 -2,-1 -4,-2 -7,-2 -3,-1 -5,-2 -6,-2 -3,-1 -6,-3 -8,-6 -3,-2 -4,-6 -4,-10zm52 31c0,-3 1,-6 2,-8 1,-3 3,-5 5,-6 3,-2 6,-3 10,-4l17 -4c2,0 3,-1 4,-2 1,-2 2,-3 2,-5 0,-2 -1,-5 -2,-7 -2,-3 -4,-5 -6,-6 -2,-2 -5,-3 -9,-3 -3,0 -5,1 -8,2 -2,2 -5,4 -7,8l-3 0 0 -8c3,-1 5,-3 7,-4 2,0 5,-1 7,-2 3,-1 6,-1 9,-1 8,0 14,2 17,5 4,4 6,9 6,17l0 34c0,2 1,4 4,4 0,0 2,-1 3,-1l0 3c-2,2 -4,3 -7,3 -3,0 -6,-1 -8,-2 -2,-2 -3,-4 -4,-6 -6,6 -13,9 -20,9 -6,0 -10,-1 -13,-5 -4,-3 -6,-7 -6,-11zm39 1l0 -18c-6,0 -12,1 -16,2 -4,2 -7,3 -9,5 -2,2 -2,5 -2,8 0,1 0,2 0,4 0,2 2,3 4,5 2,2 5,3 8,3 6,0 11,-3 15,-9zm33 13l0 -64c2,0 3,1 5,1 2,0 4,-1 6,-1l0 13c1,-3 3,-6 4,-8 2,-2 4,-3 7,-5 2,-1 5,-1 8,-1 0,0 1,0 2,0l-1 12c-3,-1 -5,-2 -8,-2 -2,0 -5,1 -7,3 -2,2 -3,4 -4,7 -1,2 -1,5 -1,7l0 38c-2,0 -4,-1 -6,-1 -2,0 -3,1 -5,1zm44 -88c0,-3 1,-5 3,-6 1,-1 3,-2 5,-2 2,0 3,1 5,2 1,1 2,3 2,6 0,2 -1,4 -2,5 -2,1 -3,2 -5,2 -2,0 -4,-1 -5,-2 -2,-1 -3,-3 -3,-5zm1 88l0 -65c3,0 5,1 7,1 2,0 3,-1 5,-1l0 65c-2,0 -3,-1 -5,-1 -2,0 -4,1 -7,1zm32 -14c0,-3 1,-6 2,-8 1,-3 3,-5 5,-6 3,-2 6,-3 10,-4l17 -4c2,0 3,-1 4,-2 1,-2 2,-3 2,-5 0,-2 -1,-5 -2,-7 -2,-3 -4,-5 -6,-6 -3,-2 -5,-3 -9,-3 -3,0 -5,1 -8,2 -2,2 -5,4 -7,8l-3 0 0 -8c3,-1 5,-3 7,-4 2,0 5,-1 7,-2 3,-1 6,-1 9,-1 8,0 13,2 17,5 4,4 6,9 6,17l0 34c0,2 1,4 3,4 1,0 3,-1 4,-1l0 3c-2,2 -4,3 -7,3 -3,0 -6,-1 -8,-2 -2,-2 -3,-4 -4,-6 -6,6 -13,9 -21,9 -5,0 -9,-1 -13,-5 -3,-3 -5,-7 -5,-11zm39 1l0 -18c-7,0 -12,1 -16,2 -4,2 -7,3 -9,5 -2,2 -3,5 -3,8 0,1 1,2 1,4 0,2 1,3 4,5 2,2 5,3 8,3 6,0 11,-3 15,-9zm35 13l0 -103c2,0 4,1 6,1 2,0 4,-1 6,-1l0 103c-2,0 -4,-1 -6,-1 -2,0 -4,1 -6,1zm66 -28c0,-6 0,-11 1,-16 2,-4 4,-8 6,-11 3,-4 6,-6 10,-8 3,-1 7,-2 12,-2 3,0 6,0 9,2 4,1 6,2 8,4 2,2 3,4 3,5l0 -47c2,0 4,1 6,1 2,0 4,-1 6,-1l0 101c-2,0 -4,-1 -6,-1 -2,0 -4,1 -6,1l0 -11c-3,4 -6,7 -10,9 -4,2 -8,3 -12,3 -5,0 -9,-1 -13,-4 -5,-2 -8,-6 -11,-10 -2,-5 -3,-10 -3,-15zm12 -2c0,9 2,15 6,19 3,4 7,6 11,6 0,0 1,0 2,0 3,0 6,-1 9,-3 3,-2 5,-5 7,-9 1,-4 2,-9 2,-14 0,-7 -1,-14 -4,-19 -2,-6 -7,-9 -14,-9 0,0 0,0 0,0 0,0 -1,0 -1,0 -7,1 -12,4 -14,9 -3,6 -4,12 -4,20zm62 1c0,-8 2,-14 5,-19 2,-6 6,-10 10,-12 5,-3 10,-4 16,-4 7,0 12,1 16,4 5,4 8,7 9,12 2,4 3,8 3,12 0,2 0,3 0,5l-46 0c0,5 1,10 2,14 2,4 4,7 8,9 3,2 8,3 13,3 4,0 8,-1 11,-2 4,-2 6,-4 8,-6l2 7c-4,2 -6,4 -8,5 -2,1 -4,1 -7,2 -3,1 -6,1 -10,1 -7,0 -13,-2 -17,-5 -5,-2 -8,-6 -11,-11 -2,-5 -3,-10 -4,-15zm48 -8c0,-6 -1,-11 -4,-16 -2,-4 -7,-6 -13,-6 -4,0 -7,1 -9,4 -3,2 -5,5 -7,8 -1,4 -2,7 -2,10l35 0zm65 37l0 -103c3,0 5,1 6,1 2,0 4,-1 6,-1l0 103c-2,0 -3,-1 -5,-1 -2,0 -4,1 -7,1zm31 -14c0,-3 1,-6 2,-8 1,-3 3,-5 5,-6 3,-2 6,-3 10,-4l17 -4c2,0 3,-1 4,-2 1,-2 2,-3 2,-5 0,-2 -1,-5 -2,-7 -2,-3 -4,-5 -6,-6 -3,-2 -5,-3 -9,-3 -3,0 -5,1 -8,2 -2,2 -5,4 -8,8l-2 0 0 -8c3,-1 5,-3 7,-4 2,0 5,-1 7,-2 3,-1 6,-1 9,-1 8,0 13,2 17,5 4,4 6,9 6,17l0 34c0,2 1,4 3,4 1,0 3,-1 4,-1l0 3c-2,2 -5,3 -8,3 -2,0 -5,-1 -7,-2 -2,-2 -3,-4 -4,-6 -6,6 -13,9 -21,9 -5,0 -9,-1 -13,-5 -3,-3 -5,-7 -5,-11zm39 1l0 -18c-7,0 -12,1 -16,2 -4,2 -7,3 -9,5 -2,2 -3,5 -3,8 0,1 0,2 1,4 0,2 1,3 4,5 2,2 5,3 8,3 6,0 11,-3 15,-9zm-1363 65c0,1 1,1 1,1 1,0 1,0 2,0 0,0 0,0 0,0 0,0 0,0 0,0 0,0 0,0 0,0 0,0 0,0 0,0 1,0 2,0 2,0 1,0 1,0 1,0l6 0 0 93 -6 0c0,0 0,0 -1,0 0,0 -1,0 -1,0 0,0 -1,0 -1,0 0,0 0,0 0,0 0,0 0,0 0,0 0,0 0,0 0,0 -1,0 -1,0 -2,0 0,0 -1,0 -1,0l-5 0 0 -94 5 0zm35 94l0 -66 6 0c0,0 0,0 1,1 0,0 0,0 1,0 0,0 0,0 0,0 0,0 0,0 0,0 0,0 0,0 0,0 1,0 1,0 1,0 0,0 0,0 0,0 0,0 0,0 0,0 0,0 0,0 0,0 0,0 0,0 0,0 1,0 1,0 2,0 0,0 1,-1 1,-1l5 0 0 5c1,0 2,-1 3,-1 1,-1 2,-2 3,-2 2,-1 3,-2 5,-2 2,-1 4,-1 6,-1l6 0 0 0 0 0c3,0 5,1 8,2 2,1 4,3 6,5 3,2 4,5 5,8 1,4 2,8 2,13l0 39 -5 0c-1,0 -1,0 -1,0 0,0 0,0 -1,0 0,0 0,0 0,0 0,0 -1,0 -1,0 0,0 0,0 0,0 0,0 0,0 0,0 0,0 0,0 0,0 0,0 0,0 0,0 0,0 0,0 0,0 0,0 0,0 0,0 -1,0 -1,0 -2,0 0,0 -1,0 -2,0l-5 0 0 -39c0,-3 0,-6 -1,-8 -1,-3 -2,-5 -4,-6 -1,-2 -2,-3 -4,-4 -1,0 -2,-1 -4,-1 -1,0 -3,1 -4,2 -2,1 -3,2 -5,3 -1,2 -3,4 -4,7 0,3 -1,6 -1,9l0 37 -5 0c-1,0 -1,0 -2,0 0,0 -1,0 -1,0 0,0 0,0 0,0 0,0 0,0 0,0 0,0 0,0 0,0 0,0 0,0 0,0 0,0 0,0 0,0 0,0 0,0 0,0 -1,0 -1,0 -1,0 0,0 -1,0 -1,0 0,0 0,0 -1,0 0,0 0,0 0,0l-6 0z"/>
   <path class="fil1" d="M987 960l0 -58 -9 0c0,0 0,0 0,-1 0,0 0,0 0,0 0,0 0,0 0,-1 0,0 0,0 1,0l0 -1 0 0c0,0 0,0 0,0 0,0 -1,0 -1,-1 0,0 0,0 0,0 0,0 0,0 0,0 0,-1 0,-1 0,-1 0,0 0,0 0,0l9 -1c1,-7 3,-13 4,-18 2,-4 4,-8 6,-11 3,-3 5,-5 8,-6 2,-1 5,-2 8,-2l5 0c1,0 1,0 1,0 0,0 0,0 0,0 1,0 1,0 1,0 0,0 0,0 0,0 1,0 1,0 1,0 1,0 1,0 1,0 0,1 0,2 0,3 0,1 0,2 0,3 -1,1 -1,2 -1,2 0,1 0,2 0,3l-1 1 -5 0c-1,0 -1,-1 -2,-1 0,0 -1,0 -1,-1 -1,0 -1,0 -1,0 0,0 -1,0 -1,0 -1,0 -3,1 -4,1 -1,1 -1,2 -2,3 -1,2 -1,3 -2,5 0,1 0,3 0,5 0,0 0,0 0,0 0,0 0,0 0,0 0,0 0,0 0,1 0,0 0,0 0,0 0,0 0,0 0,0 0,0 0,0 0,0 0,0 0,0 0,0 0,1 0,1 0,1 0,0 0,1 0,2 0,0 0,1 0,2 0,0 0,1 0,1 1,1 1,2 1,2 0,1 0,1 0,1 0,1 0,1 0,1 0,1 0,1 0,2 0,0 0,0 0,1l10 -1 5 0c0,0 0,1 0,1 0,0 0,0 0,0 0,0 0,0 0,0 0,0 0,0 0,0 -1,1 -1,1 -1,1 0,0 0,0 0,1 0,0 0,0 0,0 0,1 0,1 1,1 0,0 0,1 0,1 0,0 0,1 0,1l-5 0 -10 0 0 58 -5 0c-1,0 -1,0 -1,0 -1,0 -1,0 -1,0 -1,0 -1,0 -2,0 0,0 -1,0 -1,0l-6 0zm35 -30c0,-5 0,-10 2,-14 1,-4 4,-8 7,-12 3,-3 7,-5 11,-7 4,-2 9,-3 15,-3l5 0c4,0 7,1 11,2 3,1 5,2 8,4 2,2 4,4 5,6 2,2 3,4 4,7 1,1 2,3 2,4 1,2 1,3 1,5 0,1 1,2 1,4 0,1 0,2 0,2 0,1 0,2 0,3 0,1 0,2 0,3 -1,0 -1,1 -1,2 0,1 0,2 -1,3 -1,3 -2,5 -4,8 -1,3 -3,5 -6,7 -2,3 -5,4 -9,5 -4,2 -8,2 -12,2l-6 0c0,0 0,0 0,0 0,0 0,0 -1,0 0,0 0,0 0,0 0,0 0,0 0,0 0,0 0,0 0,0 0,0 0,0 -1,0 -5,0 -9,-1 -13,-2 -4,-1 -7,-4 -10,-7 -3,-3 -5,-6 -6,-10 -2,-3 -2,-7 -2,-11l0 -1zm18 1c0,1 0,2 0,3 0,1 0,2 0,3 0,1 0,2 1,3 0,1 0,2 1,4 1,1 1,3 2,4 1,2 3,3 4,5 1,1 3,2 4,2 2,1 3,2 5,2 3,-1 5,-1 7,-2 2,-2 3,-3 5,-5 2,-2 3,-5 5,-9 1,-4 1,-8 2,-13 0,-4 -1,-8 -1,-11 -1,-4 -3,-7 -4,-9 -2,-3 -3,-5 -5,-6 -2,-1 -5,-2 -8,-2 -2,0 -5,1 -7,2 -2,2 -4,4 -6,6 -1,3 -3,6 -4,9 -1,3 -1,6 -2,10 0,0 0,0 0,0 0,1 0,1 0,1l0 1c0,0 0,0 0,0 0,0 0,0 0,0 0,1 0,1 0,1 0,0 0,0 0,0 0,0 0,1 0,1 0,0 1,0 1,1l-6 -1 0 0 6 0zm70 29l0 -65 5 0c1,0 1,1 1,1 0,0 1,0 1,0 0,0 0,0 0,0 0,0 0,0 0,0 1,0 1,0 1,0 0,0 0,0 0,0 0,0 0,0 0,0 0,0 0,0 0,0 0,0 0,0 1,0 0,0 0,0 0,0 0,0 1,0 1,0 0,0 0,0 0,-1l6 0 0 5c0,0 0,0 0,0 1,0 1,0 1,-1 0,0 0,0 1,0 0,0 0,-1 0,-1 2,-1 4,-2 6,-3 1,0 3,-1 6,-1l5 0c0,0 0,0 1,0 0,0 0,0 0,0 0,0 0,0 0,0 1,0 1,0 1,0 0,0 0,0 0,0 0,0 0,0 0,0l-1 13 -5 0c-1,0 -2,-1 -2,-1 -1,0 -2,0 -2,0 0,0 0,0 0,0 -1,-1 -1,-1 -1,-1 0,0 0,0 0,0 0,0 0,0 0,0 -1,1 -2,1 -3,2 -1,0 -1,1 -2,2 -1,1 -2,2 -3,3 0,2 -1,3 -1,5 0,0 -1,1 -1,1 0,1 0,1 0,1 0,1 0,1 0,2 0,0 0,1 0,1l0 38 -6 0c0,0 0,0 0,0 -1,0 -1,0 -1,0 -1,0 -1,0 -1,0 0,0 0,0 0,0 0,0 0,0 0,0 0,0 0,0 0,0 0,0 0,0 0,0 0,0 0,0 0,0 -1,0 -1,0 -1,0 -1,0 -1,0 -2,0l-5 0zm48 0l0 -66 5 0 1 0 1 1c0,0 0,0 0,0 0,0 0,0 0,0 0,0 0,0 0,0 0,0 1,0 1,0 0,0 1,0 1,0 1,0 1,-1 2,-1l5 0 0 5c1,-1 1,-1 2,-1 0,-1 1,-1 1,-2 2,-1 4,-1 5,-2 2,0 4,-1 6,-1l5 0c2,0 4,0 6,1 2,0 4,0 5,1 1,0 3,1 4,2 1,1 2,2 4,4 0,0 0,0 0,1 0,0 0,0 1,0 1,-1 2,-2 3,-3 1,-1 2,-2 3,-2 2,-1 4,-2 6,-3 2,0 4,-1 6,-1l6 0c3,0 6,1 9,2 3,1 5,2 7,4 2,2 3,4 4,7 1,2 2,4 2,7l0 0 0 1 0 0 0 0 0 1 0 0 0 45 -5 0c0,0 -1,0 -1,0 0,0 0,0 0,0 -1,0 -1,0 -1,0 0,0 -1,0 -1,0 0,0 0,0 0,0 0,0 0,0 0,0 0,0 0,0 0,0 0,0 0,0 0,0 0,0 0,0 0,0 0,0 0,0 0,0 -1,0 -1,0 -2,0 -1,0 -1,0 -2,0l-5 0 0 -44c0,-2 0,-4 -1,-6 -1,-2 -2,-3 -4,-5 -1,-1 -2,-2 -3,-2 -2,-1 -3,-1 -4,-2 -2,1 -3,1 -4,2 -2,0 -3,1 -4,2 -2,2 -3,4 -4,6 -1,2 -1,5 -1,8l0 41 -6 0c0,0 0,0 0,0 -1,0 -1,0 -1,0 0,0 -1,0 -1,0 0,0 0,0 0,0 0,0 0,0 0,0 0,0 0,0 -1,0 1,0 1,0 1,0 -1,0 -1,0 -1,0 0,0 0,0 0,0 0,0 0,0 0,0 0,0 0,0 -1,0 0,0 -1,0 -1,0l-6 0 0 -44c0,-2 0,-4 -1,-6 -1,-1 -2,-3 -3,-4 -2,-1 -3,-2 -4,-3 -2,-1 -3,-1 -5,-1 -1,0 -2,0 -3,1 -2,1 -3,1 -4,2 -2,2 -3,4 -4,6 0,2 -1,5 -1,8l0 41 -5 0c-1,0 -1,0 -1,0 0,0 0,0 -1,0 0,0 0,0 0,0 -1,0 -1,0 -1,0 0,0 0,0 0,0 0,0 0,0 0,0 0,0 0,0 0,0 0,0 0,0 0,0 0,0 0,0 0,0 0,0 0,0 0,0 -1,0 -2,0 -2,0 -1,0 -1,0 -2,0l-5 0zm116 -15c0,-2 0,-4 1,-5 1,-2 2,-4 3,-5 1,-2 3,-3 5,-5 2,-1 5,-2 8,-3l17 -3c1,0 2,-1 3,-1 1,0 1,-1 2,-1 0,-1 0,-2 1,-3 0,-1 0,-1 0,-2 0,-1 0,-1 0,-1 0,0 0,0 0,0 0,0 0,-1 0,-1 0,0 0,0 0,0 0,-1 0,-1 0,-1 0,-1 -1,-1 -1,-2 0,-1 -1,-2 -2,-4 -1,-1 -2,-2 -3,-4 -1,0 -2,-1 -3,-2 -2,-1 -3,-1 -4,-1 -1,0 -2,0 -2,0 -1,0 -1,1 -2,1 -1,0 -1,1 -2,1 -1,0 -2,1 -3,2 0,0 0,0 -1,1 0,0 -1,1 -1,1 -1,1 -1,1 -2,2 0,0 -1,1 -1,1l-6 0 -2 0 0 -7c1,0 1,0 1,-1 0,0 1,0 1,0 0,0 0,0 1,0 0,-1 0,-1 1,-1 1,-1 2,-1 4,-2 1,-1 2,-1 4,-2 2,0 3,-1 5,-1 2,0 4,-1 6,-1l5 0c4,0 8,1 11,2 3,1 5,2 7,4 2,1 3,4 4,6 1,3 2,7 2,11l0 34c0,0 0,1 0,2 0,0 0,1 0,1 1,0 1,0 1,0 0,0 0,0 0,0 0,0 0,0 0,0 0,0 0,0 0,0 0,0 0,0 0,0 0,0 0,0 0,0 0,0 0,0 1,0 0,0 0,0 0,0l5 0 0 3c0,0 -1,1 -1,1 -1,0 -1,1 -2,1 0,0 -1,0 -1,0 0,0 0,0 -1,0 0,0 0,0 -1,0 0,0 0,0 0,0l-1 1 -5 0 -1 0c-1,0 -3,-1 -4,-1 -1,0 -2,-1 -4,-1 0,-1 -1,-1 -1,-1 0,-1 -1,-1 -1,-2 -2,1 -3,2 -4,3 -2,1 -3,1 -4,1 -2,1 -3,1 -5,2 -1,0 -3,0 -4,0l-5 0c-3,0 -5,0 -8,-1 -2,-1 -4,-2 -6,-4 -1,-1 -3,-3 -4,-5 -1,-2 -1,-4 -1,-7l0 0zm40 1l0 -17c-4,0 -7,1 -10,2 -3,1 -5,1 -7,2 -2,2 -3,3 -5,5 -1,1 -1,3 -1,6 0,0 0,1 0,1 0,0 0,0 0,1 0,0 0,0 0,1 0,0 0,0 0,1l0 0 1 1c0,1 1,2 1,2 1,1 2,2 3,3 1,0 2,0 2,1 1,0 2,0 3,0 0,0 0,0 0,0 0,0 0,0 1,0 0,0 0,0 0,0 0,0 0,0 0,0 1,0 2,0 2,-1 1,0 2,0 3,-1 0,0 1,-1 1,-1 1,-1 2,-1 2,-2 0,0 1,0 1,0 0,-1 1,-1 1,-1 0,-1 0,-1 1,-1 0,-1 0,-1 1,-1l0 -1zm-26 -58l18 -19c0,-1 1,-1 1,-1 0,0 1,-1 1,-1 0,0 0,0 1,0 0,0 0,-1 0,-1 0,0 1,0 1,0 0,0 0,0 0,0 0,0 1,0 1,0 0,0 0,0 1,0 0,0 0,0 0,0 0,0 0,0 0,-1 0,0 1,0 1,0 0,0 0,0 0,0l5 0c1,0 2,1 2,1 1,0 1,0 2,1 0,0 1,0 1,1 0,0 1,1 1,1 0,1 0,1 -1,1 0,1 0,2 0,2 -1,0 -1,1 -1,1 0,0 -1,0 -1,1 0,0 0,0 -1,0 0,1 -1,1 -1,1l-20 13 -6 0 -5 0zm62 56l0 -44 -9 0c0,0 1,0 1,0 0,0 0,0 0,0 0,0 0,-1 0,-1 0,0 0,0 0,0 0,-1 0,-1 0,-1 0,0 0,-1 0,-1 0,0 0,0 0,-1 0,0 -1,0 -1,-1l9 0 0 -13 10 -4 6 0 0 17 15 0c0,1 0,1 -1,1 0,0 0,1 0,1 0,0 0,0 0,0 0,1 0,1 0,1 0,0 0,0 0,1 0,0 0,0 0,0 0,0 0,0 0,1 0,0 0,0 0,0 0,0 0,0 1,0 0,0 0,1 0,1l-6 0 -9 -1 0 36c0,0 0,1 0,2 0,0 0,1 0,2 0,0 0,1 0,1 0,1 0,2 0,2 0,2 1,4 1,5 0,2 1,3 1,5 1,1 1,1 2,2 1,1 2,1 3,2 0,0 0,0 0,0 0,0 0,0 0,0 1,-1 2,-1 2,-1 1,0 2,-1 2,-1l6 0 0 4c-1,1 -2,1 -4,1 -1,1 -2,1 -3,1 -1,0 -2,1 -3,1 -1,0 -2,0 -3,0l-5 0c-3,0 -5,0 -7,-1 -2,-1 -3,-2 -4,-4 -2,-1 -3,-3 -3,-5 -1,-2 -1,-5 -1,-8l0 0zm46 16l0 -66 5 0c0,0 0,0 0,0 0,0 1,0 1,0 0,1 0,1 0,1 0,0 0,0 0,0 0,0 0,0 1,0 0,0 0,0 0,0 0,0 0,0 0,0 1,0 1,0 1,0 0,0 0,0 0,0 0,0 0,0 0,0 0,0 0,0 0,0 0,0 1,0 1,0 0,0 1,0 1,0 1,0 1,-1 1,-1l6 0 0 66 -6 0c0,0 0,0 -1,0 0,0 -1,0 -1,0 0,0 0,0 0,0 0,0 0,0 0,0 0,0 0,0 0,0 0,0 0,0 0,0 0,0 0,0 0,0 0,0 -1,0 -1,0 0,0 -1,0 -1,0 -1,0 -1,0 -2,0l-5 0zm-1 -89c0,-1 0,-3 0,-3 1,-1 1,-2 2,-3 1,0 1,-1 2,-1 1,0 2,-1 3,-1l5 0c1,0 2,1 3,1 1,0 2,1 2,1 1,1 2,2 2,3 1,1 1,2 1,3 0,1 0,2 -1,3 0,1 -1,2 -2,3 -1,0 -1,1 -2,1 -1,0 -2,1 -3,1l-5 -1c-1,0 -2,0 -3,0 -1,0 -1,-1 -2,-1 -1,-1 -1,-2 -2,-3 0,-1 0,-2 0,-3l0 0zm37 58c0,-5 1,-9 2,-13 2,-4 4,-8 7,-11 3,-3 7,-6 11,-7 5,-2 10,-3 16,-3l6 0c1,0 3,1 4,1 2,0 3,0 4,0 1,1 2,1 3,1 1,0 2,1 3,1 1,0 1,0 1,0 0,1 1,1 1,1 0,0 0,0 0,0 1,0 1,0 1,0 0,1 1,1 1,1 1,0 1,1 2,1l-2 9 -6 0 -2 0c-1,-1 -2,-3 -3,-4 -2,-1 -3,-2 -4,-3 -1,0 -3,-1 -4,-1 -1,-1 -3,-1 -4,-1 -3,0 -5,1 -8,2 -2,2 -4,4 -5,6 -2,3 -4,6 -4,9 -1,4 -2,7 -2,10 0,4 1,7 2,10 1,4 2,7 4,9 2,3 4,5 6,6 3,2 6,3 9,3 1,0 3,0 4,-1 1,0 2,0 3,-1 2,-1 3,-1 5,-2 1,-1 2,-3 4,-4l0 0 0 -1 6 0 1 1 -1 7c-2,1 -3,2 -5,3 -2,1 -3,2 -5,2 -2,1 -4,1 -6,1 -2,1 -4,1 -6,1l-5 0 0 0 -1 0c-4,0 -8,-1 -12,-2 -4,-2 -7,-4 -11,-6 -3,-3 -6,-6 -7,-10 -2,-4 -3,-8 -3,-13l0 -1 0 0 0 0 0 -1 0 0z"/>
   <path class="fil1" d="M1507 945c0,-2 0,-4 1,-5 0,-2 1,-4 2,-5 2,-2 3,-3 6,-5 2,-1 4,-2 8,-3l17 -3c1,0 2,-1 2,-1 1,0 2,-1 2,-1 1,-1 1,-2 1,-3 0,-1 0,-1 0,-2 0,-1 0,-1 0,-1 0,0 0,0 0,0 0,0 0,-1 0,-1 0,0 0,0 0,0 0,-1 0,-1 0,-1 0,-1 0,-1 0,-2 -1,-1 -1,-2 -2,-4 -1,-1 -2,-2 -3,-4 -1,0 -3,-1 -4,-2 -1,-1 -2,-1 -4,-1 0,0 -1,0 -2,0 0,0 -1,1 -1,1 -1,0 -2,1 -3,1 0,0 -1,1 -2,2 0,0 -1,0 -1,1 -1,0 -1,1 -2,1 0,1 -1,1 -1,2 -1,0 -1,1 -2,1l-5 0 -2 0 0 -7c0,0 0,0 1,-1 0,0 0,0 0,0 1,0 1,0 1,0 1,-1 1,-1 1,-1 1,-1 3,-1 4,-2 1,-1 3,-1 5,-2 1,0 3,-1 5,-1 1,0 3,-1 5,-1l6 0c4,0 7,1 10,2 3,1 6,2 7,4 2,1 4,4 5,6 1,3 1,7 1,11l0 34c0,0 0,1 0,2 0,0 1,1 1,1 0,0 0,0 0,0 0,0 0,0 0,0 0,0 0,0 0,0 1,0 1,0 1,0 0,0 0,0 0,0 0,0 0,0 0,0 0,0 0,0 0,0 0,0 0,0 0,0l6 0 0 3c-1,0 -1,1 -2,1 0,0 -1,1 -1,1 -1,0 -1,0 -1,0 -1,0 -1,0 -1,0 0,0 -1,0 -1,0 0,0 -1,0 -1,0l-1 1 -5 0 -1 0c-1,0 -2,-1 -4,-1 -1,0 -2,-1 -3,-1 -1,-1 -1,-1 -2,-1 0,-1 0,-1 -1,-2 -1,1 -2,2 -4,3 -1,1 -2,1 -4,1 -1,1 -3,1 -4,2 -2,0 -3,0 -4,0l-6 0c-2,0 -5,0 -7,-1 -2,-1 -4,-2 -6,-4 -2,-1 -3,-3 -4,-5 -1,-2 -1,-4 -1,-7l0 0zm39 1l0 -17c-4,0 -7,1 -9,2 -3,1 -5,1 -7,2 -2,2 -4,3 -5,5 -1,1 -2,3 -2,6 0,0 0,1 0,1 0,0 0,0 0,1 0,0 0,0 1,1 0,0 0,0 0,1l0 0 0 1c1,1 1,2 2,2 1,1 2,2 3,3 0,0 1,0 2,1 1,0 1,0 2,0 1,0 1,0 1,0 0,0 0,0 0,0 0,0 0,0 0,0 1,0 1,0 1,0 1,0 1,0 2,-1 1,0 1,0 2,-1 1,0 1,-1 2,-1 0,-1 1,-1 2,-2 0,0 0,0 0,0 1,-1 1,-1 1,-1 1,-1 1,-1 1,-1 1,-1 1,-1 1,-1l0 -1zm78 -51c1,0 1,1 2,1 1,0 1,0 2,0 0,0 0,0 0,0 0,0 0,0 0,0 0,0 0,0 1,0 0,0 0,0 0,0 0,0 0,0 0,0 0,0 1,0 1,0 0,0 1,0 1,0 1,0 1,0 1,-1l6 0c0,2 1,3 1,5 1,2 2,5 3,8 1,2 2,5 4,8 1,3 2,6 3,10 1,0 1,0 1,0 0,0 0,1 0,1 0,0 0,0 0,0 0,1 0,1 0,1 1,0 1,1 1,1 0,1 0,1 0,1 1,1 1,2 1,2 1,1 1,2 1,3 1,0 1,1 1,1 0,1 1,2 1,2 0,1 0,1 0,1 0,0 0,0 0,0 0,0 0,0 0,0 0,1 0,1 0,1 1,0 1,0 1,0 0,-1 0,-1 0,-1 0,0 0,0 0,0 0,0 0,0 0,-1 1,-1 1,-2 2,-4 0,-1 1,-2 2,-4 0,0 0,-1 0,-1 1,-1 1,-1 1,-2 0,0 0,-1 1,-1 0,-1 0,-1 0,-2 2,-3 3,-6 4,-9 1,-3 2,-6 3,-8 1,-3 2,-5 3,-7 0,-2 1,-4 1,-5l5 0c1,0 1,1 1,1 1,0 1,0 1,0 1,0 1,0 1,0 1,0 1,0 1,-1l6 0 -45 100 -5 0c0,0 0,0 -1,0 0,0 0,0 0,0 0,0 0,0 0,0 0,0 -1,0 -1,0 0,0 0,0 0,0 -1,0 -1,0 -1,0 0,0 0,0 -1,0 0,0 0,0 0,0l-6 0 18 -36 -27 -64 5 0zm121 65l0 -104 6 0c0,0 1,0 1,0 1,0 1,1 2,1 0,0 0,0 0,0 0,0 0,0 0,0 0,0 0,0 0,0 0,0 0,0 0,0 0,0 0,0 0,0 0,0 0,0 0,0 0,0 0,0 0,0 0,0 0,0 0,0 1,0 1,-1 2,-1 0,0 1,0 1,0l6 0 0 104 -6 0c0,0 0,0 0,0 -1,0 -1,0 -1,0 0,0 -1,0 -1,0 0,0 0,0 0,0 0,0 0,0 0,0 0,0 0,0 0,0 0,0 -1,0 -1,0 0,0 0,0 0,0 0,0 0,0 0,0 0,0 0,0 0,0 0,0 -1,0 -2,0 0,0 -1,0 -1,0l-6 0zm37 -15c0,-2 0,-4 1,-5 0,-2 1,-4 3,-5 1,-2 3,-3 5,-5 2,-1 5,-2 8,-3l17 -3c1,0 2,-1 3,-1 0,0 1,-1 1,-1 1,-1 1,-2 1,-3 1,-1 1,-1 1,-2 0,-1 0,-1 0,-1 0,0 0,0 0,0 0,0 0,-1 0,-1 0,0 0,0 0,0 -1,-1 -1,-1 -1,-1 0,-1 0,-1 0,-2 0,-1 -1,-2 -2,-4 -1,-1 -2,-2 -3,-4 -1,0 -2,-1 -4,-2 -1,-1 -2,-1 -4,-1 0,0 -1,0 -1,0 -1,0 -1,1 -2,1 -1,0 -2,1 -2,1 -1,0 -2,1 -3,2 0,0 -1,0 -1,1 -1,0 -1,1 -1,1 -1,1 -1,1 -2,2 0,0 -1,1 -1,1l-6 0 -2 0 0 -7c0,0 1,0 1,-1 0,0 0,0 1,0 0,0 0,0 1,0 0,-1 0,-1 0,-1 2,-1 3,-1 4,-2 2,-1 3,-1 5,-2 1,0 3,-1 5,-1 2,0 4,-1 6,-1l5 0c4,0 7,1 10,2 3,1 6,2 8,4 2,1 3,4 4,6 1,3 1,7 1,11l0 34c0,0 0,1 1,2 0,0 0,1 0,1 0,0 0,0 0,0 1,0 1,0 1,0 0,0 0,0 0,0 0,0 0,0 0,0 0,0 0,0 0,0 0,0 0,0 0,0 0,0 0,0 0,0 0,0 0,0 0,0l6 0 0 3c-1,0 -1,1 -2,1 0,0 -1,1 -1,1 0,0 -1,0 -1,0 0,0 -1,0 -1,0 0,0 -1,0 -1,0 0,0 0,0 -1,0l0 1 -6 0 0 0c-2,0 -3,-1 -4,-1 -2,0 -3,-1 -4,-1 0,-1 -1,-1 -1,-1 -1,-1 -1,-1 -1,-2 -2,1 -3,2 -4,3 -2,1 -3,1 -4,1 -2,1 -3,1 -5,2 -1,0 -3,0 -4,0l-6 0c-2,0 -5,0 -7,-1 -2,-1 -4,-2 -6,-4 -2,-1 -3,-3 -4,-5 -1,-2 -1,-4 -1,-7l0 0zm39 1l0 -17c-3,0 -6,1 -9,2 -3,1 -5,1 -7,2 -2,2 -4,3 -5,5 -1,1 -1,3 -1,6 0,0 0,1 0,1 0,0 0,0 0,1 0,0 0,0 0,1 0,0 0,0 0,1l0 0 1 1c0,1 1,2 1,2 1,1 2,2 3,3 1,0 1,0 2,1 1,0 2,0 3,0 0,0 0,0 0,0 0,0 0,0 0,0 0,0 1,0 1,0 0,0 0,0 0,0 1,0 2,0 2,-1 1,0 2,0 2,-1 1,0 2,-1 2,-1 1,-1 1,-1 2,-2 0,0 0,0 1,0 0,-1 0,-1 1,-1 0,-1 0,-1 0,-1 1,-1 1,-1 1,-1l0 -1zm34 -32c0,-3 1,-6 2,-9 1,-2 3,-5 6,-6 2,-2 5,-3 7,-4 3,-1 6,-1 8,-1l6 0c1,0 1,0 2,0 1,0 1,0 2,0 1,0 1,0 2,0 1,0 1,1 2,1 1,0 2,1 4,1 1,0 2,1 3,1l-3 11 -5 0 -3 0c0,-1 -1,-3 -1,-4 -1,-1 -2,-1 -3,-2 -1,-1 -2,-1 -3,-1 0,-1 -1,-1 -2,-1 -1,0 -2,0 -2,0 -1,1 -2,1 -2,2 -2,0 -3,1 -3,2 -1,1 -1,3 -2,4l0 1 0 0 0 1 0 0c0,2 0,4 1,5 1,1 2,2 3,3 2,1 3,1 4,2 2,1 4,2 5,2 1,0 1,0 1,0 0,0 0,0 0,0 0,0 1,0 1,1 0,0 0,0 0,0 1,0 1,0 1,0 1,0 1,0 1,0 0,0 1,0 1,1 0,0 0,0 0,0 1,0 1,0 1,0 0,0 0,0 1,0 2,1 4,2 6,3 1,1 3,3 4,4 1,2 2,3 2,5 1,1 1,3 1,4l0 1 0 0c0,3 0,5 -2,7 -1,3 -3,5 -5,7 -2,2 -5,4 -8,5 -3,1 -6,1 -9,1l-6 0c-1,0 -3,0 -5,0 -2,0 -4,-1 -5,-1 -2,0 -4,-1 -5,-1 -1,-1 -3,-2 -4,-3l4 -10 5 0 2 0c1,2 2,3 2,4 1,1 2,2 3,2 1,1 1,2 2,2 1,1 2,1 3,1 0,1 0,1 0,1 0,0 1,0 1,0 0,0 0,0 0,0 0,0 0,0 1,0 1,0 2,-1 3,-1 1,-1 2,-1 3,-2 1,-1 2,-2 3,-4 1,-1 1,-2 1,-4l0 0 0 -1c0,-2 0,-3 -1,-5 -1,-1 -2,-2 -4,-3 -1,-1 -3,-1 -4,-2 -2,-1 -3,-1 -5,-2l0 0 -1 0c0,0 -1,0 -1,0 0,0 0,0 0,0 -1,0 -1,0 -1,0 0,0 0,-1 -1,-1 0,0 0,0 0,0 0,0 0,0 -1,0 0,0 0,0 0,0 -1,0 -1,0 -1,0 -1,-1 -3,-2 -4,-3 -2,0 -3,-2 -4,-3 -1,-1 -2,-2 -3,-4 0,-2 -1,-4 -1,-7l0 0zm100 0c0,-6 1,-12 3,-18 2,-5 6,-10 10,-15 4,-5 10,-8 16,-11 6,-2 13,-3 21,-3l5 0c0,0 1,0 1,0 1,0 1,0 2,0 0,0 1,0 1,0 1,0 1,0 1,0 1,0 2,0 3,0 1,0 2,0 3,0 2,0 4,0 6,1 2,0 4,0 5,1 2,0 4,1 5,2 2,0 4,1 5,2l-3 10 -6 0 -1 0c-1,-1 -3,-2 -5,-4 -1,-1 -3,-2 -5,-3 -2,-1 -4,-1 -5,-2 -2,-1 -4,-1 -6,-1 0,0 -1,-1 -2,-1 0,0 -1,0 -1,0 0,0 0,0 0,0 0,0 0,0 0,0 0,0 0,0 0,0 -1,0 -1,0 -1,0 -4,1 -8,2 -12,3 -3,2 -7,5 -10,8 -4,3 -6,8 -8,13 -2,5 -3,10 -3,17l0 1 0 0c0,8 1,15 3,20 2,6 5,10 9,13 3,3 7,5 11,7 3,2 7,3 12,3 2,0 4,-1 6,-1 3,-1 5,-1 7,-2 3,-1 5,-2 7,-3 2,-2 4,-3 5,-4l6 -1 -1 9c-1,0 -1,1 -2,1 -1,0 -1,1 -2,1 0,0 -1,1 -2,1 0,0 -1,1 -2,1 -1,0 -2,1 -3,1 0,0 -1,0 -2,1 -1,0 -1,0 -1,0 -1,0 -1,0 -1,0 -2,1 -3,1 -4,1 -1,0 -3,1 -4,1 -1,0 -2,0 -4,0 -1,0 -2,0 -3,0l-6 0c-6,0 -12,-1 -18,-3 -6,-2 -11,-5 -16,-10 -5,-4 -8,-9 -11,-15 -2,-6 -3,-13 -3,-21l0 0zm93 16c0,-5 1,-10 3,-14 1,-4 4,-8 7,-12 3,-3 7,-5 11,-7 4,-2 9,-3 14,-3l6 0c4,0 7,1 10,2 4,1 6,2 8,4 3,2 5,4 6,6 2,2 3,4 4,7 1,1 2,3 2,4 0,2 1,3 1,5 0,1 1,2 1,4 0,1 0,2 0,2 0,1 0,2 0,3 0,1 0,2 -1,3 0,0 0,1 0,2 0,1 0,2 -1,3 -1,3 -2,5 -4,8 -1,3 -3,5 -6,7 -3,3 -6,4 -9,5 -4,2 -8,2 -12,2l-6 0c0,0 0,0 0,0 0,0 -1,0 -1,0 0,0 0,0 0,0 0,0 0,0 0,0 0,0 0,0 0,0 0,0 -1,0 -1,0 -5,0 -9,-1 -13,-2 -4,-1 -7,-4 -10,-7 -3,-3 -5,-6 -6,-10 -2,-3 -3,-7 -3,-11l0 -1zm19 1c0,1 0,2 0,3 0,1 0,2 0,3 0,1 0,2 1,3 0,1 0,2 1,4 0,1 1,3 2,4 1,2 2,3 4,5 1,1 2,2 4,2 2,1 3,2 5,2 3,-1 5,-1 7,-2 2,-2 3,-3 5,-5 2,-2 3,-5 5,-9 1,-4 1,-8 2,-13 0,-4 -1,-8 -2,-11 0,-4 -2,-7 -3,-9 -2,-3 -3,-5 -6,-6 -2,-1 -4,-2 -7,-2 -3,0 -5,1 -7,2 -2,2 -4,4 -6,6 -1,3 -3,6 -4,9 -1,3 -1,6 -2,10 0,0 0,0 0,0 0,1 0,1 0,1l0 1c0,0 0,0 0,0 0,0 0,0 0,0 0,1 0,1 0,1 0,0 0,0 0,0 0,0 0,1 0,1 0,0 0,0 1,1l-6 -1 0 0 6 0z"/>
   <path class="fil1" d="M2135 960l0 -66 5 0 1 0 1 1c0,0 0,0 0,0 0,0 0,0 0,0 0,0 0,0 0,0 0,0 0,0 0,0 1,0 1,0 2,0 0,0 1,-1 1,-1l6 0 0 5c0,-1 1,-1 1,-1 1,-1 1,-1 2,-2 2,-1 3,-1 5,-2 2,0 4,-1 5,-1l6 0c2,0 4,0 6,1 2,0 3,0 5,1 1,0 2,1 4,2 1,1 2,2 3,4 1,0 1,0 1,1 0,0 0,0 0,0 1,-1 2,-2 3,-3 1,-1 3,-2 4,-2 2,-1 4,-2 6,-3 2,0 4,-1 6,-1l5 0c4,0 7,1 10,2 2,1 5,2 7,4 2,2 3,4 4,7 1,2 2,4 2,7l0 0 0 1 0 0 0 0 0 1 0 0 0 45 -5 0c-1,0 -1,0 -1,0 0,0 -1,0 -1,0 0,0 0,0 0,0 -1,0 -1,0 -1,0 0,0 0,0 0,0 0,0 0,0 0,0 0,0 0,0 0,0 0,0 0,0 0,0 0,0 0,0 0,0 0,0 -1,0 -1,0 0,0 -1,0 -1,0 -1,0 -1,0 -2,0l-5 0 0 -44c0,-2 -1,-4 -1,-6 -1,-2 -2,-3 -4,-5 -1,-1 -2,-2 -4,-2 -1,-1 -2,-1 -4,-2 -1,1 -2,1 -4,2 -1,0 -2,1 -3,2 -2,2 -3,4 -4,6 -1,2 -1,5 -2,8l0 41 -5 0c0,0 0,0 -1,0 0,0 0,0 0,0 -1,0 -1,0 -1,0 0,0 0,0 -1,0 0,0 0,0 0,0 0,0 0,0 0,0 0,0 0,0 0,0 0,0 0,0 0,0 0,0 0,0 0,0 0,0 0,0 0,0 0,0 -1,0 -1,0 0,0 -1,0 -1,0l-6 0 0 -44c0,-2 0,-4 -1,-6 -1,-1 -2,-3 -4,-4 -1,-1 -2,-2 -4,-3 -1,-1 -2,-1 -4,-1 -1,0 -2,0 -4,1 -1,1 -2,1 -3,2 -2,2 -3,4 -4,6 -1,2 -1,5 -1,8l0 41 -6 0c0,0 0,0 0,0 0,0 -1,0 -1,0 0,0 0,0 -1,0 0,0 0,0 0,0 0,0 0,0 0,0 0,0 0,0 0,0 0,0 0,0 0,0 0,0 0,0 0,0 0,0 0,0 0,0 -1,0 -1,0 -1,0 0,0 -1,0 -1,0 -1,0 -1,0 -2,0l-5 0zm118 -23l0 -42 5 0c1,0 1,1 2,1 0,0 1,0 1,0 0,0 0,0 0,0 0,0 0,0 0,0 1,0 1,0 1,0 0,0 0,0 0,0 0,0 1,0 1,0 1,0 1,0 2,-1l5 0 0 38c0,3 0,6 1,9 1,2 2,4 3,7 1,1 2,3 3,4 2,1 4,2 6,2 2,0 4,-1 6,-2 1,-1 3,-2 4,-3 1,-2 2,-4 2,-6 1,-1 1,-3 1,-5 0,0 0,0 0,-1 0,0 1,0 1,0 0,0 0,0 0,0 0,0 0,-1 0,-1 0,0 0,0 0,0 0,0 0,0 0,0 0,-1 0,-1 0,-1 0,0 0,0 0,0l0 -41 5 0c0,0 0,0 0,1 0,0 0,0 1,0 0,0 0,0 0,0 0,0 0,0 0,0 0,0 0,0 1,0 0,0 0,0 0,0 0,0 0,0 0,0 0,0 1,0 1,0 0,0 0,0 0,0 0,0 0,0 0,0 0,0 0,0 0,0 0,0 0,0 1,0 0,0 0,0 1,0 0,0 1,0 1,-1l6 0 0 65 -6 0c0,0 0,0 -1,0 0,0 -1,0 -1,0 0,0 0,0 0,0 0,0 0,0 0,0 0,0 0,0 0,0 0,0 0,0 0,0 0,0 0,0 -1,0 0,0 0,0 0,0 0,0 -1,0 -1,0 -1,0 -1,0 -2,0l-5 0 0 -3c-1,1 -2,1 -2,1 -1,1 -2,1 -2,1 -2,1 -4,1 -7,2 -2,0 -4,0 -6,0l-6 0c-3,0 -6,0 -9,-1 -2,-1 -4,-2 -6,-3 -1,-2 -2,-3 -3,-5 -1,-2 -2,-4 -2,-5 0,-1 0,-1 0,-2 -1,0 -1,-1 -1,-1 0,0 0,-1 0,-1 0,-1 0,-1 0,-1 0,-1 0,-2 0,-3 0,-1 0,-1 0,-2l0 0zm83 23l0 -66 6 0c0,0 0,0 1,1 0,0 0,0 1,0 0,0 0,0 0,0 0,0 0,0 0,0 0,0 0,0 0,0 0,0 1,0 1,0 0,0 0,0 0,0 0,0 0,0 0,0 0,0 0,0 0,0 0,0 0,0 0,0 0,0 1,0 1,0 1,0 1,-1 2,-1l5 0 0 5c1,0 2,-1 3,-1 1,-1 2,-2 3,-2 1,-1 3,-2 5,-2 2,-1 4,-1 6,-1l6 0 0 0 0 0c3,0 5,1 7,2 3,1 5,3 7,5 2,2 4,5 5,8 1,4 2,8 2,13l0 39 -6 0c0,0 0,0 0,0 0,0 -1,0 -1,0 0,0 0,0 0,0 -1,0 -1,0 -1,0 0,0 0,0 0,0 0,0 0,0 0,0 0,0 0,0 0,0 0,0 0,0 0,0 0,0 0,0 0,0 0,0 0,0 0,0 -1,0 -1,0 -2,0 0,0 -1,0 -2,0l-5 0 0 -39c0,-3 -1,-6 -1,-8 -1,-3 -2,-5 -4,-6 -1,-2 -2,-3 -4,-4 -1,0 -3,-1 -4,-1 -2,0 -3,1 -5,2 -1,1 -3,2 -4,3 -2,2 -3,4 -4,7 0,3 -1,6 -1,9l0 37 -5 0c-1,0 -1,0 -2,0 0,0 -1,0 -1,0 0,0 0,0 0,0 0,0 0,0 0,0 0,0 0,0 0,0 0,0 0,0 0,0 0,0 0,0 0,0 0,0 0,0 0,0 -1,0 -1,0 -1,0 0,0 -1,0 -1,0 0,0 0,0 -1,0 0,0 0,0 0,0l-6 0zm82 0l0 -66 6 0c0,0 0,0 0,0 0,0 0,0 0,0 0,1 0,1 0,1 0,0 0,0 1,0 0,0 0,0 0,0 0,0 0,0 1,0 0,0 0,0 0,0 0,0 0,0 0,0 0,0 0,0 0,0 0,0 1,0 1,0 0,0 0,0 0,0 0,0 0,0 0,0 1,0 1,0 1,0 1,0 1,-1 2,-1l5 0 0 66 -5 0c-1,0 -1,0 -1,0 -1,0 -1,0 -2,0 0,0 0,0 0,0 0,0 0,0 0,0 0,0 0,0 0,0 0,0 0,0 0,0 0,0 0,0 0,0 0,0 0,0 0,0 -1,0 -1,0 -2,0 0,0 -1,0 -1,0l-6 0zm-1 -89c0,-1 0,-3 1,-3 0,-1 1,-2 1,-3 1,0 2,-1 3,-1 0,0 1,-1 2,-1l6 0c1,0 1,1 2,1 1,0 2,1 3,1 1,1 1,2 2,3 0,1 0,2 0,3 0,1 0,2 -1,3 0,1 -1,2 -1,3 -1,0 -2,1 -3,1 0,0 -1,1 -2,1l-6 -1c-1,0 -1,0 -2,0 -1,0 -2,-1 -3,-1 0,-1 -1,-2 -1,-3 -1,-1 -1,-2 -1,-3l0 0zm37 58c0,-5 1,-9 3,-13 1,-4 3,-8 6,-11 3,-3 7,-6 12,-7 4,-2 9,-3 16,-3l5 0c2,0 3,1 5,1 1,0 2,0 3,0 1,1 3,1 4,1 1,0 2,1 3,1 0,0 0,0 1,0 0,1 0,1 0,1 0,0 1,0 1,0 0,0 0,0 0,0 1,1 1,1 2,1 0,0 1,1 1,1l-2 9 -5 0 -2 0c-2,-1 -3,-3 -4,-4 -1,-1 -2,-2 -4,-3 -1,0 -2,-1 -4,-1 -1,-1 -2,-1 -4,-1 -3,0 -5,1 -7,2 -2,2 -4,4 -6,6 -2,3 -3,6 -4,9 -1,4 -1,7 -1,10 0,4 0,7 1,10 1,4 2,7 4,9 2,3 4,5 7,6 2,2 5,3 8,3 2,0 3,0 4,-1 2,0 3,0 4,-1 1,-1 3,-1 4,-2 1,-1 3,-3 4,-4l0 0 1 -1 5 0 1 1 -1 7c-1,1 -3,2 -5,3 -1,1 -3,2 -5,2 -2,1 -4,1 -5,1 -2,1 -4,1 -6,1l-6 0 0 0 0 0c-5,0 -8,-1 -12,-2 -4,-2 -8,-4 -11,-6 -4,-3 -6,-6 -8,-10 -2,-4 -3,-8 -3,-13l0 -1 0 0 0 0 0 -1 0 0zm75 16c0,-2 0,-4 1,-5 1,-2 2,-4 3,-5 1,-2 3,-3 5,-5 2,-1 5,-2 8,-3l17 -3c1,0 2,-1 3,-1 0,0 1,-1 2,-1 0,-1 0,-2 1,-3 0,-1 0,-1 0,-2 0,-1 0,-1 0,-1 0,0 0,0 0,0 0,0 0,-1 0,-1 0,0 0,0 0,0 0,-1 0,-1 0,-1 0,-1 -1,-1 -1,-2 0,-1 -1,-2 -2,-4 -1,-1 -2,-2 -3,-4 -1,0 -2,-1 -3,-2 -2,-1 -3,-1 -4,-1 -1,0 -2,0 -2,0 -1,0 -1,1 -2,1 -1,0 -1,1 -2,1 -1,0 -2,1 -3,2 0,0 -1,0 -1,1 0,0 -1,1 -1,1 -1,1 -1,1 -2,2 0,0 -1,1 -1,1l-6 0 -2 0 0 -7c1,0 1,0 1,-1 0,0 1,0 1,0 0,0 0,0 1,0 0,-1 0,-1 1,-1 1,-1 2,-1 4,-2 1,-1 2,-1 4,-2 2,0 3,-1 5,-1 2,0 4,-1 6,-1l5 0c4,0 8,1 11,2 3,1 5,2 7,4 2,1 3,4 4,6 1,3 2,7 2,11l0 34c0,0 0,1 0,2 0,0 0,1 0,1 1,0 1,0 1,0 0,0 0,0 0,0 0,0 0,0 0,0 0,0 0,0 0,0 0,0 0,0 0,0 0,0 0,0 0,0 0,0 0,0 0,0 1,0 1,0 1,0l5 0 0 3c0,0 -1,1 -1,1 -1,0 -1,1 -2,1 0,0 -1,0 -1,0 0,0 0,0 -1,0 0,0 0,0 -1,0 0,0 0,0 0,0l-1 1 -5 0 -1 0c-2,0 -3,-1 -4,-1 -1,0 -3,-1 -4,-1 0,-1 -1,-1 -1,-1 -1,-1 -1,-1 -1,-2 -2,1 -3,2 -4,3 -2,1 -3,1 -4,1 -2,1 -3,1 -5,2 -1,0 -3,0 -4,0l-5 0c-3,0 -5,0 -8,-1 -2,-1 -4,-2 -6,-4 -1,-1 -3,-3 -4,-5 -1,-2 -1,-4 -1,-7l0 0zm39 1l0 -17c-3,0 -6,1 -9,2 -3,1 -5,1 -7,2 -2,2 -3,3 -5,5 -1,1 -1,3 -1,6 0,0 0,1 0,1 0,0 0,0 0,1 0,0 0,0 0,1 0,0 0,0 0,1l0 0 1 1c0,1 1,2 1,2 1,1 2,2 3,3 1,0 2,0 2,1 1,0 2,0 3,0 0,0 0,0 0,0 0,0 0,0 1,0 0,0 0,0 0,0 0,0 0,0 0,0 1,0 2,0 2,-1 1,0 2,0 3,-1 0,0 1,-1 1,-1 1,-1 1,-1 2,-2 0,0 1,0 1,0 0,-1 1,-1 1,-1 0,-1 0,-1 1,-1 0,-1 0,-1 0,-1l0 -1zm33 -17c0,-5 1,-9 3,-13 1,-4 3,-8 6,-11 3,-3 7,-6 12,-7 4,-2 10,-3 16,-3l5 0c2,0 3,1 5,1 1,0 2,0 3,0 2,1 3,1 4,1 1,0 2,1 3,1 0,0 0,0 1,0 0,1 0,1 0,1 1,0 1,0 1,0 0,0 0,0 1,0 0,1 0,1 1,1 0,0 1,1 1,1l-2 9 -5 0 -2 0c-1,-1 -3,-3 -4,-4 -1,-1 -2,-2 -4,-3 -1,0 -2,-1 -3,-1 -2,-1 -3,-1 -5,-1 -2,0 -5,1 -7,2 -2,2 -4,4 -6,6 -2,3 -3,6 -4,9 -1,4 -1,7 -1,10 0,4 0,7 1,10 1,4 3,7 4,9 2,3 4,5 7,6 2,2 5,3 8,3 2,0 3,0 4,-1 2,0 3,0 4,-1 1,-1 3,-1 4,-2 2,-1 3,-3 4,-4l0 0 1 -1 5 0 1 1 -1 7c-1,1 -3,2 -4,3 -2,1 -4,2 -6,2 -2,1 -3,1 -5,1 -2,1 -4,1 -6,1l-5 0 -1 0 0 0c-4,0 -8,-1 -12,-2 -4,-2 -8,-4 -11,-6 -4,-3 -6,-6 -8,-10 -2,-4 -3,-8 -3,-13l0 -1 0 0 0 0 0 -1 0 0zm81 31l0 -66 5 0c0,0 0,0 0,0 0,0 0,0 0,0 0,1 1,1 1,1 0,0 0,0 0,0 0,0 0,0 0,0 1,0 1,0 1,0 0,0 0,0 0,0 0,0 0,0 0,0 1,0 1,0 1,0 0,0 0,0 0,0 0,0 0,0 0,0 0,0 0,0 0,0 1,0 1,0 2,0 0,0 1,-1 1,-1l6 0 0 66 -6 0c0,0 -1,0 -1,0 0,0 -1,0 -1,0 0,0 0,0 0,0 0,0 0,0 0,0 0,0 0,0 -1,0 0,0 0,0 0,0 0,0 0,0 0,0 0,0 0,0 0,0 0,0 -1,0 -1,0 -1,0 -2,0 -2,0l-5 0zm-2 -89c0,-1 1,-3 1,-3 0,-1 1,-2 2,-3 0,0 1,-1 2,-1 1,0 2,-1 2,-1l6 0c1,0 2,1 3,1 1,0 1,1 2,1 1,1 2,2 2,3 1,1 1,2 1,3 0,1 -1,2 -1,3 -1,1 -1,2 -2,3 -1,0 -1,1 -2,1 -1,0 -2,1 -3,1l-5 -1c-1,0 -2,0 -3,0 -1,0 -2,-1 -2,-1 -1,-1 -2,-2 -2,-3 0,-1 -1,-2 -1,-3l0 0zm36 59c0,-5 1,-10 2,-14 2,-4 4,-8 7,-12 3,-3 7,-5 11,-7 5,-2 9,-3 15,-3l5 0c4,0 8,1 11,2 3,1 6,2 8,4 2,2 4,4 5,6 2,2 3,4 5,7 0,1 1,3 1,4 1,2 1,3 1,5 1,1 1,2 1,4 0,1 0,2 0,2 0,1 0,2 0,3 0,1 0,2 0,3 0,0 0,1 -1,2 0,1 0,2 0,3 -1,3 -3,5 -4,8 -2,3 -4,5 -7,7 -2,3 -5,4 -9,5 -3,2 -7,2 -12,2l-5 0c-1,0 -1,0 -1,0 0,0 0,0 0,0 -1,0 -1,0 -1,0 0,0 0,0 0,0 0,0 0,0 0,0 0,0 0,0 0,0 -5,0 -10,-1 -14,-2 -4,-1 -7,-4 -10,-7 -3,-3 -5,-6 -6,-10 -2,-3 -2,-7 -2,-11l0 -1zm18 1c0,1 0,2 0,3 0,1 0,2 0,3 0,1 1,2 1,3 0,1 1,2 1,4 1,1 2,3 3,4 1,2 2,3 3,5 1,1 3,2 4,2 2,1 4,2 6,2 2,-1 4,-1 6,-2 2,-2 4,-3 5,-5 2,-2 4,-5 5,-9 1,-4 2,-8 2,-13 0,-4 0,-8 -1,-11 -1,-4 -2,-7 -4,-9 -1,-3 -3,-5 -5,-6 -2,-1 -5,-2 -8,-2 -2,0 -5,1 -7,2 -2,2 -4,4 -5,6 -2,3 -4,6 -5,9 -1,3 -1,6 -1,10 0,0 0,0 0,0 0,1 0,1 0,1l0 1c0,0 0,0 0,0 0,0 0,0 0,0 0,1 0,1 0,1 0,0 0,0 0,0 0,0 0,1 0,1 0,0 0,0 0,1l-6 -1 0 0 6 0z"/>
   <path class="fil1" d="M2804 960l0 -66 6 0c0,0 0,0 1,1 0,0 0,0 1,0 0,0 0,0 0,0 0,0 0,0 0,0 0,0 0,0 0,0 0,0 1,0 1,0 0,0 0,0 0,0 0,0 0,0 0,0 0,0 0,0 0,0 0,0 0,0 0,0 0,0 1,0 1,0 1,0 1,-1 2,-1l5 0 0 5c1,0 2,-1 3,-1 1,-1 2,-2 3,-2 1,-1 3,-2 5,-2 2,-1 4,-1 6,-1l6 0 0 0 0 0c3,0 5,1 8,2 2,1 4,3 6,5 2,2 4,5 5,8 1,4 2,8 2,13l0 39 -6 0c0,0 0,0 0,0 0,0 0,0 -1,0 0,0 0,0 0,0 -1,0 -1,0 -1,0 0,0 0,0 0,0 0,0 0,0 0,0 0,0 0,0 0,0 0,0 0,0 0,0 0,0 0,0 0,0 0,0 0,0 0,0 -1,0 -1,0 -2,0 0,0 -1,0 -2,0l-5 0 0 -39c0,-3 -1,-6 -1,-8 -1,-3 -2,-5 -4,-6 -1,-2 -2,-3 -4,-4 -1,0 -2,-1 -4,-1 -2,0 -3,1 -5,2 -1,1 -2,2 -4,3 -2,2 -3,4 -4,7 0,3 -1,6 -1,9l0 37 -5 0c-1,0 -1,0 -2,0 0,0 -1,0 -1,0 0,0 0,0 0,0 0,0 0,0 0,0 0,0 0,0 0,0 0,0 0,0 0,0 0,0 0,0 0,0 0,0 0,0 0,0 -1,0 -1,0 -1,0 0,0 -1,0 -1,0 0,0 0,0 -1,0 0,0 0,0 0,0l-6 0zm75 -30c0,-5 0,-11 2,-15 1,-4 4,-8 7,-11 3,-3 6,-5 10,-6 3,-2 7,-3 12,-3l5 0c4,0 7,1 10,2 3,1 6,2 8,4 2,2 3,4 5,6 1,2 2,4 3,6 0,1 1,2 1,3 0,1 0,2 1,3 0,1 0,2 0,3 0,0 0,1 0,2 0,0 0,0 0,1 0,0 0,0 0,0 0,0 0,1 0,1 0,0 0,0 0,0 0,1 0,1 0,1 0,1 0,1 0,1l-6 0 -40 0c0,4 0,8 1,11 1,3 2,6 4,9 1,2 3,4 6,5 2,1 6,2 9,2 2,0 3,0 4,-1 2,0 3,-1 5,-1 1,-1 3,-2 4,-3 2,-1 3,-2 4,-3l5 -1 2 8 -1 0 0 0 -1 1 -1 0c-1,1 -3,2 -4,3 -2,1 -3,2 -5,2 -1,1 -3,1 -5,2 -3,0 -5,0 -8,0l-5 0c-6,0 -11,-1 -15,-3 -4,-1 -7,-4 -9,-7 -3,-3 -5,-6 -6,-10 -1,-4 -2,-7 -2,-11l0 -1zm48 -7c0,0 0,-1 0,-1 0,0 0,0 0,0 0,-1 0,-1 0,-1 0,0 0,0 0,0 0,0 -1,0 -1,-1 0,0 0,0 0,0 0,-2 0,-5 -1,-7 0,-2 -1,-4 -3,-6 -1,-2 -2,-3 -4,-4 -1,-1 -3,-2 -6,-2 -1,0 -3,1 -4,1 -2,1 -3,2 -4,4 -2,1 -3,3 -4,5 -1,2 -2,4 -2,6 0,0 -1,1 -1,1 0,1 0,1 0,2 0,1 0,1 0,2 0,0 0,1 0,1l30 0zm27 -9c0,-3 1,-6 2,-9 1,-2 3,-5 5,-6 3,-2 5,-3 8,-4 3,-1 6,-1 8,-1l6 0c1,0 1,0 2,0 1,0 1,0 2,0 1,0 1,0 2,0 1,0 1,1 2,1 1,0 2,1 4,1 1,0 2,1 3,1l-3 11 -6 0 -2 0c0,-1 -1,-3 -1,-4 -1,-1 -2,-1 -3,-2 -1,-1 -2,-1 -3,-1 0,-1 -1,-1 -2,-1 -1,0 -2,0 -2,0 -1,1 -2,1 -2,2 -2,0 -3,1 -3,2 -1,1 -1,3 -2,4l0 1 0 0 0 1 0 0c0,2 0,4 1,5 1,1 2,2 3,3 1,1 3,1 4,2 2,1 4,2 5,2 0,0 1,0 1,0 0,0 0,0 0,0 0,0 0,0 1,1 0,0 0,0 0,0 1,0 1,0 1,0 1,0 1,0 1,0 0,0 1,0 1,1 0,0 0,0 0,0 0,0 1,0 1,0 0,0 0,0 1,0 2,1 4,2 6,3 1,1 3,3 4,4 1,2 2,3 2,5 1,1 1,3 1,4l0 1 0 0c0,3 0,5 -2,7 -1,3 -3,5 -5,7 -2,2 -5,4 -8,5 -3,1 -6,1 -9,1l-6 0c-1,0 -3,0 -5,0 -2,0 -4,-1 -5,-1 -2,0 -4,-1 -5,-1 -1,-1 -3,-2 -4,-3l3 -10 6 0 2 0c1,2 2,3 2,4 1,1 2,2 3,2 0,1 1,2 2,2 1,1 2,1 3,1 0,1 0,1 0,1 0,0 1,0 1,0 0,0 0,0 0,0 0,0 0,0 1,0 1,0 2,-1 3,-1 1,-1 2,-1 3,-2 1,-1 2,-2 3,-4 1,-1 1,-2 1,-4l0 0 0 -1c0,-2 0,-3 -1,-5 -1,-1 -2,-2 -4,-3 -1,-1 -3,-1 -4,-2 -2,-1 -3,-1 -5,-2l-1 0 0 0c0,0 -1,0 -1,0 0,0 0,0 0,0 -1,0 -1,0 -1,0 0,0 0,-1 -1,-1 0,0 0,0 0,0 0,0 -1,0 -1,0 0,0 0,0 0,0 -1,0 -1,0 -1,0 -2,-1 -3,-2 -4,-3 -2,0 -3,-2 -4,-3 -1,-1 -2,-2 -3,-4 0,-2 -1,-4 -1,-7l0 0z"/>
  </g>
  <g id="_2659814842336">
   <g>
    <path class="fil0" d="M4792 103c0,0 0,0 0,0l95 44 -87 -51 0 0 -53 -30c-3,4 -7,8 -10,12l55 25 0 0z"/>
    <path class="fil0" d="M4758 163l48 30 -54 0c0,-13 6,-30 6,-30zm140 190c-77,0 -140,-59 -147,-134l136 0 -124 -73 -49 -31 0 0c-12,24 -19,50 -21,78l-35 0 0 26 35 0c7,107 96,193 205,193 86,0 159,-53 190,-128l-51 -30c-20,58 -74,99 -139,99z"/>
    <path class="fil0" d="M4887 184l-108 -65 -51 -29c-2,4 -5,8 -7,12l52 26 114 56z"/>
    <path class="fil0" d="M5031 193l-68 0 31 -55 -156 -67c0,0 67,-34 135,8 58,36 65,84 65,84l52 -31c-30,-77 -104,-132 -192,-132 -54,0 -104,21 -140,56l60 26 146 62 -42 75 103 0 79 0 0 -26 -73 0z"/>
   </g>
   <g>
    <path class="fil0" d="M4040 660c-7,4 -17,6 -27,6 -31,0 -49,-20 -49,-52 0,-33 20,-52 50,-52 10,0 19,2 25,5l4 -13c-4,-3 -14,-6 -30,-6 -39,0 -67,27 -67,67 0,42 28,65 63,65 16,0 28,-3 34,-6l-3 -14z"/>
    <path class="fil0" d="M4130 638l13 40 18 0 -44 -128 -20 0 -43 128 17 0 13 -40 46 0zm-42 -13l12 -37c3,-8 5,-16 7,-23l0 0c2,7 4,15 7,23l12 37 -38 0zm27 -104l-17 22 13 0 24 -22 -20 0z"/>
    <path class="fil0" d="M4290 678l16 0 -8 -128 -21 0 -22 62c-6,16 -10,30 -14,43l0 0c-3,-13 -8,-27 -13,-43l-22 -62 -21 0 -9 128 16 0 3 -55c1,-19 2,-40 3,-56l0 0c4,15 9,31 15,49l21 61 12 0 23 -62c6,-18 11,-33 16,-48l0 0c0,16 1,37 2,55l3 56z"/>
    <path class="fil0" d="M4398 638l13 40 18 0 -44 -128 -20 0 -43 128 17 0 13 -40 46 0zm-42 -13l12 -37c3,-8 5,-16 7,-23l0 0c2,7 4,15 7,23l12 37 -38 0z"/>
    <path class="fil0" d="M4448 678l16 0 0 -56 16 0c14,1 21,8 25,25 4,16 7,27 9,31l17 0c-3,-5 -6,-18 -10,-35 -3,-14 -9,-23 -19,-26l0 -1c13,-4 24,-15 24,-32 0,-10 -4,-19 -10,-24 -8,-8 -19,-11 -37,-11 -11,0 -23,1 -31,3l0 126zm16 -115c3,0 8,-1 16,-1 18,0 30,7 30,24 0,14 -12,24 -29,24l-17 0 0 -47z"/>
    <path class="fil0" d="M4615 638l14 40 17 0 -43 -128 -20 0 -43 128 17 0 13 -40 45 0zm-42 -13l13 -37c2,-8 4,-16 6,-23l1 0c2,7 3,15 6,23l13 37 -39 0z"/>
    <path class="fil0" d="M4705 677c9,1 18,2 30,2 25,0 45,-7 57,-19 11,-11 18,-28 18,-49 0,-21 -7,-35 -18,-46 -11,-10 -28,-16 -52,-16 -13,0 -25,1 -35,3l0 125zm17 -113c4,-1 11,-2 19,-2 35,0 52,19 52,49 0,35 -19,55 -55,55 -6,0 -12,-1 -16,-1l0 -101z"/>
    <polygon class="fil0" points="4897,604 4848,604 4848,564 4900,564 4900,550 4831,550 4831,678 4903,678 4903,664 4848,664 4848,618 4897,618 "/>
    <path class="fil0" d="M5050 660c-6,4 -17,6 -27,6 -31,0 -49,-20 -49,-52 0,-33 20,-52 50,-52 11,0 20,2 26,5l4 -13c-5,-3 -15,-6 -30,-6 -40,0 -67,27 -67,67 0,42 27,65 63,65 15,0 28,-3 34,-6l-4 -14z"/>
    <path class="fil0" d="M5126 548c-34,0 -59,27 -59,67 0,39 23,65 57,65 33,0 59,-23 59,-67 0,-38 -22,-65 -57,-65l0 0zm-1 14c28,0 41,26 41,51 0,29 -15,53 -41,53 -26,0 -41,-24 -41,-51 0,-28 14,-53 41,-53l0 0z"/>
    <path class="fil0" d="M5315 678l16 0 -8 -128 -21 0 -22 62c-6,16 -10,30 -14,43l0 0c-3,-13 -8,-27 -13,-43l-22 -62 -21 0 -9 128 16 0 3 -55c1,-19 2,-40 3,-56l0 0c4,15 9,31 15,49l21 61 12 0 23 -62c6,-18 11,-33 16,-48l0 0c0,16 1,37 2,55l3 56z"/>
    <polygon class="fil0" points="5423,604 5373,604 5373,564 5426,564 5426,550 5357,550 5357,678 5428,678 5428,664 5373,664 5373,618 5423,618 "/>
    <path class="fil0" d="M5450 678l16 0 0 -56 16 0c15,1 22,8 25,25 4,16 7,27 9,31l17 0c-3,-5 -6,-18 -10,-35 -3,-14 -9,-23 -19,-26l0 -1c14,-4 24,-15 24,-32 0,-10 -3,-19 -10,-24 -8,-8 -19,-11 -37,-11 -11,0 -23,1 -31,3l0 126zm16 -115c3,0 9,-1 17,-1 17,0 29,7 29,24 0,14 -11,24 -29,24l-17 0 0 -47z"/>
    <path class="fil0" d="M5637 660c-6,4 -16,6 -26,6 -32,0 -50,-20 -50,-52 0,-33 20,-52 50,-52 11,0 20,2 26,5l4 -13c-4,-3 -14,-6 -30,-6 -40,0 -67,27 -67,67 0,42 27,65 63,65 16,0 28,-3 34,-6l-4 -14z"/>
    <polygon class="fil0" points="5661,550 5661,678 5678,678 5678,550 "/>
    <path class="fil0" d="M5758 548c-34,0 -59,27 -59,67 0,39 24,65 57,65 33,0 60,-23 60,-67 0,-38 -23,-65 -58,-65l0 0zm0 14c27,0 40,26 40,51 0,29 -15,53 -41,53 -26,0 -40,-24 -40,-51 0,-28 13,-53 41,-53l0 0z"/>
   </g>
   <g>
    <path class="fil0" d="M3823 904c8,1 18,2 30,2 25,0 44,-7 56,-18 12,-12 19,-29 19,-50 0,-21 -7,-35 -18,-46 -12,-10 -28,-16 -52,-16 -13,0 -25,1 -35,3l0 125zm16 -113c5,-1 11,-2 20,-2 35,0 52,19 51,50 0,34 -19,54 -54,54 -6,0 -12,-1 -17,-1l0 -101z"/>
    <polygon class="fil0" points="4015,831 3965,831 3965,791 4018,791 4018,777 3949,777 3949,905 4021,905 4021,891 3965,891 3965,845 4015,845 "/>
    <polygon class="fil0" points="4082,905 4153,905 4153,891 4099,891 4099,777 4082,777 "/>
    <path class="fil0" d="M4237 865l14 40 18 0 -44 -128 -20 0 -43 128 17 0 13 -40 45 0zm-42 -13l13 -37c2,-8 5,-16 6,-23l1 0c2,7 4,15 6,23l13 37 -39 0z"/>
    <path class="fil0" d="M4327 905l17 0 0 -55 15 0c15,0 22,7 26,24 4,16 6,27 8,31l17 0c-2,-5 -5,-17 -9,-35 -3,-13 -9,-23 -19,-26l0 -1c13,-4 24,-15 24,-32 0,-10 -4,-19 -10,-24 -8,-8 -19,-11 -37,-11 -11,0 -23,1 -32,3l0 126zm17 -115c2,0 8,-1 16,-1 18,0 29,7 29,24 0,14 -11,24 -28,24l-17 0 0 -47z"/>
    <polygon class="fil0" points="4495,831 4446,831 4446,791 4498,791 4498,777 4429,777 4429,905 4501,905 4501,891 4446,891 4446,845 4495,845 "/>
    <path class="fil0" d="M4522 905l17 0 0 -51c4,1 8,1 13,1 16,0 30,-5 39,-14 6,-7 10,-16 10,-27 0,-12 -4,-21 -11,-27 -8,-7 -20,-11 -36,-11 -13,0 -24,1 -32,3l0 126zm17 -114c3,-1 8,-2 15,-2 18,0 30,8 30,25 0,18 -12,28 -32,28 -5,0 -10,-1 -13,-2l0 -49z"/>
    <path class="fil0" d="M4623 777l0 75c0,40 19,55 46,55 27,0 48,-16 48,-55l0 -75 -17 0 0 76c0,28 -12,40 -31,40 -17,0 -30,-12 -30,-40l0 -76 -16 0zm55 -29l-18 22 14 0 24 -22 -20 0z"/>
    <path class="fil0" d="M4745 904c6,1 15,2 26,2 21,0 35,-4 44,-12 6,-6 11,-15 11,-26 0,-18 -14,-29 -27,-32l0 0c14,-5 22,-16 22,-28 0,-10 -4,-18 -11,-22 -7,-7 -18,-10 -35,-10 -11,0 -22,1 -30,3l0 125zm17 -114c2,0 7,-1 14,-1 17,0 28,6 28,21 0,12 -10,21 -27,21l-15 0 0 -41zm0 54l13 0c18,0 33,7 33,24 0,19 -15,25 -32,25 -6,0 -11,0 -14,-1l0 -48z"/>
    <polygon class="fil0" points="4848,905 4919,905 4919,891 4864,891 4864,777 4848,777 "/>
    <polygon class="fil0" points="4937,777 4937,905 4954,905 4954,777 "/>
    <path class="fil0" d="M5068 888c-6,3 -17,5 -27,5 -31,0 -49,-20 -49,-51 0,-34 20,-53 50,-53 11,0 20,2 26,5l4 -13c-5,-2 -15,-6 -30,-6 -40,0 -67,27 -67,67 0,42 27,65 63,65 15,0 28,-3 34,-6l-4 -13z"/>
    <path class="fil0" d="M5158 865l14 40 17 0 -43 -128 -20 0 -43 128 17 0 13 -40 45 0zm-42 -13l13 -37c2,-8 4,-16 6,-23l1 0c1,7 3,15 6,23l13 37 -39 0z"/>
    <path class="fil0" d="M5248 904c8,1 18,2 30,2 25,0 45,-7 56,-18 12,-12 19,-29 19,-50 0,-21 -7,-35 -18,-46 -11,-10 -28,-16 -52,-16 -13,0 -25,1 -35,3l0 125zm17 -113c4,-1 10,-2 19,-2 35,0 52,19 52,50 0,34 -20,54 -55,54 -6,0 -12,-1 -16,-1l0 -101z"/>
    <polygon class="fil0" points="5440,831 5391,831 5391,791 5443,791 5443,777 5374,777 5374,905 5446,905 5446,891 5391,891 5391,845 5440,845 "/>
    <path class="fil0" d="M5593 888c-7,3 -17,5 -27,5 -31,0 -49,-20 -49,-51 0,-34 20,-53 50,-53 11,0 19,2 26,5l4 -13c-5,-2 -15,-6 -31,-6 -39,0 -66,27 -66,67 0,42 27,65 63,65 15,0 27,-3 34,-6l-4 -13z"/>
    <path class="fil0" d="M5617 777l0 75c0,40 20,55 46,55 27,0 48,-16 48,-55l0 -75 -17 0 0 76c0,28 -12,40 -31,40 -17,0 -29,-12 -29,-40l0 -76 -17 0z"/>
    <path class="fil0" d="M5740 904c5,1 14,2 25,2 21,0 35,-4 44,-12 7,-6 11,-15 11,-26 0,-18 -14,-29 -26,-32l0 0c13,-5 21,-16 21,-28 0,-10 -4,-18 -10,-22 -8,-7 -19,-10 -35,-10 -12,0 -23,1 -30,3l0 125zm16 -114c3,0 7,-1 15,-1 16,0 28,6 28,21 0,12 -11,21 -28,21l-15 0 0 -41zm0 54l14 0c18,0 33,7 33,24 0,19 -16,25 -33,25 -6,0 -11,0 -14,-1l0 -48z"/>
    <path class="fil0" d="M5908 865l14 40 17 0 -43 -128 -20 0 -44 128 17 0 14 -40 45 0zm-42 -13l13 -37c2,-8 4,-16 6,-23l0 0c2,7 4,15 7,23l13 37 -39 0z"/>
   </g>
   <g>
    <path class="fil0" d="M4092 1080l0 -38c0,-15 0,-26 -1,-37l0 0c5,10 11,20 17,30l28 45 12 0 0 -89 -11 0 0 37c0,14 0,25 1,36l0 1c-4,-10 -9,-19 -16,-29l-28 -45 -13 0 0 89 11 0z"/>
    <path class="fil0" d="M4221 1016l-12 0 0 39c0,2 0,4 -1,6 -2,5 -8,10 -15,10 -11,0 -15,-8 -15,-20l0 -35 -11 0 0 37c0,22 12,28 22,28 11,0 18,-7 21,-12l0 0 1 11 10 0c0,-5 0,-11 0,-18l0 -46z"/>
    <path class="fil0" d="M4291 1050c0,-1 0,-3 0,-6 0,-11 -5,-30 -26,-30 -19,0 -30,16 -30,35 0,19 12,32 31,32 10,0 17,-2 22,-4l-2 -8c-5,1 -10,3 -18,3 -12,0 -22,-7 -22,-22l45 0zm-45 -8c1,-8 6,-19 18,-19 13,0 16,11 16,19l-34 0z"/>
    <path class="fil0" d="M4301 1076c5,3 11,5 18,5 15,0 24,-8 24,-19 0,-10 -6,-15 -17,-19 -8,-4 -12,-6 -12,-11 0,-5 4,-9 11,-9 5,0 10,2 13,4l2 -9c-3,-2 -9,-4 -15,-4 -14,0 -22,9 -22,19 0,8 5,14 17,18 8,3 12,6 12,12 0,5 -4,9 -13,9 -6,0 -12,-2 -15,-4l-3 8z"/>
    <path class="fil0" d="M4360 1001l0 15 -10 0 0 9 10 0 0 34c0,8 1,14 5,17 2,3 7,5 12,5 5,0 8,-1 10,-2l0 -8c-2,0 -4,0 -7,0 -6,0 -9,-4 -9,-12l0 -34 17 0 0 -9 -17 0 0 -18 -11 3z"/>
    <path class="fil0" d="M4401 1080l11 0 0 -34c0,-2 1,-4 1,-6 2,-8 7,-15 16,-15 1,0 2,1 3,1l0 -11c-1,0 -2,-1 -3,-1 -8,0 -15,6 -17,14l-1 0 0 -12 -10 0c0,6 0,12 0,20l0 44z"/>
    <path class="fil0" d="M4490 1080c-1,-5 -1,-10 -1,-16l0 -24c0,-12 -5,-26 -24,-26 -9,0 -16,3 -21,6l2 8c5,-3 11,-5 17,-5 13,0 14,9 14,15l0 1c-24,0 -38,8 -38,24 0,9 7,18 19,18 10,0 16,-5 20,-10l0 0 1 9 11 0zm-12 -22c0,1 -1,3 -1,4 -2,5 -7,10 -16,10 -5,0 -10,-3 -10,-11 0,-12 14,-14 27,-14l0 11z"/>
    <path class="fil0" d="M4612 1080l12 0 -6 -89 -14 0 -16 43c-4,11 -7,21 -10,30l0 0c-2,-10 -5,-19 -9,-30l-15 -43 -15 0 -6 89 11 0 3 -38c0,-14 1,-29 1,-40l0 0c3,11 7,22 11,35l14 42 9 0 15 -43c5,-12 9,-23 12,-34l0 0c0,11 1,26 1,39l2 39z"/>
    <path class="fil0" d="M4652 1080l0 -64 -11 0 0 64 11 0zm-5 -89c-5,0 -8,3 -8,7 0,4 3,7 7,7 5,0 8,-3 8,-7 0,-4 -3,-7 -7,-7l0 0z"/>
    <path class="fil0" d="M4667 1076c5,3 11,5 18,5 15,0 24,-8 24,-19 0,-10 -6,-15 -17,-19 -8,-4 -12,-6 -12,-11 0,-5 4,-9 11,-9 6,0 10,2 13,4l3 -9c-4,-2 -10,-4 -16,-4 -14,0 -22,9 -22,19 0,8 5,14 17,18 8,3 12,6 12,12 0,5 -4,9 -13,9 -6,0 -12,-2 -15,-4l-3 8z"/>
    <path class="fil0" d="M4735 1080l0 -64 -11 0 0 64 11 0zm-6 -89c-4,0 -7,3 -7,7 0,4 3,7 7,7 5,0 8,-3 8,-7 0,-4 -3,-7 -8,-7l0 0z"/>
    <path class="fil0" d="M4781 1014c-17,0 -31,13 -31,34 0,20 13,33 30,33 16,0 32,-10 32,-34 0,-19 -12,-33 -31,-33l0 0zm0 9c14,0 19,14 19,25 0,14 -8,24 -19,24 -12,0 -20,-10 -20,-24 0,-12 6,-25 20,-25l0 0zm4 -35l-11 19 8 0 16 -19 -13 0z"/>
    <path class="fil0" d="M4827 1080l11 0 0 -39c0,-2 0,-4 1,-5 2,-7 8,-12 15,-12 11,0 15,9 15,19l0 37 12 0 0 -38c0,-22 -14,-28 -23,-28 -10,0 -18,6 -21,12l0 0 -1 -10 -10 0c0,5 1,11 1,17l0 47z"/>
    <path class="fil0" d="M4978 1050c1,-1 1,-3 1,-6 0,-11 -6,-30 -26,-30 -19,0 -30,16 -30,35 0,19 11,32 31,32 10,0 17,-2 21,-4l-2 -8c-4,1 -9,3 -17,3 -12,0 -22,-7 -22,-22l44 0zm-44 -8c1,-8 6,-19 18,-19 13,0 16,11 16,19l-34 0z"/>
    <path class="fil0" d="M4989 1076c4,3 11,5 18,5 15,0 23,-8 23,-19 0,-10 -5,-15 -16,-19 -9,-4 -12,-6 -12,-11 0,-5 3,-9 10,-9 6,0 11,2 13,4l3 -9c-3,-2 -9,-4 -16,-4 -13,0 -21,9 -21,19 0,8 5,14 16,18 9,3 12,6 12,12 0,5 -4,9 -12,9 -6,0 -12,-2 -15,-4l-3 8z"/>
    <path class="fil0" d="M5069 1076c4,3 10,5 17,5 16,0 24,-8 24,-19 0,-10 -5,-15 -16,-19 -9,-4 -13,-6 -13,-11 0,-5 4,-9 11,-9 6,0 11,2 13,4l3 -9c-4,-2 -9,-4 -16,-4 -13,0 -22,9 -22,19 0,8 6,14 17,18 9,3 12,6 12,12 0,5 -4,9 -12,9 -6,0 -12,-2 -16,-4l-2 8z"/>
    <path class="fil0" d="M5178 1016l-11 0 0 39c0,2 -1,4 -1,6 -2,5 -8,10 -16,10 -10,0 -14,-8 -14,-20l0 -35 -11 0 0 37c0,22 12,28 22,28 11,0 18,-7 21,-12l0 0 1 11 10 0c-1,-5 -1,-11 -1,-18l0 -46z"/>
    <polygon class="fil0" points="5272,1029 5237,1029 5237,1001 5274,1001 5274,991 5226,991 5226,1080 5276,1080 5276,1070 5237,1070 5237,1038 5272,1038 "/>
    <path class="fil0" d="M5290 1080l11 0 0 -39c0,-2 1,-4 1,-6 2,-5 7,-11 15,-11 8,0 13,7 13,17l0 39 11 0 0 -40c0,-2 0,-4 1,-6 2,-5 7,-10 14,-10 9,0 13,7 13,20l0 36 12 0 0 -38c0,-22 -13,-28 -21,-28 -6,0 -10,2 -14,5 -3,2 -5,5 -7,8l-1 0c-2,-7 -9,-13 -18,-13 -10,0 -16,6 -20,12l0 0 0 -10 -11 0c1,5 1,11 1,17l0 47z"/>
    <path class="fil0" d="M5400 1106l11 0 0 -35 0 0c4,6 11,10 20,10 15,0 29,-11 29,-34 0,-20 -12,-33 -27,-33 -11,0 -18,5 -23,13l0 0 -1 -11 -10 0c0,6 1,13 1,21l0 69zm11 -63c0,-2 0,-4 1,-5 2,-9 9,-14 17,-14 12,0 19,11 19,23 0,15 -7,25 -19,25 -8,0 -15,-6 -17,-14 -1,-1 -1,-3 -1,-4l0 -11z"/>
    <path class="fil0" d="M5474 1080l12 0 0 -34c0,-2 0,-4 0,-6 2,-8 8,-15 16,-15 1,0 3,1 4,1l0 -11c-1,0 -2,-1 -4,-1 -7,0 -14,6 -17,14l-1 0 0 -12 -10 0c0,6 0,12 0,20l0 44z"/>
    <path class="fil0" d="M5568 1050c1,-1 1,-3 1,-6 0,-11 -6,-30 -26,-30 -19,0 -30,16 -30,35 0,19 11,32 31,32 10,0 17,-2 21,-4l-2 -8c-4,1 -9,3 -17,3 -12,0 -22,-7 -22,-22l44 0zm-44 -8c1,-8 6,-19 18,-19 13,0 16,11 16,19l-34 0z"/>
    <path class="fil0" d="M5579 1076c4,3 11,5 18,5 15,0 23,-8 23,-19 0,-10 -5,-15 -16,-19 -9,-4 -12,-6 -12,-11 0,-5 3,-9 10,-9 6,0 11,2 13,4l3 -9c-3,-2 -9,-4 -16,-4 -13,0 -21,9 -21,19 0,8 5,14 16,18 9,3 12,6 12,12 0,5 -4,9 -12,9 -6,0 -12,-2 -15,-4l-3 8z"/>
    <path class="fil0" d="M5681 1080c-1,-5 -1,-10 -1,-16l0 -24c0,-12 -5,-26 -24,-26 -8,0 -16,3 -21,6l2 8c5,-3 11,-5 17,-5 13,0 14,9 14,15l0 1c-24,0 -38,8 -38,24 0,9 7,18 20,18 9,0 16,-5 19,-10l0 0 1 9 11 0zm-12 -22c0,1 -1,3 -1,4 -2,5 -7,10 -15,10 -6,0 -11,-3 -11,-11 0,-12 14,-14 27,-14l0 11z"/>
   </g>
  </g>
 </g>
</svg>
