<?xml version="1.0" encoding="utf-8"?>
<!-- Generator: Adobe Illustrator 22.0.0, SVG Export Plug-In . SVG Version: 6.00 Build 0)  -->
<svg version="1.1" xmlns="http://www.w3.org/2000/svg" xmlns:xlink="http://www.w3.org/1999/xlink" x="0px" y="0px"
	 viewBox="0 0 460 368" style="enable-background:new 0 0 460 368;" xml:space="preserve">
<style type="text/css">
	.st0{fill:#FEAE76;}
	.st1{fill:none;stroke:#FEAE76;stroke-width:1.773;}
	.st2{fill:none;stroke:#78B4BB;stroke-width:2.6594;}
	.st3{fill:#78B4BB;}
	.st4{fill:none;stroke:#FEAE76;stroke-width:3.5459;}
</style>
<g id="Capa_1">
</g>
<g id="DERECHA_abajo">
</g>
<g id="IZQUIERDA_abajo">
</g>
<g id="DERECHA">
</g>
<g id="IZQUIERDA">
	<path class="st3" d="M440.853,322c0,5.288,4.287,9.575,9.575,9.575c5.288,0,9.572-4.288,9.572-9.575s-4.285-9.575-9.572-9.575
		C445.14,312.425,440.853,316.712,440.853,322"/>
	<g>
		<path class="st3" d="M322.129,218.261c0,5.288,4.287,9.575,9.575,9.575c5.288,0,9.572-4.287,9.572-9.575
			c0-5.288-4.285-9.575-9.572-9.575C326.417,208.686,322.129,212.973,322.129,218.261"/>
		<path class="st2" d="M307.61,218.261c0,13.721,10.785,24.844,24.091,24.844c13.306,0,24.094-11.124,24.094-24.844
			c0-13.72-10.788-24.844-24.094-24.844C318.396,193.417,307.61,204.54,307.61,218.261z"/>
		<polyline class="st2" points="331.446,218.374 331.446,322 450.426,322 		"/>
	</g>
	<path class="st0" d="M88.444,149.13c-2.742,0-4.964-2.222-4.964-4.964c0-2.742,2.222-4.964,4.964-4.964
		c2.742,0,4.964,2.222,4.964,4.964C93.408,146.909,91.186,149.13,88.444,149.13"/>
	<path class="st0" d="M249.452,174.29c-2.742,0-4.964-2.222-4.964-4.964s2.222-4.964,4.964-4.964c2.742,0,4.964,2.222,4.964,4.964
		S252.193,174.29,249.452,174.29"/>
	<path class="st0" d="M249.428,285.151c-2.742,0-4.964-2.222-4.964-4.964s2.222-4.964,4.964-4.964c2.742,0,4.964,2.222,4.964,4.964
		S252.17,285.151,249.428,285.151"/>
	<g>
		<path class="st0" d="M197.627,280.187c0,7.833-6.35,14.184-14.184,14.184c-7.833,0-14.184-6.35-14.184-14.184
			c0-7.833,6.35-14.184,14.184-14.184C191.277,266.004,197.627,272.354,197.627,280.187"/>
		
			<ellipse transform="matrix(0.1602 -0.9871 0.9871 0.1602 -122.9153 415.9049)" class="st1" cx="182.961" cy="280.187" rx="32.8" ry="32.8"/>
	</g>
	<polyline class="st4" points="182.961,280.187 249.428,280.187 249.428,368 	"/>
	<line class="st4" x1="0" y1="144.167" x2="88.444" y2="144.167"/>
	<g>
		<line class="st2" x1="183.444" y1="4.787" x2="136.788" y2="4.787"/>
		<path class="st3" d="M136.788,9.575c-2.642,0-4.788-2.142-4.788-4.788c0-2.642,2.145-4.788,4.788-4.788
			c2.642,0,4.788,2.145,4.788,4.788C141.576,7.432,139.431,9.575,136.788,9.575"/>
	</g>
	<path class="st3" d="M88.444,223.162c-2.642,0-4.788-2.142-4.788-4.788c0-2.642,2.145-4.788,4.788-4.788
		c2.642,0,4.788,2.145,4.788,4.788C93.231,221.02,91.086,223.162,88.444,223.162"/>
	<g>
		<g>
			<line class="st2" x1="183.444" y1="72.657" x2="183.444" y2="4.787"/>
			<path class="st3" d="M178.657,4.788c0-2.642,2.142-4.788,4.788-4.788c2.642,0,4.788,2.145,4.788,4.788
				c0,2.642-2.145,4.788-4.788,4.788C180.799,9.575,178.657,7.43,178.657,4.788"/>
		</g>
		<line class="st2" x1="0" y1="72.657" x2="183.445" y2="72.657"/>
		<path class="st3" d="M173.871,72.657c0-5.288,4.287-9.575,9.575-9.575c5.288,0,9.572,4.287,9.572,9.575s-4.285,9.575-9.572,9.575
			C178.158,82.232,173.871,77.945,173.871,72.657"/>
	</g>
	<polyline class="st2" points="88.444,322 88.444,218.374 331.446,218.374 	"/>
	<line class="st2" x1="0" y1="322" x2="88.445" y2="322"/>
	<path class="st3" d="M78.871,322c0-5.288,4.287-9.575,9.575-9.575c5.288,0,9.572,4.288,9.572,9.575s-4.285,9.575-9.572,9.575
		C83.158,331.575,78.871,327.288,78.871,322"/>
	<polyline class="st4" points="249.428,169.333 249.428,126 183.444,126 183.444,280.187 	"/>
</g>
</svg>
