<?xml version="1.0" encoding="utf-8"?>
<!-- Generator: Adobe Illustrator 22.0.0, SVG Export Plug-In . SVG Version: 6.00 Build 0)  -->
<svg version="1.1" xmlns="http://www.w3.org/2000/svg" xmlns:xlink="http://www.w3.org/1999/xlink" x="0px" y="0px"
	 viewBox="0 0 98.017 101.551" style="enable-background:new 0 0 98.017 101.551;" xml:space="preserve">
<style type="text/css">
	.st0{fill:#FEAE76;}
	.st1{fill:none;stroke:#FEAE76;stroke-width:1.773;}
	.st2{fill:none;stroke:#78B4BB;stroke-width:2.6594;}
	.st3{fill:#78B4BB;}
	.st4{fill:none;stroke:#FEAE76;stroke-width:3.5459;}
</style>
<g id="Capa_1">
</g>
<g id="DERECHA_abajo">
</g>
<g id="IZQUIERDA_abajo">
	<g>
		<g>
			<line class="st2" x1="88.443" y1="91.976" x2="88.443" y2="16.694"/>
			<path class="st3" d="M83.656,16.694c0-2.642,2.142-4.788,4.788-4.788c2.642,0,4.788,2.145,4.788,4.788
				c0,2.642-2.145,4.788-4.788,4.788C85.798,21.481,83.656,19.336,83.656,16.694"/>
		</g>
		<line class="st2" x1="0" y1="91.976" x2="88.443" y2="91.976"/>
		<path class="st3" d="M78.87,91.976c0-5.288,4.287-9.575,9.575-9.575c5.288,0,9.572,4.287,9.572,9.575
			c0,5.288-4.285,9.575-9.572,9.575C83.157,101.551,78.87,97.264,78.87,91.976"/>
	</g>
</g>
<g id="DERECHA">
</g>
<g id="IZQUIERDA">
</g>
</svg>
