<?xml version="1.0" encoding="utf-8"?>
<!-- Generator: Adobe Illustrator 22.0.0, SVG Export Plug-In . SVG Version: 6.00 Build 0)  -->
<svg version="1.1" xmlns="http://www.w3.org/2000/svg" xmlns:xlink="http://www.w3.org/1999/xlink" x="0px" y="0px"
	 viewBox="0 0 214.371 276" style="enable-background:new 0 0 214.371 276;" xml:space="preserve">
<style type="text/css">
	.st0{fill:#0093A6;}
	.st1{fill:#B4DCE1;}
	.st2{fill:#007B91;}
	.st3{fill:#FEAE76;}
	.st4{fill:none;stroke:#FEAE76;stroke-width:1.773;}
	.st5{fill:none;stroke:#78B4BB;stroke-width:2.6594;}
	.st6{fill:#78B4BB;}
	.st7{fill:none;stroke:#FEAE76;stroke-width:3.5459;}
	.st8{fill:#C1272D;}
</style>
<g id="Capa_1">
</g>
<g id="DERECHA_abajo">
	<g>
		<g>
			<path class="st3" d="M53.574,92c0,7.833,6.35,14.184,14.184,14.184c7.833,0,14.184-6.35,14.184-14.184
				c0-7.833-6.35-14.184-14.184-14.184C59.925,77.816,53.574,84.167,53.574,92"/>
			
				<ellipse transform="matrix(0.9871 -0.1602 0.1602 0.9871 -13.8556 12.1189)" class="st4" cx="68.241" cy="92" rx="32.8" ry="32.8"/>
		</g>
		<g>
			<polygon class="st3" points="67.758,93.773 0,93.773 0,0 3.547,0 3.547,90.227 67.758,90.227 			"/>
		</g>
		<g>
			<line class="st5" x1="122.373" y1="184.706" x2="122.373" y2="271.212"/>
			<path class="st6" d="M127.159,271.212c0,2.642-2.142,4.788-4.788,4.788c-2.642,0-4.788-2.145-4.788-4.788
				c0-2.642,2.145-4.788,4.788-4.788C125.017,266.425,127.159,268.57,127.159,271.212"/>
		</g>
		<line class="st5" x1="214.371" y1="184.706" x2="127.159" y2="184.706"/>
		<path class="st6" d="M131.946,184.706c0,5.288-4.287,9.575-9.575,9.575c-5.288,0-9.572-4.287-9.572-9.575s4.285-9.575,9.572-9.575
			C127.658,175.131,131.946,179.419,131.946,184.706"/>
		<line class="st5" x1="101.04" y1="47.043" x2="101.04" y2="0"/>
		<path class="st6" d="M105.828,47.043c0-2.642-2.142-4.788-4.788-4.788c-2.642,0-4.788,2.145-4.788,4.788
			c0,2.642,2.145,4.788,4.788,4.788C103.686,51.83,105.828,49.685,105.828,47.043"/>
		<path class="st6" d="M167.159,115.875c0-2.642-2.142-4.788-4.788-4.788c-2.642,0-4.788,2.145-4.788,4.788
			c0,2.642,2.145,4.788,4.788,4.788C165.017,120.662,167.159,118.517,167.159,115.875"/>
		<line class="st5" x1="162.371" y1="184.706" x2="162.371" y2="115.875"/>
		<polyline class="st5" points="101.04,47.043 200.946,47.043 200.946,115.875 162.371,115.875 		"/>
	</g>
</g>
<g id="IZQUIERDA_abajo">
</g>
<g id="DERECHA">
</g>
<g id="IZQUIERDA">
</g>
</svg>
