<?xml version="1.0" encoding="utf-8"?>
<!-- Generator: Adobe Illustrator 22.0.0, SVG Export Plug-In . SVG Version: 6.00 Build 0)  -->
<svg version="1.1" xmlns="http://www.w3.org/2000/svg" xmlns:xlink="http://www.w3.org/1999/xlink" x="0px" y="0px"
	 viewBox="0 0 460 368" style="enable-background:new 0 0 460 368;" xml:space="preserve">
<style type="text/css">
	.st0{fill:#007B91;}
	.st1{fill:#0093A6;}
	.st2{fill:#B4DCE1;}
	.st3{fill:#5CBEC9;}
	.st4{opacity:0.6;}
	.st5{fill:#B2C4C6;}
	.st6{fill:#A9C5C9;}
	.st7{opacity:0.62;}
	.st8{fill:#FF1D25;}
	.st9{fill:#FF931E;}
	.st10{fill:none;stroke:#78B4BB;stroke-width:2.6594;}
	.st11{fill:#78B4BB;}
	.st12{fill:none;stroke:#FEAE76;stroke-width:3.5459;}
	.st13{fill:#FEAE76;}
	.st14{fill:none;stroke:#FEAE76;stroke-width:1.773;}
</style>
<g id="Capa_1">
</g>
<g id="DERECHA">
	<line class="st10" x1="460" y1="218.374" x2="128.554" y2="218.374"/>
	<line class="st10" x1="460" y1="322" x2="9.574" y2="322"/>
	<path class="st11" d="M19.147,322c0,5.288-4.287,9.575-9.575,9.575C4.285,331.575,0,327.288,0,322c0-5.288,4.285-9.575,9.572-9.575
		C14.86,312.425,19.147,316.712,19.147,322"/>
	<g>
		<path class="st11" d="M137.871,218.261c0,5.288-4.287,9.575-9.575,9.575c-5.288,0-9.572-4.287-9.572-9.575
			c0-5.288,4.285-9.575,9.572-9.575C133.583,208.686,137.871,212.973,137.871,218.261"/>
		<path class="st10" d="M152.39,218.261c0,13.721-10.785,24.844-24.091,24.844c-13.306,0-24.094-11.124-24.094-24.844
			c0-13.72,10.788-24.844,24.094-24.844C141.604,193.417,152.39,204.54,152.39,218.261z"/>
		<line class="st10" x1="128.554" y1="218.374" x2="128.554" y2="322"/>
	</g>
	<polyline class="st12" points="413.345,270.187 413.345,133 347.382,133 	"/>
	<path class="st13" d="M408.381,270.187c0,2.742,2.222,4.964,4.964,4.964s4.964-2.222,4.964-4.964c0-2.742-2.222-4.964-4.964-4.964
		S408.381,267.445,408.381,270.187"/>
	<g>
		<line class="st12" x1="347.648" y1="133" x2="188.964" y2="133"/>
		<path class="st13" d="M184,133c0,2.742,2.222,4.964,4.964,4.964c2.742,0,4.964-2.222,4.964-4.964c0-2.742-2.222-4.964-4.964-4.964
			C186.222,128.036,184,130.258,184,133"/>
	</g>
	<g>
		<path class="st13" d="M333.464,133c0,7.833,6.35,14.184,14.184,14.184c7.833,0,14.184-6.35,14.184-14.184
			c0-7.833-6.35-14.184-14.184-14.184C339.814,118.816,333.464,125.167,333.464,133"/>
		
			<ellipse transform="matrix(0.9871 -0.1602 0.1602 0.9871 -16.809 57.4817)" class="st14" cx="348.13" cy="133" rx="32.8" ry="32.8"/>
	</g>
	<polyline class="st12" points="338.87,270.187 247.402,270.187 247.402,368 	"/>
	<path class="st13" d="M338.87,275.151c2.742,0,4.964-2.222,4.964-4.964s-2.222-4.964-4.964-4.964c-2.742,0-4.964,2.222-4.964,4.964
		S336.128,275.151,338.87,275.151"/>
	<g>
		<line class="st10" x1="460" y1="68.298" x2="413.345" y2="68.298"/>
		<path class="st11" d="M413.345,73.086c-2.642,0-4.788-2.142-4.788-4.788c0-2.642,2.145-4.788,4.788-4.788
			c2.642,0,4.788,2.145,4.788,4.788C418.132,70.944,415.987,73.086,413.345,73.086"/>
	</g>
	<g>
		<g>
			<line class="st10" x1="276.556" y1="9.575" x2="276.556" y2="77.445"/>
			<path class="st11" d="M281.343,77.445c0,2.642-2.142,4.788-4.788,4.788c-2.642,0-4.788-2.145-4.788-4.788
				c0-2.642,2.145-4.788,4.788-4.788C279.201,72.657,281.343,74.802,281.343,77.445"/>
		</g>
		<line class="st10" x1="460" y1="9.575" x2="276.555" y2="9.575"/>
		<path class="st11" d="M286.129,9.575c0,5.288-4.287,9.575-9.575,9.575c-5.288,0-9.572-4.287-9.572-9.575S271.266,0,276.554,0
			C281.842,0,286.129,4.287,286.129,9.575"/>
	</g>
</g>
</svg>
