<?xml version="1.0" encoding="utf-8"?>
<!-- Generator: Adobe Illustrator 22.0.0, SVG Export Plug-In . SVG Version: 6.00 Build 0)  -->
<svg version="1.1" xmlns="http://www.w3.org/2000/svg" xmlns:xlink="http://www.w3.org/1999/xlink" x="0px" y="0px"
	 viewBox="0 0 182.748 215.35" style="enable-background:new 0 0 182.748 215.35;" xml:space="preserve">
<style type="text/css">
	.st0{fill:#78B4BB;}
	.st1{fill:none;stroke:#78B4BB;stroke-width:2.6594;}
	.st2{opacity:0.05;fill:#B4DCE1;}
	.st3{opacity:0.05;fill:#007B91;}
	.st4{opacity:0.05;fill:#0093A6;}
	.st5{opacity:0.05;fill:#A9C5C9;}
	.st6{opacity:0.05;fill:#5CBEC9;}
	.st7{fill:none;stroke:#FEAE76;stroke-width:3.5459;}
	.st8{fill:#FEAE76;}
	.st9{fill:none;stroke:#FEAE76;stroke-width:1.773;}
	.st10{fill:#B4DCE1;}
	.st11{fill:#007B91;}
	.st12{fill:#0093A6;}
	.st13{fill:#A9C5C9;}
	.st14{fill:#5CBEC9;}
</style>
<g id="Capa_1">
</g>
<g id="Grafica_derecha_x5F_Noticias">
	<g>
		<g>
			<polygon class="st0" points="90.748,192.18 0,192.18 0,135.921 46.194,135.921 46.194,138.581 2.659,138.581 2.659,189.519 
				90.748,189.519 			"/>
		</g>
		<line class="st1" x1="148.435" y1="134.251" x2="148.435" y2="75.652"/>
		<g>
			<rect x="90.748" y="189.519" class="st0" width="92" height="2.66"/>
		</g>
		<path class="st0" d="M124.921,0c5.288,0,9.575,4.287,9.575,9.575c0,5.288-4.287,9.572-9.575,9.572
			c-5.288,0-9.575-4.285-9.575-9.572C115.346,4.287,119.634,0,124.921,0"/>
		<path class="st0" d="M90.748,181.276c5.288,0,9.575,4.287,9.575,9.575c0,5.288-4.287,9.572-9.575,9.572
			c-5.288,0-9.575-4.285-9.575-9.572C81.173,185.564,85.46,181.276,90.748,181.276"/>
		<g>
			<path class="st0" d="M90.748,215.35c-13.509,0-24.5-10.991-24.5-24.501c0-13.509,10.991-24.499,24.5-24.499
				s24.5,10.99,24.5,24.499C115.248,204.359,104.256,215.35,90.748,215.35z M90.748,168.913c-12.137,0-22.01,9.841-22.01,21.936
				c0,12.097,9.873,21.938,22.01,21.938s22.01-9.842,22.01-21.938C112.758,178.753,102.884,168.913,90.748,168.913z"/>
		</g>
		<g>
			<rect x="125.035" y="7.988" class="st0" width="57.713" height="2.659"/>
		</g>
		<line class="st1" x1="124.921" y1="9.504" x2="124.497" y2="76.79"/>
		<g>
			<rect x="103.535" y="74.323" class="st0" width="79.213" height="2.66"/>
		</g>
		<path class="st0" d="M103.535,80.44c-2.642,0-4.788-2.142-4.788-4.788c0-2.642,2.145-4.788,4.788-4.788
			c2.642,0,4.788,2.145,4.788,4.788C108.323,78.297,106.178,80.44,103.535,80.44"/>
		<path class="st0" d="M46.194,142.039c-2.642,0-4.788-2.142-4.788-4.788c0-2.642,2.145-4.788,4.788-4.788
			c2.642,0,4.788,2.145,4.788,4.788C50.981,139.896,48.836,142.039,46.194,142.039"/>
		<path class="st0" d="M90.748,195.637c-2.642,0-4.788-2.142-4.788-4.788c0-2.642,2.145-4.788,4.788-4.788
			c2.642,0,4.788,2.145,4.788,4.788C95.535,193.495,93.39,195.637,90.748,195.637"/>
		<path class="st0" d="M148.435,124.677c5.288,0,9.575,4.287,9.575,9.575c0,5.288-4.287,9.572-9.575,9.572s-9.575-4.285-9.575-9.572
			C138.86,128.965,143.148,124.677,148.435,124.677"/>
	</g>
</g>
<g id="Gráfica_izquierda_x5F_Expectativas">
</g>
<g id="prueba">
</g>
</svg>
