<?xml version="1.0" encoding="UTF-8"?>
<!DOCTYPE svg PUBLIC "-//W3C//DTD SVG 1.1//EN" "http://www.w3.org/Graphics/SVG/1.1/DTD/svg11.dtd">
<!-- Creator: CorelDRAW X7 -->
<svg xmlns="http://www.w3.org/2000/svg" xml:space="preserve" width="3.18844in" height="2.03431in" version="1.1" style="shape-rendering:geometricPrecision; text-rendering:geometricPrecision; image-rendering:optimizeQuality; fill-rule:evenodd; clip-rule:evenodd"
viewBox="0 0 3188 2034"
 xmlns:xlink="http://www.w3.org/1999/xlink">
 <defs>
  <style type="text/css">
   <![CDATA[
    .fil1 {fill:white}
    .fil0 {fill:white;fill-rule:nonzero}
   ]]>
  </style>
 </defs>
 <g id="Capa_x0020_1">
  <metadata id="CorelCorpID_0Corel-Layer"/>
  <g id="_2597712789312">
   <path class="fil0" d="M2507 1686l123 0 0 -462 143 0 0 -105 -143 0 0 -63c0,-76 2,-99 143,-128l-1 -109c-223,40 -265,93 -265,222l0 78 -95 0 0 105 95 0 0 462zm548 6c38,0 77,-2 131,-10l0 -102c-48,6 -74,7 -97,7 -34,0 -50,-16 -50,-83 0,-94 0,-280 0,-280l147 0 0 -105 -147 0c0,-31 0,-192 0,-192l-122 1c0,0 0,164 0,191l-100 0 0 105 100 0c0,0 0,268 0,303 0,114 42,165 138,165z"/>
   <polygon class="fil1" points="1219,0 2096,0 2096,469 1410,187 1686,872 1219,872 "/>
   <polygon class="fil1" points="1824,601 1721,848 1475,252 2069,504 "/>
   <path class="fil0" d="M184 1696c100,0 209,-53 240,-69l0 59 117 0 0 -813 -123 0 0 284c-32,-14 -131,-51 -229,-51 -95,0 -189,35 -189,295 0,262 88,295 184,295zm47 -109c-77,0 -106,-30 -106,-188 0,-156 32,-188 108,-188 68,0 154,26 185,38l0 288c-38,20 -118,50 -187,50z"/>
   <path class="fil0" d="M928 1699c65,0 148,-15 186,-26l0 -100c-42,11 -128,21 -184,21 -104,0 -161,-29 -162,-177l381 0c0,-7 0,-46 0,-56 0,-201 -81,-266 -247,-266 -150,0 -258,71 -258,303 0,225 90,301 284,301zm-157 -363c8,-116 56,-144 127,-144 92,0 128,30 128,144l-255 0z"/>
   <path class="fil0" d="M1458 1696c169,0 257,-28 257,-184 0,-116 -45,-151 -205,-170 -123,-14 -146,-20 -146,-77 0,-52 27,-70 112,-70 58,0 166,11 205,18l0 -96c-33,-8 -116,-17 -202,-17 -153,0 -233,42 -233,169 0,132 47,153 225,178 99,14 122,24 122,72 0,67 -25,83 -134,83 -71,0 -179,-20 -212,-29l1 95c38,13 129,28 210,28z"/>
   <path class="fil0" d="M2076 1699c189,0 285,-81 285,-304 0,-221 -93,-300 -283,-300 -189,0 -288,81 -288,303 0,223 97,301 286,301zm2 -100c-98,0 -162,-36 -162,-204 0,-166 61,-199 160,-199 99,0 161,35 161,202 0,167 -60,201 -159,201z"/>
   <path class="fil0" d="M2550 1846l-21 28 0 0 -52 158 20 0 16 -50 55 0 17 50 21 0 -53 -158 -7 0 29 -28 -25 0zm-2399 136l16 50 21 0 -52 -158 -24 0 -53 158 21 0 16 -50 55 0zm-51 -16l15 -46c3,-9 6,-19 8,-28l0 0c3,9 5,18 8,29l15 45 -46 0zm121 66l20 0 0 -64c4,2 10,2 16,2 19,0 36,-6 47,-17 8,-9 12,-20 12,-34 0,-14 -5,-26 -14,-33 -9,-9 -23,-13 -43,-13 -16,0 -28,1 -38,3l0 156zm20 -142c3,-1 10,-1 19,-1 22,0 36,10 36,31 0,21 -15,33 -39,33 -6,0 -12,0 -16,-1l0 -62zm112 142l85 0 0 -17 -65 0 0 -141 -20 0 0 158zm118 -158l0 158 20 0 0 -158 -20 0zm172 135c-8,4 -24,8 -37,8 -37,0 -59,-25 -59,-64 0,-41 24,-65 60,-65 13,0 29,5 36,9l0 -19c-5,-3 -17,-7 -36,-7 -48,0 -81,34 -81,83 0,52 33,80 76,80 19,0 34,-4 41,-7l0 -18zm115 -27l17 50 21 0 -52 -158 -24 0 -53 158 21 0 16 -50 54 0zm-50 -16l15 -46c3,-9 6,-19 8,-28l0 0c3,9 5,18 8,29l15 45 -46 0zm225 43c-8,4 -24,8 -36,8 -38,0 -60,-25 -60,-64 0,-41 24,-65 61,-65 12,0 28,5 35,9l0 -19c-5,-3 -17,-7 -36,-7 -48,0 -81,34 -81,83 0,52 33,80 76,80 19,0 34,-4 41,-7l0 -18zm35 -135l0 158 20 0 0 -158 -20 0zm127 -3c-41,0 -71,33 -71,83 0,48 28,80 69,80 39,0 72,-29 72,-83 0,-47 -28,-80 -70,-80zm-1 17c34,0 50,33 50,64 0,36 -18,66 -50,66 -31,0 -49,-31 -49,-64 0,-35 16,-66 49,-66zm125 144l0 -68c0,-26 0,-45 -1,-65l0 0c8,17 18,35 29,53l49 80 20 0 0 -158 -19 0 0 66c0,24 1,44 3,65l-1 0c-7,-16 -16,-33 -27,-51l-50 -80 -22 0 0 158 19 0zm222 -91l-60 0 0 -50 63 0 0 -17 -83 0 0 158 87 0 0 -17 -67 0 0 -57 60 0 0 -17zm35 83c8,6 24,10 39,10 36,0 54,-21 54,-45 0,-24 -13,-36 -39,-47 -22,-8 -31,-16 -31,-30 0,-11 8,-24 29,-24 14,0 30,7 35,10l0 -19c-7,-4 -18,-8 -34,-8 -30,0 -50,18 -50,43 0,22 15,36 41,45 21,8 29,16 29,31 0,16 -12,27 -33,27 -13,0 -32,-7 -40,-13l0 20zm173 -150l0 158 20 0 0 -158 -20 0zm84 158l0 -68c0,-26 -1,-45 -2,-65l1 0c8,17 18,35 29,53l49 80 20 0 0 -158 -19 0 0 66c0,24 1,44 2,65l0 0c-7,-16 -16,-33 -28,-51l-49 -80 -22 0 0 158 19 0zm142 0l20 0 0 -72 58 0 0 -17 -58 0 0 -52 63 0 0 -17 -83 0 0 158zm184 -161c-42,0 -72,33 -72,83 0,48 29,80 69,80 40,0 72,-29 72,-83 0,-47 -27,-80 -69,-80zm-1 17c33,0 49,33 49,64 0,36 -18,66 -50,66 -31,0 -49,-31 -49,-64 0,-35 17,-66 50,-66zm106 144l20 0 0 -69 18 0c18,1 27,9 31,31 5,20 8,33 11,38l20 0c-3,-6 -7,-22 -12,-44 -3,-16 -10,-27 -22,-32l0 0c16,-6 29,-20 29,-41 0,-12 -5,-22 -12,-30 -10,-8 -24,-12 -45,-12 -14,0 -28,1 -38,3l0 156zm20 -142c3,-1 10,-2 19,-2 21,1 36,9 36,30 0,18 -14,30 -35,30l-20 0 0 -58zm247 142l19 0 -9 -158 -26 0 -27 76c-7,20 -13,37 -17,53l0 0c-4,-16 -9,-33 -16,-53l-26 -76 -26 0 -10 158 19 0 4 -68c1,-24 2,-50 3,-70l0 0c5,19 11,39 18,62l25 75 15 0 27 -77c8,-22 15,-41 20,-60l1 0c-1,20 1,46 2,68l4 70zm87 -66l15 -46c3,-9 5,-19 7,-28l1 0c2,9 4,18 8,29l15 45 -46 0zm132 66l20 0 0 -141 47 0 0 -17 -114 0 0 17 47 0 0 141zm95 -158l0 158 19 0 0 -158 -19 0zm168 136c-8,4 -20,7 -33,7 -37,0 -59,-25 -59,-64 0,-41 24,-65 60,-65 13,0 24,3 31,7l5 -17c-5,-3 -17,-7 -36,-7 -48,0 -81,34 -81,83 0,52 33,80 76,80 19,0 34,-4 41,-7l-4 -17zm119 -28l17 50 21 0 -52 -158 -24 0 -53 158 21 0 16 -50 54 0zm-50 -16l15 -46c3,-9 5,-19 8,-28l0 0c3,9 5,18 8,29l15 45 -46 0zm113 58c8,6 25,10 39,10 37,0 54,-21 54,-45 0,-24 -13,-36 -39,-47 -21,-8 -31,-16 -31,-30 0,-11 8,-24 29,-24 14,0 30,6 35,9l0 -18c-7,-4 -18,-8 -34,-8 -30,0 -50,18 -50,43 0,22 16,36 41,45 21,8 29,16 29,31 0,16 -12,27 -32,27 -14,0 -32,-8 -41,-13l0 20z"/>
  </g>
 </g>
</svg>
