<?xml version="1.0" encoding="utf-8"?>
<!-- Generator: Adobe Illustrator 22.0.0, SVG Export Plug-In . SVG Version: 6.00 Build 0)  -->
<svg version="1.1" id="Capa_1" xmlns="http://www.w3.org/2000/svg" xmlns:xlink="http://www.w3.org/1999/xlink" x="0px" y="0px"
	 viewBox="0 0 52 52" style="enable-background:new 0 0 52 52;" xml:space="preserve">
<style type="text/css">
	.st0{opacity:0.65;fill:#E2E2E2;}
	.st1{fill:#007B91;}
</style>
<g>
	<ellipse id="XMLID_75_" transform="matrix(0.995 -0.1 0.1 0.995 -2.4686 2.729)" class="st0" cx="26" cy="26" rx="26" ry="26"/>
	<path id="XMLID_74_" class="st1" d="M27.468,22.053v-1.578c0-0.769,0.513-0.948,0.873-0.948c0.359,0,2.214,0,2.214,0v-3.382
		l-3.049-0.013c-3.385,0-4.154,2.523-4.154,4.137v1.784h-1.957v2.385V26h1.974c0,4.474,0,9.869,0,9.869h3.947c0,0,0-5.449,0-9.869
		h2.93l0.142-1.55l0.218-2.397H27.468z"/>
</g>
<g>
</g>
<g>
</g>
<g>
</g>
<g>
</g>
<g>
</g>
<g>
</g>
<g>
</g>
<g>
</g>
<g>
</g>
<g>
</g>
<g>
</g>
<g>
</g>
<g>
</g>
<g>
</g>
<g>
</g>
</svg>
