<?xml version="1.0" encoding="UTF-8"?>
<!DOCTYPE svg PUBLIC "-//W3C//DTD SVG 1.1//EN" "http://www.w3.org/Graphics/SVG/1.1/DTD/svg11.dtd">
<!-- Creator: CorelDRAW X7 -->
<svg xmlns="http://www.w3.org/2000/svg" xml:space="preserve" width="222.918mm" height="59.8626mm" version="1.1" style="shape-rendering:geometricPrecision; text-rendering:geometricPrecision; image-rendering:optimizeQuality; fill-rule:evenodd; clip-rule:evenodd"
viewBox="0 0 22189 5959"
 xmlns:xlink="http://www.w3.org/1999/xlink">
 <defs>
  <style type="text/css">
   <![CDATA[
    .fil0 {fill:white}
   ]]>
  </style>
 </defs>
 <g id="Capa_x0020_1">
  <metadata id="CorelCorpID_0Corel-Layer"/>
  <g id="_2163994987632">
   <path class="fil0" d="M7253 3919l0 59c0,6 -5,11 -10,11l-261 0c-34,0 -62,27 -62,61l1 155c8,-11 23,-18 40,-18l274 0 0 59c0,5 -5,10 -11,10l-303 0 0 258c0,6 -5,10 -11,10l-65 0 0 -468c0,-75 61,-137 137,-137l271 0z"/>
   <path class="fil0" d="M7464 4047l0 350c0,34 27,61 61,61l182 0c34,0 61,-27 61,-61l1 -350c0,-34 -28,-62 -62,-62l-182 0c-34,0 -61,28 -61,62zm61 481c-76,0 -137,-61 -137,-137l0 -338c0,-76 61,-137 137,-137l182 0c75,0 137,61 137,137l0 338c0,76 -62,137 -137,137l-182 0z"/>
   <path class="fil0" d="M8301 4187c34,0 62,-27 62,-61l0 -76c0,-34 -28,-61 -62,-61l-208 0c-9,0 -16,7 -16,15l0 168c0,8 8,15 16,15l208 0zm-224 47l0 280c0,6 -5,10 -10,10l-66 0 0 -558c0,-26 22,-47 47,-47l253 0c76,0 137,48 137,130l1 78c0,71 -51,110 -110,125l129 272 -70 0c-6,0 -13,-4 -15,-9l-122 -259 -104 0 -23 0c-23,0 -39,-6 -45,-22l-2 0z"/>
   <path class="fil0" d="M8664 4047l0 350c0,34 27,61 61,61l182 0c34,0 61,-27 61,-61l0 -350c0,-34 -27,-62 -61,-62l-182 0c-34,0 -61,28 -61,62zm61 481c-76,0 -137,-61 -137,-137l0 -338c0,-76 61,-137 137,-137l182 0c75,0 137,61 137,137l0 338c0,76 -62,137 -137,137l-182 0z"/>
   <path class="fil0" d="M9863 4455c33,0 61,-27 61,-61l0 -344c0,-34 -28,-61 -61,-61l-215 0c-9,0 -15,6 -15,15l0 436c0,8 6,15 15,15l215 0zm-306 23l0 -512c0,-26 21,-47 47,-47l259 0c76,0 137,62 137,137l0 332c0,75 -61,136 -137,136l-259 0c-26,0 -47,-20 -47,-46z"/>
   <path class="fil0" d="M10231 4050l0 153c9,-10 23,-16 40,-16l265 0 0 59c0,5 -5,10 -10,10l-295 0 0 138c0,34 28,61 62,61l260 0c6,0 11,5 11,11l0 58 -271 0c-76,0 -137,-61 -137,-136l0 -332c0,-75 61,-137 137,-137l271 0 0 59c0,6 -5,11 -11,11l-260 0c-34,0 -62,27 -62,61z"/>
   <path class="fil0" d="M11129 4050l0 153c8,-10 23,-16 40,-16l265 0 0 59c0,5 -5,10 -10,10l-295 0 0 138c0,34 27,61 61,61l261 0c6,0 11,5 11,11l0 58 -272 0c-75,0 -137,-61 -137,-136l0 -332c0,-75 62,-137 137,-137l272 0 0 59c0,6 -5,11 -11,11l-261 0c-34,0 -61,27 -61,61z"/>
   <path class="fil0" d="M11695 3933l201 368 202 -368c3,-7 13,-13 21,-13l57 0c5,0 10,4 10,11l0 593 -65 0c-6,0 -11,-5 -11,-10l0 -471 -168 320c-3,5 -10,9 -16,9l-59 0c-7,0 -13,-4 -16,-9l-168 -320 0 471c0,5 -5,10 -11,10l-65 0 0 -593c0,-7 4,-11 10,-11l57 0c8,0 17,6 21,13z"/>
   <path class="fil0" d="M12706 4050c0,-34 -27,-61 -62,-61l-207 0c-9,0 -16,7 -16,15l0 184c0,9 8,16 16,16 0,0 0,0 1,0l207 0c34,0 61,-28 61,-62l0 -92zm76 6l0 80c0,75 -62,137 -138,137l-176 0c-25,0 -45,-14 -47,-32l0 273c0,6 -4,10 -10,10l-65 0 0 -558c0,-26 21,-47 46,-47l253 0c75,0 137,62 137,137z"/>
   <path class="fil0" d="M13225 4187c34,0 62,-27 62,-61l0 -76c0,-34 -28,-61 -62,-61l-208 0c-9,0 -16,7 -16,15l0 168c0,8 8,15 16,15l208 0zm-224 47l0 280c0,6 -4,10 -10,10l-65 0 0 -558c0,-26 20,-47 46,-47l253 0c76,0 138,48 138,130l0 78c0,71 -51,110 -110,125l129 272 -70 0c-6,0 -13,-4 -15,-9l-122 -259 -104 0 -23 0c-22,0 -39,-6 -45,-22l-2 0z"/>
   <path class="fil0" d="M13588 4050l0 153c8,-10 22,-16 39,-16l265 0 0 59c0,5 -4,10 -10,10l-294 0 0 138c0,34 27,61 61,61l261 0c6,0 11,5 11,11l0 58 -272 0c-76,0 -137,-61 -137,-136l0 -332c0,-75 61,-137 137,-137l272 0 0 59c0,6 -5,11 -11,11l-261 0c-34,0 -61,27 -61,61z"/>
   <path class="fil0" d="M14367 4455c34,0 59,-27 59,-61l0 -73c0,-8 -6,-17 -14,-19l-310 -104c-24,-8 -44,-35 -44,-61l0 -96c0,-76 61,-122 137,-122l287 0 0 59c0,6 -4,11 -11,11l-276 0c-34,0 -62,21 -62,55l0 78c0,9 6,18 14,20l310 103c24,8 42,36 42,62l0 86c0,76 -57,131 -132,131l-309 0 0 -58c0,-7 5,-11 10,-11l299 0z"/>
   <path class="fil0" d="M15033 4289l-105 -300 -39 0c-7,0 -12,4 -15,10l-101 290 260 0zm159 235l-66 0c-8,0 -13,-4 -15,-10l-54 -155 -308 0 -54 155c-1,6 -8,10 -14,10l-66 0 196 -560c10,-26 35,-45 64,-45l96 0c4,0 8,3 10,6l211 599z"/>
   <path class="fil0" d="M15631 4187c34,0 61,-27 61,-61l0 -76c0,-34 -27,-61 -61,-61l-209 0c-9,0 -15,7 -15,15l0 168c0,8 7,15 15,15l209 0zm-224 47l0 280c0,6 -5,10 -11,10l-65 0 0 -558c0,-26 21,-47 47,-47l253 0c76,0 137,48 137,130l0 78c0,71 -51,110 -110,125l130 272 -71 0c-5,0 -12,-4 -14,-9l-123 -259 -103 0 -23 0c-23,0 -40,-6 -45,-22l-2 0z"/>
   <path class="fil0" d="M15936 4514l0 -595 65 0c6,0 11,5 11,11l0 594 -66 0c-5,0 -10,-4 -10,-10z"/>
   <path class="fil0" d="M16250 4047l0 350c0,34 27,61 61,61l182 0c34,0 61,-27 61,-61l0 -350c0,-34 -27,-62 -61,-62l-182 0c-34,0 -61,28 -61,62zm61 481c-76,0 -137,-61 -137,-137l0 -338c0,-76 61,-137 137,-137l182 0c75,0 137,61 137,137l0 338c0,76 -62,137 -137,137l-182 0z"/>
   <path class="fil0" d="M17088 4455c34,0 60,-27 60,-61l0 -73c0,-8 -7,-17 -15,-19l-310 -104c-24,-8 -44,-35 -44,-61l0 -96c0,-76 61,-122 137,-122l287 0 0 59c0,6 -4,11 -11,11l-276 0c-34,0 -62,21 -62,55l0 78c0,9 6,18 14,20l310 103c24,8 42,36 42,62l0 86c0,76 -57,131 -132,131l-309 0 0 -58c0,-7 5,-11 10,-11l299 0z"/>
   <path class="fil0" d="M18205 3919l-124 314c-9,24 -28,46 -59,46l-37 0 0 235c0,6 -4,10 -10,10l-66 0 0 -245 -32 -1c-35,0 -55,-21 -64,-45l-123 -314 71 0c6,0 12,5 14,10l101 264c3,8 13,14 21,14l101 0c8,0 17,-6 20,-14l102 -264c2,-5 8,-10 14,-10l71 0z"/>
   <path class="fil0" d="M18685 4385l0 -455c0,-6 5,-11 11,-11l65 0 0 473c0,35 28,63 62,63l251 0c6,0 11,5 11,11l0 58 -262 0c-76,0 -138,-62 -138,-139z"/>
   <path class="fil0" d="M19284 3870l-57 0 35 -81c2,-6 8,-10 13,-10l58 0 -34 82c-2,5 -9,9 -15,9zm-58 644l0 -595 66 0c5,0 10,5 10,11l0 594 -65 0c-6,0 -11,-4 -11,-10z"/>
   <path class="fil0" d="M19768 4455c34,0 61,-27 61,-61l0 -344c0,-34 -27,-61 -61,-61l-214 0c-9,0 -16,6 -16,15l0 436c0,8 7,15 16,15l214 0zm-305 23l0 -512c0,-26 21,-47 46,-47l259 0c76,0 137,62 137,137l0 332c0,75 -61,136 -137,136l-259 0c-25,0 -46,-20 -46,-46z"/>
   <path class="fil0" d="M20136 4050l0 153c9,-10 23,-16 40,-16l265 0 0 59c0,5 -5,10 -10,10l-295 0 0 138c0,34 28,61 62,61l261 0c6,0 11,5 11,11l0 58 -272 0c-76,0 -137,-61 -137,-136l0 -332c0,-75 61,-137 137,-137l272 0 0 59c0,6 -5,11 -11,11l-261 0c-34,0 -62,27 -62,61z"/>
   <path class="fil0" d="M20914 4187c34,0 61,-27 61,-61l0 -76c0,-34 -27,-61 -61,-61l-209 0c-8,0 -15,7 -15,15l0 168c0,8 7,15 15,15l209 0zm-224 47l0 280c0,6 -5,10 -10,10l-66 0 0 -558c0,-26 21,-47 47,-47l253 0c76,0 137,48 137,130l0 78c0,71 -51,110 -109,125l129 272 -71 0c-5,0 -12,-4 -14,-9l-123 -259 -103 0 -23 0c-23,0 -40,-6 -45,-22l-2 0z"/>
   <path class="fil0" d="M21277 4050l0 153c8,-10 22,-16 39,-16l265 0 0 59c0,5 -5,10 -10,10l-294 0 0 138c0,34 27,61 61,61l261 0c6,0 11,5 11,11l0 58 -272 0c-76,0 -137,-61 -137,-136l0 -332c0,-75 61,-137 137,-137l272 0 0 59c0,6 -5,11 -11,11l-261 0c-34,0 -61,27 -61,61z"/>
   <path class="fil0" d="M22055 4455c34,0 60,-27 60,-61l0 -73c0,-8 -6,-17 -15,-19l-309 -104c-24,-8 -44,-35 -44,-61l0 -96c0,-76 61,-122 137,-122l287 0 0 59c0,6 -4,11 -11,11l-276 0c-34,0 -62,21 -62,55l0 78c0,9 6,18 14,20l310 103c24,8 42,36 42,62l0 86c0,76 -58,131 -133,131l-308 0 0 -58c0,-7 5,-11 10,-11l298 0z"/>
   <path class="fil0" d="M6919 5007l0 153c9,-10 23,-16 40,-16l265 0 0 59c0,5 -5,10 -10,10l-295 0 0 138c0,34 28,61 62,61l261 0c6,0 11,5 11,10l0 59 -272 0c-76,0 -137,-61 -137,-137l0 -331c0,-76 61,-137 137,-137l272 0 0 59c0,6 -5,10 -11,10l-261 0c-34,0 -62,28 -62,62z"/>
   <path class="fil0" d="M7751 5372c-8,-63 -8,-114 -12,-171l0 -315c0,-5 5,-10 11,-10l65 0 0 605 -70 0c-6,0 -13,-5 -15,-9l-276 -514c-4,-7 -14,-13 -22,-13 -7,0 -14,0 -14,0l0 526c0,5 -5,10 -10,10l-65 0 0 -595c0,-5 4,-10 10,-10l92 0c26,0 56,19 69,41l164 310 73 145z"/>
   <path class="fil0" d="M8623 4876l0 59c0,6 -5,10 -10,10l-173 0 0 526c0,5 -4,10 -10,10l-66 0 0 -536 -180 0 0 -59c0,-5 5,-10 10,-10l429 0z"/>
   <path class="fil0" d="M8776 5007l0 153c8,-10 22,-16 39,-16l265 0 0 59c0,5 -5,10 -10,10l-294 0 0 138c0,34 27,61 61,61l261 0c6,0 10,5 10,10l0 59 -271 0c-76,0 -137,-61 -137,-137l0 -331c0,-76 61,-137 137,-137l271 0 0 59c0,6 -4,10 -10,10l-261 0c-34,0 -61,28 -61,62z"/>
   <path class="fil0" d="M9191 5013c0,-76 61,-137 137,-137l266 0 0 59c0,6 -4,10 -10,10l-256 0c-33,0 -61,28 -61,62l0 344c0,34 28,61 61,61l256 0c6,0 10,5 10,10l0 59 -266 0c-76,0 -137,-62 -137,-137l0 -331z"/>
   <path class="fil0" d="M10099 5372c-8,-63 -8,-114 -12,-171l0 -315c0,-5 5,-10 11,-10l65 0 0 605 -70 0c-6,0 -13,-5 -15,-9l-276 -514c-4,-7 -14,-13 -22,-13 -7,0 -13,0 -13,0l0 526c0,5 -5,10 -11,10l-65 0 0 -595c0,-5 5,-10 10,-10l92 0c26,0 56,19 69,41l164 310 73 145z"/>
   <path class="fil0" d="M10341 5003l0 351c0,34 27,61 61,61l183 0c34,0 61,-27 61,-61l0 -351c0,-33 -27,-61 -61,-61l-183 0c-34,0 -61,28 -61,61zm61 481c-75,0 -137,-61 -137,-136l0 -338c0,-76 62,-137 137,-137l183 0c75,0 137,61 137,137l0 338c0,75 -62,137 -137,137l-183 -1z"/>
   <path class="fil0" d="M10823 5342l0 -456c0,-5 5,-10 11,-10l65 0 0 473c0,35 28,63 62,63l252 0c5,0 10,5 10,10l0 59 -262 0c-76,0 -138,-63 -138,-139z"/>
   <path class="fil0" d="M11377 5003l0 351c0,34 27,61 61,61l183 0c33,0 61,-27 61,-61l0 -351c0,-33 -28,-61 -61,-61l-183 0c-34,0 -61,28 -61,61zm61 481c-76,0 -137,-61 -137,-136l0 -338c0,-76 61,-137 137,-137l183 0c74,0 136,61 136,137l1 338c0,75 -63,137 -137,137l-183 -1z"/>
   <path class="fil0" d="M11859 5348l0 -338c0,-76 61,-137 137,-137l277 0 0 59c0,5 -5,10 -11,10l-266 0c-34,0 -61,28 -61,61l0 351c0,34 27,61 61,61l167 0c34,0 69,-27 69,-61l0 -146 -147 0c-6,0 -10,-5 -10,-10l0 -59 215 0c5,0 10,5 10,10l0 207c0,85 -61,129 -137,129l-167 -1c-76,0 -137,-61 -137,-136z"/>
   <path class="fil0" d="M12461 4827l-57 0 34 -82c3,-5 8,-9 14,-9l57 -1 -33 83c-3,5 -9,9 -15,9zm-58 644l0 -595 65 0c6,0 11,5 11,11l0 594 -66 0c-5,0 -10,-5 -10,-10z"/>
   <path class="fil0" d="M12980 5246l-105 -301 -39 0c-6,0 -12,4 -15,11l-100 290 259 0zm159 235l-66 0c-8,0 -13,-5 -15,-10l-54 -156 -308 0 -54 156c-1,5 -8,10 -14,10l-66 0 196 -560c10,-26 35,-45 64,-45l96 0c4,0 8,2 10,6l211 599z"/>
   <path class="fil0" d="M13524 5412c35,0 60,-27 60,-61l0 -74c0,-8 -6,-17 -14,-19l-310 -103c-24,-8 -44,-36 -44,-61l0 -97c0,-75 61,-121 137,-121l287 0 0 59c0,6 -4,10 -11,10l-276 0c-34,0 -62,22 -62,56l0 78c0,9 7,18 14,20l310 102c24,9 42,37 42,63l0 86c0,76 -57,131 -133,131l-308 0 0 -59c0,-6 5,-10 10,-10l298 0z"/>
   <path class="fil0" d="M14356 5412c33,0 61,-27 61,-61l0 -344c0,-34 -28,-62 -61,-62l-215 0c-9,0 -15,7 -15,16l0 436c0,8 6,15 15,15l215 0zm-306 23l0 -512c0,-26 21,-47 47,-47l259 0c75,0 137,61 137,137l0 331c0,75 -62,137 -137,137l-259 0c-26,0 -47,-21 -47,-46z"/>
   <path class="fil0" d="M14670 5007l0 153c7,-10 22,-16 39,-16l265 0 0 59c0,5 -5,10 -11,10l-293 0 0 138c0,34 27,61 61,61l261 0c6,0 10,5 10,10l0 59 -271 0c-76,0 -137,-61 -137,-137l0 -331c0,-76 61,-137 137,-137l271 0 0 59c0,6 -5,10 -10,10l-261 0c-34,0 -61,28 -61,62z"/>
   <path class="fil0" d="M15382 5342l0 -456c0,-5 5,-10 10,-10l66 0 0 473c0,35 28,63 62,63l251 0c6,0 11,5 11,10l0 59 -262 0c-76,0 -138,-63 -138,-139z"/>
   <path class="fil0" d="M16265 5246l-104 -301 -40 0c-7,0 -12,4 -15,11l-100 290 259 0zm159 235l-66 0c-8,0 -13,-5 -15,-10l-54 -156 -308 0 -54 156c-1,5 -8,10 -14,10l-66 0 197 -560c9,-26 34,-45 63,-45l96 0c4,0 8,2 10,6l211 599z"/>
   <path class="fil0" d="M16809 5471l0 -595 65 0c6,0 11,5 11,11l0 594 -65 0c-6,0 -11,-5 -11,-10z"/>
   <path class="fil0" d="M17403 5372c-9,-63 -9,-114 -12,-171l0 -315c0,-5 4,-10 10,-10l65 0 0 605 -70 0c-5,0 -13,-5 -15,-9l-276 -514c-4,-7 -14,-13 -22,-13 -7,0 -13,0 -13,0l0 526c0,5 -5,10 -11,10l-65 0 0 -595c0,-5 5,-10 10,-10l92 0c26,0 56,19 69,41l164 310 74 145z"/>
   <path class="fil0" d="M17979 4876l0 59c0,6 -5,10 -10,10l-262 0c-33,0 -61,28 -61,62l0 154c8,-10 23,-17 40,-17l274 0 0 59c0,5 -4,10 -10,10l-304 0 0 258c0,5 -5,10 -11,10l-65 0 0 -468c0,-76 62,-137 137,-137l272 0z"/>
   <path class="fil0" d="M18135 5003l0 351c0,34 27,61 61,61l182 0c34,0 61,-27 61,-61l0 -351c0,-33 -27,-61 -61,-61l-182 0c-34,0 -61,28 -61,61zm61 481c-76,0 -137,-61 -137,-136l0 -338c0,-76 61,-137 137,-137l182 0c75,0 137,61 137,137l0 338c0,75 -62,137 -137,137l-182 -1z"/>
   <path class="fil0" d="M18917 5144c34,0 61,-28 61,-62l0 -75c0,-34 -27,-62 -61,-62l-209 0c-8,0 -15,8 -15,16l0 167c0,9 7,16 15,16l209 0zm-224 47l0 280c0,5 -5,10 -10,10l-66 0 0 -558c0,-26 21,-47 47,-47l253 0c76,0 137,47 137,130l0 78c0,71 -50,109 -109,125l129 272 -70 0c-6,0 -13,-5 -15,-9l-123 -259 -103 0 -23 0c-23,0 -40,-7 -45,-22l-2 0z"/>
   <path class="fil0" d="M19247 4890l201 367 201 -367c5,-8 14,-13 22,-13l57 0c5,0 10,4 10,10l0 593 -65 0c-6,0 -11,-4 -11,-10l0 -471 -168 320c-3,6 -10,10 -16,10l-59 0c-7,0 -13,-4 -16,-10l-169 -320 0 471c0,6 -5,10 -10,10l-65 0 0 -593c0,-6 4,-10 10,-10l57 0c7,0 17,5 21,13z"/>
   <path class="fil0" d="M20240 5246l-105 -301 -40 0c-6,0 -12,4 -14,11l-101 290 260 0zm158 235l-66 0c-7,0 -12,-5 -14,-10l-54 -156 -308 0 -54 156c-2,5 -8,10 -14,10l-67 0 197 -560c10,-26 35,-45 64,-45l96 0c4,0 8,2 9,6l211 599z"/>
   <path class="fil0" d="M20466 5013c0,-76 61,-137 137,-137l266 0 0 59c0,6 -5,10 -11,10l-255 0c-34,0 -61,28 -61,62l0 344c0,34 27,61 61,61l255 0c6,0 11,5 11,10l0 59 -266 0c-76,0 -137,-62 -137,-137l0 -331z"/>
   <path class="fil0" d="M20974 5471l0 -595 66 0c5,0 10,5 10,11l0 594 -65 0c-6,0 -11,-5 -11,-10z"/>
   <path class="fil0" d="M21426 4811l34 -82 -57 0c-6,0 -12,4 -14,10l-35 81 58 0c5,0 11,-4 14,-9zm-131 131c-34,0 -62,28 -62,61l1 351c0,34 27,61 61,61l182 0c33,0 61,-27 61,-61l0 -351c0,-33 -28,-61 -61,-61l-182 0zm182 542l-182 0c-76,0 -137,-61 -137,-136l0 -338c0,-76 61,-137 137,-137l182 0c75,0 137,61 137,137l0 338c0,75 -62,137 -137,136z"/>
   <path class="fil0" d="M22125 5372c-8,-63 -8,-114 -12,-171l0 -315c0,-5 5,-10 10,-10l66 0 0 605 -70 0c-6,0 -14,-5 -16,-9l-275 -514c-4,-7 -14,-13 -23,-13 -7,0 -13,0 -13,0l0 526c0,5 -5,10 -10,10l-66 0 0 -595c0,-5 5,-10 11,-10l91 0c26,0 57,19 69,41l165 310 73 145z"/>
   <path class="fil0" d="M5451 2216l-623 -1078c-55,-97 -193,-177 -305,-177l-1246 0c-33,0 -68,8 -103,20 78,47 144,109 186,180l607 1052c86,148 86,371 0,519l-608 1053c-8,13 -19,26 -29,39l1193 0c112,0 250,-80 305,-177l623 -1078c56,-97 56,-256 0,-353zm-1403 1996c-36,-63 -126,-115 -199,-115l-761 0 448 776c73,127 73,311 0,437l-374 649 687 0c73,0 163,-52 199,-115l405 -701c36,-64 36,-167 0,-230l-405 -701zm-2359 -428l974 0c0,-4 -1,-6 -1,-10 0,-20 -2,-40 -6,-59 -2,-7 -4,-12 -5,-18 -5,-16 -11,-31 -18,-45 -9,-18 -18,-34 -28,-51l-467 -809c-45,-77 -154,-140 -242,-140l-983 0c-21,0 -42,4 -64,10l551 955c53,91 183,167 289,167zm-265 -2501l-589 1022c-5,8 -9,18 -13,28 4,0 9,2 14,2l983 0c89,0 197,-63 241,-139l492 -853c3,-6 6,-13 8,-20 6,-11 11,-22 14,-35 3,-12 5,-24 6,-36 2,-9 3,-18 4,-28 0,-13 0,-27 0,-41 -1,-7 -2,-14 -3,-21 -1,-15 -4,-30 -8,-44 0,0 0,-1 0,-1l-859 0c-106,0 -237,75 -290,166zm1919 3681l-443 -768c-3,-5 -7,-10 -10,-15 -8,5 -15,11 -22,16 -4,4 -9,7 -13,10 -13,13 -24,26 -32,40l-388 672c-34,60 -34,159 0,220l388 671c8,14 19,27 32,39 2,2 5,5 7,7 11,10 24,19 38,28 2,1 4,3 6,4 13,7 26,12 39,17l398 -689c40,-70 40,-183 0,-252zm-2802 -4820l-507 878c-45,79 -45,208 0,287l507 879c17,28 43,53 73,76l1 -3c7,-17 15,-33 24,-48l607 -1053c85,-147 278,-259 449,-259l795 0 -437 -757c-46,-79 -157,-144 -249,-144l-1014 0c-91,0 -203,65 -249,144zm-427 3824l507 878c46,79 157,143 249,143l1014 0c91,0 203,-64 249,-143l489 -847 -953 0c-170,0 -363,-111 -448,-259l-566 -980c-13,14 -26,27 -34,42l-507 878c-46,79 -46,209 0,288zm3657 -1663l-589 -1022c-38,-66 -116,-122 -197,-150 -2,2 -4,4 -5,6 -6,7 -11,14 -16,21 -4,6 -8,11 -11,17l-605 1046c-54,94 -54,248 0,342l605 1046c12,22 28,42 47,61 3,2 6,5 9,8 7,7 16,14 24,21 5,3 9,6 14,10 8,6 17,11 25,16 6,4 12,7 18,10 5,3 10,5 15,8 32,-25 59,-54 77,-85l589 -1022c53,-91 53,-242 0,-333z"/>
   <path class="fil0" d="M15780 2896l1283 0c22,0 41,19 41,41l0 227 -1567 0c-22,0 -40,-18 -40,-40l0 -462c0,-99 68,-221 156,-274l1077 -770c22,-13 37,-41 37,-63l0 -227c0,-191 -109,-244 -240,-244l-990 0c-21,0 -40,-15 -40,-40l0 -224 1030 0c293,0 533,165 533,495l0 234c0,140 -69,221 -156,274l-1090 786c-18,10 -34,38 -34,60l0 227z"/>
   <path class="fil0" d="M18741 1312l0 1360c0,2 0,4 0,6l0 11c0,112 -75,183 -165,209 -2,0 -4,1 -5,1 -3,1 -6,2 -9,2 -18,5 -38,8 -58,8l-6 -1c0,0 0,1 -1,1l-521 -1c-1,0 -2,1 -3,1l-1 -1c0,0 0,1 0,1 -61,-1 -237,-17 -237,-182l0 -46c0,-3 0,-6 0,-9l0 -1360 0 -20c0,-135 102,-203 207,-215 3,0 6,-1 10,-1 3,0 7,0 11,0 3,-1 6,-1 9,-1l4 0 521 0 7 0c4,0 7,0 10,1 226,5 227,129 227,197l0 18 0 -1c0,7 0,16 0,22zm-243 -505l-520 0c-292,0 -529,209 -529,502l0 1400c0,293 236,468 529,468l520 0c293,0 533,-212 533,-505l0 -1382c0,-337 -240,-483 -533,-483z"/>
   <path class="fil0" d="M19714 2896l1284 0c21,0 40,19 40,41l0 227 -1567 0c-21,0 -40,-18 -40,-40l0 -462c0,-99 68,-221 156,-274l1077 -770c22,-13 37,-41 37,-63l0 -227c0,-191 -108,-244 -239,-244l-991 0c-21,0 -40,-15 -40,-40l0 -224 1031 0c292,0 532,165 532,495l0 234c0,140 -68,221 -156,274l-1089 786c-19,10 -35,38 -35,60l0 227z"/>
   <path class="fil0" d="M8387 912l0 225c0,21 -18,40 -40,40l-995 0c-129,0 -233,104 -233,234l0 590c30,-40 89,-68 153,-68l1044 0 0 224c0,22 -18,40 -39,40l-1158 0 0 985c0,21 -19,40 -40,40l-249 0 0 -1787c0,-289 234,-523 522,-523l1035 0z"/>
   <path class="fil0" d="M8934 1411l0 583c30,-36 86,-61 150,-61l1011 0 0 224c0,22 -19,40 -41,40l-1120 0 0 526c0,130 104,234 233,234l995 0c21,0 40,19 40,40l0 225 -1035 0c-288,0 -522,-234 -522,-523l0 -1264c0,-289 233,-523 522,-523l1035 0 0 225c0,21 -19,40 -40,40l-995 0c-129,0 -233,104 -233,234z"/>
   <path class="fil0" d="M10455 2690l0 -1738c0,-21 18,-40 40,-40l249 0 0 1805c0,133 107,240 236,240l1037 0c21,0 40,19 40,40l0 225 -1077 0c-289,0 -525,-240 -525,-532z"/>
   <path class="fil0" d="M13546 912l0 225c0,21 -18,40 -40,40l-657 0 0 2005c0,21 -15,40 -40,40l-248 0 0 -2045 -689 0 0 -225c0,-21 19,-40 40,-40l1634 0z"/>
   <path class="fil0" d="M14201 1618l0 1604 -233 0c-18,0 -34,-16 -34,-34l0 -1601 234 0c18,0 33,12 33,31zm0 -672l0 252 -233 0c-18,0 -34,-15 -34,-34l0 -252 234 0c18,0 33,16 33,34z"/>
   <path class="fil0" d="M22155 862l0 2315 -251 0c-22,0 -40,-19 -40,-41l0 -2048 -229 0c-22,0 -41,-16 -41,-41l0 -226 520 0c22,0 41,16 41,41z"/>
  </g>
 </g>
</svg>
