<?xml version="1.0" encoding="UTF-8"?>
<!DOCTYPE svg PUBLIC "-//W3C//DTD SVG 1.1//EN" "http://www.w3.org/Graphics/SVG/1.1/DTD/svg11.dtd">
<!-- Creator: CorelDRAW X7 -->
<svg xmlns="http://www.w3.org/2000/svg" xml:space="preserve" width="143.149mm" height="22.5572mm" version="1.1" style="shape-rendering:geometricPrecision; text-rendering:geometricPrecision; image-rendering:optimizeQuality; fill-rule:evenodd; clip-rule:evenodd"
viewBox="0 0 13344 2103"
 xmlns:xlink="http://www.w3.org/1999/xlink">
 <defs>
  <style type="text/css">
   <![CDATA[
    .fil0 {fill:#3DA63D}
    .fil1 {fill:#187CB8}
   ]]>
  </style>
 </defs>
 <g id="Capa_x0020_1">
  <metadata id="CorelCorpID_0Corel-Layer"/>
  <path class="fil0" d="M7793 1819l1118 0c19,0 35,17 35,36l0 198 -1364 0c-19,0 -35,-17 -35,-36l0 -401c0,-87 59,-193 135,-239l939 -671c19,-11 32,-35 32,-54l0 -199c0,-165 -95,-211 -209,-211l-862 0c-19,0 -35,-14 -35,-36l0 -195 897 0c255,0 464,144 464,432l0 203c0,122 -60,193 -136,239l-949 685c-16,8 -30,32 -30,51l0 198z"/>
  <path class="fil0" d="M10372 440l0 1184c0,2 -1,4 -1,5l0 10c0,98 -64,159 -143,182 -2,0 -3,0 -5,1 -2,0 -5,1 -7,2 -16,4 -33,6 -50,6l-6 0c0,0 0,0 -1,0l-454 0c0,0 -1,0 -2,0l-1 0c0,0 -1,0 -1,0 -52,-1 -205,-14 -205,-158l0 -40c0,-3 0,-6 0,-8l0 -1184 0 -18c0,-117 88,-176 180,-187 3,0 6,0 8,-1 3,0 7,0 9,0 4,0 6,-1 9,-1l3 0 454 0 7 0c2,0 5,1 8,1 197,5 197,113 197,172l0 16 1 -1c0,5 0,14 0,19zm-212 -440l-453 0c-254,0 -461,182 -461,437l0 1219c0,256 207,408 461,408l453 0c255,0 464,-185 464,-440l0 -1203c0,-293 -209,-421 -464,-421z"/>
  <path class="fil0" d="M11219 1819l1118 0c19,0 35,17 35,36l0 198 -1364 0c-19,0 -35,-17 -35,-36l0 -401c0,-87 59,-193 135,-239l938 -671c19,-11 33,-35 33,-54l0 -199c0,-165 -95,-211 -209,-211l-862 0c-19,0 -35,-14 -35,-36l0 -195 897 0c255,0 464,144 464,432l0 203c0,122 -60,193 -136,239l-949 685c-16,8 -30,32 -30,51l0 198z"/>
  <path class="fil1" d="M1355 91l0 196c0,19 -15,35 -34,35l-867 0c-112,0 -203,91 -203,203l0 515c27,-35 78,-59 134,-59l909 0 0 195c0,19 -16,35 -35,35l-1008 0 0 857c0,19 -16,35 -35,35l-216 0 0 -1556c0,-252 203,-456 454,-456l901 0z"/>
  <path class="fil1" d="M1832 525l0 509c26,-32 74,-53 130,-53l880 0 0 195c0,19 -16,35 -35,35l-975 0 0 458c0,112 90,203 203,203l866 0c19,0 35,16 35,35l0 196 -901 0c-252,0 -455,-204 -455,-455l0 -1101c0,-252 203,-456 455,-456l901 0 0 196c0,19 -17,35 -35,35l-866 0c-113,0 -203,91 -203,203z"/>
  <path class="fil1" d="M3156 1640l0 -1514c0,-18 16,-35 35,-35l216 0 0 1572c0,116 94,209 207,209l903 0c18,0 34,16 34,35l0 196 -937 0c-252,0 -458,-209 -458,-463z"/>
  <path class="fil1" d="M5848 91l0 196c0,19 -16,35 -35,35l-572 0 0 1746c0,19 -14,35 -35,35l-216 0 0 -1781 -599 0 0 -196c0,-18 16,-35 34,-35l1423 0z"/>
  <path class="fil1" d="M6419 706l0 1397 -204 0c-16,0 -29,-14 -29,-30l0 -1394 203 0c16,0 30,11 30,27zm0 -585l0 220 -204 0c-16,0 -29,-13 -29,-30l0 -220 203 0c16,0 30,14 30,30z"/>
  <path class="fil0" d="M13344 48l0 2016 -218 0c-19,0 -35,-17 -35,-36l0 -1783 -199 0c-19,0 -36,-14 -36,-36l0 -196 453 0c19,0 35,13 35,35z"/>
 </g>
</svg>
