<svg xmlns:xlink="http://www.w3.org/1999/xlink" xmlns="http://www.w3.org/2000/svg" width="135.229mm" height="34.8157mm" version="1.1" style="shape-rendering: geometricPrecision; text-rendering: geometricPrecision; image-rendering: optimizeQuality; fill-rule: evenodd; clip-rule: evenodd" viewBox="0 0 4506 1160">
 <defs>
  <style type="text/css">.fil0 {fill:white}
    .fil1 {fill:white;fill-rule:nonzero}</style>

 </defs>
 <g id="Capa_x0020_1">
  <!-- metadata ignored -->
  <g id="_1827688037312">
   <path class="fil0" d="M558 20c309,0 560,251 560,560 0,309 -251,560 -560,560 -125,0 -240,-41 -333,-110 167,25 379,-14 467,-173l0 157 117 0 0 -458 -428 0 0 118 249 0c-42,137 -165,226 -304,228 -88,4 -187,-42 -244,-107 -28,-37 -77,-86 -82,-215 -1,-44 12,-147 96,-230 63,-62 141,-92 235,-92 115,5 214,63 274,168l188 0c-80,-258 -348,-332 -567,-297 93,-68 208,-109 332,-109z" />
   <path class="fil1" d="M1608 0c-56,2 -109,18 -161,49 -52,31 -94,72 -126,123 -31,51 -48,107 -50,166 0,4 -1,8 -2,11 1,62 18,120 50,173 31,52 74,94 129,125 55,31 115,46 181,46 66,0 126,-16 180,-48 54,-32 96,-75 126,-130 31,-54 46,-113 46,-177l-433 0 0 116 278 0c-20,37 -48,66 -84,88 -36,21 -75,32 -117,32 -36,-1 -72,-11 -108,-30 -36,-20 -65,-47 -87,-81 -22,-35 -34,-75 -34,-123 -1,-40 9,-76 28,-108 20,-33 47,-58 80,-77 33,-20 68,-31 105,-34 38,-3 74,3 110,19 35,16 62,39 81,69l148 0c-40,-85 -92,-142 -157,-170 -65,-28 -126,-41 -183,-39zm452 13l0 664 356 0 0 -120 -233 0 0 -152 224 0 0 -119 -224 0 0 -154 235 0 0 -119 -358 0zm466 0l0 664 123 0 0 -664 -123 0zm217 320c2,72 18,135 47,187 30,53 69,93 117,122 49,29 104,46 165,51 33,2 71,-4 113,-16 43,-12 83,-33 121,-63 38,-30 68,-69 89,-118l-144 0c-44,50 -99,76 -165,78 -58,-2 -110,-24 -155,-66 -45,-43 -67,-98 -67,-164 0,-38 10,-74 30,-109 21,-35 48,-63 83,-84 35,-21 71,-31 109,-31 65,0 123,27 174,82l139 0c-14,-40 -38,-75 -73,-106 -34,-31 -73,-55 -116,-71 -43,-17 -85,-25 -125,-25 -54,0 -102,11 -146,33 -43,22 -80,50 -109,85 -30,35 -52,72 -66,111 -15,39 -22,74 -21,104z" />
   <path class="fil1" d="M1289 820c1,-15 4,-28 10,-38 6,-10 12,-17 21,-23 8,-5 16,-8 24,-10 8,-2 16,-3 25,-3 6,0 11,0 17,1 6,1 12,2 18,4 6,2 12,4 17,8l-6 17c0,0 -2,-2 -6,-5 -4,-3 -8,-6 -11,-8 -3,-2 -8,-4 -13,-6 -4,-1 -10,-2 -16,-2 -9,0 -18,2 -26,6 -9,4 -16,10 -22,19 -6,9 -10,20 -11,34 0,1 0,2 0,4 0,9 1,18 4,26 3,9 7,16 12,21 5,6 12,11 19,14 7,3 15,5 24,5 7,0 13,-1 19,-2 6,-2 11,-4 14,-6l0 -52c3,0 6,1 9,1 2,0 5,-1 8,-1l0 58c-4,2 -12,5 -24,7 -12,2 -21,3 -28,3 -1,0 -1,0 -2,0 0,0 -1,0 -2,0 -11,0 -21,-2 -30,-5 -9,-4 -17,-9 -24,-15 -6,-6 -11,-14 -14,-23 -4,-8 -6,-18 -6,-29zm162 68l0 -96c3,1 5,1 8,1 3,0 6,0 8,-1l0 19c2,-4 5,-8 7,-11 3,-3 6,-5 10,-7 4,-2 7,-3 12,-3 0,0 1,0 3,0l-2 19c-4,-2 -8,-3 -11,-3 -4,0 -7,1 -10,4 -3,3 -5,6 -7,10 -1,4 -2,8 -2,11l0 57c-2,0 -5,-1 -8,-1 -3,0 -5,1 -8,1zm64 -34l0 -62c2,1 5,1 8,1 4,0 7,0 9,-1l0 57c0,6 1,11 3,16 1,5 4,8 7,11 4,3 8,5 13,5 1,0 2,0 2,0 8,-1 14,-4 17,-10 4,-5 6,-11 6,-19l0 -60c3,1 6,1 9,1 3,0 6,0 8,-1l0 96c-2,0 -5,-1 -8,-1 -3,0 -6,1 -9,1l0 -14c-3,6 -8,10 -13,13 -6,2 -13,3 -21,3 -13,0 -21,-4 -25,-11 -4,-7 -6,-16 -6,-25zm112 -62c2,1 5,1 8,1 3,0 6,0 8,-1l0 20c3,-8 7,-13 13,-17 6,-3 13,-5 20,-5 8,0 16,2 22,5 6,4 11,9 14,17 4,7 5,17 5,29 0,6 0,13 -2,18 -2,6 -5,11 -8,16 -3,5 -8,8 -13,11 -5,3 -11,4 -18,4 -1,0 -1,0 -1,0 -1,0 -1,0 -2,0 -8,0 -14,-2 -19,-5 -4,-4 -8,-8 -11,-14l0 70c-2,-1 -5,-1 -8,-1 -3,0 -6,0 -8,1l0 -149zm16 46l0 3c0,6 1,11 2,16 1,5 3,10 7,15 4,4 10,7 18,9 0,0 1,0 2,0 5,0 8,-1 11,-3 4,-2 6,-4 8,-8 3,-3 4,-7 6,-12 1,-5 1,-11 1,-17 0,-8 0,-15 -2,-21 -1,-6 -4,-12 -7,-16 -4,-4 -9,-6 -15,-6 -1,0 -2,0 -3,0 -7,0 -13,3 -18,10 -4,6 -8,16 -10,30zm89 6c0,-10 2,-20 6,-28 4,-8 11,-14 19,-19 8,-4 17,-7 27,-7 12,0 22,3 29,10 7,6 12,13 15,21 2,7 4,14 4,20 0,5 -1,11 -3,17 -2,5 -5,10 -9,15 -4,5 -9,10 -16,13 -6,3 -14,4 -22,4 0,0 -1,0 -1,0 -1,0 -1,0 -2,0 -9,0 -18,-2 -25,-6 -7,-4 -13,-10 -17,-17 -3,-6 -5,-14 -5,-23zm19 2c0,7 2,15 6,24 4,9 12,13 24,14 9,0 16,-4 22,-11 6,-8 9,-18 10,-32 0,-8 -2,-16 -4,-22 -2,-7 -5,-12 -10,-16 -4,-3 -10,-5 -17,-5 -9,0 -17,5 -23,13 -6,9 -8,19 -8,31 0,0 0,2 0,4zm161 42l0 -137 73 0c-1,2 -1,4 -1,6 0,2 0,4 1,6 -6,-1 -15,-2 -26,-2 -3,0 -8,0 -14,0 -6,1 -11,1 -14,1l0 49 30 0 19 -2c0,2 -1,4 -1,6 0,2 1,5 1,7l-23 -2 -26 0 0 57c4,1 9,1 15,1 6,0 13,0 21,-1 8,0 15,-1 20,-1 -1,2 -1,5 -1,7 0,2 0,4 1,5l-75 0zm97 0l0 -98c2,1 5,1 7,1 3,0 6,0 9,-1l0 16c2,-3 4,-5 7,-8 3,-3 6,-5 10,-7 4,-1 8,-2 11,-2 6,0 11,0 15,1 4,1 7,3 10,6 2,3 5,7 9,13 2,-4 4,-8 8,-11 3,-3 7,-6 11,-7 4,-2 8,-2 12,-2 7,0 13,1 18,4 5,3 9,7 12,12 2,4 4,9 4,14 0,1 0,2 0,3l0 66c-3,0 -5,-1 -8,-1 -3,0 -7,1 -10,1l0 -64c0,-8 -2,-13 -7,-17 -4,-5 -9,-7 -15,-7 -4,0 -8,1 -11,3 -3,2 -6,5 -9,9 -2,4 -3,9 -4,15l0 61c-2,0 -5,-1 -8,-1 -3,0 -5,1 -8,1l0 -64c0,-5 -1,-9 -3,-12 -2,-4 -5,-6 -9,-8 -3,-2 -7,-3 -11,-3 -6,0 -11,2 -16,6 -4,5 -6,11 -7,20l0 61c-2,0 -5,-1 -8,-1 -3,0 -6,1 -9,1zm168 -96c2,1 5,1 8,1 3,0 6,0 8,-1l0 20c3,-8 7,-13 13,-17 6,-3 13,-5 20,-5 8,0 16,2 22,5 6,4 11,9 14,17 4,7 5,17 5,29 0,6 0,13 -2,18 -2,6 -5,11 -8,16 -4,5 -8,8 -13,11 -5,3 -12,4 -18,4 -1,0 -1,0 -1,0 -1,0 -1,0 -2,0 -8,0 -14,-2 -19,-5 -5,-4 -8,-8 -11,-14l0 70c-2,-1 -5,-1 -8,-1 -3,0 -6,0 -8,1l0 -149zm16 46l0 3c0,6 0,11 2,16 1,5 3,10 7,15 4,4 10,7 18,9 0,0 1,0 2,0 4,0 8,-1 11,-3 3,-2 6,-4 8,-8 3,-3 4,-7 6,-12 1,-5 1,-11 1,-17 0,-8 0,-15 -2,-21 -1,-6 -4,-12 -7,-16 -4,-4 -9,-6 -16,-6 0,0 -1,0 -2,0 -7,0 -13,3 -18,10 -4,6 -8,16 -10,30zm100 50l0 -96c2,1 5,1 8,1 3,0 5,0 8,-1l0 19c2,-4 4,-8 7,-11 3,-3 6,-5 10,-7 3,-2 7,-3 11,-3 1,0 2,0 3,0l-1 19c-4,-2 -8,-3 -11,-3 -4,0 -8,1 -11,4 -3,3 -5,6 -6,10 -2,4 -2,8 -2,11l0 57c-3,0 -5,-1 -8,-1 -3,0 -6,1 -8,1zm57 -44c0,-11 2,-21 6,-29 4,-7 9,-13 16,-17 7,-4 15,-6 24,-6 10,0 18,2 24,7 7,4 11,10 14,16 2,7 4,13 4,19 0,3 -1,5 -1,7l-68 0c0,8 1,15 3,21 2,6 6,11 11,14 5,3 12,5 21,5 5,0 11,-2 16,-4 5,-2 9,-5 12,-9l2 11c-5,3 -9,6 -12,7 -2,2 -5,3 -9,4 -5,1 -10,2 -16,2 -10,-1 -19,-3 -26,-8 -7,-4 -12,-10 -15,-17 -4,-7 -6,-15 -6,-23zm71 -11c0,-9 -2,-17 -6,-24 -3,-6 -10,-9 -19,-9 -6,0 -10,1 -15,5 -4,3 -7,8 -9,13 -2,5 -3,10 -3,15l52 0zm33 -13c0,-10 4,-17 11,-23 6,-5 14,-7 24,-7 8,0 16,1 22,5l-4 16 -3 0c-1,-3 -3,-5 -4,-7 -2,-2 -4,-4 -7,-5 -2,-1 -5,-1 -7,-1 -5,0 -8,1 -11,3 -4,2 -6,6 -6,10 -1,1 -1,3 -1,3 0,4 2,7 4,10 3,2 7,4 12,6 4,2 9,3 13,5 7,2 12,6 16,10 3,4 5,9 5,14 0,5 -2,10 -5,15 -3,5 -8,9 -13,12 -6,3 -12,4 -19,4 -13,0 -23,-3 -28,-8l5 -14 3 0c5,10 12,15 21,15 4,0 7,-1 10,-3 3,-2 5,-4 7,-7 2,-3 3,-5 3,-8 0,-4 -2,-7 -3,-9 -2,-2 -4,-4 -7,-5 -3,-2 -7,-3 -11,-4 -4,-1 -7,-2 -9,-3 -6,-2 -10,-4 -13,-8 -3,-4 -5,-9 -5,-16zm78 46c0,-4 1,-8 3,-11 1,-4 4,-7 8,-9 3,-3 8,-5 14,-7l26 -4c3,-1 5,-2 6,-4 2,-2 2,-5 2,-8 0,-3 -1,-7 -3,-10 -2,-4 -4,-7 -8,-10 -4,-2 -8,-3 -13,-3 -5,0 -9,1 -12,3 -4,2 -8,6 -12,11l-3 0 0 -11c4,-2 7,-4 10,-6 3,-1 7,-2 11,-4 4,-1 8,-1 12,-1 12,0 21,2 27,8 5,5 8,13 8,25l0 51c0,4 2,5 6,5 1,0 3,0 5,0l0 4c-3,3 -7,4 -11,4 -4,0 -8,-1 -11,-3 -4,-2 -6,-5 -6,-9 -10,10 -21,15 -31,15 -8,0 -15,-3 -20,-8 -5,-5 -8,-11 -8,-18zm59 2l0 -27c-10,1 -19,2 -25,4 -6,2 -10,5 -13,8 -3,3 -4,7 -4,11 0,2 0,3 1,5 0,3 2,6 6,9 3,2 7,3 12,3 8,0 16,-4 23,-13zm49 20l0 -96c2,1 5,1 8,1 3,0 5,0 8,-1l0 19c2,-4 4,-8 7,-11 3,-3 6,-5 10,-7 3,-2 7,-3 11,-3 1,0 2,0 3,0l-1 19c-4,-2 -8,-3 -11,-3 -4,0 -8,1 -11,4 -2,3 -5,6 -6,10 -2,4 -2,8 -2,11l0 57c-3,0 -5,-1 -8,-1 -3,0 -6,1 -8,1zm66 -133c0,-3 1,-6 4,-8 2,-2 4,-3 7,-3 3,0 6,1 8,3 2,2 4,5 4,8 -1,4 -2,7 -4,9 -2,2 -5,3 -8,3 -3,0 -5,-1 -7,-3 -3,-3 -4,-5 -4,-9zm2 133l0 -98c3,1 6,1 9,1 3,0 6,0 8,-1l0 98c-2,0 -5,-1 -8,-1 -3,0 -6,1 -9,1zm48 -22c0,-4 0,-8 2,-11 2,-4 4,-7 8,-9 4,-3 9,-5 15,-7l25 -4c3,-1 5,-2 7,-4 1,-2 2,-5 2,-8 0,-3 -1,-7 -3,-10 -2,-4 -5,-7 -9,-10 -3,-2 -8,-3 -13,-3 -4,0 -8,1 -12,3 -3,2 -7,6 -11,11l-4 0 0 -11c4,-2 8,-4 11,-6 3,-1 6,-2 10,-4 4,-1 8,-1 13,-1 12,0 21,2 26,8 6,5 9,13 9,25l0 51c0,4 1,5 5,5 1,0 3,0 6,0l0 4c-3,3 -7,4 -12,4 -4,0 -8,-1 -11,-3 -3,-2 -5,-5 -6,-9 -10,10 -20,15 -31,15 -8,0 -14,-3 -19,-8 -6,-5 -8,-11 -8,-18zm58 2l0 -27c-10,1 -18,2 -24,4 -6,2 -10,5 -13,8 -3,3 -4,7 -4,11 0,2 0,3 0,5 1,3 3,6 6,9 4,2 8,3 12,3 9,0 17,-4 23,-13zm53 20l0 -155c3,1 6,1 8,1 3,0 6,0 9,-1l0 155c-2,0 -5,-1 -8,-1 -3,0 -6,1 -9,1zm98 -42c0,-9 1,-17 3,-24 2,-6 4,-12 8,-17 4,-5 9,-9 14,-11 6,-3 12,-4 19,-4 5,0 9,1 14,3 5,2 9,4 12,7 3,3 4,5 4,8l0 -72c3,1 6,2 9,2 3,0 5,-1 9,-2l0 152c-3,0 -5,-1 -8,-1 -3,0 -7,1 -10,1l0 -17c-5,7 -10,12 -15,15 -6,3 -12,4 -18,4 -7,0 -14,-2 -20,-6 -7,-4 -12,-9 -16,-16 -3,-7 -5,-14 -5,-22zm19 -3c0,13 3,23 8,29 6,6 11,9 17,9 1,0 1,0 2,0 5,0 10,-2 14,-5 5,-3 8,-8 10,-14 3,-6 4,-13 4,-21 0,-10 -2,-20 -5,-29 -4,-8 -11,-12 -21,-12 -1,0 -1,0 -1,0 -1,0 -1,0 -1,0 -11,0 -19,5 -22,13 -4,9 -5,19 -5,30zm93 1c0,-11 2,-21 6,-29 4,-7 10,-13 17,-17 7,-4 15,-6 23,-6 10,0 18,2 25,7 6,4 11,10 13,16 3,7 4,13 4,19 0,3 0,5 -1,7l-68 0c0,8 1,15 4,21 2,6 5,11 11,14 5,3 12,5 20,5 6,0 11,-2 16,-4 5,-2 10,-5 13,-9l1 11c-5,3 -9,6 -11,7 -2,2 -6,3 -10,4 -4,1 -9,2 -15,2 -11,-1 -19,-3 -26,-8 -7,-4 -13,-10 -16,-17 -3,-7 -5,-15 -6,-23zm72 -11c0,-9 -2,-17 -6,-24 -4,-6 -10,-9 -20,-9 -5,0 -10,1 -14,5 -4,3 -7,8 -9,13 -3,5 -4,10 -4,15l53 0zm98 55l0 -155c3,1 6,1 8,1 3,0 6,0 9,-1l0 155c-2,0 -5,-1 -8,-1 -3,0 -6,1 -9,1zm46 -22c0,-4 1,-8 2,-11 2,-4 5,-7 8,-9 4,-3 9,-5 15,-7l25 -4c3,-1 6,-2 7,-4 1,-2 2,-5 2,-8 0,-3 -1,-7 -3,-10 -2,-4 -5,-7 -9,-10 -3,-2 -7,-3 -12,-3 -5,0 -9,1 -13,3 -3,2 -7,6 -11,11l-3 0 0 -11c4,-2 7,-4 10,-6 3,-1 7,-2 10,-4 4,-1 9,-1 13,-1 12,0 21,2 26,8 6,5 9,13 9,25l0 51c0,4 2,5 5,5 2,0 3,0 6,0l0 4c-3,3 -7,4 -12,4 -4,0 -7,-1 -11,-3 -3,-2 -5,-5 -6,-9 -10,10 -20,15 -31,15 -7,0 -14,-3 -19,-8 -6,-5 -8,-11 -8,-18zm58 2l0 -27c-10,1 -18,2 -24,4 -6,2 -10,5 -13,8 -3,3 -4,7 -4,11 0,2 0,3 0,5 1,3 3,6 6,9 4,2 8,3 13,3 8,0 16,-4 22,-13zm-2045 99c0,0 1,0 2,1 0,0 1,0 2,0 0,0 0,0 0,0 0,0 0,0 0,0 0,0 0,0 1,0 0,0 0,0 0,0 1,0 1,0 2,0 1,-1 2,-1 2,-1l8 0 0 140 -8 0c0,0 -1,0 -2,0 -1,0 -1,0 -2,0 0,0 0,0 0,0 0,0 0,0 -1,0 0,0 0,0 0,0 0,0 0,0 0,0 -1,0 -2,0 -2,0 -1,0 -2,0 -2,0l-9 0 0 -140 9 0zm53 140l0 -99 8 0c0,1 1,1 1,1 1,0 1,0 2,0 0,0 0,0 0,0 0,0 1,0 1,0 0,1 0,1 0,1 0,0 0,0 0,0 0,0 0,0 0,0 0,0 1,0 1,0 0,0 0,0 0,0 0,0 0,0 0,0 1,0 1,-1 2,-1 1,0 1,0 2,0l8 -1 0 8c1,-1 3,-2 4,-2 1,-1 3,-2 5,-3 2,-2 4,-2 7,-3 3,-1 6,-1 10,-1l8 0 0 0 0 0c4,0 8,1 12,3 3,1 7,4 10,7 3,3 6,7 7,12 2,6 3,12 3,20l0 58 -8 0c-1,0 -1,0 -1,0 -1,0 -1,0 -1,0 -1,0 -1,0 -1,0 0,0 -1,0 -1,0 0,0 0,0 0,0 0,0 0,0 0,0 0,0 0,0 0,0 0,0 0,0 0,0 0,0 0,0 0,0 0,0 0,0 0,0 -1,0 -2,0 -3,0 -1,0 -2,0 -3,0l-8 0 0 -59c0,-4 -1,-8 -2,-12 -1,-4 -3,-7 -5,-9 -2,-2 -4,-3 -6,-5 -2,-1 -4,-2 -6,-2 -2,1 -5,2 -7,3 -2,1 -4,3 -6,5 -3,3 -5,6 -6,10 -1,4 -2,9 -2,14l0 55 -8 0c-1,0 -2,0 -2,0 -1,0 -2,0 -2,0 0,0 0,0 0,0 0,0 -1,0 -1,0 0,0 0,0 0,0 0,0 0,0 0,0 0,0 0,0 0,0 0,0 0,0 0,0 0,0 0,0 -1,0 0,0 -1,0 -1,0 0,0 -1,0 -1,0 -1,0 -1,0 -1,0l-8 0z" />
   <path class="fil1" d="M1482 1107l0 -88 -15 0c0,1 1,1 1,0 0,0 0,0 0,0 0,-1 0,-1 0,-1 0,0 0,-1 0,-1l0 -1 0 0c0,0 0,-1 0,-1 0,0 0,0 0,0 0,0 0,-1 0,-1 0,0 0,0 0,0 0,-1 0,-1 0,-1 0,-1 0,-1 -1,-1l15 0c1,-11 3,-20 6,-27 2,-8 5,-13 9,-17 3,-4 7,-7 11,-9 4,-2 8,-4 12,-4l8 0c1,0 1,0 1,0 0,0 1,0 1,0 0,0 0,1 1,1 0,0 0,0 0,0 1,0 1,0 2,0 0,0 1,0 1,0 0,2 0,3 -1,4 0,2 0,3 0,4 0,2 0,3 0,4 0,2 0,3 0,4l-2 1 -8 0c-1,0 -2,0 -2,-1 -1,0 -2,0 -3,-1 0,0 -1,0 -1,0 0,0 -1,0 -1,0 -2,0 -4,1 -6,2 -1,1 -2,2 -3,4 -1,2 -2,4 -3,7 0,2 0,5 0,7 0,1 0,1 0,1 0,0 0,0 0,0 0,0 0,0 0,0 0,1 0,1 0,1 0,0 0,0 0,0 0,0 0,0 0,0 0,1 0,1 0,1 0,0 0,0 0,0 0,1 0,2 0,3 0,1 0,2 0,3 0,1 0,2 0,3 1,1 1,2 1,2 0,1 0,2 0,2 0,1 0,1 0,2 0,0 0,1 0,1 0,1 0,2 1,2l14 0 8 0c0,0 0,0 0,0 0,0 0,0 0,0 -1,0 -1,1 -1,1 0,0 0,0 0,0 0,0 0,1 0,1 0,0 0,1 0,1 0,0 0,1 0,1 0,1 0,1 0,1 0,1 0,1 1,2 0,0 0,0 0,1l-8 0 -14 -1 0 88 -8 0c-1,0 -2,0 -2,0 -1,0 -1,0 -2,0 0,0 -1,0 -2,0 -1,0 -1,0 -2,0l-8 0zm51 -44c0,-8 1,-15 4,-22 2,-6 5,-12 10,-17 5,-5 11,-9 17,-12 6,-2 14,-3 22,-3l8 -1c6,1 11,1 16,3 4,1 8,4 12,6 3,3 6,6 8,9 3,3 5,7 6,10 1,3 2,5 3,7 1,2 1,4 2,7 0,2 0,4 0,5 1,2 1,4 1,5 0,1 0,2 0,4 0,1 -1,2 -1,4 0,1 0,2 -1,3 0,2 0,3 -1,4 -1,5 -3,9 -6,13 -2,4 -5,7 -9,11 -4,3 -8,6 -14,7 -5,2 -11,3 -18,3l-8 0c0,0 -1,0 -1,0 0,0 0,0 -1,0 0,0 0,0 0,0 0,0 0,0 0,0 0,0 -1,0 -1,0 0,0 0,0 0,0 -8,0 -14,-1 -20,-3 -6,-3 -11,-6 -15,-10 -5,-5 -8,-10 -10,-15 -2,-6 -3,-12 -3,-18l0 0zm27 1c0,1 0,2 0,4 1,1 1,3 1,4 0,2 0,3 1,5 0,2 1,4 2,6 1,2 2,4 3,7 2,2 4,4 6,6 2,2 4,3 6,4 2,1 5,2 8,2 3,0 7,-1 10,-3 2,-2 5,-4 7,-7 3,-3 6,-8 7,-13 2,-6 3,-12 3,-19 0,-7 0,-12 -1,-18 -2,-5 -3,-9 -6,-13 -2,-4 -5,-7 -8,-9 -3,-1 -7,-3 -11,-3 -4,0 -8,2 -11,4 -3,2 -6,5 -8,8 -3,5 -5,9 -6,14 -2,4 -3,9 -3,14 0,1 0,1 0,1 0,0 0,1 0,1l0 1c0,0 0,1 0,1 0,0 0,0 0,0 0,0 0,1 0,1 0,0 0,0 0,0 0,1 0,1 0,2 0,0 0,0 0,0l-8 0 0 0 8 0zm106 43l0 -97 8 0c0,0 1,0 1,1 0,0 1,0 1,0 1,0 1,0 1,0 0,0 0,0 0,0 0,0 0,0 0,0 0,0 1,0 1,0 0,0 0,0 0,0 0,0 0,0 0,0 0,0 0,0 1,0 0,0 0,0 1,0 0,0 0,0 1,0 0,0 0,-1 1,-1l8 0 0 8c0,0 0,-1 1,-1 0,0 0,0 0,-1 1,0 1,0 1,-1 1,0 1,0 1,0 3,-2 6,-4 8,-5 3,-1 6,-2 9,-2l8 0c1,0 1,0 1,0 1,0 1,0 1,0 0,0 0,0 0,0 1,0 1,0 1,0 0,1 0,1 0,1 0,0 1,0 1,0l-2 18 -8 0c-1,0 -2,0 -3,-1 -1,0 -2,0 -3,0 0,0 0,-1 0,-1 0,0 -1,0 -1,0 0,0 0,0 0,0 0,0 -1,0 -1,0 -1,1 -2,1 -4,2 -1,1 -2,2 -3,3 -1,2 -3,4 -4,6 -1,2 -1,4 -2,6 0,1 0,2 -1,2 0,1 0,2 0,2 0,1 0,2 0,2 0,1 0,2 0,2l0 57 -8 0c-1,0 -1,0 -2,0 0,0 -1,0 -1,0 0,0 -1,0 -1,0 0,0 0,0 0,0 0,0 0,0 0,0 0,0 0,0 0,0 0,0 0,0 0,0 0,0 0,0 0,0 -1,0 -2,0 -2,0 -1,0 -2,0 -2,0l-8 0zm72 0l0 -99 8 0 1 1 1 0c0,0 1,0 1,0 0,0 0,0 0,0 0,0 0,1 0,1 0,0 0,0 0,0 1,0 2,-1 2,-1 1,0 2,0 3,0l8 -1 0 7c1,0 1,-1 2,-2 1,0 2,-1 3,-1 2,-2 5,-3 7,-4 3,-1 6,-1 8,-1l8 0c4,0 7,0 10,1 3,0 5,1 7,1 2,1 4,2 6,4 2,1 4,3 5,5 1,1 1,1 1,2 0,0 1,0 1,1 1,-2 3,-4 4,-5 2,-2 4,-3 5,-4 3,-2 6,-3 9,-4 3,-1 7,-1 10,-1l8 0c5,0 10,1 14,2 4,2 7,4 10,7 3,3 5,6 7,10 2,3 3,6 3,10l0 1 0 0 0 1 0 1 0 1 0 0 0 67 -8 0c-1,0 -1,0 -1,0 -1,0 -1,0 -1,0 -1,0 -1,0 -1,0 -1,0 -1,0 -1,0 0,0 0,0 0,0 0,0 0,0 0,0 0,0 -1,0 -1,0 0,0 0,0 0,0 0,0 0,0 0,0 0,0 0,0 0,0 -1,0 -2,0 -3,0 0,0 -1,0 -2,0l-8 0 0 -65c0,-4 -1,-7 -2,-10 -1,-2 -3,-5 -5,-7 -2,-2 -4,-3 -6,-4 -2,-1 -4,-2 -6,-2 -2,0 -4,1 -6,2 -2,1 -4,3 -5,4 -3,2 -4,5 -6,9 -1,3 -2,7 -2,11l0 62 -8 0c-1,0 -1,0 -1,0 -1,0 -1,0 -1,0 -1,0 -1,0 -1,0 -1,0 -1,0 -1,0 0,0 0,0 0,0 0,0 0,0 0,0 0,0 0,0 0,0 0,0 0,0 0,0 0,0 0,0 0,0 0,0 0,0 0,0 -1,0 -2,0 -2,0 -1,0 -2,0 -2,0l-8 0 0 -65c0,-4 -1,-6 -2,-9 -1,-3 -3,-5 -6,-7 -2,-2 -4,-3 -6,-4 -2,-1 -4,-2 -6,-2 -2,0 -4,1 -6,2 -2,1 -3,2 -5,3 -3,2 -4,5 -5,8 -2,4 -2,8 -3,12l0 62 -8 0c0,0 0,0 -1,0 0,0 0,0 0,0 -1,0 -1,0 -2,0 0,0 0,0 0,0 0,0 -1,0 -1,0 0,0 0,0 0,0 0,0 0,0 0,0 0,0 0,0 0,0 0,0 0,0 0,0 0,0 0,0 0,0 -1,0 -2,0 -3,0 -1,0 -1,0 -2,0l-8 0zm174 -22c0,-3 0,-6 1,-9 1,-2 3,-5 5,-7 2,-2 4,-4 7,-6 4,-2 8,-4 13,-5l25 -5c2,0 3,-1 4,-1 1,-1 2,-2 3,-3 0,-1 1,-2 1,-3 1,-1 1,-3 1,-4 0,0 0,0 0,-1 0,0 0,0 0,0 0,-1 0,-1 0,-1 0,0 0,-1 0,-1 0,0 -1,-1 -1,-2 0,0 0,-1 0,-1 -1,-2 -2,-4 -3,-6 -2,-2 -3,-4 -5,-6 -2,-2 -3,-3 -5,-4 -2,-1 -4,-1 -6,-2 -1,1 -2,1 -3,1 0,0 -1,1 -2,1 -1,0 -3,1 -4,2 -1,0 -2,1 -3,2 -1,1 -2,1 -2,2 -1,1 -2,1 -2,2 -1,1 -2,1 -3,2 0,1 -1,2 -2,3l-8 -1 -3 0 0 -11c0,0 1,0 1,0 1,0 1,-1 1,-1 1,0 1,0 2,-1 0,0 0,0 1,0 2,-1 4,-2 6,-3 2,-1 4,-2 7,-3 2,-1 5,-2 7,-2 3,0 6,-1 9,-1l8 0c6,0 11,1 15,2 5,2 8,3 11,6 3,3 5,6 7,10 1,5 2,10 2,16l0 50c0,2 0,3 0,4 0,0 1,1 1,1 0,0 0,0 1,0 0,1 0,1 0,1 0,0 0,0 0,0 0,0 0,0 0,0 0,0 0,0 0,0 0,0 1,0 1,0 0,0 0,0 0,0 0,0 0,0 0,0l8 0 0 4c-1,1 -1,1 -2,2 -1,0 -2,1 -3,1 0,0 0,0 -1,0 0,0 -1,0 -1,0 0,1 -1,1 -1,1 -1,0 -1,0 -2,0l-1 0 -8 0 -1 0c-2,0 -4,0 -6,-1 -1,0 -3,-1 -5,-2 -1,0 -1,-1 -2,-1 -1,-1 -1,-2 -2,-2 -2,1 -4,2 -6,3 -2,2 -4,2 -6,3 -2,1 -4,1 -6,2 -3,0 -5,0 -7,0l-8 0c-4,0 -8,0 -11,-1 -3,-2 -6,-3 -9,-6 -3,-2 -5,-5 -6,-8 -1,-3 -2,-6 -2,-10l0 0zm59 2l0 -27c-5,1 -10,2 -14,3 -4,2 -7,3 -10,4 -3,2 -6,4 -7,7 -2,2 -3,5 -3,9 0,0 0,1 0,1 0,1 0,1 0,2 0,0 0,1 0,1 1,1 1,1 1,2l0 1 1 1c0,1 1,2 2,3 1,1 2,2 4,4 1,0 2,1 3,1 2,1 3,1 4,1 0,0 1,0 1,0 0,0 0,0 0,0 1,0 1,0 1,0 0,0 0,0 0,0 1,-1 3,-1 4,-1 1,-1 2,-1 3,-2 1,-1 2,-1 2,-2 1,-1 2,-1 3,-2 1,-1 1,-1 1,-1 1,-1 1,-1 2,-2 0,0 1,-1 1,-1 0,-1 1,-1 1,-2l0 0zm-38 -88l27 -29c0,0 1,-1 1,-1 1,-1 1,-1 2,-1 0,-1 0,-1 1,-1 0,0 0,0 1,0 0,0 0,-1 1,-1 0,0 0,0 0,0 1,0 1,0 1,0 1,0 1,0 1,-1 1,0 1,0 1,0 0,0 0,0 0,0 1,0 1,0 1,0 0,0 0,0 0,0l9 0c1,0 2,0 2,1 1,0 2,0 3,1 1,0 1,1 2,2 0,0 0,1 0,2 0,0 0,1 0,2 0,1 -1,1 -1,2 0,1 -1,1 -1,1 0,1 -1,1 -1,1 -1,1 -1,1 -2,2 0,0 -1,0 -2,1l-30 19 -8 0 -8 0zm93 84l0 -65 -13 0c0,0 0,0 0,-1 0,0 1,0 1,0 0,0 0,-1 0,-1 0,0 0,-1 0,-1 0,0 0,-1 0,-1 0,0 0,-1 0,-1 0,-1 -1,-1 -1,-1 0,-1 0,-1 0,-2l13 0 0 -19 16 -7 8 0 0 26 22 0c0,0 0,1 0,1 -1,1 -1,1 -1,1 0,1 0,1 0,1 0,1 0,1 0,1 0,0 0,1 0,1 0,0 0,1 0,1 0,0 0,0 0,0 0,1 0,1 0,1 1,0 1,0 1,1 0,0 0,0 0,0l-8 0 -14 0 0 53c0,1 0,2 0,2 0,1 0,2 0,3 0,1 0,2 0,3 0,1 0,2 0,3 0,3 1,5 1,8 1,2 2,4 3,6 0,2 1,3 2,4 1,1 3,2 5,2 0,0 0,0 0,0 0,0 0,0 0,0 1,0 2,-1 3,-1 1,0 2,-1 3,-1l8 0 0 6c-1,1 -3,1 -5,2 -2,0 -3,0 -5,1 -2,0 -3,1 -5,1 -1,0 -2,0 -4,0l-8 0c-4,0 -7,0 -10,-2 -2,-1 -5,-2 -7,-5 -2,-2 -3,-5 -4,-8 -1,-3 -1,-7 -1,-11l0 -1zm69 24l0 -99 8 0c0,1 0,1 0,1 0,0 0,0 1,0 0,0 0,0 0,0 0,0 0,0 0,0 0,0 1,0 1,0 0,0 0,0 1,0 0,0 0,0 0,0 0,0 0,0 1,0 0,1 0,1 0,1 0,0 0,0 0,0 1,0 1,0 1,0 0,0 0,0 0,0 1,0 1,-1 2,-1 1,0 2,0 2,0l8 -1 0 99 -8 0c0,0 -1,0 -2,0 0,0 -1,0 -2,0 0,0 0,0 0,0 0,0 0,0 0,0 0,0 0,0 0,0 0,0 0,0 0,0 0,0 0,0 0,0 0,0 0,0 0,0 -1,0 -2,0 -3,0 -1,0 -1,0 -2,0l-8 0zm-2 -134c0,-2 0,-3 1,-5 0,-1 1,-2 2,-3 1,-1 2,-2 4,-2 1,-1 2,-1 4,-1l8 0c1,0 3,0 4,1 1,0 3,1 4,2 1,1 2,2 2,4 1,1 1,3 1,5 0,1 0,3 -1,5 -1,1 -2,2 -3,3 -1,1 -2,2 -3,2 -1,1 -3,1 -4,1l-8 0c-1,0 -3,0 -4,-1 -1,0 -2,-1 -4,-2 -1,-1 -2,-2 -2,-4 -1,-1 -1,-3 -1,-4l0 -1zm56 88c0,-7 1,-14 3,-20 3,-7 6,-12 10,-17 5,-4 10,-8 17,-10 7,-3 15,-4 24,-4l8 0c3,0 5,0 7,1 2,0 4,0 6,1 2,0 3,0 5,1 2,0 3,1 5,1 0,0 0,1 1,1 0,0 0,0 1,0 0,0 0,1 1,1 0,0 0,0 1,0 0,1 1,1 2,1 0,1 1,1 2,1l-3 14 -8 0 -4 0c-1,-2 -3,-4 -5,-6 -2,-1 -4,-3 -6,-4 -2,-1 -3,-2 -5,-2 -2,-1 -4,-1 -7,-2 -4,1 -8,2 -11,4 -3,2 -6,5 -9,9 -2,4 -4,9 -6,14 -1,4 -2,9 -2,15 0,5 1,10 2,15 2,5 4,9 7,13 2,4 6,7 9,9 4,2 8,4 13,4 3,0 5,0 6,-1 2,0 4,-1 6,-2 2,-1 4,-2 6,-4 2,-1 4,-3 6,-4l1 -1 0 -1 8 0 2 2 -2 9c-2,2 -4,4 -7,5 -2,2 -5,3 -8,3 -3,1 -5,2 -8,2 -3,0 -6,1 -9,1l-8 0 -1 0 0 0c-6,0 -12,-1 -18,-3 -6,-2 -11,-5 -16,-9 -6,-4 -10,-9 -12,-15 -3,-6 -4,-12 -4,-20l0 0 0 -1 0 0 0 -1 0 0z" />
   <path class="fil1" d="M2261 1085c0,-3 0,-6 1,-9 1,-2 3,-5 5,-7 2,-2 4,-4 7,-6 4,-2 8,-4 13,-5l25 -5c2,0 3,-1 4,-1 1,-1 2,-2 3,-3 0,-1 1,-2 1,-3 1,-1 1,-3 1,-4 0,0 0,0 0,-1 0,0 0,0 0,0 0,-1 0,-1 0,-1 0,0 0,-1 0,-1 -1,0 -1,-1 -1,-2 0,0 0,-1 0,-1 -1,-2 -2,-4 -3,-6 -2,-2 -3,-4 -5,-6 -2,-2 -3,-3 -5,-4 -2,-1 -4,-1 -6,-2 -1,1 -2,1 -3,1 -1,0 -1,1 -2,1 -1,0 -3,1 -4,2 -1,0 -2,1 -3,2 -1,1 -2,1 -2,2 -1,1 -2,1 -3,2 0,1 -1,1 -2,2 0,1 -1,2 -2,3l-8 -1 -3 0 0 -11c0,0 1,0 1,0 0,0 1,-1 1,-1 1,0 1,0 2,-1 0,0 0,0 1,0 2,-1 4,-2 6,-3 2,-1 4,-2 7,-3 2,-1 4,-2 7,-2 3,0 6,-1 9,-1l8 0c6,0 11,1 15,2 5,2 8,3 11,6 3,3 5,6 7,10 1,5 2,10 2,16l0 50c0,2 0,3 0,4 0,0 1,1 1,1 0,0 0,0 0,0 1,1 1,1 1,1 0,0 0,0 0,0 0,0 0,0 0,0 0,0 0,0 0,0 0,0 0,0 1,0 0,0 0,0 0,0 0,0 0,0 0,0l8 0 0 4c-1,1 -1,1 -2,2 -1,0 -2,1 -3,1 0,0 0,0 -1,0 0,0 -1,0 -1,0 -1,1 -1,1 -1,1 -1,0 -1,0 -2,0l-1 0 -8 0 -1 0c-2,0 -4,0 -6,-1 -2,0 -3,-1 -5,-2 -1,0 -1,-1 -2,-1 -1,-1 -1,-2 -2,-2 -2,1 -4,2 -6,3 -2,2 -4,2 -6,3 -2,1 -4,1 -7,2 -2,0 -4,0 -6,0l-8 0c-4,0 -8,0 -11,-1 -3,-2 -6,-3 -9,-6 -3,-2 -5,-5 -6,-8 -1,-3 -2,-6 -2,-10l0 0zm59 2l0 -27c-5,1 -10,2 -14,3 -4,2 -7,3 -10,4 -3,2 -6,4 -7,7 -2,2 -3,5 -3,9 0,0 0,1 0,1 0,1 0,1 0,2 0,0 0,1 0,1 0,1 1,1 1,2l0 1 1 1c0,1 1,2 2,3 1,1 2,2 4,4 1,0 2,1 3,1 2,1 3,1 4,1 0,0 1,0 1,0 0,0 0,0 0,0 0,0 1,0 1,0 0,0 0,0 0,0 1,-1 3,-1 4,-1 1,-1 2,-1 3,-2 1,-1 2,-1 2,-2 1,-1 2,-1 3,-2 1,-1 1,-1 1,-1 1,-1 1,-1 2,-2 0,0 1,-1 1,-1 0,-1 1,-1 1,-2l0 0zm117 -77c1,0 2,1 3,1 1,0 2,0 3,0 0,0 0,0 0,0 0,0 1,0 1,0 0,0 0,0 0,0 0,0 0,1 0,1 1,-1 1,-1 1,-1 0,0 0,0 1,0 0,0 1,0 2,0 1,0 1,-1 2,-1l8 0c1,2 1,4 2,7 1,4 3,7 4,12 2,4 4,8 6,13 1,4 3,9 5,14 1,0 1,0 1,0 0,1 0,1 0,1 0,1 0,1 0,1 1,1 1,1 1,1 0,1 0,1 1,2 0,1 0,1 0,2 1,1 1,2 2,3 0,1 1,2 1,3 0,1 1,2 1,3 1,1 1,2 2,3 0,0 0,0 0,0 0,1 0,1 0,1 0,0 0,0 0,0 0,1 0,1 0,1 0,0 1,0 1,-1 0,0 0,0 0,0 0,0 0,0 0,-1 0,0 0,0 0,0 1,-2 2,-4 3,-6 1,-2 2,-4 3,-7 0,0 0,-1 1,-2 0,0 0,-1 1,-2 0,-1 0,-1 1,-2 0,-1 0,-2 1,-2 2,-5 3,-10 5,-14 2,-4 4,-9 5,-13 2,-4 3,-7 4,-10 1,-3 1,-5 2,-7l8 0c0,0 1,1 1,1 1,0 1,0 2,0 0,0 1,0 1,0 1,0 1,-1 2,-1l8 0 -67 150 -8 0c0,0 -1,0 -1,0 0,0 0,0 0,0 -1,-1 -1,-1 -1,-1 0,0 0,0 0,0 -1,0 -1,0 -1,0 -1,0 -1,0 -1,1 -1,0 -1,0 -1,0 -1,0 -1,0 -1,0l-8 0 27 -54 -42 -96 8 0zm182 97l0 -156 9 0c0,0 1,0 2,1 1,0 1,0 2,0 0,0 0,0 0,0 0,0 0,0 0,0 0,0 0,0 0,0 0,0 0,0 0,0 0,0 0,0 0,0 0,0 0,0 0,0 0,0 0,0 0,0 0,0 0,0 0,0 1,0 2,0 3,0 0,-1 1,-1 2,-1l8 0 0 156 -8 0c0,0 0,0 -1,0 0,0 0,0 -1,0 0,0 0,0 -1,0 0,0 0,0 -1,0 0,0 0,0 0,0 0,0 0,0 0,0 0,0 0,0 0,0 0,0 0,0 0,0 0,0 0,0 0,0 0,0 0,0 -1,0 0,0 -1,0 -2,0 -1,0 -2,0 -2,0l-9 0zm55 -22c0,-3 1,-6 1,-9 1,-2 3,-5 5,-7 2,-2 4,-4 8,-6 3,-2 7,-4 12,-5l25 -5c2,0 3,-1 4,-1 1,-1 2,-2 3,-3 1,-1 1,-2 1,-3 1,-1 1,-3 1,-4 0,0 0,0 0,-1 0,0 0,0 0,0 0,-1 0,-1 0,-1 0,0 0,-1 0,-1 0,0 -1,-1 -1,-2 0,0 0,-1 0,-1 -1,-2 -2,-4 -3,-6 -2,-2 -3,-4 -5,-6 -2,-2 -3,-3 -5,-4 -2,-1 -4,-1 -6,-2 -1,1 -2,1 -3,1 0,0 -1,1 -2,1 -1,0 -3,1 -4,2 -1,0 -2,1 -3,2 -1,1 -2,1 -2,2 -1,1 -2,1 -2,2 -1,1 -2,1 -3,2 0,1 -1,2 -2,3l-8 -1 -3 0 0 -11c0,0 1,0 1,0 1,0 1,-1 1,-1 1,0 1,0 2,-1 0,0 0,0 1,0 2,-1 4,-2 6,-3 2,-1 4,-2 7,-3 2,-1 5,-2 7,-2 3,0 6,-1 9,-1l8 0c6,0 11,1 15,2 5,2 8,3 11,6 3,3 5,6 7,10 1,5 2,10 2,16l0 50c0,2 0,3 0,4 0,0 1,1 1,1 0,0 1,0 1,0 0,1 0,1 0,1 0,0 0,0 0,0 0,0 0,0 0,0 0,0 0,0 0,0 0,0 1,0 1,0 0,0 0,0 0,0 0,0 0,0 0,0l8 0 0 4c-1,1 -1,1 -2,2 -1,0 -2,1 -2,1 -1,0 -1,0 -2,0 0,0 0,0 -1,0 0,1 -1,1 -1,1 -1,0 -1,0 -2,0l-1 0 -8 0 -1 0c-2,0 -4,0 -6,-1 -1,0 -3,-1 -5,-2 -1,0 -1,-1 -2,-1 -1,-1 -1,-2 -2,-2 -2,1 -4,2 -6,3 -2,2 -4,2 -6,3 -2,1 -4,1 -6,2 -3,0 -5,0 -7,0l-8 0c-4,0 -8,0 -11,-1 -3,-2 -6,-3 -9,-6 -3,-2 -5,-5 -6,-8 -1,-3 -2,-6 -2,-10l0 0zm59 2l0 -27c-5,1 -10,2 -14,3 -4,2 -7,3 -10,4 -3,2 -6,4 -7,7 -2,2 -3,5 -3,9 0,0 0,1 0,1 0,1 0,1 0,2 0,0 0,1 1,1 0,1 0,1 0,2l0 1 1 1c0,1 1,2 2,3 1,1 2,2 4,4 1,0 2,1 3,1 2,1 3,1 4,1 0,0 1,0 1,0 0,0 0,0 0,0 1,0 1,0 1,0 0,0 0,0 0,0 2,-1 3,-1 4,-1 1,-1 2,-1 3,-2 1,-1 2,-1 2,-2 1,-1 2,-1 3,-2 1,-1 1,-1 1,-1 1,-1 1,-1 2,-2 0,0 1,-1 1,-1 0,-1 1,-1 1,-2l0 0zm51 -49c0,-5 1,-9 3,-13 2,-4 5,-7 8,-10 4,-2 8,-4 12,-5 4,-1 8,-2 12,-2l8 0c1,0 2,0 3,0 1,0 2,0 3,0 1,0 2,1 3,1 1,0 2,0 3,0 2,1 4,1 6,2 2,1 3,2 5,2l-5 16 -8 0 -3 0c-1,-2 -1,-4 -3,-5 -1,-2 -2,-3 -4,-4 -1,-1 -2,-1 -3,-2 -2,-1 -3,-1 -4,-1 -1,0 -2,0 -4,1 -1,0 -2,1 -3,2 -2,1 -3,2 -4,4 -1,1 -2,3 -2,5l0 1 0 1 0 1 0 1c0,2 0,4 1,6 1,2 3,4 5,5 2,1 4,2 6,3 2,1 5,2 7,3 1,0 1,0 1,1 0,0 1,0 1,0 0,0 0,0 0,0 1,0 1,0 1,0 1,0 1,1 2,1 0,0 1,0 1,0 1,0 1,0 1,0 0,1 1,1 1,1 0,0 0,0 1,0 0,0 0,0 1,0 3,2 7,3 9,5 3,2 5,4 6,6 2,2 3,4 4,7 1,2 1,4 1,7l0 0 0 1c0,4 -1,7 -3,11 -2,3 -4,7 -8,10 -3,3 -7,5 -11,7 -4,1 -9,2 -14,2l-8 0c-3,0 -6,0 -9,-1 -2,0 -5,0 -8,-1 -2,0 -5,-1 -7,-2 -2,-1 -4,-2 -5,-4l5 -14 8 0 3 0c1,2 2,3 3,5 2,1 3,3 4,4 1,1 2,2 4,3 1,0 2,1 4,1 0,1 0,1 0,1 1,0 1,0 1,0 0,0 0,0 1,0 0,0 0,0 0,0 2,0 4,-1 5,-1 2,-1 3,-2 5,-3 1,-2 3,-4 4,-6 1,-2 2,-4 2,-6l0 -1 0 0c0,-3 -1,-6 -2,-8 -1,-2 -3,-4 -5,-5 -2,-1 -4,-2 -7,-3 -2,-1 -4,-2 -7,-2l-1 -1 -1 0c0,0 0,0 -1,0 0,0 0,0 -1,0 0,0 0,0 -1,0 0,-1 0,-1 0,-1 -1,0 -1,0 -1,0 -1,0 -1,0 -1,0 -1,0 -1,-1 -1,-1 0,0 -1,0 -1,0 -2,-1 -5,-2 -7,-3 -2,-2 -4,-3 -5,-5 -2,-2 -3,-4 -4,-7 -1,-2 -2,-5 -2,-9l0 -1zm149 0c0,-9 2,-18 5,-26 4,-9 9,-16 15,-23 7,-8 15,-13 24,-17 10,-3 20,-5 31,-5l9 0c0,0 1,0 2,0 0,0 1,0 2,0 0,0 1,0 2,0 0,0 1,0 2,0 1,0 3,1 4,1 1,0 3,0 4,0 3,0 6,0 9,1 3,0 5,1 8,2 3,0 5,1 8,2 2,1 4,2 7,4l-5 15 -8 0 -2 0c-2,-2 -5,-4 -8,-6 -2,-2 -5,-3 -7,-5 -3,-1 -6,-2 -9,-3 -2,-1 -5,-1 -8,-2 -1,0 -1,0 -2,0 -1,0 -2,0 -3,-1 0,0 0,0 0,0 0,0 0,0 0,0 0,0 0,0 0,0 0,0 0,0 -1,0 -6,1 -12,3 -17,5 -6,3 -11,7 -16,11 -5,6 -10,12 -12,20 -3,7 -5,16 -5,25l0 1 0 2c1,11 2,21 5,30 3,8 7,14 13,19 5,4 11,8 16,10 6,3 12,4 18,4 4,0 7,0 11,-1 3,-1 6,-2 10,-3 3,-2 7,-3 10,-5 3,-2 6,-4 8,-6l8 0 -1 12c-1,1 -2,2 -3,2 -1,1 -2,1 -3,2 -1,0 -2,1 -3,1 -1,1 -1,1 -2,1 -2,1 -3,1 -5,2 -1,0 -3,1 -4,1 0,0 -1,1 -1,1 -1,0 -1,0 -2,0 -2,0 -4,1 -6,1 -2,1 -3,1 -5,1 -2,1 -4,1 -6,1 -2,0 -4,0 -6,0l-8 0c-10,0 -19,-1 -27,-5 -9,-3 -17,-8 -24,-14 -7,-7 -13,-15 -16,-24 -4,-9 -6,-19 -6,-30l0 -1zm141 25c0,-8 1,-15 4,-22 2,-6 6,-12 10,-17 5,-5 11,-9 17,-12 6,-2 14,-3 22,-3l8 -1c6,1 11,1 16,3 4,1 8,4 12,6 3,3 6,6 8,9 3,3 5,7 6,10 1,3 2,5 3,7 1,2 1,4 2,7 0,2 0,4 1,5 0,2 0,4 0,5 0,1 0,2 0,4 0,1 0,2 -1,4 0,1 0,2 0,3 -1,2 -1,3 -2,4 -1,5 -3,9 -5,13 -3,4 -6,7 -10,11 -4,3 -8,6 -14,7 -5,2 -11,3 -18,3l-8 0c0,0 0,0 -1,0 0,0 0,0 -1,0 0,0 0,0 0,0 0,0 0,0 0,0 0,0 0,0 -1,0 0,0 0,0 0,0 -8,0 -14,-1 -20,-3 -6,-3 -11,-6 -15,-10 -4,-5 -8,-10 -10,-15 -2,-6 -3,-12 -3,-18l0 0zm27 1c0,1 0,2 1,4 0,1 0,3 0,4 0,2 1,3 1,5 0,2 1,4 2,6 1,2 2,4 3,7 2,2 4,4 6,6 2,2 4,3 6,4 2,1 5,2 8,2 4,0 7,-1 10,-3 2,-2 5,-4 8,-7 2,-3 5,-8 6,-13 2,-6 3,-12 3,-19 0,-7 0,-12 -1,-18 -2,-5 -3,-9 -6,-13 -2,-4 -5,-7 -8,-9 -3,-1 -6,-3 -11,-3 -4,0 -7,2 -11,4 -3,2 -6,5 -8,8 -3,5 -5,9 -6,14 -2,4 -3,9 -3,14 0,1 0,1 0,1 0,0 0,1 0,1l0 1c0,0 0,1 0,1 0,0 0,0 0,0 0,0 0,1 0,1 0,0 0,0 0,0 0,1 0,1 0,2 0,0 0,0 0,0l-8 0 0 0 8 0z" />
   <path class="fil1" d="M3204 1107l0 -99 8 0 1 1 1 0c0,0 0,0 0,0 0,0 1,0 1,0 0,0 0,1 0,1 0,0 0,0 0,0 1,0 2,-1 2,-1 1,0 2,0 3,0l8 -1 0 7c1,0 1,-1 2,-2 1,0 2,-1 3,-1 2,-2 5,-3 7,-4 3,-1 5,-1 8,-1l8 0c4,0 7,0 10,1 2,0 5,1 7,1 2,1 4,2 6,4 2,1 3,3 5,5 0,1 1,1 1,2 0,0 0,0 1,1 1,-2 3,-4 4,-5 2,-2 3,-3 5,-4 3,-2 6,-3 9,-4 3,-1 6,-1 10,-1l8 0c5,0 10,1 14,2 4,2 7,4 10,7 3,3 5,6 7,10 2,3 2,6 3,10l0 1 0 0 0 1 0 1 0 1 0 0 0 67 -9 0c0,0 0,0 -1,0 0,0 0,0 0,0 -1,0 -1,0 -2,0 0,0 0,0 0,0 0,0 0,0 -1,0 0,0 0,0 0,0 0,0 0,0 0,0 0,0 0,0 0,0 0,0 0,0 0,0 0,0 0,0 0,0 -1,0 -2,0 -3,0 -1,0 -1,0 -2,0l-8 0 0 -65c0,-4 -1,-7 -2,-10 -1,-2 -3,-5 -5,-7 -2,-2 -4,-3 -6,-4 -2,-1 -4,-2 -6,-2 -2,0 -4,1 -6,2 -2,1 -4,3 -5,4 -3,2 -5,5 -6,9 -1,3 -2,7 -2,11l0 62 -8 0c-1,0 -1,0 -1,0 -1,0 -1,0 -1,0 -1,0 -1,0 -1,0 -1,0 -1,0 -1,0 0,0 0,0 0,0 0,0 0,0 -1,0 1,0 1,0 1,0 -1,0 -1,0 -1,0 0,0 0,0 0,0 0,0 0,0 0,0 0,0 -1,0 -1,0 -1,0 -2,0 -2,0l-9 0 0 -65c0,-4 0,-6 -1,-9 -2,-3 -3,-5 -6,-7 -2,-2 -4,-3 -6,-4 -2,-1 -4,-2 -6,-2 -2,0 -4,1 -6,2 -2,1 -4,2 -5,3 -3,2 -4,5 -6,8 -1,4 -2,8 -2,12l0 62 -8 0c0,0 0,0 -1,0 0,0 0,0 -1,0 0,0 0,0 -1,0 0,0 0,0 -1,0 0,0 0,0 0,0 0,0 0,0 0,0 0,0 0,0 0,0 0,0 0,0 0,0 0,0 0,0 0,0 0,0 0,0 0,0 -1,0 -2,0 -3,0 -1,0 -2,0 -2,0l-8 0zm177 -35l0 -62 8 0c1,0 2,1 2,1 1,0 1,0 2,0 0,0 0,0 1,0 0,0 0,0 0,0 0,0 0,0 0,0 0,0 0,0 0,0 1,0 2,0 3,0 1,0 1,-1 2,-1l8 0 0 57c0,5 0,9 1,12 1,4 3,8 4,11 2,3 4,5 6,6 2,2 5,3 8,4 3,-1 6,-2 9,-3 2,-1 4,-3 6,-6 1,-2 3,-5 4,-7 1,-3 1,-6 1,-9 0,0 0,0 0,0 0,0 0,-1 1,-1 0,0 0,0 0,0 0,-1 0,-1 0,-1 0,0 0,0 0,0 0,-1 0,-1 0,-1 0,0 0,0 0,-1 0,0 0,0 0,0l0 -61 8 0c0,0 0,0 0,0 0,0 0,0 1,0 0,1 0,1 0,1 0,0 0,0 0,0 0,0 1,0 1,0 0,0 1,0 1,0 0,0 0,0 0,0 0,0 0,0 1,0 0,0 0,0 0,0 0,0 0,0 0,0 1,0 1,0 1,0 0,0 0,0 0,0 1,0 1,0 2,0 1,0 2,-1 2,-1l8 0 0 97 -8 0c0,0 -1,0 -2,0 0,0 -1,0 -2,0 0,0 0,0 0,0 0,0 0,0 0,0 0,0 0,0 0,0 0,0 0,0 0,0 0,0 0,0 0,0 0,0 0,0 0,0 -1,0 -2,0 -3,0 -1,0 -1,0 -2,0l-8 0 0 -4c-1,1 -2,1 -3,2 -1,0 -2,1 -3,1 -3,1 -6,2 -10,2 -3,1 -6,1 -10,1l-8 0c-5,0 -10,-1 -13,-2 -4,-1 -7,-3 -9,-5 -2,-2 -4,-5 -5,-7 -2,-3 -3,-5 -3,-8 -1,-1 -1,-1 -1,-2 0,-1 0,-1 0,-2 0,0 -1,-1 -1,-2 0,0 0,-1 0,-2 0,-1 0,-2 0,-3 0,-1 0,-2 0,-3l0 -1zm125 35l0 -99 8 0c0,1 1,1 1,1 1,0 2,0 2,0 0,0 0,0 1,0 0,0 0,0 0,0 0,1 0,1 0,1 0,0 1,0 1,0 0,0 0,0 0,0 0,0 0,0 0,0 0,0 0,0 0,0 0,0 0,0 0,0 1,0 2,-1 2,-1 1,0 2,0 2,0l8 -1 0 8c2,-1 3,-2 4,-2 2,-1 3,-2 5,-3 2,-2 5,-2 8,-3 2,-1 6,-1 9,-1l8 0 0 0 1 0c4,0 7,1 11,3 4,1 7,4 10,7 3,3 6,7 8,12 1,6 2,12 2,20l0 58 -8 0c0,0 -1,0 -1,0 0,0 -1,0 -1,0 0,0 -1,0 -1,0 0,0 0,0 -1,0 0,0 0,0 0,0 0,0 0,0 0,0 0,0 0,0 0,0 0,0 0,0 0,0 0,0 0,0 0,0 0,0 0,0 0,0 -1,0 -2,0 -3,0 0,0 -1,0 -2,0l-9 0 0 -59c0,-4 0,-8 -1,-12 -2,-4 -3,-7 -6,-9 -1,-2 -3,-3 -5,-5 -2,-1 -5,-2 -7,-2 -2,1 -4,2 -7,3 -2,1 -4,3 -6,5 -3,3 -5,6 -6,10 -1,4 -2,9 -2,14l0 55 -8 0c-1,0 -1,0 -2,0 -1,0 -1,0 -2,0 0,0 0,0 0,0 0,0 0,0 0,0 0,0 0,0 0,0 0,0 0,0 0,0 0,0 0,0 0,0 0,0 0,0 0,0 -1,0 -1,0 -2,0 0,0 0,0 -1,0 0,0 0,0 -1,0 0,0 -1,0 -1,0l-8 0zm123 0l0 -99 8 0c0,1 0,1 1,1 0,0 0,0 0,0 0,0 0,0 0,0 0,0 0,0 1,0 0,0 0,0 0,0 1,0 1,0 1,0 0,0 0,0 1,0 0,0 0,0 0,0 0,1 0,1 0,1 1,0 1,0 1,0 0,0 0,0 0,0 0,0 0,0 0,0 1,0 2,-1 3,-1 0,0 1,0 1,0l9 -1 0 99 -9 0c0,0 -1,0 -1,0 -1,0 -2,0 -2,0 0,0 0,0 0,0 0,0 0,0 0,0 0,0 0,0 -1,0 0,0 0,0 0,0 0,0 0,0 0,0 0,0 0,0 0,0 -1,0 -2,0 -2,0 -1,0 -2,0 -3,0l-8 0zm-2 -134c0,-2 1,-3 1,-5 1,-1 2,-2 3,-3 1,-1 2,-2 3,-2 1,-1 3,-1 4,-1l8 0c2,0 3,0 4,1 2,0 3,1 4,2 1,1 2,2 3,4 1,1 1,3 1,5 0,1 -1,3 -1,5 -1,1 -2,2 -3,3 -1,1 -2,2 -4,2 -1,1 -2,1 -4,1l-8 0c-1,0 -2,0 -4,-1 -1,0 -2,-1 -3,-2 -1,-1 -2,-2 -3,-4 0,-1 -1,-3 -1,-4l0 -1zm56 88c0,-7 1,-14 4,-20 2,-7 5,-12 10,-17 4,-4 10,-8 17,-10 7,-3 15,-4 24,-4l8 0c2,0 5,0 7,1 2,0 4,0 5,1 2,0 4,0 5,1 2,0 4,1 5,1 0,0 1,1 1,1 0,0 1,0 1,0 0,0 1,1 1,1 0,0 1,0 1,0 1,1 1,1 2,1 1,1 1,1 2,1l-3 14 -8 0 -3 0c-2,-2 -4,-4 -5,-6 -2,-1 -4,-3 -6,-4 -2,-1 -4,-2 -6,-2 -2,-1 -4,-1 -6,-2 -4,1 -8,2 -11,4 -4,2 -7,5 -9,9 -3,4 -5,9 -6,14 -2,4 -2,9 -2,15 0,5 0,10 2,15 1,5 3,9 6,13 3,4 6,7 10,9 3,2 8,4 13,4 2,0 4,0 6,-1 2,0 4,-1 5,-2 2,-1 4,-2 6,-4 2,-1 5,-3 7,-4l0 -1 1 -1 8 0 1 2 -1 9c-2,2 -5,4 -7,5 -3,2 -6,3 -8,3 -3,1 -6,2 -9,2 -3,0 -6,1 -8,1l-8 0 -1 0 -1 0c-6,0 -12,-1 -18,-3 -5,-2 -11,-5 -16,-9 -5,-4 -9,-9 -12,-15 -2,-6 -4,-12 -4,-20l0 0 0 -1 0 0 0 -1 0 0zm112 24c0,-3 1,-6 2,-9 1,-2 2,-5 4,-7 2,-2 5,-4 8,-6 3,-2 7,-4 12,-5l26 -5c1,0 2,-1 3,-1 2,-1 3,-2 3,-3 1,-1 1,-2 2,-3 0,-1 0,-3 0,-4 0,0 0,0 0,-1 0,0 0,0 0,0 0,-1 0,-1 0,-1 0,0 0,-1 0,-1 0,0 0,-1 0,-2 0,0 -1,-1 -1,-1 0,-2 -1,-4 -3,-6 -1,-2 -3,-4 -5,-6 -1,-2 -3,-3 -5,-4 -1,-1 -3,-1 -6,-2 -1,1 -1,1 -2,1 -1,0 -2,1 -3,1 -1,0 -2,1 -3,2 -2,0 -3,1 -4,2 -1,1 -1,1 -2,2 -1,1 -1,1 -2,2 -1,1 -1,1 -2,2 -1,1 -2,2 -2,3l-8 -1 -4 0 0 -11c1,0 1,0 2,0 0,0 0,-1 1,-1 0,0 1,0 1,-1 0,0 1,0 1,0 2,-1 4,-2 6,-3 2,-1 5,-2 7,-3 2,-1 5,-2 8,-2 2,0 5,-1 8,-1l8 0c6,0 11,1 16,2 4,2 8,3 11,6 3,3 5,6 6,10 1,5 2,10 2,16l0 50c0,2 0,3 0,4 1,0 1,1 2,1 0,0 0,0 0,0 0,1 0,1 0,1 0,0 0,0 0,0 0,0 0,0 1,0 0,0 0,0 0,0 0,0 0,0 0,0 0,0 0,0 0,0 0,0 0,0 0,0l8 0 0 4c0,1 -1,1 -2,2 -1,0 -1,1 -2,1 -1,0 -1,0 -1,0 -1,0 -1,0 -2,0 0,1 -1,1 -1,1 0,0 -1,0 -1,0l-1 0 -8 0 -1 0c-2,0 -4,0 -6,-1 -2,0 -4,-1 -5,-2 -1,0 -2,-1 -3,-1 0,-1 -1,-2 -2,-2 -2,1 -4,2 -6,3 -2,2 -3,2 -5,3 -3,1 -5,1 -7,2 -2,0 -4,0 -7,0l-8 0c-4,0 -7,0 -11,-1 -3,-2 -6,-3 -9,-6 -2,-2 -4,-5 -6,-8 -1,-3 -2,-6 -2,-10l0 0zm60 2l0 -27c-6,1 -10,2 -14,3 -4,2 -8,3 -11,4 -3,2 -5,4 -7,7 -2,2 -2,5 -2,9 0,0 0,1 0,1 0,1 0,1 0,2 0,0 0,1 0,1 0,1 0,1 0,2l0 1 1 1c1,1 1,2 2,3 2,1 3,2 4,4 2,0 3,1 4,1 1,1 2,1 4,1 0,0 0,0 0,0 0,0 0,0 1,0 0,0 0,0 0,0 0,0 1,0 1,0 1,-1 2,-1 3,-1 1,-1 2,-1 3,-2 1,-1 2,-1 3,-2 1,-1 2,-1 3,-2 0,-1 0,-1 1,-1 0,-1 1,-1 1,-2 1,0 1,-1 1,-1 1,-1 1,-1 2,-2l0 0zm49 -26c0,-7 1,-14 3,-20 3,-7 6,-12 11,-17 4,-4 10,-8 16,-10 7,-3 15,-4 25,-4l8 0c2,0 4,0 6,1 3,0 4,0 6,1 2,0 3,0 5,1 2,0 3,1 5,1 0,0 1,1 1,1 0,0 1,0 1,0 0,0 1,1 1,1 0,0 1,0 1,0 0,1 1,1 2,1 0,1 1,1 2,1l-3 14 -8 0 -4 0c-1,-2 -3,-4 -5,-6 -2,-1 -4,-3 -6,-4 -1,-1 -3,-2 -5,-2 -2,-1 -4,-1 -6,-2 -5,1 -8,2 -12,4 -3,2 -6,5 -8,9 -3,4 -5,9 -6,14 -2,4 -2,9 -2,15 0,5 0,10 2,15 1,5 3,9 6,13 3,4 6,7 9,9 4,2 9,4 14,4 2,0 4,0 6,-1 2,0 3,-1 5,-2 2,-1 4,-2 6,-4 2,-1 4,-3 6,-4l1 -1 0 -1 8 0 2 2 -2 9c-2,2 -4,4 -7,5 -2,2 -5,3 -8,3 -2,1 -5,2 -8,2 -3,0 -6,1 -9,1l-8 0 0 0 -1 0c-6,0 -12,-1 -18,-3 -6,-2 -11,-5 -16,-9 -6,-4 -9,-9 -12,-15 -3,-6 -4,-12 -4,-20l0 0 0 -1 0 0 0 -1 0 0zm120 46l0 -99 8 0c0,1 1,1 1,1 0,0 0,0 0,0 0,0 0,0 0,0 1,0 1,0 1,0 0,0 0,0 1,0 0,0 0,0 0,0 1,0 1,0 1,0 0,0 0,0 0,0 0,1 0,1 1,1 0,0 0,0 0,0 0,0 0,0 0,0 0,0 0,0 1,0 0,0 1,-1 2,-1 1,0 1,0 2,0l8 -1 0 99 -8 0c-1,0 -1,0 -2,0 -1,0 -1,0 -2,0 0,0 0,0 0,0 0,0 0,0 0,0 0,0 0,0 0,0 0,0 0,0 0,0 0,0 0,0 0,0 -1,0 -1,0 -1,0 -1,0 -1,0 -2,0 -1,0 -2,0 -3,0l-8 0zm-1 -134c0,-2 0,-3 0,-5 1,-1 2,-2 3,-3 1,-1 2,-2 3,-2 2,-1 3,-1 4,-1l8 0c2,0 3,0 5,1 1,0 2,1 3,2 2,1 3,2 3,4 1,1 1,3 1,5 0,1 -1,3 -1,5 -1,1 -2,2 -3,3 -1,1 -2,2 -3,2 -2,1 -3,1 -4,1l-8 0c-2,0 -3,0 -4,-1 -2,0 -3,-1 -4,-2 -1,-1 -2,-2 -3,-4 0,-1 0,-3 0,-4l0 -1zm53 90c0,-8 1,-15 3,-22 2,-6 6,-12 11,-17 4,-5 10,-9 17,-12 6,-2 13,-3 21,-3l8 -1c6,1 11,1 16,3 5,1 9,4 12,6 3,3 6,6 9,9 2,3 4,7 6,10 1,3 2,5 2,7 1,2 2,4 2,7 1,2 1,4 1,5 0,2 0,4 0,5 0,1 0,2 0,4 0,1 0,2 0,4 0,1 -1,2 -1,3 0,2 -1,3 -1,4 -1,5 -3,9 -6,13 -3,4 -6,7 -10,11 -3,3 -8,6 -13,7 -6,2 -12,3 -18,3l-9 0c0,0 0,0 0,0 -1,0 -1,0 -1,0 0,0 0,0 -1,0 0,0 0,0 0,0 0,0 0,0 0,0 0,0 0,0 -1,0 -7,0 -14,-1 -20,-3 -6,-3 -11,-6 -15,-10 -4,-5 -7,-10 -9,-15 -2,-6 -3,-12 -3,-18l0 0zm27 1c0,1 0,2 0,4 0,1 0,3 0,4 1,2 1,3 1,5 1,2 1,4 2,6 1,2 2,4 4,7 1,2 3,4 5,6 2,2 4,3 7,4 2,1 5,2 8,2 3,0 6,-1 9,-3 3,-2 6,-4 8,-7 3,-3 5,-8 7,-13 1,-6 3,-12 3,-19 0,-7 -1,-12 -2,-18 -1,-5 -3,-9 -5,-13 -3,-4 -5,-7 -8,-9 -3,-1 -7,-3 -11,-3 -4,0 -8,2 -11,4 -3,2 -6,5 -9,8 -2,5 -4,9 -6,14 -1,4 -2,9 -2,14 0,1 0,1 0,1 0,0 0,1 0,1l0 1c0,0 0,1 0,1 0,0 0,0 0,0 0,0 0,1 0,1 0,0 0,0 0,0 0,1 0,1 0,2 0,0 0,0 0,0l-8 0 0 0 8 0z" />
   <path class="fil1" d="M4208 1107l0 -99 8 0c1,1 1,1 2,1 0,0 1,0 2,0 0,0 0,0 0,0 0,0 0,0 0,0 0,1 0,1 1,1 0,0 0,0 0,0 0,0 0,0 0,0 0,0 0,0 0,0 0,0 0,0 0,0 0,0 0,0 0,0 1,0 2,-1 3,-1 1,0 1,0 2,0l8 -1 0 8c1,-1 2,-2 4,-2 1,-1 3,-2 5,-3 2,-2 4,-2 7,-3 3,-1 6,-1 9,-1l8 0 1 0 0 0c4,0 8,1 11,3 4,1 7,4 11,7 3,3 5,7 7,12 2,6 2,12 2,20l0 58 -8 0c0,0 0,0 -1,0 0,0 0,0 0,0 -1,0 -1,0 -1,0 -1,0 -1,0 -1,0 0,0 0,0 0,0 0,0 0,0 0,0 0,0 0,0 0,0 0,0 0,0 0,0 -1,0 -1,0 -1,0 0,0 0,0 0,0 0,0 -1,0 -2,0 -1,0 -2,0 -3,0l-8 0 0 -59c0,-4 -1,-8 -2,-12 -1,-4 -3,-7 -5,-9 -2,-2 -4,-3 -6,-5 -2,-1 -4,-2 -6,-2 -3,1 -5,2 -7,3 -3,1 -5,3 -7,5 -2,3 -4,6 -5,10 -2,4 -2,9 -2,14l0 55 -8 0c-1,0 -2,0 -3,0 0,0 -1,0 -2,0 0,0 0,0 0,0 0,0 0,0 0,0 0,0 0,0 0,0 0,0 0,0 0,0 0,0 0,0 0,0 0,0 0,0 0,0 0,0 -1,0 -1,0 -1,0 -1,0 -1,0 -1,0 -1,0 -1,0 -1,0 -1,0 -2,0l-8 0zm112 -44c0,-9 1,-17 3,-23 3,-7 6,-12 11,-17 4,-4 9,-7 15,-9 5,-3 11,-4 18,-4l8 0c5,0 10,1 15,2 4,2 8,4 11,7 3,2 6,5 8,8 2,3 4,7 5,10 0,1 1,3 1,4 1,2 1,3 1,5 0,1 0,2 1,4 0,1 0,2 0,3 0,1 0,1 0,1 0,0 0,1 0,1 0,0 0,1 0,1 0,0 0,0 0,1 0,0 0,1 0,1 -1,1 -1,1 -1,2l-8 0 -61 -1c0,7 1,12 2,17 1,5 3,9 6,13 2,3 5,6 9,7 4,2 8,3 14,4 2,-1 4,-1 6,-1 2,-1 4,-2 6,-3 3,-1 6,-2 8,-4 2,-1 4,-3 5,-5l8 0 2 11 0 0 -1 1 -1 0 -1 1c-2,2 -5,3 -7,4 -2,1 -4,2 -7,3 -2,1 -5,2 -9,3 -3,0 -7,1 -11,1l-8 0c-8,-1 -15,-2 -21,-5 -7,-2 -11,-6 -15,-11 -4,-4 -6,-10 -8,-15 -2,-5 -4,-11 -4,-17l0 0zm72 -12c0,0 0,0 0,0 0,-1 0,-1 0,-2 0,0 0,0 0,0 0,0 0,-1 0,-1 0,0 0,0 0,0 0,0 0,-1 0,-1 0,-3 -1,-7 -2,-10 -1,-4 -2,-7 -4,-10 -2,-2 -4,-4 -6,-6 -3,-1 -6,-2 -9,-3 -3,1 -5,2 -7,3 -3,1 -5,3 -6,5 -3,2 -4,5 -6,8 -1,2 -3,5 -3,8 0,1 -1,2 -1,3 0,1 0,1 0,2 -1,1 -1,2 -1,3 0,0 0,1 0,2l45 -1zm42 -13c0,-5 1,-9 2,-13 2,-4 5,-7 8,-10 4,-2 8,-4 12,-5 4,-1 8,-2 12,-2l8 0c2,0 3,0 4,0 0,0 1,0 3,0 0,0 1,1 2,1 2,0 2,0 3,0 2,1 4,1 6,2 2,1 4,2 5,2l-4 16 -9 0 -3 0c0,-2 -1,-4 -2,-5 -2,-2 -3,-3 -5,-4 -1,-1 -2,-1 -3,-2 -1,-1 -3,-1 -4,-1 -1,0 -2,0 -3,1 -1,0 -2,1 -4,2 -1,1 -3,2 -4,4 -1,1 -1,3 -2,5l0 1 0 1 0 1 0 1c0,2 0,4 1,6 1,2 3,4 5,5 2,1 4,2 6,3 3,1 5,2 8,3 0,0 0,0 0,1 1,0 1,0 1,0 0,0 0,0 1,0 0,0 0,0 0,0 1,0 2,1 2,1 0,0 1,0 2,0 0,0 0,0 0,0 1,1 1,1 1,1 0,0 1,0 1,0 0,0 1,0 1,0 4,2 7,3 9,5 3,2 5,4 7,6 1,2 2,4 3,7 1,2 2,4 2,7l0 0 0 1c0,4 -1,7 -3,11 -2,3 -5,7 -8,10 -4,3 -8,5 -12,7 -4,1 -9,2 -14,2l-8 0c-3,0 -6,0 -8,-1 -3,0 -6,0 -8,-1 -3,0 -5,-1 -7,-2 -2,-1 -4,-2 -6,-4l5 -14 8 0 3 0c1,2 2,3 4,5 1,1 2,3 3,4 1,1 3,2 4,3 1,0 3,1 4,1 0,1 0,1 1,1 0,0 0,0 0,0 0,0 1,0 1,0 0,0 0,0 1,0 1,0 3,-1 4,-1 2,-1 3,-2 5,-3 2,-2 3,-4 4,-6 2,-2 2,-4 3,-6l0 -1 0 0c-1,-3 -1,-6 -3,-8 -1,-2 -3,-4 -5,-5 -2,-1 -4,-2 -6,-3 -3,-1 -5,-2 -8,-2l-1 -1 -1 0c0,0 0,0 -1,0 0,0 0,0 0,0 -1,0 -1,0 -1,0 -1,-1 -1,-1 -1,-1 -1,0 -1,0 -1,0 0,0 -1,0 -1,0 0,0 -1,-1 -1,-1 0,0 0,0 -1,0 -2,-1 -4,-2 -6,-3 -2,-2 -4,-3 -6,-5 -2,-2 -3,-4 -4,-7 -1,-2 -1,-5 -1,-9l0 -1z" />
  </g>
 </g>
</svg>