<?xml version="1.0" encoding="utf-8"?>
<!-- Generator: Adobe Illustrator 18.1.1, SVG Export Plug-In . SVG Version: 6.00 Build 0)  -->
<svg version="1.1" id="Capa_1" xmlns="http://www.w3.org/2000/svg" xmlns:xlink="http://www.w3.org/1999/xlink" x="0px" y="0px"
	 viewBox="0 0 48 48" enable-background="new 0 0 48 48" xml:space="preserve">
<g>
	<path fill="#257BB5" d="M8.437256,8.437744c4.3125-4.3125,9.5-6.46875,15.5625-6.46875
		c6.061035,0,11.250488,2.15625,15.562988,6.46875s6.46875,9.500977,6.46875,15.5625
		c0,6.062988-2.15625,11.249512-6.46875,15.562012s-9.501953,6.46875-15.562988,6.46875c-6.0625,0-11.25-2.15625-15.5625-6.46875
		s-6.46875-9.499023-6.46875-15.562012C1.968506,17.938721,4.124756,12.750244,8.437256,8.437744z M31.125244,34.031006l0.75-0.75
		l-7.875488-19.312012l-7.875,19.312012l0.75,0.75l7.125-3.1875L31.125244,34.031006z"/>
</g>
</svg>
