<?xml version="1.0" encoding="utf-8"?>
<!-- Generator: Adobe Illustrator 22.0.0, SVG Export Plug-In . SVG Version: 6.00 Build 0)  -->
<svg version="1.1" xmlns="http://www.w3.org/2000/svg" xmlns:xlink="http://www.w3.org/1999/xlink" x="0px" y="0px"
	 viewBox="0 0 415.352 274.613" style="enable-background:new 0 0 415.352 274.613;" xml:space="preserve">
<style type="text/css">
	.st0{fill:#78B4BB;}
	.st1{fill:none;stroke:#78B4BB;stroke-width:2.6594;}
	.st2{fill:#FEAE76;}
	.st3{fill:none;stroke:#FEAE76;stroke-width:1.773;}
	.st4{fill:none;stroke:#FEAE76;stroke-width:3.5459;}
</style>
<g id="Capa_1">
</g>
<g id="Grafica_derecha_x5F_Noticias">
</g>
<g id="Gráfica_izquierda_x5F_Expectativas">
	<g>
		<path class="st0" d="M51.941,93.283c-2.642,0-4.788-2.142-4.788-4.788c0-2.642,2.145-4.788,4.788-4.788
			c2.642,0,4.788,2.145,4.788,4.788C56.729,91.141,54.584,93.283,51.941,93.283"/>
		<path class="st0" d="M165.96,93.283c-2.642,0-4.788-2.142-4.788-4.788c0-2.642,2.145-4.788,4.788-4.788
			c2.642,0,4.788,2.145,4.788,4.788C170.747,91.141,168.602,93.283,165.96,93.283"/>
		<path class="st0" d="M322,9.726c-2.642,0-4.788-2.142-4.788-4.788c0-2.642,2.145-4.788,4.788-4.788
			c2.642,0,4.788,2.145,4.788,4.788C326.787,7.583,324.642,9.726,322,9.726"/>
		<path class="st0" d="M165.96,209.863c-2.642,0-4.788-2.142-4.788-4.788c0-2.642,2.145-4.788,4.788-4.788
			c2.642,0,4.788,2.145,4.788,4.788C170.747,207.721,168.602,209.863,165.96,209.863"/>
		<path class="st0" d="M322,209.863c-2.642,0-4.788-2.142-4.788-4.788c0-2.642,2.145-4.788,4.788-4.788
			c2.642,0,4.788,2.145,4.788,4.788C326.787,207.721,324.642,209.863,322,209.863"/>
		<path class="st0" d="M238.131,273.941c-2.642,0-4.788-2.142-4.788-4.788c0-2.642,2.145-4.788,4.788-4.788s4.788,2.145,4.788,4.788
			C242.919,271.798,240.773,273.941,238.131,273.941"/>
		<path class="st2" d="M405.425,137.311c0,2.742,2.222,4.964,4.964,4.964s4.964-2.222,4.964-4.964c0-2.742-2.222-4.964-4.964-4.964
			S405.425,134.57,405.425,137.311"/>
		<path class="st2" d="M103.334,137.311c0,2.742,2.222,4.964,4.964,4.964c2.742,0,4.964-2.222,4.964-4.964
			c0-2.742-2.222-4.964-4.964-4.964C105.556,132.348,103.334,134.57,103.334,137.311"/>
		<g>
			<path class="st2" d="M241.464,137.311c0,7.833,6.35,14.184,14.184,14.184c7.833,0,14.184-6.35,14.184-14.184
				c0-7.833-6.35-14.184-14.184-14.184C247.814,123.128,241.464,129.478,241.464,137.311"/>
			
				<ellipse transform="matrix(0.9871 -0.1602 0.1602 0.9871 -18.6876 42.8006)" class="st3" cx="256.13" cy="137.311" rx="32.8" ry="32.8"/>
		</g>
		<path class="st0" d="M21.175,25.83c0,5.288,4.287,9.575,9.575,9.575c5.288,0,9.572-4.287,9.572-9.575
			c0-5.288-4.285-9.575-9.572-9.575C25.462,16.255,21.175,20.542,21.175,25.83"/>
		<path class="st0" d="M246.557,57.163c0,5.288,4.287,9.575,9.575,9.575c5.288,0,9.572-4.287,9.572-9.575
			c0-5.288-4.285-9.575-9.572-9.575C250.844,47.588,246.557,51.875,246.557,57.163"/>
		<g>
			<path class="st0" d="M30.747,51.659c-14.242,0-25.828-11.587-25.828-25.83S16.505,0,30.747,0
				c14.244,0,25.832,11.587,25.832,25.83S44.99,51.659,30.747,51.659z M30.747,2.659c-12.775,0-23.168,10.394-23.168,23.17
				S17.972,49,30.747,49c12.777,0,23.172-10.394,23.172-23.17S43.524,2.659,30.747,2.659z"/>
		</g>
		<line class="st1" x1="322" y1="4.938" x2="322" y2="205.076"/>
		<polyline class="st1" points="25.871,25.83 165.96,25.83 165.96,88.496 		"/>
		<line class="st1" x1="51.941" y1="88.496" x2="165.96" y2="88.496"/>
		<polyline class="st1" points="51.941,88.496 51.941,205.076 165.96,205.076 		"/>
		<polyline class="st1" points="322,205.076 238.131,205.076 238.131,268.153 		"/>
		<line class="st1" x1="256.13" y1="57.163" x2="322" y2="57.163"/>
		<line class="st4" x1="255.648" y1="137.311" x2="108.298" y2="137.311"/>
		<g>
			<polygon class="st2" points="110.071,274.613 0,274.613 0,271.066 106.525,271.066 106.525,137.311 110.071,137.311 			"/>
		</g>
		<line class="st4" x1="410.389" y1="137.311" x2="255.381" y2="137.311"/>
	</g>
</g>
</svg>
