<?xml version="1.0" encoding="utf-8"?>
<!-- Generator: Adobe Illustrator 22.0.0, SVG Export Plug-In . SVG Version: 6.00 Build 0)  -->
<svg version="1.1" id="Capa_1" xmlns="http://www.w3.org/2000/svg" xmlns:xlink="http://www.w3.org/1999/xlink" x="0px" y="0px"
	 viewBox="0 0 668 52" style="enable-background:new 0 0 668 52;" xml:space="preserve">
<style type="text/css">
	.st0{opacity:0.6;fill:#020C47;}
	.st1{fill:#005A8E;}
	.st2{fill:#0B8291;}
	.st3{fill:#045466;}
	.st4{fill:#308FBF;}
	.st5{fill:#65BAE0;}
	.st6{fill:#89D16B;}
</style>
<g>
	<path class="st0" d="M83.3050003,45.087574c-1.3505859,0-3.0620117-0.9951172-3.7373047-2.1728516L71.038887,28.156908
		c-0.6899414-1.1777344-0.6899414-3.1542969-0.0024414-4.3203125l8.5307617-14.7597647
		c0.6650391-1.175293,2.3754883-2.1650391,3.737793-2.1650391h571.5966797c1.3652344,0,3.0732422,0.9887695,3.7314453,2.159668
		l8.5488281,14.7622061c0.6845703,1.1679688,0.6835938,3.1464844,0,4.3222656l-8.5458984,14.7568378
		c-0.671875,1.1806641-2.3808594,2.1748047-3.734375,2.1748047H83.3050003z"/>
	<path class="st1" d="M71.710968,38.1456909l-5.2169571-9.014082c-0.4643784-0.8059998-1.611145-1.4674053-2.5506058-1.4674053
		H53.5229378c-0.9334679,0-2.0861168,0.6614056-2.558506,1.4674053l-5.2014465,9.014082
		c-0.4735832,0.8042755-0.4735832,2.135498,0,2.9451714l5.2014465,9.0179787
		c0.4723892,0.8170242,1.6250381,1.4812164,2.558506,1.4812164h10.4204674c0.9394608,0,2.0862274-0.6641922,2.5506058-1.4812164
		l5.2169571-9.0179787C72.18013,40.281189,72.18013,38.9499664,71.710968,38.1456909z"/>
	<path class="st2" d="M47.2071075,24.6325798l-4.8537369-8.3898602c-0.4253311-0.7508898-1.494915-1.3636465-2.3662987-1.3636465
		h-9.6883259c-0.8621082,0-1.9283943,0.6127567-2.3739796,1.3636465l-4.8350773,8.3898602
		c-0.4411144,0.7489414-0.4411144,1.9811611,0,2.7381153l4.8350773,8.378397
		c0.4455853,0.7538986,1.5118713,1.3841858,2.3739796,1.3841858h9.6883259c0.8713837,0,1.9409676-0.6302872,2.3662987-1.3841858
		l4.8537369-8.378397C47.6387253,26.6137409,47.6387253,25.3815212,47.2071075,24.6325798z"/>
	<path class="st3" d="M22.6146011,38.3700562L18.1945648,30.71661c-0.397665-0.6858406-1.3684711-1.2430649-2.1623211-1.2430649
		h-8.841465c-0.7939162,0-1.7658057,0.5572243-2.1638927,1.2430649l-4.4203014,7.6534462
		c-0.4021373,0.6821442-0.4021373,1.8121529,0,2.4994736l4.4203014,7.6448174
		c0.398087,0.6938057,1.3699765,1.2661705,2.1638927,1.2661705h8.841465c0.7938499,0,1.7646561-0.5723648,2.1623211-1.2661705
		l4.4200363-7.6448174C23.0200367,40.182209,23.0200367,39.0522003,22.6146011,38.3700562z"/>
	<path class="st4" d="M20.9136467,11.3213453l-3.7389545-6.4743919c-0.3264866-0.5848908-1.1624336-1.0532725-1.8232861-1.0532725
		H7.8730326c-0.6748619,0-1.4979277,0.4683816-1.8258748,1.0532725l-3.7473426,6.4743919
		c-0.3328607,0.5786047-0.3328607,1.5248861,0,2.1123657l3.7473426,6.4739485
		c0.3279471,0.5755959,1.1510129,1.0567265,1.8258748,1.0567265h7.4783735c0.6608524,0,1.4967995-0.4811306,1.8232861-1.0567265
		l3.7389545-6.4739485C21.2555809,12.8462315,21.2555809,11.89995,20.9136467,11.3213453z"/>
	<path class="st0" d="M71.710968,10.8974733l-5.2169571-9.021409c-0.4643784-0.8120655-1.611145-1.4661225-2.5506058-1.4661225
		H53.5229378c-0.9334679,0-2.0861168,0.654057-2.558506,1.4661225l-5.2014465,9.021409
		c-0.4735832,0.8042746-0.4735832,2.1415596,0,2.9482021l5.2014465,9.0229368
		c0.4723892,0.8073063,1.6250381,1.4745541,2.558506,1.4745541h10.4204674c0.9394608,0,2.0862274-0.6672478,2.5506058-1.4745541
		l5.2169571-9.0229368C72.18013,13.0390329,72.18013,11.7017479,71.710968,10.8974733z"/>
	<g>
		<path class="st5" d="M89.6450195,18.1791992h-4.5874023v-1.8242188h11.3037109v1.8242188h-4.5874023V33.4375h-2.1289063
			V18.1791992z"/>
		<path class="st5" d="M98.2602539,16.5825195c1.0390625-0.2275391,2.4584961-0.3544922,3.8271484-0.3544922
			c2.1542969,0,3.6245117,0.4306641,4.612793,1.3427734c0.8364258,0.7861328,1.2924805,1.9521484,1.2924805,3.2695313
			c0,2.2304688-1.2924805,3.7001953-3.0664063,4.3847656v0.0507813c1.2924805,0.4306641,2.0273438,1.6474609,2.4331055,3.5737305
			c0.5068359,2.3828125,0.8867188,3.9541016,1.2163086,4.5878906h-2.1796875
			c-0.2788086-0.5068359-0.6333008-2.0019531-1.0644531-4.1308594c-0.4814453-2.3579102-1.3432617-3.2446289-3.2441406-3.2954102
			h-1.6982422V33.4375h-2.1289063V16.5825195z M100.3891602,24.3891602h1.8251953
			c2.2299805,0,3.6494141-1.3183594,3.6494141-3.2949219c0-2.1542969-1.3686523-3.1933594-3.6240234-3.1933594
			c-0.887207,0-1.5209961,0.0761719-1.8505859,0.1767578V24.3891602z"/>
		<path class="st5" d="M113.6176758,28.140625l-1.5712891,5.296875h-2.1796875l5.2460938-17.0825195h2.5092773L122.8432617,33.4375
			h-2.2304688l-1.6220703-5.296875H113.6176758z M118.6103516,26.4672852l-1.4697266-4.7392578
			c-0.3295898-1.140625-0.5830078-2.28125-0.8110352-3.3457031h-0.0761719
			c-0.2280273,1.0898438-0.4814453,2.2558594-0.7856445,3.3203125l-1.4448242,4.7646484H118.6103516z"/>
		<path class="st5" d="M125.2231445,33.4375V16.3549805h2.2558594l4.7646484,8.4394531
			c1.0898438,1.9511719,2.0532227,3.9038086,2.7880859,5.6772461l0.0507813-0.0244141
			c-0.1772461-2.3828125-0.2280273-4.512207-0.2280273-7.2495117v-6.8427734h1.9765625V33.4375h-2.1035156L129.9375,24.9213867
			c-1.0390625-1.8759766-2.0532227-3.8017578-2.8388672-5.7539063l-0.0756836,0.0253906
			c0.1518555,2.2050781,0.1772461,4.2832031,0.1772461,7.3505859V33.4375H125.2231445z"/>
		<path class="st5" d="M140.1240234,30.8779297c0.8618164,0.5576172,2.1796875,0.9882813,3.4980469,0.9882813
			c2.1289063,0,3.3706055-1.1660156,3.3706055-2.9150391c0-1.5712891-0.9375-2.5092773-2.9399414-3.4213867
			c-2.3823242-0.9638672-4.1313477-2.484375-4.1313477-4.8154297c0-2.6367188,2.0786133-4.5878906,5.2211914-4.5878906
			c1.5458984,0,2.7119141,0.3798828,3.3457031,0.7607422l-0.5576172,1.7734375
			c-0.5073242-0.3037109-1.5209961-0.734375-2.8642578-0.734375c-2.1542969,0-3.0161133,1.3427734-3.0161133,2.5087891
			c0,1.6220703,0.9887695,2.3828125,3.1430664,3.3457031c2.6357422,1.2421875,3.9282227,2.6865234,3.9282227,5.019043
			c0,2.7119141-1.9516602,4.8662109-5.6264648,4.8662109c-1.4951172,0-3.1171875-0.4570313-3.9033203-0.9892578
			L140.1240234,30.8779297z"/>
		<path class="st5" d="M151.9077148,16.3549805h8.3891602v1.7988281h-6.2602539v5.7792969h5.8041992v1.7734375h-5.8041992V33.4375
			h-2.1289063V16.3549805z"/>
		<path class="st5" d="M169.0390625,33.6914063c-4.0297852,0-6.7924805-3.3710938-6.7924805-8.6938477
			c0-5.4746094,2.9399414-8.8964844,7.0458984-8.8964844c4.1308594,0,6.7670898,3.4472656,6.7670898,8.6425781
			c0,6.0073242-3.1430664,8.9477539-6.9956055,8.9477539H169.0390625z M169.1655273,31.9169922
			c3.1176758,0,4.6635742-3.3710938,4.6635742-7.097168c0-3.3203125-1.4194336-6.9443359-4.6635742-6.9443359
			s-4.6889648,3.5224609-4.6889648,7.0712891c0,3.5229492,1.5717773,6.9702148,4.6635742,6.9702148H169.1655273z"/>
		<path class="st5" d="M178.769043,16.5825195c1.0390625-0.2275391,2.4584961-0.3544922,3.8271484-0.3544922
			c2.1542969,0,3.6245117,0.4306641,4.612793,1.3427734c0.8364258,0.7861328,1.2924805,1.9521484,1.2924805,3.2695313
			c0,2.2304688-1.2924805,3.7001953-3.0664063,4.3847656v0.0507813c1.2924805,0.4306641,2.0273438,1.6474609,2.4331055,3.5737305
			c0.5068359,2.3828125,0.8867188,3.9541016,1.2163086,4.5878906h-2.1796875
			c-0.2788086-0.5068359-0.6333008-2.0019531-1.0644531-4.1308594c-0.4814453-2.3579102-1.3432617-3.2446289-3.2441406-3.2954102
			h-1.6982422V33.4375h-2.1289063V16.5825195z M180.8979492,24.3891602h1.8251953
			c2.2299805,0,3.6494141-1.3183594,3.6494141-3.2949219c0-2.1542969-1.3686523-3.1933594-3.6240234-3.1933594
			c-0.887207,0-1.5209961,0.0761719-1.8505859,0.1767578V24.3891602z"/>
		<path class="st5" d="M204.6450195,25.9858398c-0.1269531-2.3320313-0.2788086-5.1201172-0.2539063-7.1728516h-0.0756836
			c-0.5322266,1.9511719-1.1660156,4.0800781-1.9008789,6.3359375l-2.7626953,8.1870117h-1.5205078l-2.5600586-7.9838867
			c-0.7348633-2.3574219-1.3432617-4.5371094-1.7739258-6.5390625h-0.0761719
			c-0.0507813,2.1035156-0.1523438,4.8154297-0.3041992,7.3496094L193.0117188,33.4375h-2.0024414l1.140625-17.0825195h2.6103516
			l2.6357422,8.1357422c0.6591797,2.1542969,1.1914063,3.9790039,1.6220703,5.8041992h0.0507813
			c0.4311523-1.7998047,0.9633789-3.6000977,1.6474609-5.8041992l2.7119141-8.1357422h2.6357422L207.1030273,33.4375h-2.078125
			L204.6450195,25.9858398z"/>
		<path class="st5" d="M212.5756836,28.140625l-1.5712891,5.296875h-2.1796875l5.2460938-17.0825195h2.5092773L221.8012695,33.4375
			h-2.2304688l-1.6220703-5.296875H212.5756836z M217.5683594,26.4672852l-1.4697266-4.7392578
			c-0.3295898-1.140625-0.5830078-2.28125-0.8110352-3.3457031h-0.0761719
			c-0.2280273,1.0898438-0.4814453,2.2558594-0.7856445,3.3203125l-1.4448242,4.7646484H217.5683594z"/>
		<path class="st5" d="M234.3193359,32.9560547c-0.7094727,0.3798828-2.1035156,0.7099609-3.8774414,0.7099609
			c-4.3847656,0-7.6035156-2.9404297-7.6035156-8.5932617c0-5.7783203,3.5229492-8.9462891,8.0341797-8.9462891
			c1.7993164,0,2.965332,0.3798828,3.472168,0.6591797l-0.5068359,1.7490234
			c-0.7094727-0.3554688-1.6474609-0.6083984-2.9145508-0.6083984c-3.3457031,0-5.8549805,2.3310547-5.8549805,7.0205078
			c0,4.5112305,2.2558594,6.894043,5.7788086,6.894043c1.1914063,0,2.331543-0.2539063,3.0668945-0.6083984L234.3193359,32.9560547z
			"/>
		<path class="st5" d="M239.0063477,16.3549805V33.4375h-2.1289063V16.3549805H239.0063477z"/>
		<path class="st5" d="M248.5097656,33.6914063c-4.0297852,0-6.7924805-3.3710938-6.7924805-8.6938477
			c0-5.4746094,2.9399414-8.8964844,7.0458984-8.8964844c4.1308594,0,6.7670898,3.4472656,6.7670898,8.6425781
			c0,6.0073242-3.1430664,8.9477539-6.9956055,8.9477539H248.5097656z M248.6362305,31.9169922
			c3.1176758,0,4.6635742-3.3710938,4.6635742-7.097168c0-3.3203125-1.4194336-6.9443359-4.6635742-6.9443359
			s-4.6889648,3.5224609-4.6889648,7.0712891c0,3.5229492,1.5717773,6.9702148,4.6635742,6.9702148H248.6362305z
			 M252.2607422,12.5024414l-3.1933594,2.8886719h-1.7490234l2.3823242-2.8886719H252.2607422z"/>
		<path class="st5" d="M258.2397461,33.4375V16.3549805h2.2558594l4.7646484,8.4394531
			c1.0898438,1.9511719,2.0532227,3.9038086,2.7880859,5.6772461l0.0507813-0.0244141
			c-0.1772461-2.3828125-0.2280273-4.512207-0.2280273-7.2495117v-6.8427734h1.9765625V33.4375h-2.1035156l-4.7900391-8.5161133
			c-1.0390625-1.8759766-2.0532227-3.8017578-2.8388672-5.7539063l-0.0756836,0.0253906
			c0.1518555,2.2050781,0.1772461,4.2832031,0.1772461,7.3505859V33.4375H258.2397461z"/>
		<path class="st5" d="M278.4116211,16.5825195c1.1660156-0.2275391,2.5600586-0.3544922,4.0551758-0.3544922
			c2.7626953,0,4.7397461,0.6591797,6.0576172,1.875c1.4702148,1.3183594,2.3823242,3.3710938,2.3823242,6.3623047
			c0,3.1430664-0.887207,5.3481445-2.331543,6.8178711c-1.4702148,1.4951172-3.8017578,2.28125-6.7163086,2.28125
			c-1.3432617,0-2.4838867-0.0761719-3.4472656-0.1777344V16.5825195z M280.5405273,31.7392578
			c0.4819336,0.0761719,1.140625,0.0761719,1.7744141,0.0761719c3.9536133,0,6.3613281-2.3066406,6.3613281-7.2749023
			c0.0253906-4.1308594-1.9765625-6.6142578-6.0571289-6.6142578c-0.887207,0-1.5966797,0.0761719-2.0786133,0.1767578V31.7392578z"
			/>
		<path class="st5" d="M295.7202148,16.3549805V33.4375h-2.1289063V16.3549805H295.7202148z"/>
		<path class="st5" d="M310.9770508,32.7783203c-0.9121094,0.3554688-2.6611328,0.8369141-4.5874023,0.8369141
			c-2.2553711,0-4.1816406-0.5830078-5.6772461-2.078125c-1.394043-1.3945313-2.2807617-3.6757813-2.2807617-6.4887695
			c0.0253906-5.5761719,3.472168-8.8710938,8.3891602-8.8710938c1.6977539,0,3.0410156,0.3798828,3.7255859,0.6845703
			l-0.5068359,1.7734375c-0.7856445-0.3544922-1.7744141-0.6328125-3.2441406-0.6328125
			c-3.5483398,0-6.1337891,2.3310547-6.1337891,6.9189453c0,4.612793,2.4082031,6.9194336,5.8295898,6.9194336
			c1.2163086,0,2.0024414-0.1777344,2.4077148-0.3798828v-5.2475586h-3.0668945v-1.7226563h5.1450195V32.7783203z"/>
		<path class="st5" d="M316.246582,16.3549805V33.4375h-2.1289063V16.3549805H316.246582z"/>
		<path class="st5" d="M322.7592773,18.1791992h-4.5874023v-1.8242188h11.3037109v1.8242188h-4.5874023V33.4375h-2.1289063
			V18.1791992z"/>
		<path class="st5" d="M332.262207,28.140625L330.690918,33.4375h-2.1796875l5.2460938-17.0825195h2.5092773L341.4873047,33.4375
			h-2.2304688l-1.6220703-5.296875H332.262207z M337.2548828,26.4672852l-1.4697266-4.7392578
			c-0.3300781-1.140625-0.5830078-2.28125-0.8110352-3.3457031h-0.0761719
			c-0.2280273,1.0898438-0.4814453,2.2558594-0.7856445,3.3203125l-1.4448242,4.7646484H337.2548828z"/>
		<path class="st5" d="M343.8681641,16.3549805h2.1289063v15.2827148h6.5390625V33.4375h-8.6679688V16.3549805z"/>
		<path class="st5" d="M355.7783203,24.6420898c-0.8105469,0-1.3935547-0.6591797-1.3935547-1.5458984
			s0.6083984-1.5458984,1.4443359-1.5458984c0.8623047,0,1.4199219,0.6337891,1.4199219,1.5458984
			c0,0.8867188-0.5576172,1.5458984-1.4453125,1.5458984H355.7783203z M355.7783203,33.6914063
			c-0.8105469,0-1.3935547-0.6591797-1.3935547-1.546875c0-0.8867188,0.6083984-1.5458984,1.4443359-1.5458984
			c0.8623047,0,1.4199219,0.6337891,1.4199219,1.5458984c0,0.8876953-0.5576172,1.546875-1.4453125,1.546875H355.7783203z"/>
		<path class="st5" d="M364.9765625,16.3549805h2.1289063v15.2827148h6.5390625V33.4375h-8.6679688V16.3549805z"/>
		<path class="st5" d="M378.5351563,28.140625l-1.5712891,5.296875h-2.1796875l5.2460938-17.0825195h2.5087891L387.7607422,33.4375
			h-2.2304688l-1.6220703-5.296875H378.5351563z M383.5273438,26.4672852l-1.4697266-4.7392578
			c-0.3291016-1.140625-0.5830078-2.28125-0.8105469-3.3457031h-0.0761719
			c-0.2285156,1.0898438-0.4814453,2.2558594-0.7861328,3.3203125l-1.4443359,4.7646484H383.5273438z"/>
		<path class="st5" d="M403.1425781,25.402832h-5.90625v6.2348633h6.640625V33.4375h-8.7695313V16.3549805h8.4150391v1.7988281
			h-6.2861328v5.4746094h5.90625V25.402832z"/>
		<path class="st5" d="M406.2070313,30.8779297c0.8623047,0.5576172,2.1796875,0.9882813,3.4980469,0.9882813
			c2.1289063,0,3.3710938-1.1660156,3.3710938-2.9150391c0-1.5712891-0.9375-2.5092773-2.9404297-3.4213867
			c-2.3818359-0.9638672-4.1308594-2.484375-4.1308594-4.8154297c0-2.6367188,2.078125-4.5878906,5.2207031-4.5878906
			c1.5458984,0,2.7119141,0.3798828,3.3457031,0.7607422l-0.5576172,1.7734375
			c-0.5068359-0.3037109-1.5205078-0.734375-2.8642578-0.734375c-2.1542969,0-3.015625,1.3427734-3.015625,2.5087891
			c0,1.6220703,0.9882813,2.3828125,3.1425781,3.3457031c2.6357422,1.2421875,3.9287109,2.6865234,3.9287109,5.019043
			c0,2.7119141-1.9521484,4.8662109-5.6269531,4.8662109c-1.4951172,0-3.1171875-0.4570313-3.9033203-0.9892578
			L406.2070313,30.8779297z"/>
		<path class="st5" d="M420.8808594,18.1791992h-4.5878906v-1.8242188h11.3037109v1.8242188h-4.5869141V33.4375h-2.1289063
			V18.1791992z"/>
		<path class="st5" d="M429.4960938,16.5825195c1.0390625-0.2275391,2.4580078-0.3544922,3.8271484-0.3544922
			c2.1542969,0,3.6240234,0.4306641,4.6123047,1.3427734c0.8369141,0.7861328,1.2929688,1.9521484,1.2929688,3.2695313
			c0,2.2304688-1.2929688,3.7001953-3.0664063,4.3847656v0.0507813c1.2919922,0.4306641,2.0273438,1.6474609,2.4326172,3.5737305
			c0.5068359,2.3828125,0.8867188,3.9541016,1.2167969,4.5878906h-2.1796875
			c-0.2792969-0.5068359-0.6337891-2.0019531-1.0644531-4.1308594c-0.4814453-2.3579102-1.34375-3.2446289-3.2441406-3.2954102
			H431.625V33.4375h-2.1289063V16.5825195z M431.625,24.3891602h1.8251953c2.2294922,0,3.6494141-1.3183594,3.6494141-3.2949219
			c0-2.1542969-1.3691406-3.1933594-3.6240234-3.1933594c-0.8876953,0-1.5214844,0.0761719-1.8505859,0.1767578V24.3891602z"/>
		<path class="st5" d="M444.8525391,28.140625L443.28125,33.4375h-2.1796875l5.2460938-17.0825195h2.5097656L454.078125,33.4375
			h-2.2304688l-1.6220703-5.296875H444.8525391z M449.8457031,26.4672852l-1.4697266-4.7392578
			c-0.3300781-1.140625-0.5830078-2.28125-0.8115234-3.3457031h-0.0761719
			c-0.2275391,1.0898438-0.4814453,2.2558594-0.7851563,3.3203125l-1.4453125,4.7646484H449.8457031z"/>
		<path class="st5" d="M457.5244141,18.1791992h-4.5878906v-1.8242188h11.3037109v1.8242188h-4.5869141V33.4375h-2.1289063
			V18.1791992z"/>
		<path class="st5" d="M474.1738281,25.402832h-5.9052734v6.2348633h6.640625V33.4375h-8.7695313V16.3549805h8.4140625v1.7988281
			h-6.2851563v5.4746094h5.9052734V25.402832z"/>
		<path class="st5" d="M489.1757813,32.7783203c-0.9121094,0.3554688-2.6611328,0.8369141-4.5869141,0.8369141
			c-2.2558594,0-4.1816406-0.5830078-5.6777344-2.078125c-1.3935547-1.3945313-2.2802734-3.6757813-2.2802734-6.4887695
			c0.0253906-5.5761719,3.4716797-8.8710938,8.3886719-8.8710938c1.6982422,0,3.0410156,0.3798828,3.7255859,0.6845703
			l-0.5068359,1.7734375c-0.7851563-0.3544922-1.7744141-0.6328125-3.2441406-0.6328125
			c-3.5478516,0-6.1337891,2.3310547-6.1337891,6.9189453c0,4.612793,2.4082031,6.9194336,5.8300781,6.9194336
			c1.2158203,0,2.0019531-0.1777344,2.4072266-0.3798828v-5.2475586H484.03125v-1.7226563h5.1445313V32.7783203z"/>
		<path class="st5" d="M494.4462891,16.3549805V33.4375h-2.1289063V16.3549805H494.4462891z"/>
		<path class="st5" d="M500.6289063,28.140625l-1.5712891,5.296875h-2.1796875l5.2460938-17.0825195h2.5097656L509.8544922,33.4375
			h-2.2304688l-1.6220703-5.296875H500.6289063z M505.6220703,26.4672852l-1.4697266-4.7392578
			c-0.3300781-1.140625-0.5830078-2.28125-0.8115234-3.3457031h-0.0761719
			c-0.2275391,1.0898438-0.4814453,2.2558594-0.7851563,3.3203125l-1.4453125,4.7646484H505.6220703z"/>
		<path class="st5" d="M529.6464844,35.8701172c-2.0019531-0.5820313-4.0810547-1.3173828-5.7529297-1.9257813
			c-0.3300781-0.1269531-0.6337891-0.2529297-0.9130859-0.2529297c-3.7001953-0.1015625-6.6904297-3.0419922-6.6904297-8.668457
			c0-5.5507813,2.9394531-8.921875,7.0712891-8.921875c4.1054688,0,6.7412109,3.4726563,6.7412109,8.6425781
			c0,4.4614258-1.7490234,7.1987305-4.2578125,8.1362305v0.1015625c1.5205078,0.4306641,3.1679688,0.8359375,4.4609375,1.1152344
			L529.6464844,35.8701172z M523.2089844,31.9169922c3.0917969,0,4.6630859-3.3457031,4.6630859-7.097168
			c0-3.3710938-1.4189453-6.9443359-4.6123047-6.9443359c-3.2695313,0-4.7402344,3.5478516-4.7402344,7.0966797
			c0,3.5483398,1.5722656,6.9448242,4.6640625,6.9448242H523.2089844z"/>
		<path class="st5" d="M534.9414063,16.3549805v10.5175781c0,3.5991211,1.4951172,5.0444336,3.4980469,5.0444336
			c2.2041016,0,3.6240234-1.4951172,3.6240234-5.0444336V16.3549805h2.1289063v10.3154297
			c0,5.0180664-2.484375,7.0209961-5.8291016,7.0209961c-3.21875,0-5.5507813-1.8759766-5.5507813-6.8696289V16.3549805H534.9414063
			z"/>
		<path class="st5" d="M555.7988281,25.402832h-5.90625v6.2348633h6.640625V33.4375h-8.7695313V16.3549805h8.4150391v1.7988281
			h-6.2861328v5.4746094h5.90625V25.402832z"/>
		<path class="st6" d="M563.0449219,33.4375V16.3549805h3.2441406l3.9541016,7.3242188
			c0.9628906,1.7744141,1.9257813,3.8276367,2.6357422,5.6274414h0.0507813
			c-0.1777344-2.2558594-0.2792969-4.5883789-0.2792969-7.3510742v-5.6005859h2.7373047V33.4375h-3.015625l-3.9794922-7.4516602
			c-0.9628906-1.7744141-1.9765625-3.8525391-2.7119141-5.7539063h-0.0761719
			c0.1269531,2.1542969,0.1777344,4.4609375,0.1777344,7.503418V33.4375H563.0449219z"/>
		<path class="st6" d="M584.9658203,33.6914063c-4.4101563,0-7.0458984-3.6757813-7.0458984-8.7192383
			c0-5.1962891,2.8886719-8.8710938,7.2988281-8.8710938c4.5625,0,7.0458984,3.8017578,7.0458984,8.6171875
			c0,5.9311523-3.0917969,8.9731445-7.2734375,8.9731445H584.9658203z M585.1171875,31.2324219
			c2.6367188,0,4.0048828-2.8896484,4.0048828-6.4125977c0-3.1679688-1.2675781-6.2597656-4.0048828-6.2597656
			s-4.0546875,3.015625-4.0546875,6.3613281c-0.0253906,3.371582,1.3935547,6.3110352,4.0292969,6.3110352H585.1171875z"/>
		<path class="st6" d="M594.6708984,30.1933594c0.8867188,0.5322266,2.28125,0.9628906,3.6748047,0.9628906
			c1.9003906,0,2.9648438-0.9375,2.9648438-2.3310547c0-1.3183594-0.8613281-2.0795898-2.8125-2.9155273
			c-2.5351563-1.0644531-4.1816406-2.6357422-4.1816406-4.9169922c0-2.7373047,2.1542969-4.8662109,5.7275391-4.8662109
			c1.6220703,0,2.8886719,0.3798828,3.6240234,0.7607422l-0.6591797,2.4833984
			c-0.5830078-0.3037109-1.6220703-0.7353516-3.0410156-0.7353516c-1.8496094,0-2.6611328,1.0390625-2.6611328,2.0537109
			c0,1.3173828,0.9121094,1.9257813,3.0410156,2.8632813c2.7119141,1.2167969,3.9794922,2.7626953,3.9794922,5.019043
			c0,2.8388672-2.1035156,5.0947266-6.1337891,5.0947266c-1.6474609,0-3.3193359-0.4824219-4.1308594-0.9638672
			L594.6708984,30.1933594z"/>
		<path class="st6" d="M614.7402344,16.3549805v10.3652344c0,3.1694336,1.2421875,4.512207,3.0419922,4.512207
			c1.9257813,0,3.1171875-1.3427734,3.1171875-4.512207V16.3549805h2.9902344v10.0869141
			c0,4.9936523-2.4072266,7.2495117-6.1835938,7.2495117c-3.7001953,0-5.9560547-2.1796875-5.9560547-7.1987305V16.3549805
			H614.7402344z"/>
		<path class="st6" d="M627.2333984,33.4375V16.3549805h3.2441406l3.9541016,7.3242188
			c0.9628906,1.7744141,1.9257813,3.8276367,2.6357422,5.6274414h0.0507813
			c-0.1777344-2.2558594-0.2792969-4.5883789-0.2792969-7.3510742v-5.6005859h2.7373047V33.4375h-3.015625l-3.9794922-7.4516602
			c-0.9628906-1.7744141-1.9765625-3.8525391-2.7119141-5.7539063h-0.0761719
			c0.1269531,2.1542969,0.1777344,4.4609375,0.1777344,7.503418V33.4375H627.2333984z"/>
		<path class="st6" d="M651.6894531,25.8081055h-5.7285156v5.1206055h6.4121094V33.4375h-9.4023438V16.3549805h9.0478516v2.5087891
			h-6.0576172v4.4863281h5.7285156V25.8081055z"/>
	</g>
</g>
</svg>
