<?xml version="1.0" encoding="UTF-8"?>
<!DOCTYPE svg PUBLIC "-//W3C//DTD SVG 1.1//EN" "http://www.w3.org/Graphics/SVG/1.1/DTD/svg11.dtd">
<!-- Creator: CorelDRAW X7 -->
<svg xmlns="http://www.w3.org/2000/svg" xml:space="preserve" width="78.4844mm" height="20.2064mm" version="1.1" style="shape-rendering:geometricPrecision; text-rendering:geometricPrecision; image-rendering:optimizeQuality; fill-rule:evenodd; clip-rule:evenodd"
viewBox="0 0 1518 391"
 xmlns:xlink="http://www.w3.org/1999/xlink">
 <defs>
  <style type="text/css">
   <![CDATA[
    .fil0 {fill:white}
    .fil1 {fill:white;fill-rule:nonzero}
   ]]>
  </style>
 </defs>
 <g id="Capa_x0020_1">
  <metadata id="CorelCorpID_0Corel-Layer"/>
  <g id="_2218220069488">
   <path class="fil0" d="M188 7c104,0 188,84 188,188 0,105 -84,189 -188,189 -42,0 -81,-14 -112,-37 56,8 128,-5 157,-58l0 53 40 0 0 -155 -145 0 0 40 84 0c-14,46 -55,76 -102,77 -30,1 -63,-14 -82,-36 -10,-13 -26,-29 -28,-73 0,-15 4,-49 32,-77 22,-21 48,-31 80,-31 38,2 71,21 92,56l63 0c-27,-86 -117,-111 -191,-99 31,-24 70,-37 112,-37z"/>
   <path class="fil1" d="M541 0c-18,1 -36,6 -54,17 -17,10 -31,24 -42,41 -11,17 -16,36 -17,56 0,1 0,2 0,4 0,21 5,40 16,58 11,17 25,31 44,42 18,10 39,15 61,15 22,0 42,-5 60,-16 18,-11 33,-25 43,-43 10,-19 15,-39 15,-60l-145 0 0 39 93 0c-7,12 -16,22 -28,29 -12,8 -25,11 -39,11 -13,0 -25,-3 -37,-10 -12,-6 -22,-16 -29,-27 -8,-12 -12,-25 -12,-41 0,-14 3,-26 10,-37 6,-11 15,-20 27,-26 11,-6 23,-10 35,-11 13,-1 25,1 37,6 12,5 21,13 27,23l50 0c-13,-28 -31,-47 -53,-57 -22,-9 -42,-14 -62,-13zm153 4l0 224 120 0 0 -40 -79 0 0 -52 76 0 0 -40 -76 0 0 -52 79 0 0 -40 -120 0zm157 0l0 224 41 0 0 -224 -41 0zm73 108c1,25 6,46 16,63 10,18 23,32 39,41 17,10 35,16 56,17 11,1 24,-1 38,-5 14,-4 28,-11 41,-21 13,-10 23,-23 30,-40l-49 0c-15,17 -33,26 -55,26 -20,0 -38,-8 -53,-22 -15,-14 -22,-33 -22,-55 0,-13 3,-25 10,-37 7,-12 16,-21 28,-28 11,-7 24,-11 37,-11 21,0 41,10 58,28l47 0c-5,-13 -13,-25 -25,-36 -11,-10 -24,-18 -39,-24 -14,-5 -28,-8 -42,-8 -18,0 -34,4 -49,11 -15,7 -27,17 -37,29 -10,12 -17,24 -22,37 -5,13 -7,25 -7,35z"/>
   <path class="fil1" d="M434 276c1,-5 2,-9 4,-13 1,-3 4,-5 7,-7 2,-2 5,-3 8,-4 2,0 5,-1 8,-1 2,0 4,0 6,1 2,0 4,0 6,1 2,1 4,1 6,3l-2 5c-1,0 -1,0 -2,-1 -2,-1 -3,-2 -4,-3 -1,-1 -3,-1 -4,-2 -2,0 -4,-1 -6,-1 -3,0 -6,1 -9,2 -3,2 -5,4 -7,7 -2,3 -3,7 -4,11 0,0 0,1 0,1 0,4 1,7 2,9 1,3 2,6 4,8 1,2 4,3 6,4 2,1 5,2 8,2 2,0 5,-1 7,-1 2,-1 3,-1 4,-2l0 -18c1,1 2,1 3,1 1,0 2,0 3,-1l0 20c-1,1 -4,2 -8,2 -4,1 -7,1 -9,1 -1,0 -1,0 -1,0 0,0 -1,0 -1,0 -3,0 -7,0 -10,-1 -3,-1 -6,-3 -8,-5 -2,-2 -4,-5 -5,-8 -1,-3 -2,-6 -2,-10zm55 23l0 -32c1,0 2,0 2,0 1,0 2,0 3,0l0 6c1,-1 2,-2 3,-3 1,-2 2,-2 3,-3 1,-1 2,-1 4,-1 0,0 0,0 1,0l-1 7c-1,-1 -2,-1 -3,-1 -2,0 -3,0 -4,1 -1,1 -2,2 -2,3 -1,2 -1,3 -1,4l0 19c-1,0 -2,0 -3,0 0,0 -1,0 -2,0zm21 -11l0 -21c1,0 2,0 3,0 1,0 2,0 3,0l0 19c0,2 0,4 1,5 0,2 1,3 3,4 1,1 2,2 4,2 0,0 0,0 1,0 2,-1 4,-2 5,-3 1,-2 2,-4 2,-7l0 -20c1,0 2,0 3,0 1,0 2,0 3,0l0 32c-1,0 -2,0 -3,0 -1,0 -2,0 -3,0l0 -5c-1,2 -2,4 -4,5 -2,0 -4,1 -7,1 -5,0 -7,-1 -9,-4 -1,-2 -2,-5 -2,-8zm38 -21c1,0 2,0 3,0 1,0 2,0 2,0l0 7c1,-3 3,-5 5,-6 2,-1 4,-2 7,-2 2,0 5,1 7,2 2,1 4,3 5,5 1,3 2,6 2,10 0,2 -1,5 -1,6 -1,2 -2,4 -3,6 -1,1 -3,3 -4,3 -2,1 -4,2 -7,2 0,0 0,0 0,0 0,0 0,0 0,0 -3,0 -5,-1 -7,-2 -1,-1 -3,-3 -4,-5l0 24c0,0 -1,0 -2,0 -1,0 -2,0 -3,0l0 -50zm5 15l0 1c0,2 1,4 1,6 0,2 1,3 3,5 1,1 3,2 5,3 1,0 1,0 1,0 2,0 3,-1 4,-1 1,-1 2,-2 3,-3 1,-1 1,-2 1,-4 1,-2 1,-4 1,-6 0,-2 0,-5 -1,-7 0,-2 -1,-4 -2,-5 -1,-1 -3,-2 -5,-2 -1,0 -1,0 -1,0 -2,0 -4,1 -6,3 -2,2 -3,6 -4,10zm30 2c0,-3 1,-6 2,-9 2,-3 4,-5 7,-7 2,-1 5,-2 9,-2 4,0 7,1 10,3 2,2 4,5 5,7 0,3 1,5 1,7 0,2 0,4 -1,6 -1,2 -2,4 -3,5 -1,2 -3,3 -5,4 -2,1 -5,2 -8,2 0,0 0,0 0,0 0,0 0,0 -1,0 -3,0 -6,-1 -8,-2 -3,-2 -4,-3 -6,-6 -1,-2 -2,-5 -2,-8zm7 1c0,2 0,5 2,8 1,3 4,4 8,5 3,0 5,-2 7,-4 2,-2 3,-6 4,-11 0,-3 -1,-5 -2,-7 0,-2 -1,-4 -3,-5 -1,-2 -3,-2 -6,-2 -3,0 -6,1 -7,4 -2,3 -3,7 -3,10 0,1 0,1 0,2zm54 14l0 -46 25 0c-1,1 -1,1 -1,2 0,1 0,1 1,2 -3,0 -5,-1 -9,-1 -1,0 -3,0 -5,1 -2,0 -3,0 -4,0l0 16 10 0 6 0c0,0 0,1 0,2 0,0 0,1 0,2l-8 -1 -8 0 0 20c1,0 2,0 5,0 2,0 4,0 7,0 2,-1 5,-1 6,-1 0,1 0,2 0,2 0,1 0,2 0,2l-25 0zm33 0l0 -33c1,0 1,1 2,1 1,0 2,-1 3,-1l0 6c1,-1 1,-2 2,-3 1,-1 2,-2 4,-2 1,-1 2,-1 4,-1 2,0 3,0 5,0 1,1 2,1 3,2 1,1 2,3 3,5 1,-2 1,-3 3,-4 1,-1 2,-2 3,-3 2,0 3,0 5,0 2,0 4,0 6,1 1,1 3,2 3,4 1,2 2,3 2,5 0,0 0,1 0,1l0 22c-1,0 -2,0 -3,0 -1,0 -2,0 -3,0l0 -22c0,-2 -1,-4 -2,-5 -2,-2 -4,-2 -6,-2 -1,0 -2,0 -3,0 -1,1 -2,2 -3,3 -1,2 -1,4 -2,5l0 21c0,0 -1,0 -2,0 -1,0 -2,0 -3,0l0 -22c0,-1 0,-2 -1,-4 -1,-1 -2,-2 -3,-2 -1,-1 -3,-1 -4,-1 -2,0 -4,0 -5,2 -1,1 -2,4 -2,6l0 21c-1,0 -2,0 -3,0 -1,0 -2,0 -3,0zm56 -32c1,0 2,0 3,0 1,0 2,0 3,0l0 7c1,-3 2,-5 4,-6 2,-1 4,-2 7,-2 3,0 5,1 7,2 2,1 4,3 5,5 1,3 2,6 2,10 0,2 -1,5 -1,6 -1,2 -2,4 -3,6 -1,1 -2,3 -4,3 -2,1 -4,2 -6,2 0,0 -1,0 -1,0 0,0 0,0 0,0 -3,0 -5,-1 -7,-2 -1,-1 -2,-3 -3,-5l0 24c-1,0 -2,0 -3,0 -1,0 -2,0 -3,0l0 -50zm6 15l0 1c0,2 0,4 0,6 1,2 1,3 3,5 1,1 3,2 6,3 0,0 0,0 1,0 1,0 2,-1 3,-1 1,-1 2,-2 3,-3 1,-1 1,-2 2,-4 0,-2 0,-4 0,-6 0,-2 0,-5 0,-7 -1,-2 -2,-4 -3,-5 -1,-1 -3,-2 -5,-2 0,0 -1,0 -1,0 -2,0 -4,1 -6,3 -1,2 -3,6 -3,10zm33 17l0 -32c1,0 2,0 3,0 1,0 2,0 3,0l0 6c0,-1 1,-2 2,-3 1,-2 2,-2 3,-3 2,-1 3,-1 4,-1 0,0 1,0 1,0l0 7c-2,-1 -3,-1 -4,-1 -1,0 -2,0 -3,1 -1,1 -2,2 -3,3 0,2 0,3 0,4l0 19c-1,0 -2,0 -3,0 -1,0 -2,0 -3,0zm20 -15c0,-3 0,-7 2,-9 1,-3 3,-5 5,-6 2,-2 5,-2 8,-2 3,0 6,0 8,2 2,2 4,3 5,6 1,2 1,4 1,6 0,1 0,2 0,2l-23 0c0,3 0,5 1,7 1,2 2,4 4,5 1,1 4,2 7,2 2,0 3,-1 5,-2 2,0 3,-1 4,-3l1 4c-2,1 -3,2 -4,2 -1,1 -2,1 -3,2 -2,0 -3,0 -5,0 -4,0 -7,-1 -9,-2 -3,-2 -4,-4 -6,-6 -1,-2 -1,-5 -1,-8zm24 -3c0,-4 -1,-6 -2,-8 -2,-3 -4,-4 -7,-4 -2,0 -3,1 -5,2 -1,1 -2,3 -3,4 -1,2 -1,4 -1,6l18 0zm11 -5c0,-3 1,-6 3,-7 2,-2 5,-3 8,-3 3,0 6,1 8,2l-2 5 -1 0c0,-1 0,-2 -1,-2 -1,-1 -1,-1 -2,-2 -1,0 -2,0 -3,0 -1,0 -2,0 -3,1 -2,1 -2,2 -2,3 -1,1 -1,1 -1,1 0,2 1,3 2,3 1,1 2,2 4,3 1,0 3,1 4,1 2,1 4,2 5,4 1,1 2,3 2,4 0,2 0,4 -2,5 -1,2 -2,3 -4,4 -2,1 -4,2 -6,2 -5,0 -8,-1 -10,-3l2 -5 1 0c2,4 4,5 7,5 1,0 2,0 3,-1 1,0 2,-1 3,-2 0,-1 1,-2 1,-3 0,-1 -1,-2 -1,-3 -1,0 -2,-1 -3,-2 -1,0 -2,0 -3,-1 -2,0 -3,0 -3,-1 -2,0 -4,-1 -5,-2 -1,-2 -1,-3 -1,-6zm26 16c0,-2 0,-3 1,-4 0,-1 1,-2 2,-3 2,-1 3,-2 5,-2l9 -2c1,0 2,-1 2,-1 1,-1 1,-2 1,-3 0,-1 0,-2 -1,-3 -1,-2 -2,-3 -3,-3 -1,-1 -3,-2 -4,-2 -2,0 -3,1 -4,2 -2,0 -3,1 -4,3l-1 0 0 -4c1,0 2,-1 3,-1 1,-1 2,-1 4,-2 1,0 2,0 4,0 4,0 7,1 9,2 2,2 3,5 3,9l0 17c0,1 0,2 1,2 1,0 1,0 2,0l0 1c-1,1 -2,2 -4,2 -1,0 -2,-1 -3,-2 -1,0 -2,-1 -2,-2 -4,3 -7,4 -11,4 -2,0 -5,-1 -6,-2 -2,-2 -3,-4 -3,-6zm20 0l0 -9c-4,1 -6,1 -9,2 -2,0 -3,1 -4,2 -1,1 -1,3 -1,4 0,1 0,1 0,2 0,1 1,2 2,3 1,0 2,1 4,1 3,0 5,-2 8,-5zm16 7l0 -32c1,0 2,0 3,0 1,0 2,0 3,0l0 6c0,-1 1,-2 2,-3 1,-2 2,-2 3,-3 1,-1 3,-1 4,-1 0,0 1,0 1,0l0 7c-2,-1 -3,-1 -4,-1 -1,0 -3,0 -4,1 0,1 -1,2 -2,3 0,2 0,3 0,4l0 19c-1,0 -2,0 -3,0 -1,0 -2,0 -3,0zm23 -45c0,-1 0,-2 1,-2 0,-1 1,-1 2,-1 1,0 2,0 3,1 1,0 1,1 1,2 0,2 0,3 -1,3 -1,1 -2,1 -3,1 -1,0 -2,0 -2,-1 -1,-1 -1,-1 -1,-3zm0 45l0 -33c1,0 2,1 3,1 1,0 2,-1 3,-1l0 33c-1,0 -2,0 -3,0 -1,0 -2,0 -3,0zm16 -7c0,-2 0,-3 1,-4 1,-1 1,-2 3,-3 1,-1 3,-2 5,-2l8 -2c1,0 2,-1 2,-1 1,-1 1,-2 1,-3 0,-1 0,-2 -1,-3 -1,-2 -1,-3 -3,-3 -1,-1 -2,-2 -4,-2 -2,0 -3,1 -4,2 -1,0 -3,1 -4,3l-1 0 0 -4c1,0 2,-1 3,-1 1,-1 3,-1 4,-2 1,0 3,0 4,0 4,0 7,1 9,2 2,2 3,5 3,9l0 17c0,1 0,2 2,2 0,0 1,0 2,0l0 1c-2,1 -3,2 -4,2 -2,0 -3,-1 -4,-2 -1,0 -2,-1 -2,-2 -3,3 -7,4 -11,4 -2,0 -4,-1 -6,-2 -2,-2 -3,-4 -3,-6zm20 0l0 -9c-3,1 -6,1 -8,2 -2,0 -4,1 -5,2 -1,1 -1,3 -1,4 0,1 0,1 0,2 0,1 1,2 2,3 1,0 3,1 4,1 3,0 6,-2 8,-5zm18 7l0 -52c1,0 2,0 3,0 0,0 1,0 2,0l0 52c0,0 -1,0 -2,0 -1,0 -2,0 -3,0zm33 -14c0,-3 0,-6 1,-8 0,-2 1,-4 3,-6 1,-2 2,-3 4,-4 2,0 4,-1 7,-1 1,0 3,0 4,1 2,1 3,1 4,2 1,1 2,2 2,3l0 -24c1,0 2,0 3,0 1,0 2,0 3,0l0 51c-1,0 -2,0 -3,0 -1,0 -2,0 -3,0l0 -6c-2,3 -4,4 -6,5 -1,1 -3,2 -5,2 -3,0 -5,-1 -7,-2 -2,-1 -4,-3 -5,-6 -2,-2 -2,-4 -2,-7zm6 -1c0,4 1,8 3,10 2,2 4,3 6,3 0,0 0,0 0,0 2,0 4,-1 5,-2 1,-1 3,-2 3,-5 1,-2 2,-4 2,-7 0,-3 -1,-6 -2,-9 -1,-3 -4,-5 -7,-5 0,0 0,0 -1,0 0,0 0,0 0,0 -4,1 -6,2 -7,5 -1,3 -2,6 -2,10zm32 0c0,-3 0,-7 2,-9 1,-3 3,-5 5,-6 2,-2 5,-2 8,-2 3,0 6,0 8,2 2,2 4,3 5,6 1,2 1,4 1,6 0,1 0,2 0,2l-23 0c0,3 0,5 1,7 1,2 2,4 4,5 2,1 4,2 7,2 2,0 3,-1 5,-2 2,0 3,-1 4,-3l1 4c-2,1 -3,2 -4,2 -1,1 -2,1 -3,2 -2,0 -3,0 -5,0 -4,0 -7,-1 -9,-2 -3,-2 -4,-4 -5,-6 -2,-2 -2,-5 -2,-8zm24 -3c0,-4 -1,-6 -2,-8 -2,-3 -4,-4 -7,-4 -2,0 -3,1 -5,2 -1,1 -2,3 -3,4 -1,2 -1,4 -1,6l18 0zm33 18l0 -52c1,0 2,0 3,0 0,0 1,0 3,0l0 52c-1,0 -2,0 -3,0 -1,0 -2,0 -3,0zm15 -7c0,-2 0,-3 1,-4 1,-1 1,-2 3,-3 1,-1 3,-2 5,-2l8 -2c1,0 2,-1 2,-1 1,-1 1,-2 1,-3 0,-1 0,-2 -1,-3 -1,-2 -2,-3 -3,-3 -1,-1 -2,-2 -4,-2 -2,0 -3,1 -4,2 -1,0 -3,1 -4,3l-1 0 0 -4c1,0 2,-1 3,-1 1,-1 2,-1 4,-2 1,0 3,0 4,0 4,0 7,1 9,2 2,2 3,5 3,9l0 17c0,1 0,2 2,2 0,0 1,0 1,0l0 1c-1,1 -2,2 -3,2 -2,0 -3,-1 -4,-2 -1,0 -2,-1 -2,-2 -3,3 -7,4 -11,4 -2,0 -4,-1 -6,-2 -2,-2 -3,-4 -3,-6zm20 0l0 -9c-4,1 -6,1 -8,2 -2,0 -4,1 -5,2 -1,1 -1,3 -1,4 0,1 0,1 0,2 0,1 1,2 2,3 1,0 3,1 4,1 3,0 6,-2 8,-5zm-689 34c0,0 0,0 0,0 1,0 1,0 1,0 0,0 0,0 0,0 0,0 0,0 0,0 0,0 0,0 0,0 0,0 1,0 1,0 0,0 0,0 0,0 1,0 1,0 1,0l3 0 0 47 -3 0c0,0 0,0 -1,0 0,0 0,0 0,0 0,0 0,0 0,0 -1,0 -1,0 -1,0 0,0 0,0 0,0 0,0 0,0 0,0 0,0 0,0 -1,0 0,0 0,0 0,0l-3 0 0 -47 3 0zm18 47l0 -33 2 0c0,0 1,0 1,0 0,0 0,0 0,0 0,0 1,0 1,0 0,0 0,0 0,0 0,0 0,0 0,0 0,0 0,0 0,0 0,0 0,0 0,0 0,0 0,0 0,0 0,0 0,0 0,0 0,0 0,0 0,0 0,0 1,0 1,0 0,0 0,0 0,0l3 0 0 2c1,0 1,0 2,-1 0,0 1,0 1,-1 1,0 2,0 3,0 1,-1 2,-1 3,-1l3 0 0 0 0 0c1,0 2,1 4,1 1,1 2,1 3,2 1,2 2,3 2,5 1,2 1,4 1,6l0 20 -2 0c-1,0 -1,0 -1,0 0,0 0,0 0,0 0,0 0,0 0,0 0,0 -1,0 -1,0 0,0 0,0 0,0 0,0 0,0 0,0 0,0 0,0 0,0 0,0 0,0 0,0 0,0 0,0 0,0 0,0 0,0 0,0 0,0 0,0 -1,0 0,0 0,0 -1,0l-2 0 0 -20c0,-1 -1,-3 -1,-4 0,-1 -1,-2 -2,-3 0,-1 -1,-1 -2,-2 0,0 -1,0 -2,0 -1,0 -1,0 -2,1 -1,0 -2,1 -2,1 -1,1 -2,2 -2,4 -1,1 -1,3 -1,4l0 19 -3 0c0,0 0,0 0,0 -1,0 -1,0 -1,0 0,0 0,0 0,0 0,0 0,0 0,0 0,0 0,0 0,0 0,0 0,0 0,0 0,0 0,0 0,0 0,0 0,0 0,0 0,0 0,0 0,0 -1,0 -1,0 -1,0 0,0 0,0 0,0 0,0 -1,0 -1,0l-2 0z"/>
   <path class="fil1" d="M499 373l0 -30 -5 0c0,0 0,0 0,0 0,0 0,0 0,0 0,0 1,0 1,0 0,0 0,0 0,-1l0 0 0 0c0,0 0,0 0,0 0,0 0,0 0,0 0,0 0,0 0,0 0,0 0,0 0,-1 -1,0 -1,0 -1,0 0,0 0,0 0,0l5 0c1,-4 1,-7 2,-9 1,-3 2,-5 3,-6 1,-1 3,-2 4,-3 1,-1 3,-1 4,-1l3 0c0,0 0,0 0,0 0,0 0,0 0,0 0,0 0,0 1,0 0,0 0,0 0,0 0,0 0,0 0,0 1,0 1,0 1,0 0,1 0,1 0,2 -1,0 -1,0 -1,1 0,0 0,1 0,1 0,1 0,1 0,1l0 1 -3 0c0,0 -1,0 -1,0 0,-1 0,-1 -1,-1 0,0 0,0 0,0 0,0 0,0 0,0 -1,0 -2,0 -2,1 -1,0 -1,0 -1,1 -1,1 -1,2 -1,2 0,1 -1,2 -1,3 0,0 0,0 0,0 0,0 0,0 0,0 0,0 0,0 0,0 0,0 0,0 0,0 0,0 0,1 0,1 0,0 0,0 0,0 0,0 0,0 0,0 0,0 0,0 0,0 0,0 0,1 1,1 0,0 0,1 0,1 0,0 0,0 0,1 0,0 0,0 0,1 0,0 0,0 0,0 0,0 0,1 0,1 0,0 0,0 0,0 0,1 0,1 0,1l5 0 3 0c0,0 0,0 0,0 0,0 0,0 0,0 -1,0 -1,0 -1,0 0,0 0,0 0,0 0,0 0,0 0,1 0,0 0,0 0,0 0,0 0,0 0,0 0,0 0,1 0,1 0,0 1,0 1,0 0,0 0,0 0,1l-3 -1 -5 0 0 30 -3 0c0,0 0,0 0,0 0,0 0,0 -1,0 0,0 0,0 0,0 -1,0 -1,0 -1,0l-3 0zm17 -15c0,-3 1,-5 2,-7 0,-2 2,-4 3,-6 2,-2 4,-3 6,-4 2,-1 4,-1 7,-1l3 0c2,0 4,0 5,1 2,0 3,1 4,2 1,1 2,2 3,3 1,1 2,2 2,3 1,1 1,2 1,2 0,1 0,2 1,3 0,0 0,1 0,2 0,0 0,1 0,1 0,0 0,1 0,1 0,1 0,1 0,2 0,0 0,0 0,1 -1,0 -1,1 -1,1 0,2 -1,3 -2,4 -1,2 -2,3 -3,4 -1,1 -3,2 -5,3 -1,0 -3,1 -6,1l-2 0c-1,0 -1,0 -1,0 0,0 0,0 0,0 0,0 0,0 0,0 0,0 0,0 0,0 0,0 0,0 0,0 0,0 0,0 0,0 -3,0 -5,-1 -7,-2 -2,0 -4,-1 -5,-3 -2,-1 -3,-3 -4,-5 0,-2 -1,-4 -1,-6l0 0zm10 0c0,1 0,1 0,2 0,0 0,1 0,1 0,1 0,1 0,2 0,0 0,1 1,2 0,0 0,1 1,2 0,1 1,2 2,2 0,1 1,1 2,2 1,0 2,0 3,0 1,0 2,0 3,-1 1,0 2,-1 2,-2 1,-1 2,-3 3,-5 0,-1 1,-4 1,-6 0,-2 0,-4 -1,-6 0,-2 -1,-3 -2,-5 0,-1 -1,-2 -2,-2 -1,-1 -3,-1 -4,-2 -1,1 -3,1 -4,2 -1,1 -2,2 -3,3 0,1 -1,3 -2,4 0,2 0,3 -1,5 0,0 0,0 0,0 0,1 0,1 0,1l0 0c0,0 0,0 0,0 0,0 0,0 0,0 0,1 0,1 0,1 0,0 0,0 0,0 0,0 0,0 0,0 0,0 0,0 1,1l-3 -1 0 0 3 0zm35 15l0 -33 3 0c0,0 0,0 0,0 0,0 1,1 1,1 0,0 0,0 0,0 0,0 0,0 0,0 0,0 0,0 0,0 0,0 0,0 0,0 0,0 0,0 0,0 0,0 0,0 0,0 0,0 0,0 0,0 1,0 1,0 1,0 0,-1 0,-1 0,-1 0,0 0,0 0,0l3 0 0 3c0,0 0,0 0,0 1,0 1,-1 1,-1 0,0 0,0 0,0 0,0 0,0 0,0 1,-1 2,-1 3,-2 1,0 2,0 3,0l3 0c0,0 0,0 0,0 0,0 0,0 0,0 0,0 0,0 1,0 0,0 0,0 0,0 0,0 0,0 0,0 0,0 0,0 0,0l-1 6 -2 0c-1,0 -1,0 -1,0 -1,0 -1,-1 -1,-1 0,0 0,0 0,0 -1,0 -1,0 -1,0 0,0 0,0 0,0 0,0 0,0 0,0 0,0 -1,1 -1,1 -1,0 -1,1 -1,1 -1,1 -1,1 -2,2 0,1 0,1 0,2 0,0 -1,1 -1,1 0,0 0,0 0,0 0,1 0,1 0,1 0,0 0,1 0,1l0 19 -3 0c0,0 0,0 0,0 0,0 0,0 -1,0 0,0 0,0 0,0 0,0 0,0 0,0 0,0 0,0 0,0 0,0 0,0 0,0 0,0 0,0 0,0 0,0 0,0 0,0 0,0 0,0 -1,0 0,0 0,0 0,0l-3 0zm24 0l0 -33 3 0 0 0 1 0c0,0 0,0 0,0 0,0 0,0 0,0 0,0 0,0 0,0 0,0 0,0 0,0 0,0 1,0 1,0 0,0 0,0 1,0l2 0 0 2c1,0 1,0 1,-1 1,0 1,0 1,0 1,-1 2,-1 3,-1 1,-1 1,-1 2,-1l3 0c1,0 2,0 3,0 1,1 2,1 3,1 0,0 1,1 2,1 0,1 1,1 1,2 1,0 1,0 1,0 0,1 0,1 0,1 0,-1 1,-1 1,-2 1,0 2,-1 2,-1 1,-1 2,-1 3,-1 1,-1 2,-1 3,-1l3 0c2,0 3,0 5,1 1,0 2,1 3,2 1,1 2,2 3,3 0,2 0,3 1,4l0 0 0 0 0 1 0 0 0 0 0 0 0 23 -3 0c0,0 0,0 -1,0 0,0 0,0 0,0 0,0 0,0 0,0 0,0 0,0 -1,0 0,0 0,0 0,0 0,0 0,0 0,0 0,0 0,0 0,0 0,0 0,0 0,0 0,0 0,0 0,0 0,0 0,0 0,0 0,0 0,0 -1,0 0,0 0,0 0,0l-3 0 0 -22c0,-1 0,-2 -1,-3 0,-1 -1,-2 -2,-3 0,0 -1,-1 -1,-1 -1,0 -2,-1 -2,-1 -1,0 -2,1 -2,1 -1,0 -2,1 -2,1 -1,1 -2,2 -2,3 -1,1 -1,3 -1,4l0 21 -3 0c0,0 0,0 0,0 0,0 0,0 0,0 0,0 -1,0 -1,0 0,0 0,0 0,0 0,0 0,0 0,0 0,0 0,0 0,0 0,0 0,0 0,0 0,0 0,0 0,0 0,0 0,0 0,0 0,0 0,0 0,0 0,0 -1,0 -1,0 0,0 0,0 0,0l-3 0 0 -22c0,-1 0,-2 -1,-3 0,-1 -1,-2 -2,-2 0,-1 -1,-1 -2,-2 0,0 -1,0 -2,-1 0,1 -1,1 -2,1 0,0 -1,1 -2,1 0,1 -1,2 -1,3 -1,1 -1,3 -1,4l0 21 -3 0c0,0 0,0 0,0 0,0 0,0 0,0 0,0 -1,0 -1,0 0,0 0,0 0,0 0,0 0,0 0,0 0,0 0,0 0,0 0,0 0,0 0,0 0,0 0,0 0,0 0,0 0,0 0,0 0,0 0,0 0,0 -1,0 -1,0 -1,0 0,0 -1,0 -1,0l-3 0zm59 -8c0,-1 0,-2 1,-2 0,-1 0,-2 1,-3 1,-1 1,-1 3,-2 1,-1 2,-1 4,-2l8 -1c1,0 1,-1 2,-1 0,0 0,0 1,-1 0,0 0,0 0,-1 0,0 0,-1 0,-1 0,0 0,0 0,0 0,0 0,0 0,0 0,-1 0,-1 0,-1 0,0 0,0 0,0 0,0 0,0 0,-1 0,0 0,0 0,0 0,-1 -1,-2 -1,-2 -1,-1 -1,-2 -2,-2 0,-1 -1,-1 -1,-1 -1,-1 -2,-1 -2,-1 -1,0 -1,0 -1,0 -1,0 -1,0 -1,1 -1,0 -1,0 -1,0 -1,0 -1,1 -2,1 0,0 0,0 0,1 -1,0 -1,0 -1,0 0,0 -1,1 -1,1 0,0 0,1 0,1l-3 0 -1 0 0 -4c0,0 0,0 0,0 0,0 0,0 1,0 0,0 0,-1 0,-1 0,0 0,0 0,0 1,0 2,-1 2,-1 1,0 2,0 3,-1 0,0 1,0 2,0 1,-1 2,-1 3,-1l3 0c2,0 4,1 5,1 2,0 3,1 4,2 1,1 1,2 2,3 0,2 1,4 1,6l0 17c0,0 0,0 0,1 0,0 0,0 0,0 0,0 0,0 0,0 0,0 0,0 0,0 0,0 0,0 0,0 0,1 0,1 0,1 0,0 0,0 0,0 0,0 1,-1 1,-1 0,0 0,0 0,0 0,0 0,0 0,0l2 0 0 2c0,0 0,0 0,1 -1,0 -1,0 -1,0 0,0 0,0 -1,0 0,0 0,0 0,0 0,0 0,0 0,0 -1,0 -1,0 -1,0l0 0 -3 0 0 0c-1,0 -2,0 -2,0 -1,0 -1,0 -2,-1 0,0 -1,0 -1,0 0,0 0,-1 0,-1 -1,1 -2,1 -2,1 -1,1 -2,1 -2,1 -1,0 -2,1 -3,1 0,0 -1,0 -2,0l-3 0c-1,0 -2,0 -3,-1 -1,0 -2,-1 -3,-1 -1,-1 -2,-2 -2,-3 -1,-1 -1,-2 -1,-3l0 -1zm20 1l0 -9c-2,1 -3,1 -5,1 -1,1 -2,1 -3,2 -1,0 -2,1 -3,2 0,1 0,2 0,3 0,0 0,0 0,0 0,0 0,1 0,1 0,0 0,0 0,0 0,0 0,1 0,1l0 0 0 0c0,1 1,1 1,2 0,0 1,0 1,1 1,0 1,0 1,0 1,0 1,0 2,1 0,0 0,0 0,0 0,0 0,0 0,0 0,0 0,0 0,-1 0,0 0,0 0,0 1,0 1,0 1,0 1,0 1,0 2,-1 0,0 0,0 0,0 1,0 1,-1 1,-1 0,0 1,0 1,0 0,0 0,-1 0,-1 0,0 0,0 1,0 0,0 0,-1 0,-1l0 0zm-13 -30l9 -9c0,0 0,0 1,-1 0,0 0,0 0,0 0,0 0,0 0,0 1,0 1,0 1,0 0,0 0,0 0,-1 0,0 0,0 0,0 0,0 1,0 1,0 0,0 0,0 0,0 0,0 0,0 0,0 0,0 0,0 0,0 0,0 0,0 1,0 0,0 0,0 0,0l2 0c1,0 1,0 1,0 1,0 1,1 1,1 1,0 1,0 1,0 0,1 0,1 0,1 0,0 0,0 0,1 0,0 0,0 0,0 -1,1 -1,1 -1,1 0,0 0,0 0,0 0,0 0,1 -1,1 0,0 0,0 0,0l-11 6 -2 0 -3 0zm31 29l0 -22 -4 0c0,0 0,0 0,0 0,0 0,0 0,-1 0,0 0,0 0,0 0,0 0,0 0,0 0,0 0,0 0,0 0,-1 0,-1 0,-1 0,0 0,0 0,0 0,0 0,-1 0,-1l4 0 0 -6 6 -2 2 0 0 8 8 0c0,0 0,1 0,1 0,0 0,0 0,0 0,0 0,0 0,0 0,0 0,1 0,1 0,0 0,0 0,0 0,0 0,0 0,0 0,0 0,0 0,0 0,0 0,1 0,1 0,0 0,0 0,0 0,0 0,0 0,0l-3 0 -5 0 0 18c0,0 0,0 0,1 0,0 0,0 0,1 0,0 0,0 0,1 0,0 1,0 1,0 0,1 0,2 0,3 0,1 0,2 1,2 0,1 0,1 1,1 0,1 1,1 1,1 0,0 0,0 0,0 0,0 0,0 0,0 1,0 1,0 1,0 1,0 1,0 1,-1l3 0 0 2c-1,1 -1,1 -2,1 0,0 -1,0 -1,1 -1,0 -1,0 -2,0 0,0 -1,0 -1,0l-3 0c-1,0 -2,0 -3,-1 -1,0 -2,-1 -3,-1 0,-1 -1,-2 -1,-3 -1,-1 -1,-3 -1,-4l0 0zm24 8l0 -33 2 0c0,0 0,0 0,0 0,0 1,0 1,0 0,0 0,0 0,0 0,0 0,0 0,0 0,0 0,0 0,0 0,0 0,0 0,0 0,0 0,0 0,0 0,0 1,0 1,0 0,0 0,0 0,0 0,0 0,0 0,0 0,0 0,0 0,0 0,0 0,0 0,0 0,0 1,0 1,0 0,0 0,0 0,0l3 0 0 33 -3 0c0,0 0,0 0,0 0,0 -1,0 -1,0 0,0 0,0 0,0 0,0 0,0 0,0 0,0 0,0 0,0 0,0 0,0 0,0 0,0 0,0 0,0 0,0 0,0 0,0 0,0 -1,0 -1,0 0,0 0,0 -1,0l-2 0zm-1 -45c0,-1 0,-1 0,-2 0,0 1,-1 1,-1 0,0 1,0 1,-1 1,0 1,0 2,0l2 0c1,0 1,0 2,0 0,1 1,1 1,1 0,0 1,1 1,1 0,1 0,1 0,2 0,1 0,1 0,2 0,0 -1,0 -1,1 0,0 -1,0 -1,1 -1,0 -1,0 -2,0l-2 0c-1,0 -1,0 -2,0 0,-1 0,-1 -1,-1 0,-1 -1,-1 -1,-1 0,-1 0,-1 0,-2l0 0zm19 29c0,-2 0,-4 1,-6 1,-3 2,-4 3,-6 2,-2 4,-3 6,-3 2,-1 5,-2 8,-2l3 0c1,0 1,0 2,0 1,0 2,1 2,1 1,0 1,0 2,0 0,0 1,0 1,1 1,0 1,0 1,0 0,0 0,0 0,0 0,0 0,0 0,0 1,0 1,0 1,0 0,0 0,1 0,1 1,0 1,0 1,0l-1 5 -3 0 -1 0c0,-1 -1,-2 -2,-2 0,-1 -1,-1 -2,-2 0,0 -1,0 -1,-1 -1,0 -2,0 -2,0 -2,0 -3,1 -4,1 -1,1 -2,2 -3,3 -1,2 -2,3 -2,5 -1,2 -1,3 -1,5 0,2 0,3 1,5 0,2 1,3 2,5 1,1 2,2 3,3 1,0 3,1 5,1 0,0 1,0 2,0 0,-1 1,-1 1,-1 1,0 2,-1 2,-1 1,-1 2,-1 3,-2l0 0 0 0 3 0 0 0 0 3c-1,1 -2,1 -3,2 -1,0 -2,1 -2,1 -1,0 -2,0 -3,1 -1,0 -2,0 -3,0l-3 0 0 0 0 0c-2,0 -4,-1 -6,-1 -2,-1 -4,-2 -6,-3 -2,-2 -3,-3 -4,-5 -1,-2 -1,-4 -1,-7l0 0 0 0 0 0 0 -1 0 0z"/>
   <path class="fil1" d="M762 365c0,-1 0,-2 0,-2 0,-1 1,-2 1,-3 1,-1 2,-1 3,-2 1,-1 3,-1 4,-2l9 -1c0,0 1,-1 1,-1 1,0 1,0 1,-1 0,0 0,0 1,-1 0,0 0,-1 0,-1 0,0 0,0 0,0 0,0 0,0 0,0 0,-1 0,-1 0,-1 0,0 0,0 0,0 0,0 0,0 0,-1 0,0 -1,0 -1,0 0,-1 0,-2 -1,-2 0,-1 -1,-2 -1,-2 -1,-1 -1,-1 -2,-1 -1,-1 -1,-1 -2,-1 0,0 -1,0 -1,0 0,0 0,0 -1,1 0,0 0,0 -1,0 0,0 -1,1 -1,1 0,0 -1,0 -1,1 0,0 0,0 0,0 -1,0 -1,1 -1,1 0,0 -1,1 -1,1l-3 0 -1 0 0 -4c0,0 1,0 1,0 0,0 0,0 0,0 0,0 0,-1 0,-1 1,0 1,0 1,0 1,0 1,-1 2,-1 1,0 1,0 2,-1 1,0 2,0 3,0 1,-1 2,-1 3,-1l2 0c2,0 4,1 6,1 1,0 2,1 3,2 1,1 2,2 2,3 1,2 1,4 1,6l0 17c0,0 0,0 0,1 0,0 0,0 1,0 0,0 0,0 0,0 0,0 0,0 0,0 0,0 0,0 0,0 0,1 0,1 0,1 0,0 0,0 0,0 0,0 0,-1 0,-1 0,0 0,0 0,0 0,0 0,0 0,0l3 0 0 2c0,0 -1,0 -1,1 0,0 0,0 -1,0 0,0 0,0 0,0 0,0 0,0 0,0 -1,0 -1,0 -1,0 0,0 0,0 0,0l-1 0 -2 0 -1 0c0,0 -1,0 -2,0 0,0 -1,0 -1,-1 -1,0 -1,0 -1,0 0,0 -1,-1 -1,-1 -1,1 -1,1 -2,1 -1,1 -1,1 -2,1 -1,0 -1,1 -2,1 -1,0 -2,0 -2,0l-3 0c-1,0 -3,0 -4,-1 -1,0 -2,-1 -3,-1 -1,-1 -1,-2 -2,-3 0,-1 0,-2 0,-3l0 -1zm20 1l0 -9c-2,1 -4,1 -5,1 -2,1 -3,1 -4,2 -1,0 -2,1 -2,2 -1,1 -1,2 -1,3 0,0 0,0 0,0 0,0 0,1 0,1 0,0 0,0 0,0 0,0 0,1 0,1l0 0 1 0c0,1 0,1 0,2 1,0 1,0 2,1 0,0 0,0 1,0 0,0 1,0 1,1 0,0 0,0 0,0 0,0 0,0 1,0 0,0 0,0 0,-1 0,0 0,0 0,0 0,0 1,0 1,0 0,0 1,0 1,-1 0,0 1,0 1,0 0,0 1,-1 1,-1 0,0 0,0 0,0 0,0 1,-1 1,-1 0,0 0,0 0,0 0,0 0,-1 1,-1l0 0zm39 -26c0,0 1,0 1,0 0,1 1,1 1,1 0,0 0,0 0,0 0,0 0,0 0,0 0,0 0,0 0,0 0,0 0,0 0,0 0,0 1,0 1,0 0,0 0,0 0,0 0,0 0,0 1,-1 0,0 0,0 0,0l3 0c0,1 0,2 1,3 0,1 1,2 1,3 1,2 1,3 2,5 0,1 1,3 2,5 0,0 0,0 0,0 0,0 0,0 0,0 0,0 0,0 0,0 0,1 0,1 0,1 0,0 0,0 1,0 0,1 0,1 0,1 0,0 0,1 0,1 0,0 1,1 1,1 0,0 0,1 0,1 0,0 0,1 1,1 0,0 0,0 0,0 0,0 0,0 0,0 0,0 0,0 0,1 0,0 0,0 0,0 0,0 0,0 0,0 0,0 0,-1 0,-1 0,0 0,0 0,0 0,0 0,0 0,0 0,-1 1,-1 1,-2 0,-1 1,-1 1,-2 0,0 0,-1 0,-1 0,0 1,0 1,-1 0,0 0,0 0,0 0,-1 0,-1 0,-1 1,-2 2,-3 2,-5 1,-1 1,-3 2,-4 0,-1 1,-3 1,-4 0,0 1,-1 1,-2l2 0c1,0 1,0 1,0 0,0 0,1 0,1 1,0 1,-1 1,-1 0,0 0,0 0,0l3 0 -22 51 -3 0c0,0 0,0 0,0 0,0 0,0 0,0 -1,0 -1,0 -1,0 0,-1 0,-1 0,-1 0,0 0,0 0,1 0,0 0,0 0,0 -1,0 -1,0 -1,0 0,0 0,0 0,0l-3 0 9 -19 -14 -32 3 0zm61 33l0 -53 3 0c0,0 1,0 1,1 0,0 0,0 1,0 0,0 0,0 0,0 0,0 0,0 0,0 0,0 0,0 0,0 0,0 0,0 0,0 0,0 0,0 0,0 0,0 0,0 0,0 0,0 0,0 0,0 0,0 0,0 0,0 0,0 0,0 0,0 1,-1 1,-1 1,-1l3 0 0 53 -3 0c0,0 0,0 0,0 0,0 0,0 0,0 0,0 -1,0 -1,0 0,0 0,0 0,0 0,0 0,0 0,0 0,0 0,0 0,0 0,0 0,0 0,0 0,0 0,0 0,0 0,0 0,0 0,0 0,0 0,0 0,0 -1,0 -1,0 -1,0 0,0 -1,0 -1,0l-3 0zm19 -8c0,-1 0,-2 0,-2 1,-1 1,-2 2,-3 0,-1 1,-1 2,-2 1,-1 3,-1 4,-2l9 -1c0,0 1,-1 1,-1 1,0 1,0 1,-1 0,0 1,0 1,-1 0,0 0,-1 0,-1 0,0 0,0 0,0 0,0 0,0 0,0 0,-1 0,-1 0,-1 0,0 0,0 0,0 0,0 0,0 0,-1 0,0 0,0 0,0 -1,-1 -1,-2 -1,-2 -1,-1 -1,-2 -2,-2 -1,-1 -1,-1 -2,-1 0,-1 -1,-1 -2,-1 0,0 0,0 -1,0 0,0 0,0 -1,1 0,0 0,0 -1,0 0,0 -1,1 -1,1 0,0 0,0 -1,1 0,0 0,0 0,0 -1,0 -1,1 -1,1 0,0 -1,1 -1,1l-3 0 -1 0 0 -4c1,0 1,0 1,0 0,0 0,0 0,0 0,0 0,-1 1,-1 0,0 0,0 0,0 1,0 1,-1 2,-1 1,0 2,0 2,-1 1,0 2,0 3,0 1,-1 2,-1 3,-1l2 0c2,0 4,1 6,1 1,0 2,1 3,2 1,1 2,2 3,3 0,2 0,4 0,6l0 17c0,0 0,0 0,1 0,0 1,0 1,0 0,0 0,0 0,0 0,0 0,0 0,0 0,0 0,0 0,0 0,1 0,1 0,1 0,0 0,0 0,0 0,0 0,-1 0,-1 0,0 0,0 0,0 0,0 0,0 0,0l3 0 0 2c0,0 0,0 -1,1 0,0 0,0 0,0 -1,0 -1,0 -1,0 0,0 0,0 0,0 0,0 -1,0 -1,0 0,0 0,0 0,0l-1 0 -2 0 -1 0c0,0 -1,0 -2,0 0,0 -1,0 -1,-1 -1,0 -1,0 -1,0 0,0 -1,-1 -1,-1 0,1 -1,1 -2,1 0,1 -1,1 -2,1 0,0 -1,1 -2,1 -1,0 -1,0 -2,0l-3 0c-1,0 -2,0 -4,-1 -1,0 -2,-1 -3,-1 0,-1 -1,-2 -2,-3 0,-1 0,-2 0,-3l0 -1zm20 1l0 -9c-2,1 -4,1 -5,1 -1,1 -3,1 -3,2 -2,0 -2,1 -3,2 -1,1 -1,2 -1,3 0,0 0,0 0,0 0,0 0,1 0,1 0,0 0,0 0,0 0,0 0,1 0,1l0 0 1 0c0,1 0,1 1,2 0,0 0,0 1,1 0,0 1,0 1,0 0,0 1,0 1,1 0,0 0,0 0,0 1,0 1,0 1,0 0,0 0,0 0,-1 0,0 0,0 0,0 0,0 1,0 1,0 0,0 1,0 1,-1 0,0 1,0 1,0 0,0 1,-1 1,-1 0,0 0,0 0,0 1,0 1,-1 1,-1 0,0 0,0 0,0 0,0 1,-1 1,-1l0 0zm17 -16c0,-2 0,-3 1,-5 0,-1 1,-2 3,-3 1,-1 2,-1 3,-2 2,0 3,0 5,-1l2 0c1,0 1,0 1,1 1,0 1,0 1,0 1,0 1,0 1,0 1,0 1,0 1,0 1,0 2,0 2,1 1,0 1,0 2,0l-2 6 -2 0 -1 0c-1,-1 -1,-2 -1,-2 -1,-1 -1,-1 -2,-1 0,-1 0,-1 -1,-1 0,0 -1,0 -1,-1 -1,1 -1,1 -1,1 -1,0 -1,0 -1,0 -1,1 -1,1 -2,2 0,0 0,1 -1,2l0 0 0 0 0 1 0 0c0,1 1,1 1,2 0,1 1,1 1,2 1,0 2,0 3,1 0,0 1,0 2,1 0,0 0,0 0,0 0,0 0,0 1,0 0,0 0,0 0,0 0,0 0,0 0,0 0,0 0,0 1,0 0,0 0,0 0,0 0,0 0,0 0,1 0,0 0,0 1,0 0,0 0,0 0,0 0,0 0,0 0,0 1,0 2,1 3,1 1,1 2,2 2,2 1,1 1,2 2,3 0,0 0,1 0,2l0 0 0 0c0,2 0,3 -1,4 0,1 -1,2 -3,3 -1,1 -2,2 -3,3 -2,0 -3,1 -5,1l-3 0c-1,0 -2,-1 -3,-1 -1,0 -1,0 -2,0 -1,0 -2,0 -3,-1 0,0 -1,0 -2,-1l2 -5 3 0 1 0c0,1 1,1 1,2 0,0 1,1 1,1 1,0 1,1 1,1 1,0 1,1 2,1 0,0 0,0 0,0 0,0 0,0 0,0 0,0 0,0 0,0 1,0 1,0 1,0 0,0 1,0 1,-1 1,0 1,0 2,-1 0,0 1,-1 1,-1 1,-1 1,-2 1,-2l0 -1 0 0c0,-1 0,-2 -1,-3 0,0 -1,-1 -1,-1 -1,-1 -2,-1 -3,-1 0,0 -1,-1 -2,-1l0 0 -1 0c0,0 0,0 0,0 0,0 0,0 0,0 0,0 -1,0 -1,0 0,0 0,0 0,-1 0,0 0,0 0,0 0,0 0,0 -1,0 0,0 0,0 0,0 0,0 0,0 0,0 -1,0 -2,-1 -2,-1 -1,0 -2,-1 -2,-2 -1,0 -1,-1 -2,-2 0,-1 0,-2 0,-3l0 0zm50 0c0,-3 1,-6 2,-9 1,-3 3,-6 5,-8 2,-2 5,-4 8,-5 3,-2 6,-2 10,-2l3 0c0,0 1,0 1,0 0,0 0,0 0,0 1,0 1,0 1,0 0,0 1,0 1,0 0,0 1,0 1,0 1,0 1,0 2,0 1,0 2,0 3,0 1,0 1,1 2,1 1,0 2,0 3,1 1,0 2,1 2,1l-1 5 -3 0 -1 0c0,-1 -1,-1 -2,-2 -1,0 -2,-1 -3,-1 -1,-1 -2,-1 -3,-2 -1,0 -1,0 -2,0 -1,0 -1,0 -1,0 0,0 -1,0 -1,0 0,0 0,0 0,0 0,0 0,0 0,0 0,0 0,0 0,0 0,0 0,0 0,0 -2,0 -4,0 -6,1 -2,1 -4,2 -6,4 -1,2 -3,4 -4,6 -1,3 -1,6 -1,9l0 0 0 1c0,4 0,7 1,10 1,3 3,5 5,6 2,2 3,3 5,4 2,1 4,1 6,1 2,0 3,0 4,0 1,0 2,-1 3,-1 1,-1 3,-1 4,-2 1,0 2,-1 2,-2l3 0 0 4c-1,1 -1,1 -1,1 -1,0 -1,0 -1,0 -1,1 -1,1 -1,1 0,0 -1,0 -1,0 -1,1 -1,1 -2,1 0,0 -1,0 -1,0 0,0 0,0 -1,0 0,0 0,1 0,1 -1,0 -1,0 -2,0 -1,0 -1,0 -2,0 0,0 -1,1 -2,1 0,0 -1,0 -2,0l-2 0c-4,0 -7,-1 -10,-2 -2,-1 -5,-3 -8,-5 -2,-2 -4,-5 -5,-8 -1,-3 -2,-6 -2,-10l0 0zm47 8c0,-3 1,-5 2,-7 0,-2 2,-4 3,-6 2,-2 4,-3 6,-4 2,-1 5,-1 7,-1l3 0c2,0 4,0 5,1 2,0 3,1 4,2 1,1 2,2 3,3 1,1 2,2 2,3 1,1 1,2 1,2 0,1 1,2 1,3 0,0 0,1 0,2 0,0 0,1 0,1 0,0 0,1 0,1 0,1 0,1 0,2 0,0 0,0 0,1 0,0 -1,1 -1,1 0,2 -1,3 -2,4 -1,2 -2,3 -3,4 -1,1 -3,2 -5,3 -1,0 -3,1 -6,1l-2 0c0,0 -1,0 -1,0 0,0 0,0 0,0 0,0 0,0 0,0 0,0 0,0 0,0 0,0 0,0 0,0 0,0 0,0 0,0 -3,0 -5,-1 -7,-2 -2,0 -4,-1 -5,-3 -2,-1 -3,-3 -3,-5 -1,-2 -2,-4 -2,-6l0 0zm10 0c0,1 0,1 0,2 0,0 0,1 0,1 0,1 0,1 0,2 0,0 1,1 1,2 0,0 1,1 1,2 1,1 1,2 2,2 0,1 1,1 2,2 1,0 2,0 3,0 1,0 2,0 3,-1 1,0 2,-1 3,-2 1,-1 1,-3 2,-5 0,-1 1,-4 1,-6 0,-2 0,-4 -1,-6 0,-2 -1,-3 -2,-5 0,-1 -1,-2 -2,-2 -1,-1 -3,-1 -4,-2 -1,1 -3,1 -4,2 -1,1 -2,2 -2,3 -1,1 -2,3 -3,4 0,2 0,3 0,5 0,0 0,0 0,0 0,1 0,1 0,1l0 0c0,0 0,0 0,0 0,0 0,0 0,0 0,1 0,1 0,1 0,0 0,0 0,0 0,0 0,0 0,0 0,0 0,0 0,1l-3 -1 0 0 3 0z"/>
   <path class="fil1" d="M1079 373l0 -33 3 0 0 0 1 0c0,0 0,0 0,0 0,0 0,0 0,0 0,0 0,0 0,0 0,0 0,0 0,0 0,0 0,0 1,0 0,0 0,0 0,0l3 0 0 2c0,0 1,0 1,-1 0,0 1,0 1,0 1,-1 2,-1 2,-1 1,-1 2,-1 3,-1l3 0c1,0 2,0 3,0 1,1 2,1 2,1 1,0 2,1 2,1 1,1 2,1 2,2 0,0 0,0 0,0 1,1 1,1 1,1 0,-1 1,-1 1,-2 1,0 1,-1 2,-1 1,-1 2,-1 3,-1 1,-1 2,-1 3,-1l3 0c2,0 3,0 5,1 1,0 2,1 3,2 1,1 2,2 2,3 1,2 1,3 1,4l0 0 0 0 0 1 0 0 0 0 0 0 0 23 -2 0c-1,0 -1,0 -1,0 0,0 0,0 0,0 0,0 0,0 0,0 -1,0 -1,0 -1,0 0,0 0,0 0,0 0,0 0,0 0,0 0,0 0,0 0,0 0,0 0,0 0,0 0,0 0,0 0,0 0,0 0,0 0,0 0,0 -1,0 -1,0 0,0 0,0 -1,0l-2 0 0 -22c0,-1 -1,-2 -1,-3 0,-1 -1,-2 -2,-3 0,0 -1,-1 -2,-1 0,0 -1,-1 -2,-1 0,0 -1,1 -2,1 0,0 -1,1 -2,1 0,1 -1,2 -1,3 -1,1 -1,3 -1,4l0 21 -3 0c0,0 0,0 0,0 0,0 -1,0 -1,0 0,0 0,0 0,0 0,0 0,0 0,0 0,0 0,0 0,0 0,0 0,0 0,0 0,0 0,0 0,0 0,0 0,0 0,0 0,0 0,0 0,0 0,0 0,0 0,0 -1,0 -1,0 -1,0 0,0 0,0 -1,0l-2 0 0 -22c0,-1 -1,-2 -1,-3 0,-1 -1,-2 -2,-2 0,-1 -1,-1 -2,-2 -1,0 -1,0 -2,-1 -1,1 -1,1 -2,1 -1,0 -1,1 -2,1 -1,1 -1,2 -2,3 0,1 0,3 0,4l0 21 -3 0c0,0 0,0 0,0 0,0 0,0 -1,0 0,0 0,0 0,0 0,0 0,0 0,0 0,0 0,0 0,0 0,0 0,0 0,0 0,0 0,0 0,0 0,0 0,0 0,0 0,0 0,0 0,0 0,0 0,0 -1,0 0,0 0,0 0,0 -1,0 -1,0 -1,0l-3 0zm60 -12l0 -21 3 0c0,0 0,0 0,0 0,1 1,1 1,1 0,0 0,0 0,0 0,0 0,0 0,0 0,0 0,0 0,0 0,0 0,0 0,0 1,0 1,0 1,-1 0,0 1,0 1,0l3 0 0 20c0,1 0,2 0,4 0,1 1,2 1,3 1,1 2,2 2,2 1,1 2,1 3,1 1,0 2,0 3,-1 1,0 1,-1 2,-1 1,-1 1,-2 1,-3 1,-1 1,-2 1,-3 0,0 0,0 0,0 0,0 0,0 0,0 0,0 0,0 0,0 0,0 0,0 0,-1 0,0 0,0 0,0 0,0 0,0 0,0 0,0 0,0 0,0 0,0 0,0 0,0l0 -21 3 0c0,0 0,0 0,0 0,0 0,0 0,0 0,0 0,0 0,0 0,0 0,0 0,0 0,0 0,1 0,1 1,0 1,0 1,0 0,0 0,0 0,0 0,0 0,0 0,0 0,0 0,0 0,0 0,0 0,0 0,0 0,0 0,0 0,0 0,0 0,0 0,0 1,0 1,0 1,-1 0,0 1,0 1,0l3 0 0 33 -3 0c0,0 -1,0 -1,0 0,0 0,0 0,0 0,0 0,0 0,0 0,0 0,0 0,0 0,0 0,0 0,0 -1,0 -1,0 -1,0 0,0 0,0 0,0 0,0 0,0 0,0 0,0 0,0 0,0 -1,0 -1,0 -1,0l-3 0 0 -2c0,1 -1,1 -1,1 0,0 -1,0 -1,1 -1,0 -2,0 -3,0 -1,0 -2,1 -4,1l-2 0c-2,0 -4,-1 -5,-1 -1,0 -2,-1 -3,-2 -1,-1 -1,-1 -2,-2 0,-1 0,-2 -1,-3 0,0 0,0 0,-1 0,0 0,0 0,0 0,0 0,-1 0,-1 0,0 0,0 0,0 0,-1 0,-1 0,-2 0,0 0,0 0,-1l0 0zm42 12l0 -33 3 0c0,0 0,0 0,0 0,0 1,0 1,0 0,0 0,0 0,0 0,0 0,0 0,0 0,0 0,0 0,0 0,0 0,0 0,0 0,0 0,0 0,0 0,0 0,0 0,0 0,0 0,0 0,0 0,0 0,0 0,0 1,0 1,0 1,0 0,0 1,0 1,0l3 0 0 2c0,0 0,0 1,-1 0,0 1,0 1,-1 1,0 2,0 3,0 1,-1 2,-1 3,-1l3 0 0 0 0 0c1,0 3,1 4,1 1,1 2,1 3,2 1,2 2,3 3,5 0,2 1,4 1,6l0 20 -3 0c0,0 0,0 0,0 0,0 -1,0 -1,0 0,0 0,0 0,0 0,0 0,0 0,0 0,0 0,0 0,0 0,0 0,0 0,0 0,0 0,0 0,0 0,0 0,0 0,0 0,0 0,0 0,0 0,0 0,0 0,0 -1,0 -1,0 -1,0 -1,0 -1,0 -1,0l-3 0 0 -20c0,-1 0,-3 -1,-4 0,-1 -1,-2 -1,-3 -1,-1 -2,-1 -2,-2 -1,0 -2,0 -2,0 -1,0 -2,0 -3,1 -1,0 -1,1 -2,1 -1,1 -1,2 -2,4 0,1 0,3 0,4l0 19 -3 0c0,0 -1,0 -1,0 0,0 0,0 -1,0 0,0 0,0 0,0 0,0 0,0 0,0 0,0 0,0 0,0 0,0 0,0 0,0 0,0 0,0 0,0 0,0 0,0 0,0 0,0 0,0 0,0 0,0 0,0 -1,0 0,0 0,0 0,0 0,0 0,0 0,0l-3 0zm41 0l0 -33 3 0c0,0 0,0 0,0 0,0 0,0 0,0 0,0 0,0 0,0 1,0 1,0 1,0 0,0 0,0 0,0 0,0 0,0 0,0 0,0 0,0 0,0 0,0 0,0 0,0 0,0 1,0 1,0 0,0 0,0 0,0 0,0 0,0 0,0 0,0 0,0 0,0 0,0 0,0 1,0 0,0 0,0 0,0l3 0 0 33 -3 0c0,0 0,0 0,0 -1,0 -1,0 -1,0 0,0 0,0 0,0 0,0 0,0 0,0 0,0 0,0 0,0 0,0 0,0 0,0 0,0 0,0 0,0 0,0 0,0 0,0 0,0 -1,0 -1,0 0,0 -1,0 -1,0l-3 0zm0 -45c0,-1 0,-1 0,-2 0,0 1,-1 1,-1 0,0 1,0 1,-1 1,0 1,0 1,0l3 0c1,0 1,0 2,0 0,1 0,1 1,1 0,0 1,1 1,1 0,1 0,1 0,2 0,1 0,1 0,2 -1,0 -1,0 -1,1 -1,0 -1,0 -1,1 -1,0 -1,0 -2,0l-2 0c-1,0 -1,0 -2,0 0,-1 -1,-1 -1,-1 0,-1 -1,-1 -1,-1 0,-1 0,-1 0,-2l0 0zm19 29c0,-2 0,-4 1,-6 1,-3 2,-4 3,-6 2,-2 4,-3 6,-3 2,-1 5,-2 8,-2l3 0c1,0 1,0 2,0 1,0 1,1 2,1 1,0 1,0 2,0 0,0 1,0 1,1 0,0 0,0 1,0 0,0 0,0 0,0 0,0 0,0 0,0 0,0 0,0 1,0 0,0 0,1 0,1 0,0 1,0 1,0l-1 5 -3 0 -1 0c0,-1 -1,-2 -2,-2 0,-1 -1,-1 -2,-2 0,0 -1,0 -2,-1 0,0 -1,0 -2,0 -1,0 -2,1 -3,1 -2,1 -3,2 -3,3 -1,2 -2,3 -2,5 -1,2 -1,3 -1,5 0,2 0,3 1,5 0,2 1,3 2,5 1,1 2,2 3,3 1,0 3,1 4,1 1,0 2,0 2,0 1,-1 2,-1 2,-1 1,0 2,-1 2,-1 1,-1 2,-1 2,-2l1 0 0 0 2 0 1 0 -1 3c0,1 -1,1 -2,2 -1,0 -2,1 -3,1 -1,0 -2,0 -2,1 -1,0 -2,0 -3,0l-3 0 0 0 0 0c-3,0 -5,-1 -7,-1 -1,-1 -3,-2 -5,-3 -2,-2 -3,-3 -4,-5 -1,-2 -1,-4 -1,-7l0 0 0 0 0 0 0 -1 0 0zm37 8c0,-1 1,-2 1,-2 0,-1 1,-2 1,-3 1,-1 2,-1 3,-2 1,-1 2,-1 4,-2l9 -1c0,0 1,-1 1,-1 0,0 1,0 1,-1 0,0 0,0 0,-1 1,0 1,-1 1,-1 0,0 0,0 0,0 0,0 0,0 0,0 0,-1 0,-1 0,-1 0,0 0,0 0,0 -1,0 -1,0 -1,-1 0,0 0,0 0,0 0,-1 0,-2 -1,-2 0,-1 -1,-2 -1,-2 -1,-1 -1,-1 -2,-1 -1,-1 -1,-1 -2,-1 0,0 -1,0 -1,0 0,0 -1,0 -1,1 0,0 -1,0 -1,0 0,0 -1,1 -1,1 0,0 -1,0 -1,1 0,0 0,0 -1,0 0,0 0,1 0,1 -1,0 -1,1 -1,1l-3 0 -1 0 0 -4c0,0 0,0 1,0 0,0 0,0 0,0 0,0 0,-1 0,-1 0,0 1,0 1,0 0,0 1,-1 2,-1 0,0 1,0 2,-1 1,0 2,0 3,0 1,-1 1,-1 2,-1l3 0c2,0 4,1 5,1 2,0 3,1 4,2 1,1 2,2 2,3 1,2 1,4 1,6l0 17c0,0 0,0 0,1 0,0 0,0 0,0 1,0 1,0 1,0 0,0 0,0 0,0 0,0 0,0 0,0 0,1 0,1 0,1 0,0 0,0 0,0 0,0 0,-1 0,-1 0,0 0,0 0,0 0,0 0,0 0,0l3 0 0 2c0,0 -1,0 -1,1 0,0 0,0 -1,0 0,0 0,0 0,0 0,0 0,0 -1,0 0,0 0,0 0,0 0,0 0,0 0,0l-1 0 -3 0 0 0c-1,0 -1,0 -2,0 0,0 -1,0 -2,-1 0,0 0,0 0,0 -1,0 -1,-1 -1,-1 -1,1 -1,1 -2,1 -1,1 -1,1 -2,1 -1,0 -1,1 -2,1 -1,0 -2,0 -2,0l-3 0c-1,0 -3,0 -4,-1 -1,0 -2,-1 -3,-1 -1,-1 -1,-2 -2,-3 0,-1 -1,-2 -1,-3l0 -1zm20 1l0 -9c-1,1 -3,1 -4,1 -2,1 -3,1 -4,2 -1,0 -2,1 -2,2 -1,1 -1,2 -1,3 0,0 0,0 0,0 0,0 0,1 0,1 0,0 0,0 0,0 0,0 0,1 0,1l0 0 0 0c1,1 1,1 1,2 1,0 1,0 2,1 0,0 0,0 1,0 0,0 1,0 1,1 0,0 0,0 0,0 0,0 0,0 0,0 0,0 0,0 1,-1 0,0 0,0 0,0 0,0 0,0 1,0 0,0 1,0 1,-1 0,0 0,0 1,0 0,0 0,-1 1,-1 0,0 0,0 0,0 0,0 0,-1 1,-1 0,0 0,0 0,0 0,0 0,-1 0,-1l0 0zm17 -9c0,-2 0,-4 1,-6 1,-3 2,-4 4,-6 1,-2 3,-3 5,-3 3,-1 5,-2 8,-2l3 0c1,0 2,0 2,0 1,0 2,1 2,1 1,0 1,0 2,0 1,0 1,0 2,1 0,0 0,0 0,0 0,0 0,0 0,0 0,0 1,0 1,0 0,0 0,0 0,0 0,0 0,1 1,1 0,0 0,0 0,0l-1 5 -2 0 -2 0c0,-1 -1,-2 -1,-2 -1,-1 -2,-1 -2,-2 -1,0 -2,0 -2,-1 -1,0 -1,0 -2,0 -2,0 -3,1 -4,1 -1,1 -2,2 -3,3 -1,2 -2,3 -2,5 0,2 -1,3 -1,5 0,2 1,3 1,5 0,2 1,3 2,5 1,1 2,2 3,3 2,0 3,1 5,1 0,0 1,0 2,0 0,-1 1,-1 2,-1 0,0 1,-1 2,-1 0,-1 1,-1 2,-2l0 0 0 0 3 0 0 0 0 3c-1,1 -2,1 -3,2 0,0 -1,1 -2,1 -1,0 -2,0 -3,1 -1,0 -2,0 -3,0l-3 0 0 0 0 0c-2,0 -4,-1 -6,-1 -2,-1 -4,-2 -6,-3 -1,-2 -3,-3 -4,-5 0,-2 -1,-4 -1,-7l0 0 0 0 0 0 0 -1 0 0zm41 16l0 -33 2 0c0,0 0,0 0,0 0,0 0,0 1,0 0,0 0,0 0,0 0,0 0,0 0,0 0,0 0,0 0,0 0,0 0,0 0,0 0,0 0,0 0,0 0,0 1,0 1,0 0,0 0,0 0,0 0,0 0,0 0,0 0,0 0,0 0,0 0,0 0,0 0,0 0,0 1,0 1,0 0,0 0,0 0,0l3 0 0 33 -3 0c0,0 0,0 0,0 0,0 -1,0 -1,0 0,0 0,0 0,0 0,0 0,0 0,0 0,0 0,0 0,0 0,0 0,0 0,0 0,0 0,0 0,0 0,0 0,0 0,0 0,0 -1,0 -1,0 0,0 0,0 -1,0l-2 0zm-1 -45c0,-1 0,-1 0,-2 0,0 1,-1 1,-1 0,0 1,0 1,-1 1,0 1,0 2,0l2 0c1,0 1,0 2,0 0,1 1,1 1,1 0,0 1,1 1,1 0,1 0,1 0,2 0,1 0,1 0,2 0,0 -1,0 -1,1 0,0 -1,0 -1,1 -1,0 -1,0 -2,0l-2 0c-1,0 -1,0 -2,0 0,-1 0,-1 -1,-1 0,-1 -1,-1 -1,-1 0,-1 0,-1 0,-2l0 0zm18 30c0,-3 0,-5 1,-7 1,-2 2,-4 4,-6 1,-2 3,-3 5,-4 2,-1 5,-1 8,-1l2 0c2,0 4,0 6,1 1,0 3,1 4,2 1,1 2,2 3,3 0,1 1,2 2,3 0,1 0,2 0,2 1,1 1,2 1,3 0,0 0,1 0,2 0,0 0,1 0,1 0,0 0,1 0,1 0,1 0,1 0,2 0,0 0,0 0,1 0,0 0,1 0,1 -1,2 -1,3 -2,4 -1,2 -2,3 -4,4 -1,1 -2,2 -4,3 -2,0 -4,1 -6,1l-3 0c0,0 0,0 0,0 0,0 0,0 -1,0 0,0 0,0 0,0 0,0 0,0 0,0 0,0 0,0 0,0 0,0 0,0 0,0 -3,0 -5,-1 -7,-2 -2,0 -4,-1 -5,-3 -1,-1 -2,-3 -3,-5 -1,-2 -1,-4 -1,-6l0 0zm9 0c0,1 0,1 0,2 0,0 0,1 0,1 0,1 0,1 1,2 0,0 0,1 0,2 0,0 1,1 1,2 1,1 1,2 2,2 1,1 1,1 2,2 1,0 2,0 3,0 1,0 2,0 3,-1 1,0 2,-1 3,-2 1,-1 2,-3 2,-5 1,-1 1,-4 1,-6 0,-2 0,-4 0,-6 -1,-2 -1,-3 -2,-5 -1,-1 -2,-2 -3,-2 -1,-1 -2,-1 -4,-2 -1,1 -2,1 -3,2 -1,1 -2,2 -3,3 -1,1 -2,3 -2,4 -1,2 -1,3 -1,5 0,0 0,0 0,0 0,1 0,1 0,1l0 0c0,0 0,0 0,0 0,0 0,0 0,0 0,1 0,1 0,1 0,0 0,0 0,0 0,0 0,0 0,0 0,0 0,0 0,1l-3 -1 0 0 3 0z"/>
   <path class="fil1" d="M1418 373l0 -33 2 0c0,0 1,0 1,0 0,0 0,0 0,0 0,0 0,0 0,0 1,0 1,0 1,0 0,0 0,0 0,0 0,0 0,0 0,0 0,0 0,0 0,0 0,0 0,0 0,0 0,0 0,0 0,0 0,0 0,0 0,0 0,0 0,0 1,0 0,0 0,0 0,0l3 0 0 2c1,0 1,0 1,-1 1,0 1,0 2,-1 1,0 2,0 3,0 1,-1 2,-1 3,-1l2 0 1 0 0 0c1,0 2,1 3,1 2,1 3,1 4,2 1,2 2,3 2,5 1,2 1,4 1,6l0 20 -3 0c0,0 0,0 0,0 0,0 0,0 0,0 0,0 0,0 0,0 -1,0 -1,0 -1,0 0,0 0,0 0,0 0,0 0,0 0,0 0,0 0,0 0,0 0,0 0,0 0,0 0,0 0,0 0,0 0,0 0,0 0,0 0,0 0,0 -1,0 0,0 0,0 -1,0l-2 0 0 -20c0,-1 -1,-3 -1,-4 0,-1 -1,-2 -2,-3 0,-1 -1,-1 -2,-2 0,0 -1,0 -2,0 -1,0 -1,0 -2,1 -1,0 -2,1 -2,1 -1,1 -2,2 -2,4 -1,1 -1,3 -1,4l0 19 -3 0c0,0 0,0 0,0 -1,0 -1,0 -1,0 0,0 0,0 0,0 0,0 0,0 0,0 0,0 0,0 0,0 0,0 0,0 0,0 0,0 0,0 0,0 0,0 0,0 0,0 0,0 0,0 -1,0 0,0 0,0 0,0 0,0 0,0 0,0 0,0 -1,0 -1,0l-2 0zm37 -15c0,-3 1,-6 1,-8 1,-2 2,-4 4,-5 1,-2 3,-3 5,-4 2,0 4,-1 6,-1l3 0c1,0 3,1 5,1 1,1 2,1 3,2 1,1 2,2 3,3 1,1 1,2 2,3 0,1 0,1 0,2 0,0 0,1 0,1 1,1 1,1 1,2 0,0 0,0 0,1 0,0 0,0 0,0 0,0 0,0 0,0 0,1 0,1 0,1 0,0 0,0 0,0 0,0 0,0 0,1 0,0 0,0 0,0l-3 0 -21 0c0,2 1,4 1,5 0,2 1,4 2,5 1,1 2,2 3,2 1,1 3,1 5,1 0,0 1,0 2,0 1,0 1,0 2,-1 1,0 2,-1 2,-1 1,-1 2,-1 2,-2l3 0 0 4 0 0 0 0 0 0 -1 1c0,0 -1,1 -2,1 -1,0 -1,1 -2,1 -1,0 -2,1 -3,1 -1,0 -2,0 -4,0l-3 0c-2,0 -5,-1 -7,-1 -2,-1 -4,-2 -5,-4 -1,-2 -2,-3 -3,-5 0,-2 -1,-4 -1,-6l0 0zm24 -4c0,0 0,0 0,0 0,0 0,0 0,-1 0,0 0,0 0,0 0,0 0,0 0,0 0,0 0,0 0,0 0,0 0,0 0,0 0,-1 0,-3 0,-4 -1,-1 -1,-2 -2,-3 0,-1 -1,-2 -2,-2 -1,-1 -2,-1 -3,-1 -1,0 -1,0 -2,1 -1,0 -2,1 -2,2 -1,0 -2,1 -2,2 -1,1 -1,2 -1,3 0,0 0,1 0,1 0,0 0,0 -1,1 0,0 0,0 0,1 0,0 0,0 0,0l15 0zm14 -4c0,-2 1,-3 1,-5 1,-1 2,-2 3,-3 1,-1 3,-1 4,-2 1,0 3,0 4,-1l3 0c0,0 1,0 1,1 0,0 1,0 1,0 0,0 1,0 1,0 0,0 1,0 1,0 1,0 1,0 2,1 0,0 1,0 2,0l-2 6 -3 0 -1 0c0,-1 0,-2 -1,-2 0,-1 -1,-1 -1,-1 -1,-1 -1,-1 -1,-1 -1,0 -1,0 -2,-1 0,1 0,1 -1,1 0,0 0,0 -1,0 0,1 -1,1 -1,2 -1,0 -1,1 -1,2l0 0 0 0 0 1 0 0c0,1 0,1 0,2 1,1 1,1 2,2 1,0 1,0 2,1 1,0 2,0 3,1 0,0 0,0 0,0 0,0 0,0 0,0 0,0 0,0 0,0 0,0 0,0 1,0 0,0 0,0 0,0 0,0 0,0 1,0 0,0 0,0 0,1 0,0 0,0 0,0 0,0 0,0 0,0 1,0 1,0 1,0 1,0 2,1 3,1 1,1 1,2 2,2 1,1 1,2 1,3 0,0 1,1 1,2l0 0 0 0c0,2 -1,3 -1,4 -1,1 -2,2 -3,3 -1,1 -2,2 -4,3 -1,0 -3,1 -5,1l-2 0c-1,0 -2,-1 -3,-1 -1,0 -2,0 -3,0 -1,0 -2,0 -2,-1 -1,0 -2,0 -2,-1l2 -5 2 0 1 0c1,1 1,1 1,2 1,0 1,1 2,1 0,0 1,1 1,1 0,0 1,1 1,1 0,0 0,0 1,0 0,0 0,0 0,0 0,0 0,0 0,0 0,0 0,0 0,0 1,0 1,0 2,-1 0,0 1,0 1,-1 1,0 1,-1 2,-1 0,-1 0,-2 1,-2l0 -1 0 0c-1,-1 -1,-2 -1,-3 -1,0 -1,-1 -2,-1 -1,-1 -1,-1 -2,-1 -1,0 -2,-1 -3,-1l0 0 0 0c0,0 0,0 -1,0 0,0 0,0 0,0 0,0 0,0 0,0 0,0 0,0 0,-1 -1,0 -1,0 -1,0 0,0 0,0 0,0 0,0 0,0 0,0 0,0 -1,0 -1,0 0,0 -1,-1 -2,-1 -1,0 -1,-1 -2,-2 0,0 -1,-1 -1,-2 0,-1 -1,-2 -1,-3l0 0z"/>
  </g>
 </g>
</svg>
