<?xml version="1.0" encoding="UTF-8"?>
<!DOCTYPE svg PUBLIC "-//W3C//DTD SVG 1.1//EN" "http://www.w3.org/Graphics/SVG/1.1/DTD/svg11.dtd">
<!-- Creator: CorelDRAW X7 -->
<svg xmlns="http://www.w3.org/2000/svg" xml:space="preserve" width="44.2699mm" height="33.5084mm" version="1.1" style="shape-rendering:geometricPrecision; text-rendering:geometricPrecision; image-rendering:optimizeQuality; fill-rule:evenodd; clip-rule:evenodd"
viewBox="0 0 1346 1018"
 xmlns:xlink="http://www.w3.org/1999/xlink">
 <defs>
  <style type="text/css">
   <![CDATA[
    .fil1 {fill:#FEFEFE}
    .fil0 {fill:#FEFEFE;fill-rule:nonzero}
   ]]>
  </style>
 </defs>
 <g id="Capa_x0020_1">
  <metadata id="CorelCorpID_0Corel-Layer"/>
  <g id="_2323502164016">
   <g>
    <path class="fil0" d="M233 876c0,-7 1,-12 4,-16 2,-4 5,-7 8,-9 4,-3 7,-4 11,-5 3,-1 6,-1 10,-1 2,0 5,0 7,0 3,1 5,1 8,2 2,1 5,2 7,3l-3 7c0,0 -1,0 -2,-2 -2,-1 -3,-2 -5,-3 -1,-1 -3,-2 -5,-2 -2,-1 -4,-1 -7,-1 -4,0 -7,1 -11,2 -3,2 -7,4 -9,8 -3,4 -4,9 -5,14 0,1 0,1 0,2 0,4 1,8 2,11 1,4 3,6 5,9 2,2 5,4 8,6 3,1 6,2 10,2 3,0 6,-1 8,-1 3,-1 5,-2 6,-3l0 -22c1,1 2,1 4,1 1,0 2,0 3,-1l0 25c-2,1 -5,2 -10,3 -5,1 -9,1 -12,1 0,0 0,0 -1,0 0,0 0,0 0,0 -5,0 -9,-1 -13,-2 -4,-2 -7,-4 -10,-6 -3,-3 -5,-6 -6,-10 -2,-3 -2,-8 -2,-12zm68 29l0 -41c1,0 2,1 3,1 1,0 2,-1 3,-1l0 8c1,-2 2,-3 3,-4 1,-2 3,-3 4,-4 2,0 3,-1 5,-1 0,0 1,0 2,0l-1 8c-2,-1 -3,-1 -5,-1 -1,0 -3,1 -4,2 -1,1 -2,2 -3,4 0,2 -1,3 -1,5l0 24c-1,-1 -2,-1 -3,-1 -1,0 -2,0 -3,1zm26 -15l0 -26c1,0 2,1 4,1 1,0 2,-1 3,-1l0 24c0,2 1,5 2,7 0,2 1,3 3,5 1,1 3,1 5,1 1,0 1,0 1,0 3,0 6,-1 7,-4 2,-2 2,-5 2,-8l0 -25c2,0 3,1 4,1 2,0 3,-1 4,-1l0 41c-1,-1 -2,-1 -4,-1 -1,0 -2,0 -4,1l0 -6c-1,2 -3,4 -5,5 -2,1 -5,1 -9,1 -5,0 -9,-1 -10,-4 -2,-3 -3,-7 -3,-11zm47 -26c1,0 2,1 4,1 1,0 2,-1 3,-1l0 9c1,-4 3,-6 6,-7 2,-2 5,-3 8,-3 3,0 6,1 9,3 3,1 5,3 6,7 2,3 2,7 2,12 0,2 0,5 -1,7 -1,3 -2,5 -3,7 -2,2 -3,3 -6,5 -2,1 -4,1 -7,1 0,0 -1,0 -1,0 0,0 0,0 0,0 -4,0 -6,0 -8,-2 -2,-1 -4,-3 -5,-6l0 30c-1,-1 -2,-1 -3,-1 -2,0 -3,0 -4,1l0 -63zm7 19l0 2c0,2 0,4 1,7 0,2 1,4 3,6 2,2 4,3 7,3 1,0 1,0 1,0 2,0 4,0 5,-1 1,0 2,-2 3,-3 1,-1 2,-3 3,-5 0,-2 0,-5 0,-7 0,-3 0,-6 -1,-9 0,-3 -1,-5 -3,-7 -1,-1 -4,-2 -6,-2 -1,0 -1,0 -1,0 -3,0 -6,1 -8,4 -2,2 -3,6 -4,12zm37 3c0,-4 1,-8 3,-12 2,-3 4,-6 8,-8 3,-2 7,-3 11,-3 5,0 9,2 12,4 3,3 5,6 6,9 2,3 2,6 2,9 0,2 0,4 -1,7 -1,2 -2,4 -4,6 -1,2 -4,4 -6,5 -3,2 -6,2 -10,2 0,0 0,0 0,0 0,0 -1,0 -1,0 -4,0 -7,-1 -10,-2 -3,-2 -6,-4 -7,-7 -2,-3 -3,-6 -3,-10zm8 1c0,3 1,6 3,10 2,3 5,5 10,6 4,0 7,-2 9,-5 2,-3 4,-8 4,-13 0,-4 0,-7 -1,-10 -1,-2 -3,-5 -4,-6 -2,-2 -5,-2 -8,-2 -4,0 -7,2 -9,5 -3,4 -4,8 -4,13 0,0 0,1 0,2zm68 18l0 -58 31 0c-1,1 -1,2 -1,2 0,1 0,2 1,3 -3,0 -7,-1 -11,-1 -2,0 -4,0 -6,0 -3,0 -5,0 -6,0l0 21 13 0 8 -1c-1,1 -1,2 -1,3 0,1 0,2 1,3l-10 -1 -11 0 0 24c1,0 3,0 6,0 3,0 6,0 9,0 3,0 6,0 8,-1 0,1 0,2 0,3 0,1 0,2 0,3l-31 0zm41 0l0 -42c1,1 2,1 3,1 1,0 2,0 3,-1l0 7c1,-1 2,-2 3,-3 1,-2 3,-2 4,-3 2,-1 4,-1 5,-1 3,0 5,0 6,0 2,1 3,2 4,3 1,1 3,3 4,5 1,-2 2,-3 3,-4 2,-2 3,-3 5,-3 2,-1 4,-1 5,-1 3,0 6,0 8,2 2,1 4,2 5,4 1,2 1,4 1,7 0,0 0,0 0,1l0 28c-1,-1 -2,-1 -3,-1 -1,0 -3,0 -4,1l0 -28c0,-3 -1,-5 -3,-7 -2,-2 -4,-2 -6,-2 -2,0 -3,0 -5,1 -1,1 -3,2 -3,3 -1,2 -2,4 -2,7l0 26c-1,-1 -2,-1 -4,-1 -1,0 -2,0 -3,1l0 -28c0,-2 0,-3 -1,-5 -1,-1 -2,-2 -4,-3 -1,-1 -3,-1 -5,-1 -2,0 -4,1 -6,3 -2,1 -3,4 -3,8l0 26c-1,-1 -2,-1 -4,-1 -1,0 -2,0 -3,1zm70 -41c1,0 2,1 3,1 2,0 3,-1 4,-1l0 9c1,-4 3,-6 5,-7 3,-2 6,-3 9,-3 3,0 6,1 9,3 2,1 4,3 6,7 1,3 2,7 2,12 0,2 0,5 -1,7 -1,3 -2,5 -3,7 -2,2 -4,3 -6,5 -2,1 -5,1 -8,1 0,0 0,0 0,0 0,0 0,0 -1,0 -3,0 -6,0 -8,-2 -2,-1 -3,-3 -4,-6l0 30c-1,-1 -2,-1 -4,-1 -1,0 -2,0 -3,1l0 -63zm7 19l0 2c0,2 0,4 0,7 1,2 2,4 4,6 1,2 4,3 7,3 0,0 1,0 1,0 2,0 3,0 5,-1 1,0 2,-2 3,-3 1,-1 2,-3 2,-5 1,-2 1,-5 1,-7 0,-3 0,-6 -1,-9 -1,-3 -2,-5 -3,-7 -2,-1 -4,-2 -7,-2 0,0 0,0 0,0 -3,0 -6,1 -8,4 -2,2 -3,6 -4,12zm42 22l0 -41c1,0 2,1 3,1 1,0 2,-1 3,-1l0 8c1,-2 2,-3 3,-4 1,-2 3,-3 4,-4 2,0 3,-1 5,-1 0,0 1,0 1,0l0 8c-2,-1 -3,-1 -5,-1 -2,0 -3,1 -4,2 -1,1 -2,2 -3,4 -1,2 -1,3 -1,5l0 24c-1,-1 -2,-1 -3,-1 -1,0 -2,0 -3,1zm23 -19c0,-5 1,-9 3,-12 2,-3 4,-6 7,-7 3,-2 6,-3 10,-3 4,0 7,1 10,3 3,2 5,4 6,7 1,3 1,5 1,8 0,1 0,2 0,3l-29 0c0,3 1,6 2,9 1,2 2,4 4,5 3,2 6,2 9,2 2,0 5,0 7,-1 2,-1 4,-2 5,-4l1 5c-2,1 -4,2 -5,3 -1,0 -2,1 -4,1 -2,1 -4,1 -7,1 -4,0 -8,-1 -11,-3 -2,-2 -5,-4 -6,-7 -1,-3 -2,-7 -3,-10zm30 -5c0,-4 0,-7 -2,-10 -2,-2 -4,-4 -8,-4 -3,0 -5,1 -6,3 -2,1 -3,3 -4,5 -1,2 -2,4 -2,6l22 0zm14 -5c0,-4 2,-7 5,-10 2,-2 6,-3 10,-3 3,0 6,1 9,2l-2 7 -1 0c0,-1 -1,-2 -2,-3 0,-1 -1,-1 -2,-2 -1,0 -2,0 -4,0 -1,0 -3,0 -4,1 -2,1 -2,2 -3,4 0,1 0,1 0,1 0,2 1,3 2,4 1,1 3,2 5,3 2,1 3,1 5,2 3,1 5,3 7,4 1,2 2,4 2,6 0,2 -1,4 -2,6 -1,2 -3,4 -6,5 -2,2 -5,2 -7,2 -6,0 -10,-1 -12,-3l2 -6 1 0c2,4 5,6 9,6 1,0 3,0 4,-1 1,-1 2,-2 3,-3 1,-1 1,-2 1,-3 0,-2 0,-3 -1,-4 -1,-1 -2,-2 -3,-2 -1,-1 -3,-1 -4,-2 -2,0 -4,-1 -4,-1 -3,-1 -4,-2 -6,-3 -1,-2 -2,-4 -2,-7zm33 19c0,-2 0,-3 1,-5 1,-1 2,-2 3,-3 2,-2 4,-2 7,-3l10 -2c1,0 2,-1 3,-2 1,0 1,-1 1,-3 0,-1 -1,-3 -1,-4 -1,-2 -3,-3 -4,-4 -2,-1 -3,-2 -5,-2 -2,0 -4,1 -6,2 -1,1 -3,2 -4,4l-2 0 0 -4c2,-1 3,-2 5,-3 1,0 2,-1 4,-1 2,-1 3,-1 5,-1 5,0 9,1 11,3 3,3 4,6 4,11l0 21c0,2 1,3 2,3 1,0 1,0 2,-1l0 2c-1,1 -2,2 -4,2 -2,0 -4,-1 -5,-1 -1,-1 -2,-3 -2,-4 -5,4 -9,6 -14,6 -3,0 -6,-1 -8,-3 -2,-2 -3,-5 -3,-8zm25 1l0 -11c-5,0 -8,1 -11,1 -2,1 -4,2 -5,4 -1,1 -2,2 -2,4 0,1 0,2 0,3 0,1 1,2 3,3 1,1 3,2 5,2 4,0 7,-2 10,-6zm20 9l0 -41c1,0 2,1 3,1 2,0 3,-1 4,-1l0 8c1,-2 2,-3 3,-4 1,-2 2,-3 4,-4 1,0 3,-1 5,-1 0,0 0,0 1,0l-1 8c-1,-1 -3,-1 -4,-1 -2,0 -3,1 -5,2 -1,1 -2,2 -2,4 -1,2 -1,3 -1,5l0 24c-1,-1 -2,-1 -4,-1 -1,0 -2,0 -3,1zm28 -56c0,-2 0,-3 1,-4 1,-1 2,-1 4,-1 1,0 2,0 3,1 1,1 1,2 1,4 0,1 0,2 -1,3 -1,1 -2,2 -3,2 -2,0 -3,-1 -4,-2 0,-1 -1,-2 -1,-3zm1 56l0 -42c1,1 2,1 4,1 1,0 2,0 3,-1l0 42c-1,-1 -2,-1 -3,-1 -2,0 -3,0 -4,1zm20 -10c0,-2 0,-3 1,-5 0,-1 2,-2 3,-3 2,-2 4,-2 6,-3l11 -2c1,0 2,-1 3,-2 0,0 1,-1 1,-3 0,-1 -1,-3 -2,-4 -1,-2 -2,-3 -3,-4 -2,-1 -4,-2 -6,-2 -2,0 -3,1 -5,2 -1,1 -3,2 -5,4l-1 0 0 -4c2,-1 3,-2 4,-3 2,0 3,-1 5,-1 1,-1 3,-1 5,-1 5,0 9,1 11,3 2,3 4,6 4,11l0 21c0,2 0,3 2,3 0,0 1,0 2,-1l0 2c-1,1 -3,2 -5,2 -1,0 -3,-1 -4,-1 -2,-1 -2,-3 -3,-4 -4,4 -8,6 -13,6 -3,0 -6,-1 -8,-3 -2,-2 -3,-5 -3,-8zm24 1l0 -11c-4,0 -7,1 -10,1 -2,1 -4,2 -5,4 -2,1 -2,2 -2,4 0,1 0,2 0,3 0,1 1,2 3,3 1,1 3,2 5,2 3,0 6,-2 9,-6zm22 9l0 -66c2,1 3,1 4,1 1,0 2,0 4,-1l0 66c-1,-1 -3,-1 -4,-1 -1,0 -2,0 -4,1zm41 -18c0,-4 1,-7 2,-10 0,-3 2,-5 3,-7 2,-2 4,-4 6,-5 2,-1 5,-2 8,-2 2,0 4,1 6,2 2,0 3,1 5,2 1,2 2,3 2,4l0 -30c1,0 2,0 3,0 1,0 3,0 4,0l0 64c-1,-1 -2,-1 -3,-1 -2,0 -3,0 -4,1l0 -8c-2,3 -5,5 -7,6 -2,2 -5,2 -7,2 -3,0 -6,-1 -9,-2 -2,-2 -5,-4 -6,-7 -2,-3 -3,-6 -3,-9zm8 -2c0,6 2,10 4,13 2,2 5,3 7,3 0,0 1,0 1,0 2,0 4,0 6,-2 2,-1 3,-3 4,-5 1,-3 2,-6 2,-9 0,-5 -1,-9 -3,-12 -1,-4 -4,-6 -8,-6 -1,0 -1,0 -1,0 0,0 0,0 0,0 -5,1 -8,3 -9,6 -2,4 -3,8 -3,12zm40 1c0,-5 0,-9 2,-12 2,-3 4,-6 7,-7 3,-2 6,-3 10,-3 4,0 8,1 10,3 3,2 5,4 6,7 1,3 1,5 1,8 0,1 0,2 0,3l-28 0c0,3 0,6 1,9 1,2 2,4 5,5 2,2 5,2 8,2 3,0 5,0 7,-1 2,-1 4,-2 5,-4l1 5c-2,1 -4,2 -5,3 -1,0 -2,1 -4,1 -2,1 -4,1 -6,1 -5,0 -9,-1 -11,-3 -3,-2 -6,-4 -7,-7 -1,-3 -2,-7 -2,-10zm30 -5c0,-4 -1,-7 -3,-10 -1,-2 -4,-4 -8,-4 -2,0 -4,1 -6,3 -2,1 -3,3 -4,5 -1,2 -1,4 -1,6l22 0zm41 24l0 -66c1,1 2,1 3,1 1,0 3,0 4,-1l0 66c-1,-1 -2,-1 -3,-1 -2,0 -3,0 -4,1zm19 -10c0,-2 0,-3 1,-5 1,-1 2,-2 3,-3 2,-2 4,-2 7,-3l10 -2c1,0 2,-1 3,-2 1,0 1,-1 1,-3 0,-1 -1,-3 -1,-4 -1,-2 -2,-3 -4,-4 -2,-1 -3,-2 -5,-2 -2,0 -4,1 -6,2 -1,1 -3,2 -4,4l-2 0 0 -4c2,-1 3,-2 5,-3 1,0 2,-1 4,-1 2,-1 3,-1 5,-1 5,0 9,1 11,3 3,3 4,6 4,11l0 21c0,2 1,3 2,3 1,0 1,0 3,-1l0 2c-2,1 -3,2 -5,2 -2,0 -4,-1 -5,-1 -1,-1 -2,-3 -2,-4 -5,4 -9,6 -13,6 -4,0 -6,-1 -9,-3 -2,-2 -3,-5 -3,-8zm25 1l0 -11c-5,0 -8,1 -11,1 -2,1 -4,2 -5,4 -1,1 -2,2 -2,4 0,1 0,2 0,3 1,1 1,2 3,3 1,1 3,2 5,2 4,0 7,-2 10,-6zm-1095 41c1,1 1,1 1,1 0,0 1,0 1,0 0,0 0,0 0,0 0,0 0,0 0,0 0,0 0,0 0,0 1,0 1,0 1,0 0,0 0,0 1,0 0,0 0,0 0,0l4 -1 0 59 -4 0c0,0 0,0 0,0 -1,0 -1,0 -1,0 0,0 0,0 0,0 0,0 0,0 -1,0 0,0 0,0 0,0 0,0 0,0 0,0 0,0 -1,0 -1,0 0,0 0,0 -1,0l-3 0 0 -59 3 0 0 0zm23 59l0 -41 3 0c0,0 0,0 1,0 0,0 0,0 0,0 0,0 0,0 1,0 0,0 0,0 0,0 0,0 0,0 0,0 0,0 0,0 0,0 0,0 0,0 0,0 0,0 0,0 0,0 0,0 0,0 0,0 0,0 0,0 0,0 0,0 1,0 1,0 0,0 1,0 1,0l3 0 0 3c1,0 1,-1 2,-1 1,0 1,-1 2,-1 1,-1 2,-1 3,-1 1,-1 3,-1 4,-1l3 0 1 0 0 0c1,0 3,1 4,1 2,1 3,2 5,3 1,2 2,3 3,6 0,2 1,5 1,8l0 24 -4 0c0,0 0,0 0,0 0,0 0,0 0,0 0,0 -1,0 -1,0 0,0 0,0 0,0 0,0 0,0 0,0 0,0 0,0 0,0 0,0 0,0 0,0 0,0 0,0 0,0 0,0 0,0 0,0 0,0 0,0 0,0 -1,0 -1,0 -1,0 -1,0 -1,0 -1,0l-4 0 0 -24c0,-2 0,-4 -1,-6 0,-1 -1,-2 -2,-3 -1,-1 -1,-2 -2,-2 -1,-1 -2,-1 -3,-1 -1,0 -2,0 -3,1 -1,1 -2,1 -3,2 -1,1 -1,3 -2,4 0,2 -1,4 -1,6l0 23 -3 0c0,0 -1,0 -1,0 0,0 -1,0 -1,0 0,0 0,0 0,0 0,0 0,0 0,0 0,0 0,0 0,0 0,0 0,0 0,0 0,0 0,0 0,0 0,0 0,0 0,0 0,0 0,0 -1,0 0,0 0,0 0,0 0,0 0,0 0,0 -1,0 -1,0 -1,0l-3 0 0 0z"/>
    <path class="fil0" d="M77 996l0 -36 -6 0c0,0 0,0 0,-1 0,0 0,0 0,0 1,0 1,0 1,0 0,0 0,0 0,-1l0 0 0 0c0,0 0,0 0,0 0,0 0,0 0,0 0,0 0,-1 0,-1 0,0 0,0 0,0 0,0 -1,0 -1,0 0,0 0,-1 0,-1l6 0c1,-4 2,-8 3,-11 1,-3 2,-5 4,-7 1,-2 3,-3 4,-4 2,-1 4,-1 5,-1l4 0c0,0 0,0 0,0 0,0 0,0 1,0 0,0 0,0 0,0 0,0 0,0 0,0 0,0 1,0 1,0 0,0 0,0 0,0 0,1 0,1 0,2 0,0 0,1 0,1 0,1 0,2 0,2 0,1 0,1 0,2l-1 0 -3 0c-1,0 -1,0 -1,0 -1,0 -1,0 -1,-1 -1,0 -1,0 -1,0 0,0 0,0 0,0 -1,0 -2,1 -3,1 0,0 -1,1 -1,2 -1,1 -1,2 -1,3 0,1 -1,2 -1,3 0,0 0,0 0,0 0,0 0,0 0,0 0,0 0,0 0,0 0,0 0,0 0,0 0,0 0,0 0,1 0,0 0,0 0,0 0,0 0,0 0,0 0,0 0,0 0,0 0,0 0,1 0,1 1,1 1,1 1,1 0,1 0,1 0,2 0,0 0,0 0,1 0,0 0,0 0,0 0,1 0,1 0,1 0,0 0,1 0,1 0,0 0,0 0,0l6 0 4 0c0,0 0,0 0,0 0,1 0,1 -1,1 0,0 0,0 0,0 0,0 0,0 0,0 0,0 0,0 0,0 0,0 0,1 0,1 0,0 0,0 0,0 0,0 0,1 0,1 0,0 0,0 1,0 0,0 0,1 0,1l-4 0 -6 0 0 36 -3 0c0,0 -1,0 -1,0 0,0 0,0 0,0 -1,0 -1,0 -1,0 -1,0 -1,0 -1,0l-4 0 0 0zm22 -18c0,-4 0,-7 1,-9 1,-3 3,-6 5,-8 2,-2 4,-3 7,-4 2,-1 5,-2 9,-2l3 0c3,0 5,0 7,1 2,1 4,1 5,3 1,1 3,2 4,3 1,2 1,3 2,5 1,1 1,1 1,2 0,1 1,2 1,3 0,1 0,2 0,3 0,0 0,1 0,1 0,1 0,1 0,2 0,1 0,1 0,2 0,0 0,1 0,1 0,1 0,1 -1,2 0,2 -1,3 -2,5 -1,2 -2,3 -4,5 -2,1 -4,2 -6,3 -2,1 -5,1 -7,1l-4 0c0,0 0,0 0,0 0,0 0,0 -1,0 0,0 0,0 0,0 0,0 0,0 0,0 0,0 0,0 0,0 0,0 0,0 0,0 -3,0 -6,0 -9,-1 -2,-1 -4,-3 -6,-4 -2,-2 -3,-4 -4,-7 -1,-2 -1,-5 -1,-7l0 0zm11 0c0,1 0,1 0,2 0,0 0,1 0,2 1,0 1,1 1,2 0,0 0,1 1,2 0,1 1,2 1,3 1,1 2,2 2,3 1,0 2,1 3,1 1,1 2,1 3,1 2,0 3,0 4,-1 2,-1 3,-2 4,-3 1,-1 2,-3 3,-6 0,-2 1,-5 1,-8 0,-2 0,-5 -1,-7 0,-2 -1,-4 -2,-6 -1,-1 -2,-2 -3,-3 -2,-1 -3,-1 -5,-2 -2,1 -3,1 -5,2 -1,1 -2,2 -3,4 -1,1 -2,3 -3,5 0,2 -1,4 -1,6 0,1 0,1 0,1 0,0 0,0 0,0l0 1c0,0 0,0 0,0 0,0 0,0 0,0 0,0 0,0 0,0 0,0 0,0 0,1 0,0 0,0 0,0 0,0 0,0 0,0l-3 0 0 0 3 0zm44 18l0 -40 4 0c0,0 0,0 0,0 1,0 1,0 1,0 0,0 0,0 0,0 0,0 0,0 0,0 0,0 0,0 0,0 0,0 0,0 0,0 0,0 0,0 0,0 0,0 0,0 0,0 1,0 1,0 1,0 0,0 0,0 0,0 0,0 1,0 1,0 0,0 0,0 0,0l3 0 0 3c1,0 1,0 1,0 0,-1 0,-1 0,-1 0,0 0,0 1,0 0,0 0,0 0,-1 1,0 2,-1 3,-1 2,-1 3,-1 4,-1l4 0c0,0 0,0 0,0 0,0 0,0 0,0 0,0 0,0 0,0 0,0 1,0 1,0 0,0 0,0 0,0 0,0 0,0 0,0l-1 8 -3 0c-1,0 -1,0 -1,-1 -1,0 -1,0 -2,0 0,0 0,0 0,0 0,0 0,0 0,0 0,0 0,0 0,0 0,0 0,0 0,0 -1,0 -1,0 -2,1 -1,0 -1,0 -1,1 -1,1 -2,1 -2,2 0,1 -1,2 -1,3 0,0 0,1 0,1 0,0 0,1 0,1 0,0 -1,0 -1,1 0,0 0,0 0,0l0 24 -3 0c0,0 0,0 0,0 -1,0 -1,0 -1,0 0,0 0,0 0,0 0,0 0,0 0,0 0,0 0,0 0,0 0,0 0,0 -1,0 0,0 0,0 0,0 0,0 0,0 0,0 0,0 0,0 0,0 -1,0 -1,0 -1,0l-4 0 0 0zm31 0l0 -41 3 0 1 0 0 0c0,0 0,0 0,0 0,0 0,0 0,0 0,0 0,0 0,0 0,0 0,0 1,0 0,0 0,0 0,0 1,0 1,0 1,0l4 0 0 3c0,0 0,-1 1,-1 0,0 1,0 1,-1 1,0 2,-1 3,-1 1,0 2,-1 3,-1l4 0c1,0 3,0 4,1 1,0 2,0 3,0 1,1 1,1 2,2 1,0 2,1 2,2 1,0 1,0 1,1 0,0 0,0 0,0 1,-1 1,-1 2,-2 1,-1 1,-1 2,-2 1,0 3,-1 4,-1 1,0 2,-1 4,-1l3 0c2,0 4,1 6,1 2,1 3,2 4,3 2,1 3,3 3,4 1,2 1,3 1,4l0 1 0 0 0 0 0 1 0 0 0 0 0 28 -3 0c0,0 0,0 0,0 -1,0 -1,0 -1,0 0,0 0,0 0,0 0,0 -1,0 -1,0 0,0 0,0 0,0 0,0 0,0 0,0 0,0 0,0 0,0 0,0 0,0 0,0 0,0 0,0 0,0 0,0 0,0 0,0 0,0 -1,0 -1,0 0,0 -1,0 -1,0l-3 0 0 -27c0,-2 -1,-3 -1,-4 -1,-1 -1,-2 -2,-3 -1,-1 -2,-1 -3,-2 0,0 -1,0 -2,-1 -1,1 -2,1 -3,1 -1,1 -1,1 -2,2 -1,1 -2,2 -2,3 -1,2 -1,3 -1,5l0 26 -4 0c0,0 0,0 0,0 0,0 0,0 -1,0 0,0 0,0 0,0 0,0 0,0 0,0 0,0 0,0 0,0 0,0 0,0 -1,0 1,0 1,0 1,0 -1,0 -1,0 -1,0 0,0 0,0 0,0 0,0 0,0 0,0 0,0 0,0 0,0 -1,0 -1,0 -1,0l-4 0 0 -27c0,-1 0,-3 0,-4 -1,-1 -2,-2 -3,-3 0,-1 -1,-1 -2,-1 -1,-1 -2,-1 -3,-1 -1,0 -1,0 -2,0 -1,1 -2,1 -2,2 -1,1 -2,2 -3,3 0,2 0,3 -1,5l0 26 -3 0c0,0 0,0 0,0 0,0 -1,0 -1,0 0,0 0,0 0,0 0,0 0,0 -1,0 0,0 0,0 0,0 0,0 0,0 0,0 0,0 0,0 0,0 0,0 0,0 0,0 0,0 0,0 0,0 0,0 0,0 0,0 0,0 -1,0 -1,0 0,0 -1,0 -1,0l-3 0 0 0zm73 -9c0,-1 0,-2 0,-4 1,-1 1,-2 2,-3 1,-1 2,-2 3,-2 2,-1 3,-2 5,-2l11 -2c1,0 1,-1 2,-1 0,0 1,0 1,-1 0,0 0,-1 1,-1 0,-1 0,-1 0,-2 0,0 0,0 0,0 0,0 0,0 0,-1 0,0 0,0 0,0 0,0 0,0 0,0 0,0 0,-1 0,-1 0,0 0,0 -1,-1 0,0 0,-1 -1,-2 0,-1 -1,-2 -2,-3 -1,0 -1,-1 -2,-1 -1,-1 -2,-1 -2,-1 -1,0 -1,0 -2,0 0,0 0,1 -1,1 0,0 -1,0 -1,0 -1,1 -1,1 -2,1 0,1 0,1 -1,1 0,1 0,1 0,1 -1,0 -1,1 -1,1 -1,0 -1,1 -1,1l-4 0 -1 0 0 -5c0,0 0,0 1,0 0,0 0,0 0,0 0,0 0,0 1,0 0,-1 0,-1 0,-1 1,0 2,-1 3,-1 1,0 1,-1 2,-1 1,-1 3,-1 4,-1 1,0 2,0 3,0l4 0c2,0 4,0 6,1 2,0 4,1 5,2 1,1 2,2 2,4 1,2 1,4 1,7l0 21c0,1 0,1 0,1 1,1 1,1 1,1 0,0 0,0 0,0 0,0 0,0 0,0 0,0 0,0 0,0 0,0 0,0 0,0 0,0 0,0 0,0 0,0 0,0 1,0 0,0 0,0 0,0 0,0 0,0 0,0l3 0 0 2c0,0 -1,1 -1,1 0,0 -1,0 -1,0 0,0 0,0 0,0 -1,0 -1,0 -1,0 0,1 0,1 0,1 -1,0 -1,0 -1,0l0 0 -4 0 0 0c-1,0 -2,0 -3,-1 -1,0 -1,0 -2,0 0,-1 -1,-1 -1,-1 0,0 0,-1 -1,-1 0,1 -1,1 -2,2 -1,0 -2,0 -3,1 -1,0 -1,0 -2,0 -1,1 -2,1 -3,1l-4 0c-1,0 -3,-1 -4,-1 -2,-1 -3,-1 -4,-2 -1,-1 -2,-2 -2,-4 -1,-1 -1,-2 -1,-4l0 0zm25 1l0 -11c-3,0 -5,1 -6,1 -2,0 -3,1 -5,2 -1,0 -2,1 -3,2 0,1 -1,3 -1,4 0,0 0,1 0,1 0,0 0,0 0,0 0,1 0,1 0,1 0,0 0,0 1,1l0 0 0 0c0,1 1,1 1,2 0,0 1,1 2,1 0,1 1,1 1,1 1,0 1,0 2,0 0,0 0,0 0,0 0,0 0,0 0,0 0,0 0,0 0,0 0,0 0,0 1,0 0,0 0,0 1,0 0,0 1,-1 1,-1 1,0 1,0 1,-1 1,0 1,0 1,-1 1,0 1,0 1,0 0,0 0,-1 1,-1 0,0 0,0 0,0 0,-1 0,-1 1,-1l0 0zm-16 -37l11 -12c0,0 0,0 0,-1 1,0 1,0 1,0 0,0 0,0 0,0 1,0 1,-1 1,-1 0,0 0,0 0,0 0,0 0,0 1,0 0,0 0,0 0,0 0,0 0,0 0,0 0,0 1,0 1,0 0,0 0,0 0,0 0,0 0,0 0,0 0,0 0,0 0,0l4 0c0,0 1,0 1,0 0,0 1,0 1,0 0,1 0,1 1,1 0,1 0,1 0,1 0,0 0,1 0,1 0,0 0,1 -1,1 0,0 0,0 0,0 0,1 0,1 -1,1 0,0 0,0 0,0 0,1 -1,1 -1,1l-13 8 -3 0 -3 0 0 0zm38 35l0 -27 -5 0c0,0 0,0 0,0 0,0 0,0 0,-1 0,0 0,0 1,0 0,0 0,0 0,0 0,0 0,-1 0,-1 -1,0 -1,0 -1,0 0,0 0,-1 0,-1 0,0 0,0 0,0l5 0 0 -9 7 -2 4 0 0 11 9 0c0,0 0,0 0,0 0,0 0,0 -1,1 0,0 0,0 0,0 0,0 0,0 0,0 0,0 0,1 0,1 0,0 0,0 0,0 0,0 0,0 1,0 0,0 0,0 0,1 0,0 0,0 0,0 0,0 0,0 0,0l-4 0 -5 0 0 22c0,0 0,1 0,1 0,1 0,1 0,1 0,1 0,1 0,2 0,0 0,0 0,1 0,1 0,2 0,3 0,1 1,2 1,3 0,0 1,1 1,1 1,1 1,1 2,1 0,0 0,0 0,0 0,0 0,0 0,0 1,0 1,0 2,0 0,0 0,-1 1,-1l3 0 0 3c0,0 -1,0 -2,1 -1,0 -1,0 -2,0 -1,0 -1,0 -2,0 -1,1 -1,1 -2,1l-3 0c-2,0 -3,-1 -4,-1 -1,-1 -2,-1 -3,-2 -1,-1 -2,-2 -2,-4 0,-1 -1,-3 -1,-5l0 0zm29 10l0 -41 4 0c0,0 0,0 0,0 0,0 0,0 0,0 0,0 0,0 0,0 0,0 0,0 0,0 0,0 1,0 1,0 0,0 0,0 0,0 0,0 0,0 0,0 0,0 0,0 0,0 0,0 0,0 1,0 0,0 0,0 0,0 0,0 0,0 0,0 0,0 0,0 0,0 0,0 1,0 1,0 0,0 0,0 1,0l3 0 0 41 -3 0c-1,0 -1,0 -1,0 0,0 -1,0 -1,0 0,0 0,0 0,0 0,0 0,0 0,0 0,0 0,0 0,0 0,0 0,0 0,0 0,0 0,0 0,0 0,0 0,0 0,0 -1,0 -1,0 -1,0 -1,0 -1,0 -1,0l-4 0 0 0zm0 -56c0,-1 0,-1 0,-2 0,0 1,-1 1,-1 0,-1 1,-1 1,-1 1,0 2,0 2,0l3 -1c1,0 2,1 2,1 1,0 1,0 2,1 0,0 1,1 1,1 0,1 0,1 0,2 0,1 0,2 0,2 0,1 -1,1 -1,2 -1,0 -1,1 -2,1 0,0 -1,0 -1,0l-4 0c0,0 -1,0 -1,0 -1,0 -1,-1 -2,-1 0,-1 -1,-1 -1,-2 0,0 0,-1 0,-2l0 0zm23 37c0,-3 1,-6 2,-9 0,-2 2,-4 4,-6 2,-2 4,-4 7,-5 3,-1 6,-1 10,-1l3 0c1,0 2,0 3,0 1,0 2,0 3,0 0,0 1,1 2,1 0,0 1,0 2,0 0,0 0,1 0,1 0,0 0,0 1,0 0,0 0,0 0,0 0,0 0,0 0,0 1,0 1,0 1,1 0,0 1,0 1,0l-1 6 -4 0 -1 0c-1,-1 -1,-2 -2,-3 -1,0 -2,-1 -3,-1 0,-1 -1,-1 -2,-1 -1,-1 -2,-1 -3,-1 -1,0 -3,1 -4,2 -2,1 -3,2 -4,3 -1,2 -2,4 -3,6 0,2 0,4 0,6 0,3 0,5 1,7 0,2 1,4 2,5 1,2 3,3 4,4 2,1 4,2 6,2 1,0 1,0 2,-1 1,0 2,0 2,0 1,-1 2,-1 3,-2 1,-1 2,-1 3,-2l0 0 0 -1 3 0 1 1 -1 4c0,1 -1,2 -3,2 -1,1 -2,1 -3,1 -1,1 -2,1 -3,1 -2,0 -3,0 -4,0l-3 0 -1 0 0 0c-3,0 -5,0 -7,-1 -3,-1 -5,-2 -7,-4 -3,-1 -4,-3 -5,-6 -1,-2 -2,-5 -2,-8l0 0 0 -1 0 0 0 0 0 0z"/>
    <path class="fil0" d="M404 987c0,-1 0,-2 1,-4 0,-1 1,-2 1,-3 1,-1 2,-2 4,-2 1,-1 3,-2 5,-2l11 -2c0,0 1,-1 1,-1 1,0 1,0 1,-1 1,0 1,-1 1,-1 0,-1 0,-1 0,-2 0,0 0,0 0,0 0,0 0,0 0,-1 0,0 0,0 0,0 0,0 0,0 0,0 0,0 0,-1 0,-1 0,0 0,0 0,-1 0,0 -1,-1 -1,-2 -1,-1 -2,-2 -3,-3 0,0 -1,-1 -2,-1 0,-1 -1,-1 -2,-1 -1,0 -1,0 -1,0 -1,0 -1,1 -1,1 -1,0 -1,0 -2,0 0,1 -1,1 -1,1 -1,1 -1,1 -1,1 0,1 -1,1 -1,1 0,0 -1,1 -1,1 0,0 -1,1 -1,1l-3 0 -1 0 0 -5c0,0 0,0 0,0 0,0 0,0 0,0 1,0 1,0 1,0 0,-1 0,-1 0,-1 1,0 2,-1 3,-1 1,0 2,-1 3,-1 1,-1 2,-1 3,-1 1,0 2,0 4,0l3 0c2,0 5,0 7,1 1,0 3,1 4,2 1,1 2,2 3,4 0,2 1,4 1,7l0 21c0,1 0,1 0,1 0,1 0,1 0,1 0,0 0,0 0,0 0,0 0,0 1,0 0,0 0,0 0,0 0,0 0,0 0,0 0,0 0,0 0,0 0,0 0,0 0,0 0,0 0,0 0,0 0,0 0,0 0,0l3 0 0 2c0,0 0,1 -1,1 0,0 0,0 -1,0 0,0 0,0 0,0 0,0 0,0 -1,0 0,1 0,1 0,1 0,0 0,0 -1,0l0 0 -3 0 -1 0c-1,0 -2,0 -2,-1 -1,0 -2,0 -3,0 0,-1 0,-1 -1,-1 0,0 0,-1 0,-1 -1,1 -2,1 -3,2 -1,0 -1,0 -2,1 -1,0 -2,0 -3,0 -1,1 -2,1 -3,1l-3 0c-2,0 -3,-1 -5,-1 -1,-1 -2,-1 -4,-2 -1,-1 -1,-2 -2,-4 -1,-1 -1,-2 -1,-4l0 0zm25 1l0 -11c-2,0 -4,1 -6,1 -2,0 -3,1 -4,2 -2,0 -3,1 -3,2 -1,1 -1,3 -1,4 0,0 0,1 0,1 0,0 0,0 0,0 0,1 0,1 0,1 0,0 0,0 0,1l0 0 0 0c1,1 1,1 1,2 1,0 1,1 2,1 0,1 1,1 1,1 1,0 1,0 2,0 0,0 0,0 0,0 0,0 0,0 0,0 1,0 1,0 1,0 0,0 0,0 0,0 0,0 1,0 1,0 1,0 1,-1 2,-1 0,0 0,0 1,-1 0,0 0,0 1,-1 0,0 0,0 0,0 1,0 1,-1 1,-1 0,0 0,0 0,0 1,-1 1,-1 1,-1l0 0zm49 -32c0,0 1,0 1,0 1,0 1,0 1,0 0,0 1,0 1,0 0,0 0,0 0,0 0,0 0,0 0,0 0,0 0,0 0,0 0,0 0,0 0,0 0,0 0,0 1,0 0,0 0,0 1,0 0,0 0,0 0,0l4 0c0,0 0,1 1,3 0,1 1,3 1,4 1,2 2,4 3,6 0,2 1,4 2,6 0,0 0,0 0,0 0,0 0,0 0,0 0,1 0,1 0,1 1,0 1,0 1,0 0,0 0,1 0,1 0,0 0,0 0,1 1,0 1,1 1,1 0,0 0,1 0,1 1,1 1,1 1,2 0,0 0,0 0,1 0,0 0,0 1,0 0,0 0,0 0,0 0,0 0,0 0,0 0,0 0,1 0,1 0,0 0,-1 0,-1 0,0 0,0 0,0 0,0 0,0 0,0 0,0 0,0 0,0 1,-1 1,-2 1,-3 1,-1 1,-2 2,-2 0,-1 0,-1 0,-1 0,-1 0,-1 0,-1 0,-1 1,-1 1,-1 0,-1 0,-1 0,-1 1,-2 2,-4 2,-6 1,-2 2,-3 2,-5 1,-2 2,-3 2,-5 0,-1 1,-2 1,-2l3 0c0,0 1,0 1,0 0,0 0,0 0,0 1,0 1,0 1,0 0,0 1,0 1,0l3 0 -28 62 -3 0c0,0 0,0 -1,0 0,0 0,0 0,0 0,0 0,0 0,0 0,0 0,0 0,0 0,0 -1,0 -1,0 0,0 0,0 0,0 0,0 0,0 0,0 -1,0 -1,0 -1,0l-3 0 11 -22 -17 -40 3 0 0 0zm76 40l0 -65 4 0c0,0 1,0 1,0 0,0 0,0 1,0 0,0 0,0 0,0 0,0 0,0 0,0 0,0 0,0 0,0 0,0 0,0 0,0 0,0 0,0 0,0 0,0 0,0 0,0 0,0 0,0 0,0 0,0 0,0 0,0 0,0 1,0 1,0 0,0 1,0 1,0l3 0 0 65 -3 0c0,0 0,0 -1,0 0,0 0,0 0,0 0,0 0,0 0,0 -1,0 -1,0 -1,0 0,0 0,0 0,0 0,0 0,0 0,0 0,0 0,0 0,0 0,0 0,0 0,0 0,0 0,0 0,0 0,0 0,0 0,0 0,0 -1,0 -1,0 0,0 -1,0 -1,0l-4 0 0 0zm23 -9c0,-1 1,-2 1,-4 0,-1 1,-2 2,-3 1,-1 2,-2 3,-2 1,-1 3,-2 5,-2l11 -2c0,0 1,-1 1,-1 1,0 1,0 2,-1 0,0 0,-1 0,-1 0,-1 0,-1 0,-2 0,0 0,0 0,0 0,0 0,0 0,-1 0,0 0,0 0,0 0,0 0,0 0,0 0,0 0,-1 0,-1 0,0 0,0 0,-1 0,0 -1,-1 -1,-2 -1,-1 -1,-2 -2,-3 -1,0 -2,-1 -2,-1 -1,-1 -2,-1 -3,-1 0,0 -1,0 -1,0 0,0 -1,1 -1,1 -1,0 -1,0 -2,0 0,1 -1,1 -1,1 0,1 -1,1 -1,1 0,1 0,1 -1,1 0,0 0,1 -1,1 0,0 0,1 -1,1l-3 0 -1 0 0 -5c0,0 0,0 0,0 0,0 1,0 1,0 0,0 0,0 0,0 0,-1 1,-1 1,-1 1,0 1,-1 2,-1 1,0 2,-1 3,-1 1,-1 2,-1 3,-1 1,0 3,0 4,0l3 0c3,0 5,0 7,1 2,0 3,1 4,2 2,1 2,2 3,4 1,2 1,4 1,7l0 21c0,1 0,1 0,1 0,1 0,1 1,1 0,0 0,0 0,0 0,0 0,0 0,0 0,0 0,0 0,0 0,0 0,0 0,0 0,0 0,0 0,0 0,0 0,0 0,0 0,0 0,0 0,0 0,0 0,0 0,0l4 0 0 2c-1,0 -1,1 -1,1 -1,0 -1,0 -1,0 0,0 -1,0 -1,0 0,0 0,0 0,0 -1,1 -1,1 -1,1 0,0 0,0 0,0l-1 0 -3 0 -1 0c0,0 -1,0 -2,-1 -1,0 -2,0 -2,0 -1,-1 -1,-1 -1,-1 -1,0 -1,-1 -1,-1 -1,1 -2,1 -3,2 0,0 -1,0 -2,1 -1,0 -2,0 -3,0 -1,1 -2,1 -2,1l-4 0c-2,0 -3,-1 -5,-1 -1,-1 -2,-1 -3,-2 -1,-1 -2,-2 -3,-4 0,-1 -1,-2 -1,-4l0 0zm25 1l0 -11c-2,0 -4,1 -6,1 -1,0 -3,1 -4,2 -1,0 -2,1 -3,2 -1,1 -1,3 -1,4 0,0 0,1 0,1 0,0 0,0 0,0 0,1 0,1 0,1 0,0 0,0 0,1l0 0 1 0c0,1 0,1 1,2 0,0 1,1 1,1 1,1 1,1 2,1 0,0 1,0 1,0 0,0 0,0 0,0 1,0 1,0 1,0 0,0 0,0 0,0 0,0 0,0 0,0 1,0 1,0 2,0 0,0 0,-1 1,-1 0,0 1,0 1,-1 0,0 1,0 1,-1 0,0 0,0 1,0 0,0 0,-1 0,-1 0,0 1,0 1,0 0,-1 0,-1 0,-1l0 0zm22 -20c0,-3 0,-5 1,-6 0,-2 2,-3 3,-4 2,-1 3,-2 5,-2 2,-1 3,-1 5,-1l4 0c0,0 0,0 1,0 0,0 1,0 1,0 1,0 1,0 1,0 1,0 1,0 2,0 0,0 1,1 2,1 1,0 1,1 2,1l-2 7 -3 0 -2 0c0,-1 0,-2 -1,-3 0,0 -1,-1 -1,-1 -1,-1 -1,-1 -2,-1 0,0 -1,0 -1,-1 -1,0 -1,1 -2,1 0,0 -1,0 -1,1 -1,0 -2,1 -2,1 0,1 -1,2 -1,3l0 0 0 0 0 1 0 0c0,1 0,2 1,3 0,1 1,1 1,2 1,0 2,1 3,1 1,1 2,1 3,1 0,1 0,1 1,1 0,0 0,0 0,0 0,0 0,0 0,0 0,0 0,0 0,0 1,0 1,0 1,0 0,0 1,0 1,0 0,0 0,0 0,0 0,0 0,1 0,1 1,0 1,0 1,0 0,0 0,0 0,0 2,0 3,1 4,2 1,0 2,1 3,2 0,1 1,2 1,3 1,1 1,2 1,3l0 0 0 0c0,2 -1,4 -1,5 -1,2 -2,3 -4,4 -1,2 -3,2 -5,3 -1,1 -3,1 -6,1l-3 0c-1,0 -2,0 -3,0 -2,0 -3,0 -4,-1 -1,0 -2,0 -3,0 -1,-1 -1,-1 -2,-2l2 -6 3 0 2 0c0,1 1,1 1,2 1,1 1,1 2,2 0,0 1,0 1,1 1,0 1,0 2,0 0,1 0,1 0,1 0,0 0,0 1,0 0,0 0,0 0,0 0,0 0,0 0,0 1,0 1,-1 2,-1 1,0 1,-1 2,-1 1,-1 1,-2 2,-2 0,-1 1,-2 1,-3l0 0 0 -1c0,-1 -1,-2 -1,-3 -1,-1 -1,-1 -2,-2 -1,0 -2,-1 -3,-1 -1,0 -2,-1 -3,-1l-1 0 0 0c0,0 0,0 0,0 0,0 -1,0 -1,-1 0,0 0,0 0,0 0,0 0,0 0,0 -1,0 -1,0 -1,0 0,0 0,0 0,0 0,0 0,0 -1,0 0,0 0,0 0,0 -1,-1 -2,-1 -3,-2 -1,0 -1,-1 -2,-2 -1,0 -1,-1 -2,-2 0,-1 0,-3 0,-4l0 0zm62 0c0,-4 1,-8 2,-12 2,-3 4,-6 7,-9 2,-3 6,-6 10,-7 3,-2 8,-2 13,-2l3 -1c0,1 1,1 1,1 0,0 0,0 1,0 0,0 0,0 1,0 0,0 0,0 0,0 1,0 2,0 2,0 1,0 1,0 2,0 1,0 2,0 4,0 1,0 2,1 3,1 1,0 2,1 3,1 1,1 2,1 3,2l-2 6 -3 0 -1 0c-1,-1 -2,-2 -3,-2 -1,-1 -2,-2 -3,-2 -2,-1 -3,-1 -4,-2 -1,0 -2,0 -3,-1 -1,0 -1,0 -1,0 -1,0 -1,0 -1,0 0,0 0,0 0,0 0,0 0,0 0,0 -1,0 -1,0 -1,0 0,0 0,0 0,0 -2,0 -5,1 -7,2 -3,1 -5,3 -7,5 -2,2 -4,5 -5,8 -1,3 -2,7 -2,11l0 0 0 1c0,4 1,9 2,12 1,4 3,6 6,8 2,2 4,4 7,5 2,1 4,1 7,1 2,0 3,0 4,0 2,-1 3,-1 5,-2 1,0 3,-1 4,-2 1,0 2,-1 3,-2l4 0 -1 5c0,0 -1,1 -1,1 0,0 -1,0 -1,0 -1,1 -1,1 -1,1 -1,0 -1,0 -2,1 0,0 -1,0 -1,0 -1,0 -2,1 -2,1 0,0 -1,0 -1,0 0,0 0,0 0,0 -1,0 -2,0 -3,1 -1,0 -1,0 -2,0 -1,0 -2,0 -3,0 0,0 -1,0 -2,0l-3 0c-4,0 -8,0 -12,-2 -3,-1 -7,-3 -10,-6 -3,-2 -5,-6 -7,-10 -1,-3 -2,-8 -2,-12l0 0zm59 10c0,-4 1,-7 2,-9 1,-3 2,-6 4,-8 2,-2 4,-3 7,-4 3,-1 6,-2 9,-2l4 0c2,0 4,0 6,1 2,1 4,1 5,3 2,1 3,2 4,3 1,2 2,3 2,5 1,1 1,1 2,2 0,1 0,2 0,3 0,1 1,2 1,3 0,0 0,1 0,1 0,1 0,1 0,2 0,1 0,1 0,2 -1,0 -1,1 -1,1 0,1 0,1 0,2 -1,2 -2,3 -3,5 -1,2 -2,3 -4,5 -1,1 -3,2 -5,3 -3,1 -5,1 -8,1l-3 0c-1,0 -1,0 -1,0 0,0 0,0 0,0 0,0 0,0 0,0 0,0 0,0 0,0 0,0 -1,0 -1,0 0,0 0,0 0,0 -3,0 -6,0 -8,-1 -3,-1 -5,-3 -7,-4 -1,-2 -3,-4 -4,-7 0,-2 -1,-5 -1,-7l0 0zm12 0c0,1 0,1 0,2 0,0 0,1 0,2 0,0 0,1 0,2 0,0 1,1 1,2 0,1 1,2 2,3 0,1 1,2 2,3 1,0 1,1 2,1 1,1 3,1 4,1 1,0 3,0 4,-1 1,-1 2,-2 3,-3 1,-1 2,-3 3,-6 1,-2 1,-5 1,-8 0,-2 0,-5 0,-7 -1,-2 -2,-4 -3,-6 -1,-1 -2,-2 -3,-3 -1,-1 -3,-1 -5,-2 -1,1 -3,1 -4,2 -2,1 -3,2 -4,4 -1,1 -2,3 -2,5 -1,2 -1,4 -2,6 0,1 0,1 0,1 0,0 0,0 0,0l0 1c0,0 0,0 0,0 0,0 0,0 0,0 0,0 0,0 0,0 0,0 0,0 0,1 0,0 0,0 0,0 0,0 1,0 1,0l-4 0 0 0 4 0z"/>
    <path class="fil0" d="M799 996l0 -41 4 0 0 0 1 0c0,0 0,0 0,0 0,0 0,0 0,0 0,0 0,0 0,0 0,0 0,0 0,0 1,0 1,0 1,0 1,0 1,0 1,0l4 0 0 3c0,0 0,-1 1,-1 0,0 0,0 1,-1 1,0 2,-1 3,-1 1,0 2,-1 3,-1l4 0c1,0 2,0 3,1 2,0 3,0 3,0 1,1 2,1 3,2 1,0 2,1 2,2 0,0 0,0 1,1 0,0 0,0 0,0 0,-1 1,-1 2,-2 0,-1 1,-1 2,-2 1,0 2,-1 4,-1 1,0 2,-1 4,-1l3 0c2,0 4,1 6,1 1,1 3,2 4,3 1,1 2,3 3,4 1,2 1,3 1,4l0 1 0 0 0 0 0 1 0 0 0 0 0 28 -3 0c0,0 0,0 -1,0 0,0 0,0 0,0 0,0 0,0 0,0 -1,0 -1,0 -1,0 0,0 0,0 0,0 0,0 0,0 0,0 0,0 0,0 0,0 0,0 0,0 0,0 0,0 0,0 0,0 0,0 0,0 0,0 -1,0 -1,0 -1,0 -1,0 -1,0 -1,0l-4 0 0 -27c0,-2 0,-3 0,-4 -1,-1 -2,-2 -3,-3 0,-1 -1,-1 -2,-2 -1,0 -2,0 -2,-1 -1,1 -2,1 -3,1 -1,1 -2,1 -2,2 -1,1 -2,2 -3,3 0,2 -1,3 -1,5l0 26 -3 0c0,0 0,0 0,0 -1,0 -1,0 -1,0 0,0 0,0 0,0 0,0 -1,0 -1,0 0,0 0,0 0,0 0,0 0,0 0,0 0,0 0,0 0,0 0,0 0,0 0,0 0,0 0,0 0,0 0,0 0,0 0,0 0,0 0,0 -1,0 0,0 0,0 0,0l-4 0 0 -27c0,-1 0,-3 -1,-4 0,-1 -1,-2 -2,-3 -1,-1 -1,-1 -2,-1 -1,-1 -2,-1 -3,-1 -1,0 -2,0 -2,0 -1,1 -2,1 -3,2 -1,1 -1,2 -2,3 0,2 -1,3 -1,5l0 26 -3 0c0,0 0,0 -1,0 0,0 0,0 0,0 0,0 0,0 0,0 -1,0 -1,0 -1,0 0,0 0,0 0,0 0,0 0,0 0,0 0,0 0,0 0,0 0,0 0,0 0,0 0,0 0,0 0,0 0,0 0,0 0,0 0,0 -1,0 -1,0 0,0 -1,0 -1,0l-4 0 0 0zm75 -14l0 -26 3 0c1,0 1,0 1,0 0,0 1,0 1,0 0,0 0,0 0,0 0,0 0,0 0,0 0,0 0,0 0,0 0,0 0,0 1,0 0,0 0,0 1,0 0,0 0,0 0,0l4 0 0 24c0,1 0,3 0,5 1,1 1,3 2,4 1,1 1,2 2,3 1,0 2,1 4,1 1,0 2,0 3,-1 1,-1 2,-1 3,-2 1,-1 1,-2 2,-4 0,-1 0,-2 0,-3 0,0 0,0 0,0 0,0 0,0 0,-1 0,0 0,0 0,0 0,0 0,0 0,0 0,0 0,0 0,0 0,0 0,0 0,0 0,0 0,-1 0,-1 0,0 0,0 0,0l0 -25 4 0c0,0 0,0 0,0 0,0 0,0 0,0 0,0 0,0 0,0 0,0 0,0 0,0 1,0 1,0 1,0 0,0 0,0 0,0 0,0 0,0 0,0 0,0 0,0 0,0 0,0 1,0 1,0 0,0 0,0 0,0 0,0 0,0 0,0 0,0 0,0 0,0 0,0 1,0 1,0 0,0 0,0 1,0l3 0 0 40 -3 0c-1,0 -1,0 -1,0 0,0 -1,0 -1,0 0,0 0,0 0,0 0,0 0,0 0,0 0,0 0,0 0,0 0,0 0,0 0,0 0,0 0,0 0,0 0,0 0,0 0,0 0,0 -1,0 -1,0 -1,0 -1,0 -1,0l-4 0 0 -2c0,1 0,1 -1,1 0,1 -1,1 -1,1 -1,0 -3,0 -4,1 -1,0 -3,0 -4,0l-4 0c-2,0 -4,0 -5,-1 -2,0 -3,-1 -4,-2 -1,-1 -2,-2 -2,-3 -1,-1 -1,-2 -1,-3 -1,0 -1,-1 -1,-1 0,0 0,0 0,-1 0,0 0,0 0,-1 0,0 0,0 0,0 0,-1 0,-1 0,-2 0,0 0,-1 0,-1l0 0zm52 14l0 -41 4 0c0,0 0,0 0,0 1,0 1,0 1,0 0,0 0,0 0,0 0,0 0,0 0,0 0,0 0,0 0,0 0,0 1,0 1,0 0,0 0,0 0,0 0,0 0,0 0,0 0,0 0,0 0,0 0,0 0,0 0,0 0,0 0,0 1,0 0,0 0,0 1,0l3 0 0 3c0,0 1,-1 2,-1 0,0 1,-1 2,-1 1,-1 2,-1 3,-1 1,-1 2,-1 4,-1l3 0 0 0 0 0c2,0 4,1 5,1 2,1 3,2 4,3 2,2 3,3 3,6 1,2 1,5 1,8l0 24 -3 0c0,0 0,0 0,0 0,0 -1,0 -1,0 0,0 0,0 0,0 0,0 0,0 0,0 0,0 0,0 0,0 0,0 0,0 0,0 0,0 0,0 0,0 0,0 0,0 0,0 -1,0 -1,0 -1,0 0,0 0,0 0,0 0,0 0,0 -1,0 0,0 0,0 -1,0l-3 0 0 -24c0,-2 -1,-4 -1,-6 -1,-1 -1,-2 -2,-3 -1,-1 -2,-2 -3,-2 0,-1 -1,-1 -2,-1 -1,0 -2,0 -3,1 -1,1 -2,1 -3,2 -1,1 -2,3 -2,4 -1,2 -1,4 -1,6l0 23 -3 0c-1,0 -1,0 -1,0 -1,0 -1,0 -1,0 0,0 0,0 0,0 0,0 0,0 0,0 0,0 0,0 0,0 0,0 0,0 0,0 0,0 0,0 0,0 0,0 0,0 0,0 -1,0 -1,0 -1,0 0,0 0,0 0,0 0,0 -1,0 -1,0 0,0 0,0 0,0l-4 0 0 0zm52 0l0 -41 3 0c0,0 0,0 0,0 1,0 1,0 1,0 0,0 0,0 0,0 0,0 0,0 0,0 0,0 0,0 0,0 0,0 0,0 1,0 0,0 0,0 0,0 0,0 0,0 0,0 0,0 0,0 0,0 0,0 0,0 0,0 0,0 0,0 0,0 0,0 0,0 1,0 0,0 0,0 0,0 1,0 1,0 1,0l4 0 0 41 -4 0c0,0 0,0 -1,0 0,0 0,0 0,0 0,0 0,0 0,0 0,0 0,0 0,0 0,0 0,0 0,0 0,0 0,0 0,0 0,0 -1,0 -1,0 0,0 0,0 0,0 0,0 0,0 -1,0 0,0 0,0 -1,0l-3 0 0 0zm-1 -56c0,-1 0,-1 1,-2 0,0 0,-1 1,-1 0,-1 1,-1 1,-1 1,0 1,0 2,0l3 -1c1,0 1,1 2,1 0,0 1,0 1,1 1,0 1,1 2,1 0,1 0,1 0,2 0,1 0,2 -1,2 0,1 0,1 -1,2 0,0 -1,1 -1,1 -1,0 -1,0 -2,0l-3 0c-1,0 -1,0 -2,0 0,0 -1,-1 -1,-1 -1,-1 -1,-1 -1,-2 -1,0 -1,-1 -1,-2l0 0zm24 37c0,-3 0,-6 1,-9 1,-2 2,-4 4,-6 2,-2 5,-4 7,-5 3,-1 7,-1 11,-1l3 0c1,0 2,0 3,0 1,0 1,0 2,0 1,0 2,1 2,1 1,0 2,0 2,0 0,0 1,1 1,1 0,0 0,0 0,0 0,0 0,0 1,0 0,0 0,0 0,0 0,0 0,0 1,1 0,0 0,0 1,0l-2 6 -3 0 -1 0c-1,-1 -2,-2 -3,-3 0,0 -1,-1 -2,-1 -1,-1 -2,-1 -2,-1 -1,-1 -2,-1 -3,-1 -2,0 -3,1 -5,2 -1,1 -2,2 -3,3 -2,2 -2,4 -3,6 -1,2 -1,4 -1,6 0,3 0,5 1,7 1,2 2,4 3,5 1,2 2,3 4,4 1,1 3,2 5,2 1,0 2,0 3,-1 1,0 1,0 2,0 1,-1 2,-1 3,-2 0,-1 1,-1 2,-2l0 0 1 -1 3 0 1 1 -1 4c-1,1 -2,2 -3,2 -1,1 -2,1 -3,1 -1,1 -3,1 -4,1 -1,0 -2,0 -3,0l-4 0 0 0 0 0c-3,0 -5,0 -8,-1 -2,-1 -5,-2 -7,-4 -2,-1 -4,-3 -5,-6 -1,-2 -1,-5 -1,-8l0 0 0 -1 0 0 0 0 0 0zm47 10c0,-1 0,-2 0,-4 1,-1 1,-2 2,-3 1,-1 2,-2 3,-2 2,-1 3,-2 5,-2l11 -2c1,0 1,-1 2,-1 0,0 1,0 1,-1 0,0 0,-1 1,-1 0,-1 0,-1 0,-2 0,0 0,0 0,0 0,0 0,0 0,-1 0,0 0,0 0,0 0,0 0,0 0,0 0,0 0,-1 0,-1 0,0 -1,0 -1,-1 0,0 0,-1 -1,-2 0,-1 -1,-2 -2,-3 -1,0 -1,-1 -2,-1 -1,-1 -2,-1 -3,-1 0,0 0,0 -1,0 0,0 0,1 -1,1 0,0 -1,0 -1,0 -1,1 -1,1 -2,1 0,1 0,1 -1,1 0,1 0,1 0,1 -1,0 -1,1 -1,1 -1,0 -1,1 -1,1l-4 0 -1 0 0 -5c0,0 0,0 1,0 0,0 0,0 0,0 0,0 0,0 1,0 0,-1 0,-1 0,-1 1,0 2,-1 3,-1 0,0 1,-1 2,-1 1,-1 2,-1 4,-1 1,0 2,0 3,0l4 0c2,0 4,0 6,1 2,0 3,1 5,2 1,1 2,2 2,4 1,2 1,4 1,7l0 21c0,1 0,1 0,1 0,1 1,1 1,1 0,0 0,0 0,0 0,0 0,0 0,0 0,0 0,0 0,0 0,0 0,0 0,0 0,0 0,0 0,0 0,0 0,0 0,0 0,0 0,0 0,0 1,0 1,0 1,0l3 0 0 2c0,0 -1,1 -1,1 0,0 -1,0 -1,0 0,0 0,0 0,0 -1,0 -1,0 -1,0 0,1 0,1 -1,1 0,0 0,0 0,0l-1 0 -3 0 0 0c-1,0 -2,0 -3,-1 -1,0 -1,0 -2,0 0,-1 -1,-1 -1,-1 0,0 0,-1 -1,-1 -1,1 -1,1 -2,2 -1,0 -2,0 -3,1 -1,0 -2,0 -3,0 0,1 -1,1 -2,1l-4 0c-1,0 -3,-1 -4,-1 -2,-1 -3,-1 -4,-2 -1,-1 -2,-2 -2,-4 -1,-1 -1,-2 -1,-4l0 0zm25 1l0 -11c-3,0 -5,1 -6,1 -2,0 -3,1 -5,2 -1,0 -2,1 -3,2 0,1 -1,3 -1,4 0,0 0,1 0,1 0,0 0,0 0,0 0,1 0,1 0,1 0,0 0,0 0,1l1 0 0 0c0,1 0,1 1,2 0,0 1,1 2,1 0,1 0,1 1,1 0,0 1,0 2,0 0,0 0,0 0,0 0,0 0,0 0,0 0,0 0,0 0,0 0,0 0,0 0,0 1,0 1,0 2,0 0,0 1,-1 1,-1 1,0 1,0 1,-1 1,0 1,0 1,-1 1,0 1,0 1,0 0,0 0,-1 0,-1 1,0 1,0 1,0 0,-1 0,-1 1,-1l0 0zm20 -11c0,-3 1,-6 2,-9 1,-2 2,-4 4,-6 2,-2 4,-4 7,-5 3,-1 6,-1 10,-1l3 0c2,0 2,0 3,0 1,0 2,0 3,0 0,0 1,1 2,1 0,0 1,0 2,0 0,0 0,1 0,1 0,0 1,0 1,0 0,0 0,0 0,0 0,0 0,0 0,0 1,0 1,0 1,1 1,0 1,0 1,0l-1 6 -4 0 -1 0c-1,-1 -1,-2 -2,-3 -1,0 -2,-1 -3,-1 0,-1 -1,-1 -2,-1 -1,-1 -2,-1 -2,-1 -2,0 -4,1 -5,2 -2,1 -3,2 -4,3 -1,2 -2,4 -2,6 -1,2 -1,4 -1,6 0,3 0,5 1,7 0,2 1,4 2,5 1,2 3,3 4,4 2,1 4,2 6,2 1,0 2,0 2,-1 1,0 2,0 3,0 0,-1 1,-1 2,-2 1,-1 2,-1 3,-2l0 0 0 -1 4 0 0 1 0 4c-1,1 -2,2 -3,2 -1,1 -3,1 -4,1 -1,1 -2,1 -3,1 -1,0 -3,0 -4,0l-3 0 -1 0 0 0c-2,0 -5,0 -7,-1 -3,-1 -5,-2 -7,-4 -2,-1 -4,-3 -5,-6 -1,-2 -2,-5 -2,-8l0 0 0 -1 0 0 0 0 0 0zm51 19l0 -41 3 0c0,0 0,0 0,0 0,0 0,0 0,0 0,0 0,0 0,0 1,0 1,0 1,0 0,0 0,0 0,0 0,0 0,0 0,0 0,0 0,0 1,0 0,0 0,0 0,0 0,0 0,0 0,0 0,0 0,0 0,0 0,0 0,0 0,0 0,0 0,0 0,0 1,0 1,0 1,0 0,0 1,0 1,0l3 0 0 41 -3 0c0,0 0,0 -1,0 0,0 0,0 -1,0 0,0 0,0 0,0 0,0 0,0 0,0 0,0 0,0 0,0 0,0 0,0 0,0 0,0 0,0 0,0 0,0 0,0 0,0 0,0 -1,0 -1,0 0,0 -1,0 -1,0l-3 0 0 0zm-1 -56c0,-1 0,-1 0,-2 1,0 1,-1 1,-1 1,-1 1,-1 2,-1 0,0 1,0 1,0l4 -1c0,0 1,1 2,1 0,0 1,0 1,1 1,0 1,1 1,1 1,1 1,1 1,2 0,1 -1,2 -1,2 0,1 -1,1 -1,2 0,0 -1,1 -1,1 -1,0 -1,0 -2,0l-3 0c-1,0 -2,0 -2,0 -1,0 -1,-1 -2,-1 0,-1 0,-1 -1,-2 0,0 0,-1 0,-2l0 0zm22 38c0,-4 1,-7 2,-9 1,-3 2,-6 4,-8 2,-2 4,-3 7,-4 3,-1 6,-2 9,-2l4 0c2,0 4,0 6,1 2,1 4,1 5,3 2,1 3,2 4,3 1,2 2,3 2,5 1,1 1,1 2,2 0,1 0,2 0,3 0,1 1,2 1,3 0,0 0,1 0,1 0,1 0,1 0,2 0,1 0,1 0,2 -1,0 -1,1 -1,1 0,1 0,1 0,2 -1,2 -2,3 -3,5 -1,2 -2,3 -4,5 -1,1 -3,2 -5,3 -3,1 -5,1 -8,1l-3 0c-1,0 -1,0 -1,0 0,0 0,0 0,0 0,0 0,0 0,0 0,0 0,0 0,0 0,0 -1,0 -1,0 0,0 0,0 0,0 -3,0 -6,0 -8,-1 -3,-1 -5,-3 -7,-4 -1,-2 -3,-4 -3,-7 -1,-2 -2,-5 -2,-7l0 0zm12 0c0,1 0,1 0,2 0,0 0,1 0,2 0,0 0,1 0,2 0,0 1,1 1,2 0,1 1,2 2,3 0,1 1,2 2,3 1,0 1,1 2,1 1,1 3,1 4,1 1,0 3,0 4,-1 1,-1 2,-2 3,-3 1,-1 2,-3 3,-6 1,-2 1,-5 1,-8 0,-2 0,-5 0,-7 -1,-2 -2,-4 -3,-6 -1,-1 -2,-2 -3,-3 -1,-1 -3,-1 -5,-2 -1,1 -3,1 -4,2 -2,1 -3,2 -4,4 -1,1 -2,3 -2,5 -1,2 -1,4 -1,6 0,1 0,1 0,1 0,0 0,0 0,0l0 1c0,0 0,0 0,0 0,0 0,0 0,0 0,0 0,0 0,0 0,0 0,0 0,1 0,0 0,0 0,0 0,0 0,0 0,0l-4 0 0 0 4 0z"/>
    <path class="fil0" d="M1221 996l0 -41 3 0c0,0 1,0 1,0 0,0 0,0 1,0 0,0 0,0 0,0 0,0 0,0 0,0 0,0 0,0 0,0 0,0 0,0 0,0 0,0 0,0 0,0 0,0 0,0 0,0 0,0 0,0 0,0 0,0 0,0 0,0 1,0 1,0 1,0 1,0 1,0 1,0l4 0 0 3c0,0 1,-1 1,-1 1,0 1,-1 2,-1 1,-1 2,-1 3,-1 2,-1 3,-1 4,-1l4 0 0 0 0 0c2,0 3,1 5,1 1,1 3,2 4,3 1,2 2,3 3,6 1,2 1,5 1,8l0 24 -3 0c0,0 -1,0 -1,0 0,0 0,0 0,0 0,0 0,0 0,0 -1,0 -1,0 -1,0 0,0 0,0 0,0 0,0 0,0 0,0 0,0 0,0 0,0 0,0 0,0 0,0 0,0 0,0 0,0 0,0 0,0 0,0 0,0 -1,0 -1,0 0,0 -1,0 -1,0l-4 0 0 -24c0,-2 0,-4 0,-6 -1,-1 -2,-2 -3,-3 0,-1 -1,-2 -2,-2 -1,-1 -2,-1 -3,-1 -1,0 -2,0 -3,1 -1,1 -1,1 -2,2 -1,1 -2,3 -3,4 0,2 0,4 0,6l0 23 -4 0c0,0 -1,0 -1,0 0,0 0,0 -1,0 0,0 0,0 0,0 0,0 0,0 0,0 0,0 0,0 0,0 0,0 0,0 0,0 0,0 0,0 0,0 0,0 0,0 0,0 0,0 0,0 0,0 0,0 -1,0 -1,0 0,0 0,0 0,0 0,0 -1,0 -1,0l-3 0 0 0zm47 -18c0,-4 0,-7 1,-10 1,-3 2,-5 4,-7 2,-2 4,-3 7,-4 2,-1 5,-1 7,-1l4 0c2,0 4,0 6,1 2,0 3,1 5,2 1,1 2,3 3,4 1,1 2,3 2,4 0,0 0,1 1,2 0,0 0,1 0,1 0,1 0,2 0,2 0,1 0,1 0,2 0,0 0,0 0,0 0,0 0,0 0,0 0,1 0,1 0,1 0,0 0,0 0,0 0,0 0,1 0,1 0,0 0,0 0,0l-3 0 -26 0c0,3 0,5 1,7 0,2 1,4 2,6 1,1 2,2 4,3 2,1 4,1 6,1 1,0 2,0 3,0 1,-1 1,-1 2,-1 1,-1 2,-1 3,-2 1,-1 2,-1 3,-2l3 0 1 4 0 1 -1 0 0 0 -1 0c-1,1 -1,2 -2,2 -1,1 -2,1 -3,1 -1,1 -3,1 -4,1 -1,1 -3,1 -5,1l-3 0c-4,0 -7,-1 -9,-2 -3,-1 -5,-3 -6,-5 -2,-2 -3,-4 -4,-6 -1,-2 -1,-5 -1,-7l0 0zm30 -5c0,0 0,0 0,0 0,-1 0,-1 0,-1 0,0 0,0 0,0 0,0 0,0 0,0 0,0 0,-1 0,-1 0,0 0,0 0,0 0,-1 0,-3 -1,-4 0,-2 -1,-3 -2,-4 0,-1 -1,-2 -2,-3 -1,0 -3,-1 -4,-1 -1,0 -2,1 -3,1 -1,1 -2,1 -3,2 0,1 -1,2 -2,3 0,2 -1,3 -1,4 0,0 0,1 0,1 -1,0 -1,1 -1,1 0,1 0,1 0,1 0,0 0,1 0,1l19 0 0 0zm17 -5c0,-3 1,-5 1,-6 1,-2 2,-3 4,-4 1,-1 3,-2 5,-2 1,-1 3,-1 5,-1l3 0c1,0 1,0 2,0 0,0 0,0 1,0 0,0 1,0 1,0 1,0 1,0 1,0 1,0 2,1 3,1 0,0 1,1 2,1l-2 7 -3 0 -2 0c0,-1 0,-2 -1,-3 0,0 -1,-1 -2,-1 0,-1 -1,-1 -1,-1 -1,0 -1,0 -2,-1 0,0 -1,1 -1,1 -1,0 -1,0 -2,1 0,0 -1,1 -1,1 -1,1 -1,2 -1,3l0 0 0 0 0 1 0 0c0,1 0,2 0,3 1,1 1,1 2,2 1,0 2,1 3,1 1,1 2,1 3,1 0,1 0,1 0,1 0,0 0,0 1,0 0,0 0,0 0,0 0,0 0,0 0,0 0,0 1,0 1,0 0,0 0,0 0,0 1,0 1,0 1,0 0,0 0,1 0,1 0,0 0,0 1,0 0,0 0,0 0,0 1,0 3,1 4,2 1,0 2,1 2,2 1,1 2,2 2,3 0,1 1,2 1,3l0 0 0 0c0,2 -1,4 -2,5 0,2 -2,3 -3,4 -2,2 -3,2 -5,3 -2,1 -4,1 -6,1l-3 0c-1,0 -3,0 -4,0 -1,0 -2,0 -3,-1 -1,0 -2,0 -3,0 -1,-1 -2,-1 -2,-2l2 -6 3 0 2 0c0,1 0,1 1,2 0,1 1,1 1,2 1,0 1,0 2,1 1,0 1,0 2,0 0,1 0,1 0,1 0,0 0,0 0,0 0,0 0,0 0,0 1,0 1,0 1,0 0,0 1,-1 2,-1 0,0 1,-1 2,-1 0,-1 1,-2 2,-2 0,-1 0,-2 0,-3l0 0 0 -1c0,-1 0,-2 0,-3 -1,-1 -2,-1 -3,-2 -1,0 -1,-1 -2,-1 -1,0 -2,-1 -3,-1l-1 0 0 0c0,0 0,0 -1,0 0,0 0,0 0,-1 0,0 0,0 0,0 -1,0 -1,0 -1,0 0,0 0,0 0,0 0,0 0,0 0,0 -1,0 -1,0 -1,0 0,0 0,0 0,0 -1,-1 -2,-1 -3,-2 -1,0 -2,-1 -2,-2 -1,0 -2,-1 -2,-2 0,-1 -1,-3 -1,-4l0 0z"/>
   </g>
   <path class="fil1" d="M697 0c128,0 233,104 233,233 0,129 -105,234 -233,234 -52,0 -101,-17 -139,-46 69,10 158,-6 194,-72l0 65 49 0 0 -191 -178 0 0 49 104 0c-18,58 -69,95 -127,96 -37,1 -78,-18 -102,-45 -12,-15 -32,-36 -34,-90 -1,-18 5,-61 40,-95 26,-26 59,-39 98,-39 48,2 89,27 114,70l79 0c-34,-107 -145,-138 -237,-124 39,-28 87,-45 139,-45z"/>
   <path class="fil0" d="M371 514c-23,1 -45,8 -67,21 -22,12 -39,29 -52,51 -14,21 -21,44 -21,69 0,2 -1,3 -1,5 0,26 7,50 21,72 13,21 31,39 54,52 22,13 48,19 75,19 28,0 53,-7 75,-20 22,-13 40,-31 53,-54 12,-23 19,-47 19,-74l-181 0 0 48 116 0c-8,16 -20,28 -35,37 -15,9 -31,13 -49,13 -15,0 -30,-4 -45,-12 -15,-8 -27,-20 -36,-34 -9,-14 -14,-31 -14,-51 -1,-17 3,-32 12,-45 8,-14 19,-25 33,-33 14,-7 28,-12 44,-13 15,-2 31,1 45,7 15,7 26,17 34,29l62 0c-17,-35 -38,-59 -66,-71 -27,-11 -52,-17 -76,-16zm189 5l0 277 148 0 0 -50 -97 0 0 -63 93 0 0 -50 -93 0 0 -64 98 0 0 -50 -149 0zm194 0l0 277 51 0 0 -277 -51 0zm90 134c1,30 8,56 20,78 12,22 29,39 49,51 20,12 43,19 69,21 13,1 29,-1 47,-7 17,-5 34,-13 50,-26 16,-12 29,-29 37,-49l-60 0c-18,21 -41,31 -68,32 -25,0 -46,-9 -65,-27 -19,-18 -28,-41 -28,-69 0,-15 4,-30 12,-45 9,-15 20,-26 35,-35 14,-9 30,-13 46,-13 26,0 51,11 72,34l58 0c-6,-16 -16,-31 -30,-44 -15,-13 -31,-23 -49,-30 -18,-6 -35,-10 -52,-10 -22,0 -43,5 -61,14 -18,9 -33,21 -45,35 -13,15 -22,30 -28,47 -6,16 -9,30 -9,43z"/>
  </g>
 </g>
</svg>
