<?xml version="1.0" encoding="UTF-8"?>
<!DOCTYPE svg PUBLIC "-//W3C//DTD SVG 1.1//EN" "http://www.w3.org/Graphics/SVG/1.1/DTD/svg11.dtd">
<!-- Creator: CorelDRAW X7 -->
<svg xmlns="http://www.w3.org/2000/svg" xml:space="preserve" width="103.222mm" height="53.9228mm" version="1.1" style="shape-rendering:geometricPrecision; text-rendering:geometricPrecision; image-rendering:optimizeQuality; fill-rule:evenodd; clip-rule:evenodd"
viewBox="0 0 9966 5206"
 xmlns:xlink="http://www.w3.org/1999/xlink">
 <defs>
  <style type="text/css">
   <![CDATA[
    .fil0 {fill:white}
   ]]>
  </style>
 </defs>
 <g id="Capa_x0020_1">
  <metadata id="CorelCorpID_0Corel-Layer"/>
  <path class="fil0" d="M4843 486c0,0 0,0 0,0l448 208 -410 -243 -1 0 -249 -139c-17,18 -33,37 -48,56l260 118 0 0z"/>
  <path class="fil0" d="M4684 769l225 140 -257 0c0,-60 32,-140 32,-140zm657 895c-363,0 -661,-279 -692,-634l642 0 -584 -344 -234 -142 -1 -1c-55,112 -89,235 -97,366l-163 0 0 121 163 0c31,507 451,909 966,909 405,0 750,-249 895,-601l-239 -140c-95,271 -352,466 -656,466z"/>
  <path class="fil0" d="M5291 866l-511 -305 -239 -137c-12,19 -24,38 -36,57l247 121 539 264z"/>
  <path class="fil0" d="M5968 909l-321 0 144 -260 -731 -316c0,0 312,-157 632,40 275,170 310,396 310,396l244 -146c-140,-364 -492,-623 -905,-623 -256,0 -488,100 -661,262l284 124 687 293 -197 351 485 0 372 0 0 -121 -343 0z"/>
  <path class="fil0" d="M793 3110c-31,15 -79,25 -126,25 -147,0 -231,-94 -231,-241 0,-158 93,-248 234,-248 50,0 92,11 121,25l19 -63c-20,-11 -68,-27 -143,-27 -186,0 -313,127 -313,315 0,197 127,304 296,304 74,0 131,-14 159,-28l-16 -62z"/>
  <path class="fil0" d="M1216 3002l65 189 82 0 -205 -600 -93 0 -204 600 80 0 62 -189 213 0zm-197 -60l59 -174c12,-36 22,-73 31,-109l1 0c9,35 18,71 31,110l59 173 -181 0zm130 -488l-83 105 64 0 113 -105 -94 0z"/>
  <path class="fil0" d="M1973 3191l76 0 -38 -600 -99 0 -107 290c-26,76 -48,142 -63,203l-3 0c-15,-63 -35,-129 -60,-203l-103 -290 -99 0 -41 600 74 0 16 -257c5,-90 9,-191 11,-266l2 0c17,72 41,149 69,234l98 286 58 0 106 -292c31,-82 56,-157 76,-228l3 0c-1,75 4,176 9,260l15 263z"/>
  <path class="fil0" d="M2478 3002l64 189 83 0 -205 -600 -93 0 -204 600 80 0 62 -189 213 0zm-197 -60l59 -174c12,-36 21,-73 30,-109l2 0c9,35 18,71 31,110l59 173 -181 0z"/>
  <path class="fil0" d="M2713 3191l78 0 0 -260 73 0c70,3 102,34 120,117 17,75 31,126 40,143l81 0c-13,-23 -27,-81 -47,-164 -14,-63 -42,-106 -88,-122l0 -2c63,-22 113,-74 113,-154 0,-46 -17,-87 -47,-114 -37,-34 -91,-49 -174,-49 -53,0 -109,5 -149,13l0 592zm78 -538c12,-3 39,-7 77,-7 82,1 138,35 138,112 0,69 -53,114 -136,114l-79 0 0 -219z"/>
  <path class="fil0" d="M3503 3002l64 189 83 0 -205 -600 -94 0 -204 600 81 0 62 -189 213 0zm-197 -60l59 -174c11,-36 21,-73 30,-109l2 0c9,35 18,71 31,110l59 173 -181 0z"/>
  <path class="fil0" d="M3927 3190c39,4 86,7 141,7 117,0 209,-31 265,-87 56,-55 87,-135 87,-233 0,-97 -31,-167 -85,-216 -52,-49 -132,-75 -243,-75 -62,0 -118,6 -165,13l0 591zm78 -534c20,-5 50,-8 90,-8 164,0 245,90 244,232 0,162 -90,254 -256,254 -30,0 -59,-1 -78,-4l0 -474z"/>
  <polygon class="fil0" points="4831,2846 4598,2846 4598,2656 4845,2656 4845,2591 4520,2591 4520,3191 4858,3191 4858,3126 4598,3126 4598,2910 4831,2910 "/>
  <path class="fil0" d="M5551 3110c-31,15 -79,25 -126,25 -146,0 -231,-94 -231,-241 0,-158 94,-248 234,-248 50,0 92,11 122,25l18 -63c-20,-11 -67,-27 -142,-27 -186,0 -314,127 -314,315 0,197 128,304 297,304 73,0 130,-14 158,-28l-16 -62z"/>
  <path class="fil0" d="M5908 2581c-161,0 -279,125 -279,315 0,182 111,305 270,305 153,0 279,-109 279,-316 0,-178 -106,-304 -270,-304l0 0zm-4 63c130,0 192,125 192,244 0,137 -70,250 -193,250 -122,0 -191,-115 -191,-243 0,-132 64,-251 192,-251l0 0z"/>
  <path class="fil0" d="M6800 3191l76 0 -38 -600 -99 0 -107 290c-26,76 -48,142 -63,203l-3 0c-15,-63 -35,-129 -60,-203l-103 -290 -99 0 -41 600 73 0 17 -257c5,-90 9,-191 11,-266l2 0c17,72 41,149 69,234l98 286 58 0 106 -292c31,-82 56,-157 76,-228l3 0c-1,75 4,176 9,260l15 263z"/>
  <polygon class="fil0" points="7306,2846 7073,2846 7073,2656 7319,2656 7319,2591 6995,2591 6995,3191 7333,3191 7333,3126 7073,3126 7073,2910 7306,2910 "/>
  <path class="fil0" d="M7433 3191l78 0 0 -260 73 0c70,3 102,34 120,117 17,75 31,126 40,143l81 0c-13,-23 -27,-81 -47,-164 -14,-63 -42,-106 -88,-122l0 -2c63,-22 113,-74 113,-154 0,-46 -17,-87 -47,-114 -37,-34 -91,-49 -174,-49 -53,0 -109,5 -149,13l0 592zm78 -538c12,-3 39,-7 77,-7 82,1 138,35 138,112 0,69 -53,114 -136,114l-79 0 0 -219z"/>
  <path class="fil0" d="M8317 3110c-32,15 -80,25 -127,25 -146,0 -231,-94 -231,-241 0,-158 94,-248 235,-248 49,0 91,11 121,25l18 -63c-20,-11 -67,-27 -142,-27 -186,0 -314,127 -314,315 0,197 128,304 297,304 73,0 130,-14 159,-28l-16 -62z"/>
  <polygon class="fil0" points="8430,2591 8430,3191 8507,3191 8507,2591 "/>
  <path class="fil0" d="M8886 2581c-160,0 -279,125 -279,315 0,182 111,305 270,305 153,0 279,-109 279,-316 0,-178 -106,-304 -270,-304l0 0zm-4 63c130,0 192,125 192,244 0,137 -70,250 -193,250 -122,0 -191,-115 -191,-243 0,-132 64,-251 192,-251l0 0z"/>
  <path class="fil0" d="M0 4259c39,4 86,7 141,7 117,0 209,-30 265,-86 56,-56 87,-136 87,-234 0,-97 -31,-167 -85,-216 -52,-49 -132,-74 -243,-74 -62,0 -118,5 -165,12l0 591zm78 -534c20,-4 50,-8 90,-8 164,0 245,90 244,232 0,162 -90,255 -256,255 -30,0 -59,-1 -78,-5l0 -474z"/>
  <polygon class="fil0" points="904,3915 671,3915 671,3725 918,3725 918,3660 593,3660 593,4261 931,4261 931,4196 671,4196 671,3979 904,3979 "/>
  <polygon class="fil0" points="1221,4261 1555,4261 1555,4196 1298,4196 1298,3660 1221,3660 "/>
  <path class="fil0" d="M1951 4072l65 189 82 0 -204 -601 -94 0 -204 601 80 0 62 -189 213 0zm-196 -61l58 -174c12,-36 22,-73 31,-108l1 0c9,34 18,70 32,109l58 173 -180 0z"/>
  <path class="fil0" d="M2376 4261l77 0 0 -261 73 0c71,3 103,34 120,117 17,75 31,127 41,144l80 0c-13,-23 -27,-81 -47,-165 -14,-63 -41,-105 -88,-121l0 -3c64,-21 113,-74 113,-153 0,-47 -17,-88 -47,-114 -37,-34 -91,-49 -174,-49 -53,0 -109,4 -148,12l0 593zm77 -539c13,-3 39,-7 77,-7 82,1 138,35 138,113 0,68 -53,114 -136,114l-79 0 0 -220z"/>
  <polygon class="fil0" points="3166,3915 2933,3915 2933,3725 3179,3725 3179,3660 2855,3660 2855,4261 3193,4261 3193,4196 2933,4196 2933,3979 3166,3979 "/>
  <path class="fil0" d="M3293 4261l78 0 0 -241c18,5 39,5 62,5 76,0 143,-22 184,-66 30,-31 46,-73 46,-128 0,-53 -19,-97 -52,-125 -36,-33 -92,-50 -169,-50 -62,0 -111,5 -149,11l0 594zm78 -538c13,-3 39,-6 73,-6 86,0 142,38 142,118 0,83 -57,128 -151,128 -26,0 -47,-2 -64,-6l0 -234z"/>
  <path class="fil0" d="M3767 3660l0 354c0,186 92,256 215,256 130,0 227,-75 227,-260l0 -350 -78 0 0 356c0,132 -57,191 -146,191 -80,0 -140,-57 -140,-191l0 -356 -78 0zm259 -136l-82 104 63 0 114 -104 -95 0z"/>
  <path class="fil0" d="M4344 4259c26,3 67,7 120,7 98,0 166,-18 208,-56 30,-30 51,-69 51,-120 0,-90 -67,-137 -124,-151l0 -2c63,-23 101,-74 101,-132 0,-47 -18,-83 -49,-106 -38,-30 -88,-43 -165,-43 -55,0 -108,5 -142,12l0 591zm78 -538c12,-3 32,-6 68,-6 79,0 132,28 132,98 0,58 -48,101 -130,101l-70 0 0 -193zm0 252l64 0c84,0 155,34 155,116 0,87 -74,116 -154,116 -28,0 -50,0 -65,-3l0 -229z"/>
  <polygon class="fil0" points="4827,4261 5161,4261 5161,4196 4905,4196 4905,3660 4827,3660 "/>
  <polygon class="fil0" points="5248,3660 5248,4261 5325,4261 5325,3660 "/>
  <path class="fil0" d="M5864 4180c-31,15 -79,25 -126,25 -146,0 -231,-95 -231,-242 0,-158 93,-248 234,-248 50,0 92,11 121,25l19 -63c-20,-11 -68,-27 -142,-27 -187,0 -314,128 -314,316 0,197 127,304 297,304 73,0 130,-15 158,-29l-16 -61z"/>
  <path class="fil0" d="M6287 4072l65 189 82 0 -204 -601 -94 0 -204 601 80 0 62 -189 213 0zm-196 -61l58 -174c12,-36 22,-73 31,-108l1 0c9,34 18,70 32,109l58 173 -180 0z"/>
  <path class="fil0" d="M6712 4259c39,4 85,7 140,7 117,0 210,-30 266,-86 56,-56 86,-136 86,-234 0,-97 -31,-167 -84,-216 -53,-49 -132,-74 -244,-74 -61,0 -117,5 -164,12l0 591zm77 -534c21,-4 51,-8 91,-8 164,0 244,90 243,232 0,162 -90,255 -255,255 -31,0 -59,-1 -79,-5l0 -474z"/>
  <polygon class="fil0" points="7616,3915 7383,3915 7383,3725 7629,3725 7629,3660 7305,3660 7305,4261 7643,4261 7643,4196 7383,4196 7383,3979 7616,3979 "/>
  <path class="fil0" d="M8336 4180c-31,15 -79,25 -126,25 -147,0 -231,-95 -231,-242 0,-158 93,-248 234,-248 50,0 92,11 121,25l19 -63c-20,-11 -68,-27 -143,-27 -186,0 -313,128 -313,316 0,197 127,304 296,304 74,0 131,-15 159,-29l-16 -61z"/>
  <path class="fil0" d="M8448 3660l0 354c0,186 93,256 216,256 130,0 227,-75 227,-260l0 -350 -78 0 0 356c0,132 -57,191 -146,191 -81,0 -140,-57 -140,-191l0 -356 -79 0z"/>
  <path class="fil0" d="M9026 4259c26,3 67,7 120,7 98,0 166,-18 208,-56 30,-30 50,-69 50,-120 0,-90 -66,-137 -123,-151l0 -2c63,-23 101,-74 101,-132 0,-47 -19,-83 -50,-106 -37,-30 -87,-43 -165,-43 -54,0 -107,5 -141,12l0 591zm77 -538c13,-3 33,-6 69,-6 78,0 132,28 132,98 0,58 -48,101 -130,101l-71 0 0 -193zm0 252l64 0c85,0 155,34 155,116 0,87 -73,116 -154,116 -27,0 -50,0 -65,-3l0 -229z"/>
  <path class="fil0" d="M9819 4072l64 189 83 0 -205 -601 -94 0 -204 601 80 0 63 -189 213 0zm-197 -61l59 -174c11,-36 21,-73 30,-108l2 0c9,34 18,70 31,109l59 173 -181 0z"/>
  <path class="fil0" d="M1424 5084l0 -179c0,-69 -1,-119 -4,-172l2 0c21,45 49,93 78,139l132 212 55 0 0 -417 -51 0 0 174c0,65 1,116 6,171l-1 1c-20,-43 -44,-87 -75,-135l-134 -211 -58 0 0 417 50 0z"/>
  <path class="fil0" d="M2030 4784l-55 0 0 184c0,10 -2,20 -5,28 -10,24 -35,49 -72,49 -49,0 -66,-38 -66,-95l0 -166 -55 0 0 175c0,105 56,131 103,131 54,0 85,-31 99,-55l2 0 3 49 48 0c-2,-24 -2,-51 -2,-82l0 -218z"/>
  <path class="fil0" d="M2361 4944c0,-6 1,-14 1,-26 0,-55 -26,-141 -123,-141 -88,0 -141,71 -141,162 0,90 55,151 147,151 48,0 81,-10 100,-19l-9 -39c-21,9 -44,16 -83,16 -55,0 -102,-31 -103,-104l211 0zm-210 -39c4,-38 28,-89 83,-89 62,0 76,54 76,89l-159 0z"/>
  <path class="fil0" d="M2409 5069c21,13 51,21 84,21 71,0 112,-37 112,-90 0,-44 -27,-70 -79,-90 -39,-15 -57,-26 -57,-51 0,-22 18,-41 51,-41 27,0 49,10 61,17l13 -39c-16,-10 -43,-19 -73,-19 -65,0 -103,40 -103,88 0,36 25,66 79,85 40,15 55,29 55,55 0,25 -18,45 -58,45 -27,0 -55,-12 -72,-22l-13 41z"/>
  <path class="fil0" d="M2687 4712l0 72 -46 0 0 42 46 0 0 163c0,35 6,62 21,78 13,15 34,23 59,23 21,0 38,-3 48,-8l-2 -40c-7,1 -17,3 -32,3 -30,0 -40,-21 -40,-58l0 -161 77 0 0 -42 -77 0 0 -86 -54 14z"/>
  <path class="fil0" d="M2880 5084l54 0 0 -160c0,-9 1,-18 2,-25 7,-41 35,-70 73,-70 7,0 13,0 19,2l0 -52c-5,-1 -10,-2 -16,-2 -36,0 -69,26 -83,66l-2 0 -2 -59 -48 0c2,28 3,58 3,94l0 206z"/>
  <path class="fil0" d="M3297 5084c-3,-21 -5,-46 -5,-72l0 -112c0,-60 -22,-123 -113,-123 -38,0 -74,11 -99,27l13 36c21,-14 50,-22 78,-22 61,0 68,44 68,69l0 6c-116,-1 -180,39 -180,111 0,44 30,86 91,86 43,0 75,-21 92,-44l2 0 4 38 49 0zm-57 -101c0,5 -1,12 -3,17 -9,25 -34,50 -73,50 -28,0 -51,-16 -51,-52 0,-58 67,-68 127,-67l0 52z"/>
  <path class="fil0" d="M3875 5084l53 0 -26 -417 -69 0 -74 201c-19,53 -33,99 -44,141l-2 0c-10,-44 -25,-89 -42,-141l-71 -201 -69 0 -29 417 52 0 11 -179c3,-63 7,-133 8,-185l1 0c12,50 28,104 48,163l68 198 41 0 73 -202c21,-58 39,-110 53,-159l2 0c-1,52 3,122 6,180l10 184z"/>
  <path class="fil0" d="M4063 5084l0 -300 -54 0 0 300 54 0zm-27 -418c-20,0 -34,15 -34,34 0,19 14,33 33,33 22,0 35,-14 35,-33 0,-19 -13,-34 -34,-34l0 0z"/>
  <path class="fil0" d="M4133 5069c21,13 51,21 84,21 71,0 112,-37 112,-90 0,-44 -27,-70 -79,-90 -39,-15 -57,-26 -57,-51 0,-22 18,-41 51,-41 27,0 49,10 61,17l13 -39c-16,-10 -43,-19 -73,-19 -65,0 -104,40 -104,88 0,36 26,66 80,85 40,15 55,29 55,55 0,25 -18,45 -58,45 -27,0 -56,-12 -72,-22l-13 41z"/>
  <path class="fil0" d="M4453 5084l0 -300 -54 0 0 300 54 0zm-27 -418c-20,0 -34,15 -34,34 0,19 14,33 33,33 21,0 35,-14 34,-33 0,-19 -13,-34 -33,-34l0 0z"/>
  <path class="fil0" d="M4670 4777c-82,0 -148,59 -148,159 0,95 62,154 144,154 72,0 149,-48 149,-159 0,-91 -59,-154 -145,-154l0 0zm-1 41c65,0 90,65 90,115 0,68 -39,117 -91,117 -53,0 -91,-50 -91,-116 0,-56 28,-116 92,-116l0 0zm21 -163l-55 88 39 0 76 -88 -60 0z"/>
  <path class="fil0" d="M4883 5084l55 0 0 -180c0,-10 1,-19 4,-26 9,-30 37,-56 73,-56 51,0 69,41 69,89l0 173 54 0 0 -179c0,-103 -64,-128 -106,-128 -49,0 -84,28 -99,57l-1 0 -3 -50 -48 0c2,25 2,50 2,81l0 219z"/>
  <path class="fil0" d="M5599 4944c0,-6 2,-14 2,-26 0,-55 -26,-141 -124,-141 -87,0 -141,71 -141,162 0,90 55,151 148,151 47,0 80,-10 99,-19l-9 -39c-20,9 -44,16 -83,16 -54,0 -101,-31 -103,-104l211 0zm-210 -39c4,-38 28,-89 83,-89 62,0 77,54 76,89l-159 0z"/>
  <path class="fil0" d="M5647 5069c21,13 51,21 84,21 71,0 112,-37 112,-90 0,-44 -27,-70 -78,-90 -39,-15 -57,-26 -57,-51 0,-22 18,-41 50,-41 28,0 49,10 61,17l14 -39c-17,-10 -44,-19 -74,-19 -64,0 -103,40 -103,88 0,36 25,66 79,85 40,15 55,29 55,55 1,25 -18,45 -58,45 -27,0 -55,-12 -71,-22l-14 41z"/>
  <path class="fil0" d="M6023 5069c21,13 52,21 84,21 71,0 112,-37 112,-90 0,-44 -26,-70 -78,-90 -39,-15 -57,-26 -57,-51 0,-22 18,-41 50,-41 28,0 49,10 61,17l14 -39c-17,-10 -44,-19 -74,-19 -64,0 -103,40 -103,88 0,36 25,66 79,85 40,15 56,29 56,55 0,25 -19,45 -58,45 -28,0 -56,-12 -72,-22l-14 41z"/>
  <path class="fil0" d="M6540 4784l-55 0 0 184c0,10 -1,20 -5,28 -9,24 -35,49 -71,49 -50,0 -67,-38 -67,-95l0 -166 -55 0 0 175c0,105 57,131 104,131 53,0 85,-31 99,-55l1 0 3 49 48 0c-2,-24 -2,-51 -2,-82l0 -218z"/>
  <polygon class="fil0" points="6979,4844 6817,4844 6817,4712 6988,4712 6988,4667 6763,4667 6763,5084 6998,5084 6998,5038 6817,5038 6817,4888 6979,4888 "/>
  <path class="fil0" d="M7066 5084l53 0 0 -181c0,-9 1,-19 4,-27 9,-27 34,-54 68,-54 41,0 62,35 62,82l0 180 54 0 0 -185c0,-10 1,-20 4,-28 9,-26 33,-49 64,-49 44,0 65,35 65,92l0 170 53 0 0 -177c0,-104 -58,-130 -98,-130 -28,0 -48,8 -66,21 -13,10 -24,23 -34,39l-1 0c-13,-35 -44,-60 -85,-60 -49,0 -77,27 -94,55l-2 0 -2 -48 -48 0c2,25 3,50 3,81l0 219z"/>
  <path class="fil0" d="M7582 5206l54 0 0 -163 1 0c18,30 53,47 92,47 71,0 136,-53 136,-160 0,-91 -54,-153 -127,-153 -48,0 -84,22 -106,58l-1 0 -3 -51 -49 0c2,29 3,60 3,98l0 324zm54 -296c0,-7 2,-15 3,-22 11,-41 46,-67 83,-67 57,0 89,51 89,111 0,69 -34,116 -91,116 -39,0 -72,-26 -82,-64 -1,-7 -2,-14 -2,-22l0 -52z"/>
  <path class="fil0" d="M7934 5084l54 0 0 -160c0,-9 1,-18 2,-25 8,-41 35,-70 73,-70 8,0 13,0 19,2l0 -52c-5,-1 -9,-2 -16,-2 -36,0 -69,26 -83,66l-2 0 -2 -59 -47 0c1,28 2,58 2,94l0 206z"/>
  <path class="fil0" d="M8377 4944c1,-6 2,-14 2,-26 0,-55 -26,-141 -124,-141 -87,0 -140,71 -140,162 0,90 55,151 147,151 48,0 80,-10 100,-19l-10 -39c-20,9 -44,16 -83,16 -54,0 -101,-31 -102,-104l210 0zm-210 -39c5,-38 29,-89 84,-89 61,0 76,54 75,89l-159 0z"/>
  <path class="fil0" d="M8425 5069c21,13 52,21 84,21 72,0 112,-37 112,-90 0,-44 -26,-70 -78,-90 -39,-15 -57,-26 -57,-51 0,-22 18,-41 50,-41 28,0 50,10 61,17l14 -39c-17,-10 -43,-19 -74,-19 -64,0 -103,40 -103,88 0,36 25,66 79,85 40,15 56,29 56,55 0,25 -19,45 -58,45 -28,0 -56,-12 -72,-22l-14 41z"/>
  <path class="fil0" d="M8907 5084c-4,-21 -5,-46 -5,-72l0 -112c0,-60 -22,-123 -114,-123 -38,0 -74,11 -98,27l12 36c21,-14 50,-22 78,-22 61,0 68,44 68,69l0 6c-116,-1 -180,39 -180,111 0,44 31,86 91,86 43,0 75,-21 92,-44l2 0 4 38 50 0zm-58 -101c0,5 -1,12 -3,17 -9,25 -33,50 -72,50 -28,0 -52,-16 -52,-52 0,-58 68,-68 127,-67l0 52z"/>
 </g>
</svg>
