<?xml version="1.0" encoding="UTF-8"?>
<!DOCTYPE svg PUBLIC "-//W3C//DTD SVG 1.1//EN" "http://www.w3.org/Graphics/SVG/1.1/DTD/svg11.dtd">
<!-- Creator: CorelDRAW X7 -->
<svg xmlns="http://www.w3.org/2000/svg" xml:space="preserve" width="3.74143in" height="1.87241in" version="1.1" style="shape-rendering:geometricPrecision; text-rendering:geometricPrecision; image-rendering:optimizeQuality; fill-rule:evenodd; clip-rule:evenodd"
viewBox="0 0 646 323"
 xmlns:xlink="http://www.w3.org/1999/xlink">
 <defs>
  <style type="text/css">
   <![CDATA[
    .fil0 {fill:white}
   ]]>
  </style>
 </defs>
 <g id="Capa_x0020_1">
  <metadata id="CorelCorpID_0Corel-Layer"/>
  <g id="_3050778048992">
   <path class="fil0" d="M463 297c2,-3 1,-1 7,-3 3,-2 5,-2 8,-3 26,-10 47,-21 69,-39 2,-1 2,-1 3,-2 1,-1 2,-1 3,-2l17 -17c2,0 3,1 5,2 2,0 5,0 7,0 0,0 0,0 0,0 0,0 1,0 1,0 0,0 0,0 0,0 5,3 2,7 12,5 -4,5 -29,20 -36,24 -30,17 -53,24 -86,34 -6,2 -4,1 -10,1zm-445 -128l-3 -11 0 11 0 0 -1 0 -2 0 0 0 0 0 0 -15 0 0 0 0 4 0 0 0 0 0 3 11 4 -11 0 0 0 0 3 0 1 0 0 0 0 15 0 0 -1 0 -2 0 0 0 0 0 0 -11 -4 11 0 0 0 0 -2 0 0 0 0 0zm13 -15l1 0 1 0 0 0 0 15 0 0 -1 0 -1 0 -1 0 0 0 0 -15 0 0 1 0zm14 11l0 -11 0 0 0 0 2 0 0 0 0 0 0 15 0 0 0 0 -3 0 0 0 0 0 -5 -12 0 12 0 0 0 0 -2 0 0 0 0 0 0 -15 0 0 0 0 3 0 0 0 0 0 5 11zm6 -11l2 0 1 0 0 0 0 15 0 0 -1 0 -2 0 0 0 0 0 0 -15 0 0 0 0zm6 14c0,-2 0,-3 0,-4l0 0 0 0 2 0 0 0 0 0 0 1c0,1 1,1 1,2l0 0c0,0 1,0 2,0 0,0 1,0 1,0 1,-1 1,-1 1,-2 0,-1 -1,-2 -3,-3l0 0c-2,-1 -4,-2 -4,-4 0,-2 1,-3 1,-4l0 0c1,0 3,-1 4,-1l0 0 0 0 0 0c2,0 3,1 3,1 1,1 1,2 1,4l0 0 0 0 0 0 -2 0 0 0 0 0c0,-1 0,-1 -1,-2 0,0 0,0 -1,0 -1,0 -1,0 -2,0 0,0 0,1 0,1 0,2 1,2 3,3 1,1 4,2 4,5 0,2 -1,3 -2,3 -1,1 -2,2 -3,2l0 0c-3,0 -4,-1 -5,-2zm11 -12l0 -2 0 0 0 0 10 0 0 0 0 0 0 2 0 0 0 0 -3 0 0 13 0 0 -1 0 -2 0 0 0 0 0 0 -13 -4 0 0 0 0 0zm21 11l0 2 0 0 0 0 -8 0 -1 0 0 0 0 -15 0 0 1 0 7 0 1 0 0 0 0 2 0 0 -1 0 -5 0 0 4 5 0 0 0 0 0 0 2 0 0 0 0 -5 0 0 5 6 0 0 0 0 0zm8 -11l-3 0 0 4 3 0c0,0 0,0 1,-1 0,0 0,-1 0,-1 0,-1 0,-1 0,-2 -1,0 -1,0 -1,0zm0 7c0,-1 -1,-1 -1,-1l-2 0 0 7 0 0 0 0 -2 0 -1 0 0 0 0 -15 0 0 1 0 5 0c1,0 2,0 3,1 1,0 1,2 1,3 0,1 0,1 -1,2 0,1 -1,1 -1,1 0,0 1,0 1,1 0,0 0,1 1,3 0,0 0,1 0,2 0,1 0,1 0,2l0 0 0 0 -2 0 0 0 -1 0c0,-1 0,-2 0,-3 0,-1 0,-1 0,-2l0 0c0,-1 -1,-1 -1,-1zm7 -9l2 0 0 0 0 0 0 15 0 0 0 0 -2 0 0 0 0 0 0 -15 0 0 0 0zm15 14c-1,1 -2,2 -4,2 -2,0 -3,-1 -4,-2 -1,-1 -1,-2 -1,-5l0 -4c0,-2 0,-3 1,-4 1,-1 2,-2 4,-2 2,0 3,1 4,2 1,1 1,2 1,4l0 4c0,3 0,4 -1,5zm-6 -1c1,0 1,0 2,0 1,0 1,0 2,0 0,-1 0,-2 0,-3l0 -6c0,-1 0,-2 -1,-2 0,0 -1,0 -1,0 0,0 -1,0 -1,0 -1,0 -1,1 -1,2l0 6c0,1 0,2 0,3zm20 -11l-2 0 0 11 1 0c1,0 2,0 3,-1 0,-1 0,-2 0,-3l0 -3c0,-2 0,-3 0,-3 -1,-1 -1,-1 -2,-1zm-1 13l-4 0 0 0 0 0 0 -15 0 0 0 0 5 0c1,0 2,0 3,0 0,1 1,1 1,2l0 0c0,1 1,1 1,2 0,1 0,3 0,3 0,2 0,3 0,4 0,1 -1,2 -1,2l0 0c0,1 -1,1 -2,2 -1,0 -2,0 -3,0zm18 -2l0 2 0 0 -1 0 -7 0 -1 0 0 0 0 -15 0 0 1 0 7 0 1 0 0 0 0 2 0 0 -1 0 -5 0 0 4 5 0 0 0 0 0 0 2 0 0 0 0 -5 0 0 5 5 0 1 0 0 0zm10 0l0 2 0 0 0 0 -7 0 -1 0 0 0 0 -15 0 0 1 0 2 0 0 0 0 0 0 13 5 0 0 0 0 0zm15 -12c1,0 1,2 1,3l0 0 0 0 -2 0 -1 0 0 0c0,0 0,-1 0,-1 0,0 0,-1 0,-1 0,0 0,0 -1,0 0,0 0,0 0,0 -1,0 -1,0 -2,0 0,0 0,0 0,0l0 1 0 0 0 0c-1,0 -1,0 -1,3l0 4c0,1 0,2 1,3 0,0 1,0 2,0 0,0 0,0 1,0l0 0c0,0 1,-1 1,-3l0 0 0 0 2 0 0 0 0 0c0,6 -3,6 -4,6 -1,0 -3,0 -4,-1 -1,-1 -1,-3 -1,-6l0 -4c0,-2 0,-4 1,-4 1,-1 2,-2 4,-2 1,0 2,1 3,2zm13 13c-1,1 -2,2 -4,2 -2,0 -3,-1 -4,-2 -1,-1 -1,-2 -1,-5l0 -4c0,-2 0,-3 1,-4 1,-1 2,-2 4,-2 2,0 3,1 4,2 0,1 1,2 1,4l0 4c0,3 0,4 -1,5zm-6 -1c0,0 1,0 2,0 1,0 1,0 2,0 0,-1 0,-2 0,-3l0 -6c0,-1 0,-2 -1,-2 0,0 -1,0 -1,0 0,0 -1,0 -2,0 0,0 -1,1 -1,2l0 6c0,1 1,2 1,3zm16 2l-3 -11 0 11 0 0 -1 0 -1 0 -1 0 0 0 0 -15 0 0 1 0 3 0 0 0 0 0 3 11 4 -11 0 0 0 0 3 0 1 0 0 0 0 15 0 0 -1 0 -1 0 -1 0 0 0 0 -11 -3 11 0 0 -1 0 -1 0 -1 0 0 0zm21 -2l0 2 0 0 -1 0 -8 0 0 0 0 0 0 -15 0 0 0 0 8 0 1 0 0 0 0 2 0 0 -1 0 -5 0 0 4 5 0 0 0 0 0 0 2 0 0 0 0 -5 0 0 5 5 0 1 0 0 0zm7 -11l-2 0 0 4 2 0c1,0 1,0 1,-1 1,0 1,-1 1,-1 0,-1 0,-1 -1,-2 0,0 0,0 -1,0zm1 7c-1,-1 -1,-1 -1,-1l-2 0 0 7 0 0 -1 0 -2 0 0 0 0 0 0 -15 0 0 0 0 6 0c1,0 2,0 2,1 1,0 2,2 2,3 0,1 -1,1 -1,2 -1,1 -1,1 -1,1 0,0 0,0 1,1 0,0 0,1 0,3 0,0 0,1 0,2 1,1 1,1 1,2l0 0 -1 0 -2 0 0 0 0 0c0,-1 0,-2 0,-3 0,-1 0,-1 0,-2l0 0c-1,-1 -1,-1 -1,-1zm15 -8c0,0 1,2 1,3l0 0 -1 0 -2 0 0 0 0 0c0,0 0,-1 0,-1 0,0 0,-1 0,-1 -1,0 -1,0 -1,0 0,0 -1,0 -1,0 0,0 -1,0 -1,0 -1,0 -1,0 -1,0l0 1 0 0 0 0c0,0 0,0 0,3l0 4c0,1 0,2 0,3 1,0 1,0 2,0 0,0 1,0 1,0l0 0c1,0 1,-1 1,-3l0 0 0 0 2 0 1 0 0 0c0,6 -4,6 -5,6 -1,0 -2,0 -3,-1 -1,-1 -2,-3 -2,-6l0 -4c0,-2 1,-4 2,-4 0,-1 2,-2 3,-2 2,0 3,1 4,2zm4 -1l2 0 0 0 0 0 0 15 0 0 0 0 -2 0 0 0 0 0 0 -15 0 0 0 0zm15 14c-1,1 -2,2 -4,2 -2,0 -3,-1 -4,-2 -1,-1 -1,-2 -1,-5l0 -4c0,-2 0,-3 1,-4 1,-1 2,-2 4,-2 2,0 3,1 4,2 0,1 1,2 1,4l0 4c0,3 -1,4 -1,5zm-6 -1c0,0 1,0 2,0 1,0 1,0 2,0 0,-1 0,-2 0,-3l0 -6c0,-1 0,-2 -1,-2 0,0 -1,0 -1,0 0,0 -1,0 -2,0 0,0 -1,1 -1,2l0 6c0,1 1,2 1,3zm23 0l0 2 0 0 0 0 -8 0 0 0 0 0 0 -15 0 0 0 0 8 0 0 0 0 0 0 2 0 0 0 0 -6 0 0 4 5 0 1 0 0 0 0 2 0 0 -1 0 -5 0 0 5 6 0 0 0 0 0zm13 -13l-4 7 4 8 0 0 0 0 -3 0 0 0 0 0 -3 -6 -3 6 0 0 0 0 -2 0 -1 0 0 0 5 -8 -4 -7 -1 0 1 0 2 0 0 0 0 0 3 5 3 -5 0 0 0 0 2 0 1 0 0 0zm1 2l0 -2 0 0 0 0 10 0 0 0 0 0 0 2 0 0 0 0 -4 0 0 13 0 0 0 0 -2 0 0 0 0 0 0 -13 -4 0 0 0 0 0zm21 11l0 2 0 0 -1 0 -8 0 0 0 0 0 0 -15 0 0 0 0 8 0 0 0 0 0 0 2 0 0 0 0 -5 0 0 4 5 0 0 0 0 0 0 2 0 0 0 0 -5 0 0 5 5 0 1 0 0 0zm7 -11l-2 0 0 4 2 0c1,0 1,0 1,-1 1,0 1,-1 1,-1 0,-1 0,-1 -1,-2 0,0 0,0 -1,0zm1 7c-1,-1 -1,-1 -2,-1l-1 0 0 7 0 0 -1 0 -2 0 0 0 0 0 0 -15 0 0 0 0 5 0c2,0 3,0 3,1 1,0 1,2 1,3 0,1 0,1 0,2 -1,1 -1,1 -2,1 1,0 1,0 1,1 1,0 1,1 1,3 0,0 0,1 0,2 0,1 0,1 1,2l0 0 -1 0 -2 0 0 0 0 0c0,-1 0,-2 -1,-3 0,-1 0,-1 0,-2l0 0c0,-1 0,-1 0,-1zm7 -9l2 0 0 0 0 0 0 15 0 0 0 0 -2 0 -1 0 0 0 0 -15 0 0 1 0zm14 14c0,1 -2,2 -3,2 -2,0 -3,-1 -4,-2 -1,-1 -1,-2 -1,-5l0 -4c0,-2 0,-3 1,-4 1,-1 2,-2 4,-2 1,0 2,1 3,2 1,1 2,2 2,4l0 4c0,3 -1,4 -2,5zm-5 -1c0,0 1,0 2,0 0,0 1,0 1,0 1,-1 1,-2 1,-3l0 -6c0,-1 0,-2 -1,-2 -1,0 -1,0 -1,0 -1,0 -1,0 -2,0 0,0 -1,1 -1,2l0 6c0,1 0,2 1,3zm15 -11l-3 0 0 4 3 0c1,0 1,0 1,-1 1,0 1,-1 1,-1 0,-1 0,-1 -1,-2 0,0 0,0 -1,0zm1 7c-1,-1 -1,-1 -2,-1l-2 0 0 7 0 0 0 0 -2 0 0 0 0 0 0 -15 0 0 0 0 5 0c2,0 3,0 3,1 1,0 1,2 1,3 0,1 0,1 -1,2 0,1 0,1 -1,1 1,0 1,0 1,1 1,0 1,1 1,3 0,0 0,1 0,2 0,1 0,1 0,2l1 0 -1 0 -2 0 0 0 0 0c-1,-1 -1,-2 -1,-3 0,-1 0,-1 0,-2l0 0c0,-1 0,-1 0,-1zm12 -9l3 6 2 -6 0 0 1 0 2 0 0 0 0 0 -4 9 0 6 0 0 -1 0 -1 0 -1 0 0 0 0 -6 -4 -9 0 0 1 0 2 0 0 0 0 0zm22 13l0 2 0 0 0 0 -7 0 -1 0 0 0 0 -15 0 0 1 0 2 0 0 0 0 0 0 13 5 0 0 0 0 0zm3 2l-2 0 0 0 0 0 5 -15 0 0 0 0 2 0 1 0 0 0 4 15 1 0 -1 0 -2 0 0 0 0 0 -1 -3 -6 0 -1 3 0 0 0 0zm2 -6l4 0 -2 -6 -2 6zm16 -9l2 0 0 0 0 0 0 15 0 0 0 0 -2 0 -1 0 0 0 0 -15 0 0 1 0zm14 11l0 -11 0 0 0 0 2 0 1 0 0 0 0 15 0 0 -1 0 -2 0 -1 0 0 0 -5 -12 0 12 0 0 0 0 -2 0 0 0 0 0 0 -15 0 0 0 0 3 0 0 0 0 0 5 11zm14 -11l2 0 0 0 0 0 -4 15 0 0 -1 0 -2 0 0 0 0 0 -4 -15 -1 0 1 0 2 0 0 0 0 0 3 12 4 -12 0 0 0 0zm13 13l0 2 0 0 -1 0 -8 0 0 0 0 0 0 -15 0 0 0 0 8 0 0 0 0 0 0 2 0 0 0 0 -5 0 0 4 5 0 0 0 0 0 0 2 0 0 0 0 -5 0 0 5 5 0 1 0 0 0zm7 -11l-2 0 0 4 2 0c1,0 1,0 1,-1 1,0 1,-1 1,-1 0,-1 0,-1 -1,-2 0,0 0,0 -1,0zm1 7c-1,-1 -1,-1 -1,-1l-2 0 0 7 0 0 -1 0 -2 0 0 0 0 0 0 -15 0 0 0 0 6 0c1,0 2,0 2,1 1,0 2,2 2,3 0,1 -1,1 -1,2 -1,1 -1,1 -1,1 0,0 0,0 1,1 0,0 0,1 0,3 0,0 0,1 0,2 1,1 1,1 1,2l0 0 -1 0 -2 0 0 0 0 0c0,-1 0,-2 0,-3 0,-1 0,-1 0,-2l0 0c-1,-1 -1,-1 -1,-1zm6 5c0,-2 0,-3 0,-4l0 0 0 0 2 0 0 0 0 0 0 1c0,1 1,1 1,2l0 0c0,0 1,0 2,0 0,0 1,0 1,0 1,-1 1,-1 1,-2 0,-1 -1,-2 -3,-3l0 0c-2,-1 -4,-2 -4,-4 0,-2 1,-3 2,-4l0 0c0,0 2,-1 3,-1l0 0 0 0 0 0c2,0 3,1 3,1 1,1 1,2 1,4l0 0 0 0 0 0 -2 0 0 0 0 0c0,-1 0,-1 -1,-2 0,0 0,0 -1,0 -1,0 -1,0 -2,0 0,0 0,1 0,1 0,2 1,2 3,3 1,1 4,2 4,5 0,2 -1,3 -2,3 -1,1 -2,2 -3,2l0 0c-3,0 -4,-1 -5,-2zm13 -14l2 0 0 0 0 0 0 15 0 0 0 0 -2 0 0 0 0 0 0 -15 0 0 0 0zm15 14c-1,1 -2,2 -4,2 -2,0 -3,-1 -4,-2 -1,-1 -1,-2 -1,-5l0 -4c0,-2 0,-3 1,-4 1,-1 2,-2 4,-2 2,0 3,1 4,2 0,1 1,2 1,4l0 4c0,3 -1,4 -1,5zm-6 -1c0,0 1,0 2,0 1,0 1,0 2,0 0,-1 0,-2 0,-3l0 -6c0,-1 0,-2 -1,-2 0,0 -1,0 -1,0 0,0 -1,0 -2,0 0,0 -1,1 -1,2l0 6c0,1 1,2 1,3zm0 -15l2 -3 0 0 0 0 2 0 1 0 0 1 -3 3 0 0 0 0 -2 0 0 0 0 -1zm19 13l0 -11 0 0 0 0 2 0 0 0 0 0 0 15 0 0 0 0 -3 0 0 0 0 0 -5 -12 0 12 0 0 -1 0 -1 0 -1 0 0 0 0 -15 0 0 1 0 2 0 1 0 0 0 5 11zm19 2l0 2 0 0 -1 0 -7 0 -1 0 0 0 0 -15 0 0 1 0 7 0 1 0 0 0 0 2 0 0 -1 0 -5 0 0 4 5 0 0 0 0 0 0 2 0 0 0 0 -5 0 0 5 5 0 1 0 0 0zm12 -13l-4 7 5 8 0 0 -1 0 -2 0 0 0 0 0 -4 -6 -3 6 0 0 0 0 -2 0 0 0 0 0 4 -8 -4 -7 0 0 0 0 2 0 1 0 0 0 3 5 2 -5 0 0 1 0 2 0 0 0 0 0zm1 2l0 -2 0 0 0 0 10 0 1 0 0 0 0 2 0 0 -1 0 -3 0 0 13 0 0 -1 0 -2 0 0 0 0 0 0 -13 -4 0 0 0 0 0zm18 0l-3 0 0 4 3 0c0,0 0,0 1,-1 0,0 0,-1 0,-1 0,-1 0,-1 0,-2 0,0 -1,0 -1,0zm0 7c0,-1 -1,-1 -1,-1l-2 0 0 7 0 0 0 0 -2 0 -1 0 0 0 0 -15 0 0 1 0 5 0c1,0 2,0 3,1 1,0 1,2 1,3 0,1 0,1 -1,2 0,1 -1,1 -1,1 0,0 1,0 1,1 0,0 0,1 1,3 0,0 0,1 0,2 0,1 0,1 0,2l0 0 0 0 -2 0 0 0 -1 0c0,-1 0,-2 0,-3 0,-1 0,-1 0,-2l0 0c0,-1 -1,-1 -1,-1zm8 6l-2 0 -1 0 0 0 5 -15 0 0 0 0 3 0 0 0 0 0 5 15 0 0 0 0 -2 0 -1 0 0 0 -1 -3 -5 0 -1 3 0 0 0 0zm2 -6l3 0 -1 -6 -2 6zm19 2l0 -11 0 0 0 0 2 0 0 0 0 0 0 15 0 0 0 0 -3 0 0 0 0 0 -6 -12 0 12 0 0 0 0 -2 0 0 0 0 0 0 -15 0 0 0 0 3 0 0 0 0 0 6 11zm5 3c-1,-1 -1,-2 -1,-4l0 0 1 0 2 0 0 0 0 0 0 1 0 0c0,1 0,2 2,2 0,0 1,0 1,-1 0,0 0,-1 0,-2l0 -10 0 0 1 0 2 0 0 0 0 0 0 11c0,1 0,2 -1,3 0,1 -1,2 -4,2 0,0 -1,-1 -2,-1 0,0 -1,-1 -1,-1l0 0zm20 -1l0 2 0 0 0 0 -8 0 -1 0 0 0 0 -15 0 0 1 0 7 0 1 0 0 0 0 2 0 0 -1 0 -5 0 0 4 5 0 0 0 0 0 0 2 0 0 0 0 -5 0 0 5 6 0 0 0 0 0zm8 -11l-3 0 0 4 3 0c0,0 0,0 1,-1 0,0 0,-1 0,-1 0,-1 0,-1 0,-2 -1,0 -1,0 -1,0zm0 7c0,-1 -1,-1 -1,-1l-2 0 0 7 0 0 0 0 -2 0 -1 0 0 0 0 -15 0 0 1 0 5 0c1,0 2,0 3,1 1,0 1,2 1,3 0,1 0,1 -1,2 0,1 -1,1 -1,1 0,0 1,0 1,1 0,0 0,1 1,3 0,0 0,1 0,2 0,1 0,1 0,2l0 0 0 0 -2 0 0 0 -1 0c0,-1 0,-2 0,-3 0,-1 0,-1 0,-2l0 0c0,-1 -1,-1 -1,-1zm8 6l-2 0 -1 0 0 0 5 -15 0 0 0 0 3 0 0 0 0 0 5 15 0 0 0 0 -2 0 -1 0 0 0 -1 -3 -5 0 -1 3 0 0 0 0zm2 -6l3 0 -2 -6 -1 6zm-375 75c6,0 5,1 8,-4 2,-3 4,-3 9,-3 5,20 9,41 20,59 1,2 3,6 4,8 -11,0 -12,1 -24,-5 -1,0 -3,-1 -5,-2 -5,-2 -27,-28 -27,-33 0,-1 2,-4 2,-7l-1 -2 6 0c0,-6 14,-1 8,-11zm103 52c-4,0 -6,-2 -20,-2 -4,0 -5,0 -9,0l0 -57c8,0 21,-2 24,1 1,2 0,0 1,2 0,1 1,7 6,7 11,0 10,-3 17,-7 0,-1 1,-1 2,-2 -1,5 -3,11 -4,16 -2,7 -13,42 -17,42zm-83 -59l50 0 0 57c-4,1 -10,1 -15,2 -7,1 -6,4 -11,5 -6,-8 -11,-18 -15,-29 -2,-6 -8,-29 -9,-35zm143 62c1,-1 26,-19 33,-27 2,-2 2,-3 4,-4 1,-2 2,-3 3,-4 5,-6 17,-22 18,-27l45 0c-2,7 -24,27 -30,32 -11,8 -19,13 -31,20 -25,12 -16,10 -42,10zm-29 1c3,-3 6,-5 10,-9 12,-13 28,-37 32,-54l42 0c-2,5 -11,18 -15,22l-18 19c-6,5 -24,20 -33,22 -4,0 -12,0 -18,0zm-207 -63l36 0c5,0 5,-1 6,2 1,7 -3,8 -3,12 0,5 3,-2 3,13 0,3 0,6 0,8 0,4 1,4 3,6 2,2 2,2 5,3 1,1 4,3 5,3 4,0 2,-2 0,-4 -1,-1 -4,-2 -5,-3 3,-10 3,-6 7,-8l20 25c-8,-2 -9,0 -16,5l-18 -12c-12,-9 -23,-20 -31,-31l-11 -16c-1,-2 0,-2 -1,-3zm262 63l6 -3c2,-1 4,-2 6,-3 12,-6 23,-13 34,-21 7,-5 13,-10 19,-17 9,-9 8,-9 15,-17 1,-1 1,-2 3,-2l20 0c4,0 1,5 9,1 6,-3 2,-2 13,-1 -3,6 -18,18 -24,23 -7,5 -15,10 -22,14l-15 8c-14,7 -28,13 -43,18 -9,3 -8,0 -21,0zm-60 -1c-8,0 -15,-2 -22,-2 1,-2 7,-14 10,-22 3,-8 5,-15 7,-24 4,-17 -1,-14 17,-14 11,0 22,0 32,0 -6,11 -6,18 -18,35 -2,3 -3,5 -6,8 -2,3 -16,19 -20,19zm-250 -62l44 0c2,4 10,16 12,19 3,3 5,6 7,9l8 9c9,8 16,14 26,21 3,2 8,4 9,6 -8,3 1,10 -37,-8l-27 -15 -18 -13c-2,-2 -3,-4 -5,-6 -2,-1 -4,-2 -5,-4l-10 -12c-2,-2 -3,-4 -4,-6zm-50 0l46 0c2,9 32,35 40,41 6,3 13,8 19,11 2,2 4,3 7,4l28 13c-14,1 -12,1 -30,-5 -26,-8 -46,-16 -69,-30 -5,-3 -10,-7 -15,-10l-14 -11c-2,-3 -11,-11 -12,-13zm-37 0c9,0 19,0 28,0 8,0 6,1 9,5l15 14c23,19 56,35 84,45l22 7c-9,0 -38,-9 -46,-11 -20,-7 -24,-8 -42,-16 -7,-3 -13,-6 -19,-9 -12,-6 -25,-14 -36,-22 -2,-2 -13,-10 -15,-13zm171 -30c4,1 2,1 4,4 2,2 4,2 3,5 0,3 -1,2 -1,7 1,4 0,3 0,7 0,0 0,0 0,0l-2 -5c-1,-4 -4,-14 -4,-18zm0 0l0 0zm182 -4l0 0zm0 0c2,0 1,1 1,-1 -4,-3 -5,-2 -12,-2l-44 0c-2,7 -7,9 -2,17 2,4 3,3 5,7 1,3 1,7 2,10l-21 0 0 -34c-5,0 -4,0 -4,5l0 29 -50 0c-1,-3 -2,-6 -2,-9 3,-2 3,-3 7,-3 5,-1 8,-3 11,-7 3,-5 6,-5 4,-11 3,-2 5,-2 7,-4l-96 0 0 2c3,0 2,-1 7,4 1,1 8,28 8,28l-41 0c-1,-5 -8,-14 -12,-32 -1,-3 0,-2 -4,-2 0,8 9,26 13,34l-46 0c-1,-2 -4,-7 -5,-9 -2,-2 -4,-6 -5,-8 -2,-3 -3,-6 -4,-10 -4,-9 -1,-7 -6,-7 1,7 4,12 7,17l9 17 -46 0c-3,-5 -18,-20 -21,-34l-3 0c0,9 16,27 20,34 -8,0 -17,0 -25,0 -6,0 -8,1 -11,-2l-17 -23c-2,-3 -8,-14 -8,-18l622 0c-5,10 -3,9 -10,20 -2,4 -9,14 -12,16l0 -8 -7 -6c-1,0 0,0 -1,-1 0,0 0,0 -1,-1 -1,-2 -3,-3 -4,-4 -2,-3 0,-4 -2,-7 -2,2 -1,0 -1,3 -2,-1 -1,0 -1,-3l-5 0c-1,6 -3,4 -4,5 0,1 -8,-5 -8,-5 -2,-1 -5,-1 -7,0 -3,0 -4,0 -5,2l-1 0c-1,-1 1,-1 -2,-1 -3,0 -3,4 -8,1 -2,4 -2,1 -4,4 -2,1 -2,3 -4,4 -2,2 -4,0 -6,0 -3,0 -2,2 -5,3 2,18 8,11 8,21l-21 0c7,-13 12,-19 16,-34 -3,0 -3,-1 -4,2 -1,2 -1,3 -1,5 -2,4 -3,6 -4,10l-10 17 -46 0c1,-5 12,-24 12,-34l-3 0c-5,19 -12,30 -12,34l-42 0c2,-10 8,-23 8,-34l-3 0c0,7 -6,27 -9,34l-46 0c0,-5 3,-7 6,-9 -2,-4 -2,-6 4,-12 3,-3 3,0 6,-3 2,-2 2,-4 1,-7zm-235 -87c3,0 3,0 5,0 -1,6 -4,10 -5,17 -2,0 -2,0 -3,-1 -3,-2 -1,-4 -1,-8 0,-3 -1,-1 0,-5 4,0 3,1 5,1 0,-2 0,-2 0,-2 0,-1 0,-1 0,-1l-1 -1zm-42 0l0 0zm0 0l0 0zm287 -7c2,1 3,2 4,3 2,2 2,3 4,5 5,5 9,4 12,4 2,0 2,1 3,2 2,1 1,0 3,1 0,3 1,2 1,5 -3,-2 -4,-4 -7,-5 -4,-2 -6,1 -10,0 -4,-1 -10,-10 -10,-15zm-76 -1c-3,0 -3,1 -5,3 0,-4 -1,-5 -1,-10l51 0 3 15c0,1 0,0 -1,1 -4,3 -9,-3 -19,-3l0 4c-3,0 -8,-2 -11,-3 -4,-2 -3,-5 -4,-9 -7,0 -3,-1 -6,2 -3,2 -3,0 -7,0zm50 2c0,-2 -1,-5 -1,-7 1,-1 4,-2 6,-2 0,8 -2,8 -5,9zm-328 26c4,0 3,0 4,-3 4,-10 10,-19 17,-28 1,-1 2,-4 4,-4l30 0c2,0 4,4 5,6 2,1 4,3 6,5 -4,5 -7,11 -9,17 -1,2 -1,5 -2,7l3 0c1,-7 6,-12 7,-17 4,0 3,2 7,2l0 2c-4,0 -2,-1 -3,1 1,1 3,1 5,2 1,2 0,5 4,5 5,0 -4,-10 -5,-11 -2,-2 -2,-2 -2,-5 1,1 9,9 10,10 11,14 3,11 29,11 2,0 2,-6 4,-9 1,-2 2,-6 3,-9 1,1 2,1 4,1 0,-2 0,-1 -1,-3l5 0c2,0 1,0 3,0l3 1c7,1 6,5 7,8 10,-2 -4,-13 -5,-14 3,-4 6,-2 6,-10l25 0c0,5 -3,12 -4,17 -2,5 -2,13 -5,18l17 0 -3 -3c-1,1 -2,1 -5,1 -6,0 -4,-2 -1,-13 1,-4 1,-7 2,-10 1,-2 2,-8 3,-10l47 0c-2,11 -4,24 -4,35l3 0c0,-13 4,-26 4,-35l51 0 0 11c-3,-1 -7,-7 -13,4 -5,9 -8,6 -13,11l-7 6c-1,1 -1,-1 -1,3l104 0c-1,-3 -2,-4 -3,-5 -2,-3 -3,-7 -5,-11 -2,-2 -2,-2 -2,-6l13 18c2,3 2,2 4,3 2,1 -1,1 2,1 6,0 26,1 31,-2 0,-1 1,-1 1,-2l2 -2c0,3 0,3 0,6l3 0c0,-5 -2,-8 -2,-12 10,-1 12,-1 19,9 2,-1 0,0 1,-1 2,0 0,0 2,-1 2,7 7,5 22,5 2,0 2,-2 4,-3l0 3 3 0c0,-3 0,-4 2,-6 9,-5 6,2 11,4l2 1c0,0 0,0 0,0 6,2 19,1 26,1 0,-3 -1,-4 1,-4 5,-1 1,1 5,-2 1,3 2,2 2,6l4 0c-1,-3 -2,-5 -3,-7 12,-3 9,-13 2,-19 -6,-5 -11,-1 -11,-9 4,0 9,0 13,0 4,0 8,0 11,0 7,2 0,2 1,4 0,0 0,1 1,1 -6,-1 -4,-2 -5,3 -1,3 -1,1 -1,5 2,0 2,0 4,-1 0,6 1,4 4,4 3,0 3,1 2,-5 2,1 2,1 4,1 0,-2 0,-2 -1,-4 2,1 1,1 4,1 0,-5 -4,-5 -6,-9 6,0 10,-1 14,4 3,3 5,6 8,10 3,5 7,10 9,16 1,4 0,5 5,5 -4,-8 -4,-10 -9,-19 -4,-5 -9,-10 -12,-16 9,0 17,0 26,0 6,0 7,-1 10,3l6 7c6,8 16,22 19,33l-622 0c2,-3 2,-6 4,-9 1,-3 3,-6 4,-9 4,-8 9,-16 16,-22 3,-4 4,-3 10,-3 9,0 17,0 26,0 -8,12 -9,11 -16,25 -2,3 -2,6 -4,10zm313 -41l0 -3c4,0 2,-1 3,2 1,2 1,2 3,4l-8 0c1,-1 2,-1 2,-3zm-28 -9c14,0 5,2 14,7 4,2 3,1 2,5l-8 0c0,-4 1,-1 -1,-2 -4,3 -6,2 -14,2l0 -1c0,0 0,0 0,0 0,0 0,-1 0,-1l0 -1c0,0 0,0 0,0 0,-2 -1,0 0,-2 0,-1 0,0 1,-1 0,-1 1,-2 1,-2 3,-3 0,-4 5,-4zm12 -1c4,-2 5,1 6,2 3,3 3,1 5,7 1,3 0,1 2,4l-7 0c0,-6 1,0 2,-5 -1,-2 -2,-2 -4,-4 -1,-1 -3,-3 -4,-4zm-24 0l0 -4 2 0c-1,2 0,3 -2,4zm-215 1c0,9 -2,3 -2,12l-29 0c4,-6 15,-14 21,-19 2,-2 5,-4 8,-5 0,3 -1,2 1,4 1,1 3,2 4,2l-4 1c0,5 1,2 1,5zm108 12l-17 0c0,0 0,-1 0,0l-2 -3c7,0 5,-1 7,-4 1,-2 4,-4 6,-5 8,-3 5,-8 15,-8 -1,3 -3,6 -5,9 -1,4 -2,8 -4,11zm310 -31c6,2 23,17 30,22 3,3 6,6 8,10 -18,0 -8,-3 -16,-4 -2,2 -2,3 -2,4l-19 -1c0,0 0,-1 0,-1 0,-4 -2,0 -2,-8 3,0 3,-1 5,-3 3,1 4,3 5,0 3,-9 -6,-15 -9,-19zm0 0l0 0 0 0zm0 0l0 0zm-195 -1c-1,1 -1,2 -2,0l2 0zm193 -1l0 0zm0 0l0 0zm-3 -1l1 0c0,0 -1,0 -1,0zm-1 -1l0 0zm29 0l0 0zm-445 7c-3,3 -29,21 -30,28l-34 0c4,-5 23,-19 28,-22 4,-2 24,-14 27,-14 1,0 1,0 1,0 4,1 1,1 5,0 1,1 -1,0 1,4l2 4zm416 -7c-5,0 -6,1 -7,-4 2,1 5,2 7,4zm29 0c8,2 34,19 41,25 2,2 10,8 11,11 -7,0 -26,0 -31,-1 -3,0 -13,-11 -17,-15 -7,-6 -19,-15 -27,-20 -2,-2 -8,-4 -10,-6 8,-2 4,0 8,1 2,0 4,0 5,-1 0,-1 -1,-2 -2,-3 5,0 5,0 6,3 2,4 1,4 4,6 2,2 4,4 6,5 4,1 5,1 8,1 0,-3 -1,-4 -2,-6zm-186 -12c4,-1 -1,-2 4,-3 1,2 1,3 1,6 -5,0 -2,-1 -5,-2l0 -1zm14 -11l0 -3c5,0 10,5 11,7l-5 4c-1,-1 -6,-7 -6,-8zm-17 6c-1,-4 0,-3 1,-6l5 0 -5 5c-1,1 0,0 -1,1zm-75 -7c0,1 -11,22 -16,42 -1,4 -3,13 -3,17l-47 0c2,-5 7,-14 9,-19 3,1 2,1 5,1 1,-2 3,-5 4,-8 5,0 6,1 10,0 1,-2 1,-2 1,-5 0,-7 -3,-6 2,-10 1,-2 1,-3 2,-5 4,-8 5,-12 11,-16 3,2 4,2 5,6 0,3 1,7 4,8 4,1 5,-3 7,-5 2,-3 3,-4 6,-6zm0 0l0 0zm130 -2c0,1 0,-2 0,2 0,-1 0,1 0,-2zm-84 29c2,-5 -3,-2 -5,-1l-1 1c-1,1 0,0 -2,3 3,2 3,1 3,5 -2,0 -2,1 -3,1l0 -21c0,-4 -1,-4 1,-6 2,1 2,-1 1,2 5,0 5,-1 6,-4 5,0 4,0 9,-3 2,-1 5,-5 10,-6 -2,3 -3,2 -6,5l-4 2c-3,2 -3,2 -4,4l0 1c-1,2 -1,1 1,3 -2,1 -2,0 -2,2 3,2 6,4 8,-1l3 0c-1,5 0,1 2,7 7,-2 1,0 8,-7 0,-5 -1,0 -1,-7 2,1 1,0 3,3l2 3c-3,4 -13,17 -14,5 -1,1 -2,1 -4,1 0,5 1,4 1,8 -5,0 -2,0 -8,3l-1 1c-2,1 0,3 -4,1 0,-3 -1,-2 2,-2l-1 -3zm19 -29c-4,-4 -8,-1 -14,0 -2,1 -4,1 -6,2 -3,1 -3,2 -7,2l0 -26c8,0 16,6 20,11 2,2 8,8 7,11zm99 -5c1,0 3,1 1,1 0,0 -2,1 -1,-1zm-2 0c0,-1 4,0 1,0 -1,0 -2,1 -1,0zm-3 -1c3,0 1,0 2,1 -4,0 -1,0 -2,-1zm0 0l0 0zm-5 -5c9,0 28,7 34,7l-2 1c-5,2 -5,1 -14,-2l-17 -6c0,0 0,0 -1,0zm-237 0c-2,2 -4,1 -7,3 0,-2 -1,-2 2,-2 2,-1 3,-1 5,-1zm237 0l-2 0c1,-1 -2,-1 1,-1 2,0 1,0 1,1zm-182 11c-2,-2 -7,-5 -8,-8 5,-1 14,-6 22,-7 1,3 2,3 -3,6 -1,1 -2,1 -3,3l-8 6zm-55 -11c2,-1 -1,-1 2,-1 1,0 0,0 1,1l-3 0zm232 -2c0,0 4,1 1,1 0,0 0,0 0,0 -1,0 -2,1 -1,-1zm-228 0c1,0 4,2 1,1 -1,0 -2,1 -1,-1zm225 0c1,-1 3,1 1,0 0,0 -2,1 -1,0zm-221 0l0 0c0,0 0,0 0,0zm189 -3c4,0 23,4 26,5l-3 3c-4,-2 -14,-5 -20,-7l-3 -1c0,0 0,0 0,0zm-156 0c0,0 0,0 -1,0l-18 6c-3,1 -5,2 -7,2 0,-2 0,-1 -1,-2 -4,1 -6,3 -8,6 -3,0 -4,0 -7,0 -2,-1 -3,0 -6,0 1,-3 3,-2 11,-4 7,-2 31,-8 37,-8zm156 0l-3 0c1,-1 -2,-1 1,-1 2,0 1,0 2,1zm-156 0c1,-1 -2,-1 1,-1 2,0 1,0 2,1l-3 0zm150 -1c1,-1 3,1 1,0 0,0 -2,1 -1,0zm-145 0l0 0c0,0 0,0 0,0zm167 17c-3,-2 -2,-2 -5,-2 -1,0 -1,0 -2,-1 -5,-2 -13,-8 -29,-13 -1,0 -2,0 -3,-1 0,0 -1,0 -1,0 -2,-1 -1,-1 -2,-1 7,0 28,6 35,8 3,1 4,1 6,2 2,0 4,1 6,2 -2,3 -3,1 -5,6zm-135 -18c1,-1 4,1 1,0 0,0 -2,1 -1,0zm-58 17c0,-2 1,-2 -1,-4l-2 0c2,0 39,-13 50,-13l-21 8c-5,2 -2,-3 -8,3 -6,6 -9,7 -18,6zm149 -18l0 0c0,0 0,0 0,0zm-15 0c17,0 51,20 53,20 -1,3 -2,3 -9,2 -6,-1 -5,0 -10,2 -2,-3 -4,-5 -7,-6 1,-2 1,-2 2,-4 -5,-3 -4,-2 -9,-3 -6,-1 4,-2 -5,-3 -2,-1 -2,-1 -4,-2l-10 -6c0,0 -1,0 -1,0zm-70 1l-3 0c1,-1 -2,-1 1,-1 2,0 1,0 2,1zm-16 -1l0 0c0,0 0,0 0,0zm85 -1l0 1c0,0 0,-1 0,-1zm-45 0c3,-1 5,-2 9,-2 0,39 4,24 -16,37 -2,2 -4,4 -7,6 -3,1 -6,3 -7,6 8,0 1,-2 11,-4 4,-1 4,-4 11,-4 6,0 5,-1 8,-3l0 17c0,0 -1,1 -1,1 0,0 -1,0 -1,0 -2,2 -1,0 -3,5 -2,2 -1,0 -1,3 4,0 4,0 6,-2l0 9c-5,0 -3,-2 -7,1 -1,2 -1,1 -3,2 1,5 2,0 2,9l-42 0c0,-4 2,-9 2,-12 5,-20 8,-25 16,-43 4,-9 5,-3 8,-7 3,-3 0,-4 8,-6 4,-1 13,-1 9,-10l-2 -3zm-24 0l1 1c0,0 -1,-1 -1,-1zm51 -1c8,0 22,7 28,10 -3,5 -4,2 -9,4 -2,1 -3,2 -4,2 -1,-3 -14,-15 -15,-16zm-37 1c0,0 0,0 0,0 1,0 2,-2 5,0 -2,0 -2,0 -5,0zm21 312l35 -1c3,0 5,0 8,0 21,-2 47,-5 68,-9 17,-3 33,-7 49,-11 13,-4 32,-10 45,-16 15,-6 25,-11 40,-20 11,-6 26,-16 36,-25 41,-38 58,-85 22,-135 -5,-6 -12,-14 -17,-20l-13 -10c-31,-25 -54,-33 -89,-47l-35 -11c-79,-20 -179,-24 -260,-8 -30,6 -67,15 -94,27 -25,11 -36,16 -59,32 -3,2 -6,4 -9,6l-12 11c-2,1 -3,2 -4,4 -16,16 -32,41 -33,64 0,4 -1,4 -1,8l1 13c1,4 2,8 3,12 3,8 6,15 10,21 29,49 98,79 149,94 24,7 76,17 102,18 9,1 19,2 28,3 4,0 10,-1 15,0 4,0 9,0 15,0z"/>
   <path class="fil0" d="M407 201c-1,-3 0,-1 -2,-2 0,0 0,0 0,0 -1,1 -2,-1 -3,1 -2,1 -1,2 -1,5 0,1 -8,14 2,14 3,0 1,-1 4,-6 2,-5 -1,-1 3,-8l3 -6c2,1 1,1 3,2l0 -5c-7,-2 -3,1 -9,5z"/>
   <path class="fil0" d="M179 122c2,0 4,-1 5,-1 2,0 1,1 3,2l7 4c-2,3 -1,1 -1,3l11 0c-2,-4 0,-1 -6,-5 -3,-1 -14,-10 -19,-3z"/>
   <path class="fil0" d="M168 130l6 0c2,-3 3,-4 3,-7l-10 0c0,4 1,1 1,4 0,0 0,2 0,3z"/>
   <path class="fil0" d="M540 82l0 1c3,1 1,-1 2,2 4,0 2,-2 7,0 1,-2 -1,-2 3,-2 -3,-5 -4,-3 -10,-4 1,2 1,2 -2,3z"/>
   <path class="fil0" d="M545 121c0,3 7,6 7,0 0,-2 -3,-4 -5,-4 -1,1 -2,2 -2,4z"/>
   <path class="fil0" d="M530 130l5 0c-2,-3 -1,-3 -5,-3l0 3z"/>
   <path class="fil0" d="M350 91c1,-2 1,-1 1,-3l-4 0c0,2 1,3 3,3z"/>
  </g>
 </g>
</svg>
