<?xml version="1.0" encoding="utf-8"?>
<!-- Generator: Adobe Illustrator 22.0.0, SVG Export Plug-In . SVG Version: 6.00 Build 0)  -->
<svg version="1.1" id="Capa_1" xmlns="http://www.w3.org/2000/svg" xmlns:xlink="http://www.w3.org/1999/xlink" x="0px" y="0px"
	 viewBox="0 0 38 38" style="enable-background:new 0 0 38 38;" xml:space="preserve">
<style type="text/css">
	.st0{opacity:0.5;fill:#E2E2E2;enable-background:new    ;}
	.st1{fill:#333333;}
</style>
<g>
	<circle id="XMLID_2_" class="st0" cx="19" cy="19" r="19"/>
	<path id="XMLID_1_" class="st1" d="M30.3,13.2c-0.8,0.3-1.7,0.6-2.6,0.7c1-0.5,1.7-1.5,2-2.5c-0.8,0.5-1.9,0.9-3,1.1
		c-0.8-0.8-2-1.5-3.4-1.5c-2.5,0-4.6,2-4.6,4.5c0,0.3,0,0.7,0.1,1.1c-3.8-0.2-7.3-2-9.5-4.8c-0.4,0.6-0.6,1.5-0.6,2.3
		c0,1.6,0.8,3,2,3.8c-0.7,0-1.5-0.2-2.1-0.5c0,0,0,0,0,0.1c0,0.6,0.1,1.2,0.3,1.7c0.5,1.5,1.8,2.5,3.4,2.9c-0.4,0.1-0.8,0.2-1.3,0.2
		c-0.3,0-0.6,0-0.8-0.1c0.6,1.8,2.3,3.2,4.3,3.2c-1.6,1.3-3.6,1.9-5.7,1.9c-0.4,0-0.7,0-1.1-0.1c2,1.3,4.4,2,7.1,2
		c7.2,0,11.6-5,12.8-10.2c0.2-0.9,0.3-1.8,0.3-2.7c0-0.2,0-0.4,0-0.6C28.8,14.9,29.7,14.1,30.3,13.2z"/>
</g>
</svg>
