<?xml version="1.0" encoding="utf-8"?>
<!-- Generator: Adobe Illustrator 22.0.0, SVG Export Plug-In . SVG Version: 6.00 Build 0)  -->
<svg version="1.1" id="Capa_1" xmlns="http://www.w3.org/2000/svg" xmlns:xlink="http://www.w3.org/1999/xlink" x="0px" y="0px"
	 viewBox="0 0 52 52" style="enable-background:new 0 0 52 52;" xml:space="preserve">
<style type="text/css">
	.st0{fill:#E2E2E2;}
	.st1{fill:#DC5829;}
</style>
<g>
	<path id="XMLID_68_" class="st0" d="M52,26c0,14.359-11.64,26-25.999,26S0,40.359,0,26C0,11.641,11.642,0,26.001,0S52,11.641,52,26
		z"/>
	<path id="XMLID_67_" class="st1" d="M35.875,19.971c-0.726,0.318-1.506,0.531-2.327,0.627c0.837-0.493,1.479-1.275,1.782-2.207
		c-0.783,0.458-1.651,0.79-2.574,0.969c-0.738-0.775-1.791-1.26-2.956-1.26c-2.237,0-4.051,1.786-4.051,3.989
		c0,0.313,0.036,0.616,0.104,0.909c-3.367-0.166-6.353-1.755-8.351-4.168c-0.348,0.589-0.549,1.274-0.549,2.005
		c0,1.383,0.717,2.604,1.803,3.319c-0.663-0.021-1.289-0.2-1.835-0.499c0,0.017,0,0.034,0,0.05c0,0.511,0.1,0.997,0.277,1.446
		c0.495,1.251,1.609,2.196,2.974,2.467c-0.341,0.09-0.698,0.14-1.069,0.14c-0.26,0-0.514-0.025-0.762-0.073
		c0.517,1.584,2.013,2.738,3.785,2.77c-1.387,1.071-3.133,1.708-5.032,1.708c-0.328,0-0.649-0.019-0.968-0.056
		c1.795,1.131,3.925,1.792,6.212,1.792c6.334,0,10.227-4.388,11.253-8.94c0.182-0.804,0.276-1.615,0.276-2.408
		c0-0.172-0.003-0.345-0.011-0.516C34.646,21.473,35.333,20.771,35.875,19.971z"/>
</g>
<g>
</g>
<g>
</g>
<g>
</g>
<g>
</g>
<g>
</g>
<g>
</g>
<g>
</g>
<g>
</g>
<g>
</g>
<g>
</g>
<g>
</g>
<g>
</g>
<g>
</g>
<g>
</g>
<g>
</g>
</svg>
