<?xml version="1.0" encoding="utf-8"?>
<!-- Generator: Adobe Illustrator 22.0.0, SVG Export Plug-In . SVG Version: 6.00 Build 0)  -->
<svg version="1.1" id="Capa_1" xmlns="http://www.w3.org/2000/svg" xmlns:xlink="http://www.w3.org/1999/xlink" x="0px" y="0px"
	 viewBox="0 0 36 36" style="enable-background:new 0 0 36 36;" xml:space="preserve">
<style type="text/css">
	.st0{fill:#007B91;enable-background:new    ;}
	.st1{fill:#FFFFFF;}
</style>
<circle id="XMLID_2_" class="st0" cx="18" cy="18" r="18"/>
<path id="XMLID_1_" class="st1" d="M28.7,12.5c-0.8,0.3-1.6,0.6-2.5,0.7c0.9-0.5,1.6-1.4,1.9-2.4c-0.8,0.5-1.8,0.9-2.8,1
	c-0.8-0.8-1.9-1.4-3.2-1.4c-2.4,0-4.4,1.9-4.4,4.3c0,0.3,0,0.7,0.1,1c-3.6-0.2-6.9-1.9-9-4.5c-0.4,0.6-0.6,1.4-0.6,2.2
	c0,1.5,0.8,2.8,1.9,3.6c-0.7,0-1.4-0.2-2-0.5c0,0,0,0,0,0.1c0,0.6,0.1,1.1,0.3,1.6c0.5,1.4,1.7,2.4,3.2,2.7
	c-0.4,0.1-0.8,0.2-1.2,0.2c-0.3,0-0.6,0-0.8-0.1c0.6,1.7,2.2,3,4.1,3c-1.5,1.2-3.4,1.8-5.4,1.8c-0.4,0-0.7,0-1-0.1
	c1.9,1.2,4.2,1.9,6.7,1.9c6.8,0,11-4.7,12.1-9.7c0.2-0.9,0.3-1.7,0.3-2.6c0-0.2,0-0.4,0-0.6C27.3,14.1,28.1,13.4,28.7,12.5z"/>
</svg>
