<?xml version="1.0" encoding="utf-8"?>
<!-- Generator: Adobe Illustrator 22.0.0, SVG Export Plug-In . SVG Version: 6.00 Build 0)  -->
<svg version="1.1" id="Capa_1" xmlns="http://www.w3.org/2000/svg" xmlns:xlink="http://www.w3.org/1999/xlink" x="0px" y="0px"
	 viewBox="0 0 52 52" style="enable-background:new 0 0 52 52;" xml:space="preserve">
<style type="text/css">
	.st0{fill:#E2E2E2;}
	.st1{fill:#DC5829;}
</style>
<path id="XMLID_72_" class="st0" d="M52,26c0,14.36-11.64,26-26,26C11.64,52,0,40.36,0,26C0,11.641,11.64,0,26,0
	C40.36,0,52,11.641,52,26z"/>
<path class="st1" d="M36.591,21.493c0,0-0.211-1.554-0.858-2.238c-0.822-0.897-1.744-0.902-2.165-0.954
	c-3.027-0.227-7.563-0.227-7.563-0.227h-0.01c0,0-4.539,0-7.563,0.228c-0.422,0.051-1.343,0.057-2.166,0.954
	c-0.647,0.684-0.858,2.238-0.858,2.238s-0.217,1.823-0.217,3.648v0.22v1.489c0,1.825,0.217,3.649,0.217,3.649
	s0.211,1.553,0.858,2.237c0.824,0.898,1.905,0.869,2.384,0.963C20.38,33.872,26,33.926,26,33.926s4.542-0.008,7.569-0.235
	c0.421-0.053,1.342-0.057,2.165-0.955c0.647-0.683,0.858-2.237,0.858-2.237s0.217-1.823,0.217-3.649v-1.394v-0.315
	C36.808,23.317,36.591,21.493,36.591,21.493z M29.607,25.769l-5.838,3.154l-0.001-4.856l0-1.476l2.633,1.433L29.607,25.769z"/>
<g>
</g>
<g>
</g>
<g>
</g>
<g>
</g>
<g>
</g>
<g>
</g>
<g>
</g>
<g>
</g>
<g>
</g>
<g>
</g>
<g>
</g>
<g>
</g>
<g>
</g>
<g>
</g>
<g>
</g>
</svg>
