<?xml version="1.0" encoding="utf-8"?>
<!-- Generator: Adobe Illustrator 22.0.0, SVG Export Plug-In . SVG Version: 6.00 Build 0)  -->
<svg version="1.1" id="Capa_1" xmlns="http://www.w3.org/2000/svg" xmlns:xlink="http://www.w3.org/1999/xlink" x="0px" y="0px"
	 viewBox="0 0 38 38" style="enable-background:new 0 0 38 38;" xml:space="preserve">
<style type="text/css">
	.st0{opacity:0.5;fill:#E2E2E2;enable-background:new    ;}
	.st1{fill:#333333;}
</style>
<circle id="XMLID_6_" class="st0" cx="19" cy="19" r="19"/>
<path class="st1" d="M30,14.4c0,0-0.2-1.6-0.8-2.3c-0.8-0.9-1.8-0.9-2.2-0.9c-3.2-0.2-7.9-0.2-7.9-0.2l0,0c0,0-4.8,0-7.9,0.2
	c-0.4,0.1-1.4,0.1-2.2,0.9C8.2,12.8,8,14.4,8,14.4s-0.2,1.9-0.2,3.8v0.2V20c0,1.9,0.2,3.8,0.2,3.8s0.2,1.6,0.8,2.3
	c0.8,0.9,2,0.9,2.5,0.9c1.8,0.2,7.6,0.2,7.6,0.2s4.8,0,7.9-0.2c0.4-0.1,1.4-0.1,2.2-0.9c0.6-0.7,0.8-2.3,0.8-2.3s0.2-1.9,0.2-3.8
	v-1.5v-0.3C30.3,16.3,30,14.4,30,14.4z M22.8,18.8l-6.1,3.3V17v-1.6l2.7,1.5L22.8,18.8z"/>
</svg>
